<svg width="32" height="32" viewBox="0 0 32 32" fill="none" xmlns="http://www.w3.org/2000/svg">
<path d="M26.6667 10.6654H5.33332V7.9987H26.6667M26.6667 23.9987H5.33332V15.9987H26.6667M26.6667 5.33203H5.33332C3.85332 5.33203 2.66666 6.5187 2.66666 7.9987V23.9987C2.66666 24.7059 2.94761 25.3842 3.4477 25.8843C3.9478 26.3844 4.62608 26.6654 5.33332 26.6654H26.6667C27.3739 26.6654 28.0522 26.3844 28.5523 25.8843C29.0524 25.3842 29.3333 24.7059 29.3333 23.9987V7.9987C29.3333 6.5187 28.1333 5.33203 26.6667 5.33203ZM9.33332 29.332H12V31.9987H9.33332V29.332ZM14.6667 29.332H17.3333V31.9987H14.6667V29.332ZM20 29.332H22.6667V31.9987H20V29.332Z" fill="black"/>
</svg>
