<svg width="32" height="32" viewBox="0 0 32 32" fill="none" xmlns="http://www.w3.org/2000/svg">
<path d="M24 24.6654C25.1067 24.6654 26 23.772 26 22.6654C26 21.5587 25.1067 20.6654 24 20.6654C22.8933 20.6654 22 21.5587 22 22.6654C22 23.772 22.8933 24.6654 24 24.6654ZM26 12.6654H22.6667V15.9987H28.6133L26 12.6654ZM8.00001 24.6654C9.10668 24.6654 10 23.772 10 22.6654C10 21.5587 9.10668 20.6654 8.00001 20.6654C6.89334 20.6654 6.00001 21.5587 6.00001 22.6654C6.00001 23.772 6.89334 24.6654 8.00001 24.6654ZM26.6667 10.6654L30.6667 15.9987V22.6654H28C28 24.8787 26.2133 26.6654 24 26.6654C21.7867 26.6654 20 24.8787 20 22.6654H12C12 24.8787 10.2133 26.6654 8.00001 26.6654C5.78668 26.6654 4.00001 24.8787 4.00001 22.6654H1.33334V7.9987C1.33334 6.5187 2.52001 5.33203 4.00001 5.33203H22.6667V10.6654H26.6667ZM4.00001 7.9987V19.9987H5.01334C5.74668 19.1854 6.81334 18.6654 8.00001 18.6654C9.18668 18.6654 10.2533 19.1854 10.9867 19.9987H20V7.9987H4.00001ZM13.3333 9.33203L18 13.9987L13.3333 18.6654V15.332H6.66668V12.6654H13.3333V9.33203Z" fill="black"/>
</svg>
