<svg width="25" height="25" viewBox="0 0 25 25" fill="none" xmlns="http://www.w3.org/2000/svg">
<path d="M18.8854 12.5L20.1979 11.1875C20.6563 10.7292 21.2396 10.4792 21.875 10.4167V9.375L15.625 3.125H5.20833C4.05208 3.125 3.125 4.05208 3.125 5.20833V19.7917C3.125 20.9375 4.05208 21.875 5.20833 21.875H11.4583V19.9271L11.5938 19.7917H5.20833V5.20833H12.5V12.5H18.8854ZM14.5833 4.6875L20.3125 10.4167H14.5833V4.6875ZM19.9271 14.4062L22.0521 16.5312L15.6667 22.9167H13.5417V20.7917L19.9271 14.4062ZM23.8021 14.7812L22.7813 15.8021L20.6563 13.6771L21.6771 12.6562C21.875 12.4479 22.2188 12.4479 22.4271 12.6562L23.8021 14.0312C24.0104 14.2396 24.0104 14.5833 23.8021 14.7812Z" fill="black"/>
</svg>
