<svg width="25" height="25" viewBox="0 0 25 25" fill="none" xmlns="http://www.w3.org/2000/svg">
<path d="M17.7087 18.7487C18.2612 18.7487 18.7911 18.9682 19.1818 19.3589C19.5725 19.7496 19.792 20.2795 19.792 20.832C19.792 21.3846 19.5725 21.9145 19.1818 22.3052C18.7911 22.6959 18.2612 22.9154 17.7087 22.9154C16.5524 22.9154 15.6253 21.9779 15.6253 20.832C15.6253 19.6758 16.5524 18.7487 17.7087 18.7487ZM1.04199 2.08203H4.44824L5.42741 4.16536H20.8337C21.1099 4.16536 21.3749 4.27511 21.5702 4.47046C21.7656 4.66581 21.8753 4.93076 21.8753 5.20703C21.8753 5.38411 21.8232 5.5612 21.7503 5.72786L18.0212 12.4674C17.667 13.1029 16.9795 13.5404 16.1982 13.5404H8.43783L7.50033 15.2383L7.46908 15.3633C7.46908 15.4323 7.49651 15.4986 7.54535 15.5474C7.59419 15.5963 7.66043 15.6237 7.72949 15.6237H19.792V17.707H7.29199C6.13574 17.707 5.20866 16.7695 5.20866 15.6237C5.20866 15.2591 5.30241 14.9154 5.45866 14.6237L6.87533 12.0716L3.12533 4.16536H1.04199V2.08203ZM7.29199 18.7487C7.84453 18.7487 8.37443 18.9682 8.76513 19.3589C9.15583 19.7496 9.37533 20.2795 9.37533 20.832C9.37533 21.3846 9.15583 21.9145 8.76513 22.3052C8.37443 22.6959 7.84453 22.9154 7.29199 22.9154C6.13574 22.9154 5.20866 21.9779 5.20866 20.832C5.20866 19.6758 6.13574 18.7487 7.29199 18.7487ZM16.667 11.457L19.5628 6.2487H6.39616L8.85449 11.457H16.667Z" fill="white"/>
</svg>
