<svg width="50" height="50" viewBox="0 0 50 50" fill="none" xmlns="http://www.w3.org/2000/svg">
<path d="M18.6119 5.98005C20.4034 5.27334 22.3717 5.42088 24.265 5.3593C26.5925 5.2843 28.9655 5.13651 31.2322 5.76747C31.2322 5.07272 31.2322 4.37838 31.2322 3.68367C29.856 4.1778 28.3988 4.07738 26.9618 4.22172C25.265 4.39184 23.5736 4.59101 21.8861 4.83413C18.3646 5.34163 14.9401 6.44759 11.4405 7.08884C10.2319 7.3108 10.5248 9.25309 11.7276 9.2108C16.1503 9.05576 20.5653 8.74518 24.9928 8.85572C27.285 8.91305 29.6002 9.08726 31.871 9.39863C33.5196 9.62488 35.5353 9.79193 37.0036 10.6241C37.0898 9.96572 37.1757 9.30759 37.2619 8.64926C34.5812 9.1688 31.6988 9.01268 28.9765 9.23501C26.25 9.45822 23.5343 9.80172 20.805 10.0013C15.8536 10.3633 10.8864 10.557 6.04876 11.7708C4.67151 12.1168 5.27922 14.0717 6.62355 13.8544C18.3367 11.9578 30.1851 13.7841 41.9471 14.0347C41.9471 13.3143 41.9471 12.5944 41.9471 11.8743C35.6231 12.4995 29.2736 12.7363 22.9618 13.5064C16.3891 14.3084 9.87851 15.5481 3.28597 16.2014C3.38168 16.9085 3.47743 17.6156 3.57272 18.3233C6.64084 17.7207 9.86751 17.7626 12.981 17.5165C16.627 17.2285 20.2786 17.0888 23.9347 17.2124C30.7976 17.4439 37.6302 18.2528 44.5008 18.4326C44.4055 17.7254 44.3096 17.0183 44.2138 16.3106C37.1965 17.3038 30.0332 17.2022 22.9756 17.8512C16.2438 18.4697 9.52443 19.2685 2.92801 20.7799C1.70868 21.0596 2.02351 22.8718 3.21501 22.9019C6.50447 22.9846 9.79659 22.1838 13.0666 21.8896C16.8218 21.5516 20.5947 21.4116 24.3638 21.3559C27.9098 21.3038 31.4442 21.3618 34.9843 21.5858C38.5353 21.8102 42.5471 21.7752 45.9169 23.0051C45.9169 22.3108 45.9169 21.6161 45.9169 20.9215C44.349 21.4183 42.7168 21.2596 41.0957 21.238C39.2248 21.2136 37.3329 21.3718 35.4643 21.4555C31.6635 21.6254 27.8618 21.8018 24.0622 21.9921C20.1528 22.1884 16.2485 22.485 12.3433 22.7555C9.18984 22.9736 5.90159 22.9665 2.85726 23.9011C1.89684 24.196 1.75543 25.769 2.85726 25.9846C4.30784 26.2681 5.70018 26.1584 7.16438 26.023C9.01768 25.8517 10.9071 25.9446 12.7665 25.9285C16.772 25.8938 20.776 25.8576 24.7807 25.9779C28.7419 26.0964 32.6988 26.3458 36.6568 26.545C38.2078 26.623 39.738 26.6808 41.2894 26.6175C42.8941 26.5521 44.7962 26.3161 46.2966 27.0108C46.2966 26.3888 46.2966 25.7669 46.2966 25.1449C43.8232 26.4102 40.224 25.9744 37.5032 26.2157C33.6717 26.5555 29.8322 26.8094 25.9921 27.034C18.8438 27.4516 11.5965 27.8006 4.63026 29.5761C3.4613 29.8741 3.68797 31.7657 4.91763 31.6981C12.4177 31.2859 19.8837 31.309 27.387 31.1859C30.3403 31.1373 33.2918 31.0345 36.2458 31.0243C37.5851 31.02 38.9235 31.0487 40.2611 31.1227C41.4358 31.1871 44.5852 30.878 45.1895 32.1125C45.4047 31.5838 45.6198 31.0548 45.835 30.5255C38.6603 33.2565 30.8685 31.3601 23.4575 32.1885C20.4143 32.5282 17.3727 32.7231 14.3222 32.9977C11.6456 33.2391 8.75505 33.5568 6.40238 34.9552C5.76601 35.3337 5.63267 36.4801 6.40238 36.8209C10.4366 38.6071 16.2261 37.3658 20.3881 37.1087C24.0684 36.8808 27.7638 36.9209 31.4482 36.9662C34.7255 37.0058 38.6745 36.4556 41.802 37.5476C41.716 36.8894 41.6298 36.2311 41.5438 35.5729C39.6757 36.4674 36.4493 35.775 34.423 35.7923C31.4634 35.8176 28.5081 35.9439 25.5603 36.2063C20.2147 36.6827 14.9441 37.5329 9.68513 38.5911C8.4843 38.833 8.76318 40.7633 9.97193 40.7131C15.0201 40.5033 20.0895 40.6785 25.1435 40.5594C29.0909 40.4664 33.2716 40.0257 37.2078 40.4928C37.1121 39.7856 37.0163 39.0785 36.9208 38.3708C33.5423 39.0265 30.0576 38.8974 26.6435 39.2608C22.716 39.6789 18.7013 40.2037 14.8456 41.0683C13.6573 41.335 13.9155 43.2494 15.1323 43.1903C21.8056 42.8667 28.6014 41.8641 35.2619 42.8393C35.1757 42.1809 35.0897 41.5228 35.0036 40.8649C30.1807 43.3426 23.9928 43.0253 18.7747 44.1773C17.5139 44.4558 17.9115 46.2038 19.0617 46.2993C23.465 46.665 27.536 48.3453 31.8956 46.6755C33.1826 46.1824 32.6246 44.0928 31.3212 44.5919C27.2038 46.1692 23.2288 44.4848 19.0617 44.1389C19.1578 44.846 19.2532 45.5531 19.3488 46.2608C24.8053 45.0558 31.0431 45.3253 36.094 42.7299C36.8728 42.3299 36.7698 40.8923 35.8356 40.7557C28.9563 39.7488 22.0269 40.6958 15.1323 41.0299C15.2283 41.7371 15.324 42.4444 15.4193 43.1519C19.4511 42.2476 23.6598 41.6781 27.7763 41.3106C31.0163 41.0212 34.2905 41.0758 37.4948 40.4546C38.7936 40.2021 38.318 38.4641 37.2078 38.3326C33.2715 37.8653 29.0908 38.3059 25.1434 38.3992C20.0895 38.5181 15.0201 38.3429 9.97188 38.5526C10.0678 39.2598 10.1636 39.9671 10.2588 40.6746C16.1252 39.4941 22.0037 38.589 27.9772 38.1754C30.9258 37.9711 33.8858 37.9451 36.8399 37.9408C38.834 37.9378 40.7673 38.3325 42.634 37.4388C43.5463 37.002 43.1796 35.7447 42.3761 35.464C39.9505 34.6173 37.3765 34.8996 34.8533 34.8585C31.1646 34.7986 27.4763 34.7455 23.7869 34.8126C20.1159 34.8792 16.4573 35.2447 12.7914 35.4256C11.2437 35.502 8.92088 35.5876 7.49259 34.9553C7.49259 35.5773 7.49259 36.1992 7.49259 36.821C9.99305 35.3341 13.2463 35.2283 16.0711 35.0134C19.0805 34.7851 22.0712 34.4396 25.0747 34.1915C32.1807 33.6045 39.5293 35.2274 46.4091 32.6091C47.0906 32.3497 47.3819 31.6902 47.0548 31.0223C45.9329 28.7306 42.3816 29.1086 40.2611 28.9623C36.7968 28.7227 33.2955 28.8898 29.8288 28.9725C21.5151 29.1706 13.2295 29.0808 4.91759 29.5378C5.01334 30.2451 5.10868 30.9522 5.20476 31.6597C12.5181 29.7957 20.1334 29.5475 27.6331 29.0973C31.474 28.8666 35.3108 28.5792 39.1428 28.2286C41.9083 27.9753 44.8392 28.3137 47.3868 27.0109C48.071 26.6608 48.1143 25.4816 47.3868 25.145C45.1337 24.1023 42.5713 24.4183 40.1603 24.4995C36.1944 24.6322 32.1461 24.1372 28.1837 23.9517C23.903 23.7513 19.6245 23.7128 15.3396 23.745C13.3353 23.7601 11.3311 23.7824 9.32676 23.7905C7.38972 23.7981 5.3458 24.2757 3.43093 23.9011C3.43093 24.5956 3.43093 25.2901 3.43093 25.9846C6.79334 24.9521 10.5365 25.0424 14.0231 24.7989C17.9218 24.5271 21.8202 24.2538 25.7241 24.0725C29.5076 23.8964 33.2904 23.7082 37.0744 23.545C40.0913 23.4145 43.5867 23.9247 46.491 23.0052C47.553 22.669 47.4847 21.2846 46.491 20.9216C43.4082 19.7968 39.8643 19.7952 36.625 19.5423C32.806 19.244 28.9958 19.1639 25.1661 19.1871C21.3966 19.2102 17.6291 19.3714 13.8707 19.6623C10.34 19.9352 6.7513 20.8306 3.21488 20.7415C3.31059 21.4487 3.40655 22.156 3.50184 22.8635C10.4576 21.2694 17.537 20.5027 24.6338 19.8601C31.3418 19.2529 38.1136 19.3385 44.7881 18.3942C46.034 18.2179 45.6703 16.3027 44.5007 16.2722C37.3478 16.0854 30.2339 15.2646 23.0873 15.0234C19.437 14.9002 15.7788 15.1352 12.1416 15.4226C9.09763 15.663 6.00147 15.6503 2.9988 16.2399C1.81059 16.4732 2.07213 18.482 3.2858 18.3618C9.60397 17.7356 15.8522 16.6047 22.1433 15.771C28.7215 14.8992 35.3496 14.687 41.947 14.0348C43.3094 13.9002 43.3647 11.9046 41.947 11.8744C29.9668 11.6191 17.9797 9.83918 6.04863 11.7709C6.2403 12.4654 6.43176 13.16 6.62343 13.8545C11.7568 12.5658 17.0471 12.4622 22.2974 12.0482C25.0836 11.8282 27.8582 11.4725 30.6465 11.265C33.0355 11.0873 35.4795 11.1896 37.8361 10.7329C38.7732 10.5512 38.8669 9.1963 38.094 8.75826C34.8858 6.94055 30.1681 6.97634 26.5853 6.77551C21.6283 6.49747 16.6809 6.87634 11.7276 7.05055C11.8235 7.75788 11.9188 8.46497 12.015 9.17251C15.5189 8.53047 18.9421 7.47597 22.4602 6.91722C24.2159 6.63872 25.9915 6.47938 27.7594 6.30213C29.1511 6.16251 30.4692 6.24684 31.8068 5.76759C32.7794 5.41859 32.8912 3.98605 31.8068 3.6838C29.5591 3.05855 27.2257 3.10534 24.9131 3.17709C22.6413 3.24763 20.188 3.04842 18.0378 3.89659C16.7574 4.40159 17.3147 6.49147 18.6119 5.98005Z" fill="#244D89"/>
<path d="M18.6119 5.44109C20.4034 4.73434 22.3717 4.88192 24.265 4.82034C26.5925 4.74534 28.9655 4.59755 31.2322 5.22846C31.2322 4.53376 31.2322 3.83942 31.2322 3.14471C29.856 3.63884 28.3988 3.53842 26.9618 3.68271C25.265 3.85284 23.5736 4.05205 21.8861 4.29513C18.3646 4.80267 14.9401 5.90855 11.4405 6.5498C10.2319 6.77175 10.5248 8.71409 11.7276 8.6718C16.1503 8.51667 20.5653 8.20613 24.9928 8.31671C27.285 8.37405 29.6002 8.54821 31.871 8.85959C33.5196 9.0858 35.5353 9.25288 37.0036 10.085C37.0898 9.42667 37.1757 8.76851 37.2619 8.11021C34.5812 8.62971 31.6988 8.47363 28.9765 8.69596C26.25 8.91913 23.5343 9.26263 20.805 9.46221C15.8536 9.82426 10.8864 10.0179 6.04876 11.2318C4.67151 11.5777 5.27922 13.5326 6.62355 13.3153C18.3367 11.4188 30.1851 13.245 41.9471 13.4956C41.9471 12.7753 41.9471 12.0553 41.9471 11.3352C35.6231 11.9605 29.2736 12.1972 22.9618 12.9673C16.3891 13.7694 9.87851 15.009 3.28597 15.6623C3.38168 16.3695 3.47743 17.0765 3.57272 17.7843C6.64084 17.1817 9.86751 17.2235 12.981 16.9774C16.627 16.6894 20.2786 16.5498 23.9347 16.6733C30.7976 16.9048 37.6302 17.7138 44.5008 17.8935C44.4055 17.1863 44.3096 16.4793 44.2138 15.7715C37.1965 16.7648 30.0332 16.6632 22.9756 17.3121C16.2438 17.9307 9.52443 18.7294 2.92801 20.2408C1.70868 20.5205 2.02351 22.3328 3.21501 22.3628C6.50447 22.4455 9.79659 21.6447 13.0666 21.3506C16.8218 21.0126 20.5947 20.8725 24.3638 20.8168C27.9098 20.7648 31.4442 20.8227 34.9843 21.0467C38.5353 21.2711 42.5471 21.2362 45.9169 22.466C45.9169 21.7717 45.9169 21.077 45.9169 20.3825C44.349 20.8792 42.7168 20.7205 41.0957 20.699C39.2248 20.6746 37.3329 20.8327 35.4643 20.9164C31.6635 21.0863 27.8618 21.2628 24.0622 21.453C20.1528 21.6494 16.2485 21.946 12.3433 22.2165C9.18984 22.4345 5.90159 22.4274 2.85726 23.362C1.89684 23.6569 1.75543 25.2299 2.85726 25.4455C4.30784 25.7291 5.70018 25.6193 7.16438 25.484C9.01768 25.3126 10.9071 25.4055 12.7665 25.3894C16.772 25.3547 20.776 25.3185 24.7807 25.4388C28.7419 25.5573 32.6988 25.8067 36.6568 26.0059C38.2078 26.084 39.738 26.1417 41.2894 26.0785C42.8941 26.013 44.7962 25.777 46.2966 26.4718C46.2966 25.8498 46.2966 25.2279 46.2966 24.6059C43.8232 25.8712 40.224 25.4354 37.5032 25.6766C33.6717 26.0165 29.8322 26.2703 25.9921 26.4949C18.8438 26.9126 11.5965 27.2616 4.63026 29.037C3.4613 29.335 3.68797 31.2267 4.91763 31.159C12.4177 30.7468 19.8837 30.77 27.387 30.6468C30.3403 30.5982 33.2918 30.4953 36.2458 30.4852C37.5851 30.481 38.9235 30.5096 40.2611 30.5836C41.4358 30.648 44.5852 30.3389 45.1895 31.5735C45.4047 31.0448 45.6198 30.5158 45.835 29.9865C38.6603 32.7174 30.8685 30.821 23.4575 31.6495C20.4143 31.9891 17.3727 32.1841 14.3222 32.4587C11.6456 32.7001 8.75505 33.0178 6.40238 34.4162C5.76601 34.7947 5.63267 35.941 6.40238 36.2819C10.4366 38.0681 16.2261 36.8268 20.3881 36.5697C24.0684 36.3418 27.7638 36.3819 31.4482 36.4272C34.7255 36.4668 38.6745 35.9166 41.802 37.0085C41.716 36.3504 41.6298 35.692 41.5438 35.0339C39.6757 35.9284 36.4493 35.2359 34.423 35.2532C31.4634 35.2786 28.5081 35.4048 25.5603 35.6673C20.2147 36.1437 14.9441 36.9939 9.68513 38.052C8.4843 38.2939 8.76318 40.2242 9.97193 40.174C15.0201 39.9643 20.0895 40.1395 25.1435 40.0204C29.0909 39.9273 33.2716 39.4866 37.2078 39.9537C37.1121 39.2466 37.0163 38.5395 36.9208 37.8318C33.5423 38.4875 30.0576 38.3584 26.6435 38.7218C22.716 39.1398 18.7013 39.6647 14.8456 40.5293C13.6573 40.796 13.9155 42.7104 15.1323 42.6513C21.8056 42.3278 28.6014 41.3251 35.2619 42.3003C35.1757 41.6419 35.0897 40.9838 35.0036 40.3259C30.1807 42.8035 23.9928 42.4863 18.7747 43.6383C17.5139 43.9167 17.9115 45.6648 19.0617 45.7603C23.465 46.1259 27.536 47.8063 31.8956 46.1365C33.1826 45.6434 32.6246 43.5538 31.3212 44.0529C27.2038 45.6301 23.2288 43.9458 19.0617 43.5998C19.1578 44.307 19.2532 45.0141 19.3488 45.7218C24.8053 44.5167 31.0431 44.7863 36.094 42.1909C36.8728 41.7909 36.7698 40.3533 35.8356 40.2167C28.9563 39.2098 22.0269 40.1567 15.1323 40.4909C15.2283 41.198 15.324 41.9053 15.4193 42.6129C19.4511 41.7086 23.6598 41.1391 27.7763 40.7716C31.0163 40.4822 34.2905 40.5368 37.4948 39.9155C38.7936 39.6631 38.318 37.925 37.2078 37.7935C33.2715 37.3263 29.0908 37.7669 25.1434 37.8602C20.0895 37.9791 15.0201 37.8039 9.97188 38.0136C10.0678 38.7208 10.1636 39.428 10.2588 40.1356C16.1252 38.9551 22.0037 38.05 27.9772 37.6364C30.9258 37.4321 33.8858 37.4061 36.8399 37.4018C38.834 37.3988 40.7673 37.7935 42.634 36.8998C43.5463 36.463 43.1796 35.2057 42.3761 34.925C39.9505 34.0783 37.3765 34.3605 34.8533 34.3195C31.1646 34.2595 27.4763 34.2065 23.7869 34.2735C20.1159 34.3403 16.4573 34.7057 12.7914 34.8866C11.2437 34.963 8.92088 35.0485 7.49259 34.4163C7.49259 35.0382 7.49259 35.6602 7.49259 36.2819C9.99305 34.7951 13.2463 34.6893 16.0711 34.4744C19.0805 34.2461 22.0712 33.9006 25.0747 33.6524C32.1807 33.0655 39.5293 34.6884 46.4091 32.0701C47.0906 31.8108 47.3819 31.1512 47.0548 30.4833C45.9329 28.1916 42.3816 28.5697 40.2611 28.4233C36.7968 28.1837 33.2955 28.3508 29.8288 28.4335C21.5151 28.6317 13.2295 28.5419 4.91759 28.9988C5.01334 29.7061 5.10868 30.4132 5.20476 31.1208C12.5181 29.2567 20.1334 29.0085 27.6331 28.5583C31.474 28.3276 35.3108 28.0402 39.1428 27.6896C41.9083 27.4363 44.8392 27.7748 47.3868 26.4719C48.071 26.1219 48.1143 24.9426 47.3868 24.606C45.1337 23.5633 42.5713 23.8794 40.1603 23.9605C36.1944 24.0932 32.1461 23.5983 28.1837 23.4127C23.903 23.2123 19.6245 23.1739 15.3396 23.206C13.3353 23.2211 11.3311 23.2434 9.32676 23.2515C7.38972 23.2591 5.3458 23.7367 3.43093 23.3621C3.43093 24.0566 3.43093 24.7511 3.43093 25.4457C6.79334 24.4131 10.5365 24.5034 14.0231 24.2599C17.9218 23.9881 21.8202 23.7148 25.7241 23.5334C29.5076 23.3574 33.2904 23.1692 37.0744 23.006C40.0913 22.8755 43.5867 23.3857 46.491 22.4662C47.553 22.13 47.4847 20.7456 46.491 20.3826C43.4082 19.2578 39.8643 19.2562 36.625 19.0033C32.806 18.7049 28.9958 18.6249 25.1661 18.648C21.3966 18.6712 17.6291 18.8324 13.8707 19.1232C10.3401 19.3961 6.75143 20.2915 3.21501 20.2024C3.31072 20.9095 3.40668 21.6168 3.50197 22.3244C10.4578 20.7303 17.5371 19.9636 24.6339 19.3209C31.342 18.7138 38.1138 18.7994 44.7882 17.855C46.0342 17.6788 45.6704 15.7635 44.5008 15.7331C37.3479 15.5463 30.234 14.7255 23.0874 14.4843C19.4371 14.3611 15.779 14.5961 12.1417 14.8835C9.09776 15.124 6.00159 15.1111 2.99893 15.7008C1.81072 15.9341 2.07226 17.9429 3.28593 17.8228C9.60409 17.1965 15.8523 16.0656 22.1434 15.2319C28.7216 14.3601 35.3497 14.1479 41.9471 13.4957C43.3096 13.3611 43.3648 11.3655 41.9471 11.3353C29.9669 11.08 17.9798 9.30009 6.04876 11.2318C6.24043 11.9264 6.43188 12.6209 6.62355 13.3154C11.757 12.0268 17.0473 11.9231 22.2975 11.5091C25.0838 11.2892 27.8583 10.9335 30.6466 10.726C33.0357 10.5483 35.4796 10.6505 37.8362 10.1938C38.7733 10.0121 38.8671 8.65721 38.0941 8.21921C34.8859 6.40151 30.1682 6.43725 26.5854 6.23646C21.6284 5.95838 16.681 6.3373 11.7277 6.51151C11.8236 7.21884 11.919 7.92592 12.0151 8.63346C15.519 7.99138 18.9422 6.93688 22.4603 6.37813C24.216 6.09967 25.9916 5.94034 27.7596 5.76309C29.1513 5.62346 30.4693 5.7078 31.807 5.2285C32.7795 4.8795 32.8913 3.44696 31.807 3.14476C29.5592 2.51951 27.2258 2.56626 24.9132 2.63805C22.6414 2.70855 20.1881 2.50938 18.0379 3.35755C16.7574 3.86259 17.3147 5.95246 18.6119 5.44109Z" fill="#244D89"/>
<path d="M21.6536 36.7776V25.9226H18.0586V21.7225H21.6536V17.9656C21.6536 17.9656 21.8151 13.6032 26.0566 13.0781H30.3376V16.9558H27.5912C27.5912 16.9558 26.1372 16.9154 26.016 18.6522V21.7622H30.2571L29.6916 25.9226H26.016L26.0115 36.7845L21.6536 36.7776Z" fill="white"/>
</svg>
