<svg width="28" height="28" viewBox="0 0 28 28" fill="none" xmlns="http://www.w3.org/2000/svg">
<path d="M9.98702 2.59626C11.0424 2.17038 12.2019 2.25929 13.3172 2.22218C14.6883 2.17699 16.0862 2.08793 17.4215 2.46815C17.4215 2.04948 17.4215 1.63106 17.4215 1.21242C16.6108 1.51019 15.7524 1.44968 14.9059 1.53665C13.9063 1.63917 12.9099 1.7592 11.9159 1.90571C9.84132 2.21154 7.824 2.87801 5.7624 3.26444C5.05046 3.3982 5.22299 4.56866 5.93157 4.54317C8.53692 4.44974 11.1378 4.26258 13.746 4.32919C15.0963 4.36374 16.4602 4.46873 17.7979 4.65637C18.769 4.79271 19.9564 4.89337 20.8214 5.39485C20.8722 4.9981 20.9228 4.6015 20.9736 4.20478C19.3944 4.51786 17.6964 4.42378 16.0927 4.55776C14.4866 4.69227 12.8868 4.89927 11.279 5.01955C8.36211 5.23769 5.43602 5.3544 2.58619 6.08588C1.77486 6.29436 2.13286 7.47243 2.9248 7.34149C9.82492 6.1986 16.8047 7.29913 23.7336 7.45014C23.7336 7.01605 23.7336 6.58221 23.7336 6.14825C20.0082 6.52502 16.2677 6.66771 12.5495 7.1318C8.67762 7.6151 4.84226 8.36218 0.958653 8.75584C1.01503 9.18197 1.07144 9.60809 1.12758 10.0346C2.93498 9.67142 4.83578 9.69665 6.6699 9.54833C8.81772 9.37478 10.9689 9.29061 13.1227 9.36509C17.1655 9.50462 21.1906 9.99209 25.238 10.1004C25.1818 9.67423 25.1253 9.24813 25.0689 8.82162C20.935 9.4202 16.7152 9.35896 12.5576 9.75006C8.59203 10.1228 4.63368 10.6041 0.747783 11.5149C0.0294838 11.6835 0.214949 12.7756 0.916852 12.7937C2.85464 12.8435 4.79401 12.361 6.72031 12.1837C8.93252 11.98 11.1551 11.8956 13.3754 11.862C15.4643 11.8307 17.5464 11.8656 19.6319 12.0006C21.7237 12.1358 24.0871 12.1147 26.0722 12.8559C26.0722 12.4375 26.0722 12.0188 26.0722 11.6003C25.1485 11.8997 24.1871 11.804 23.2321 11.791C22.1299 11.7763 21.0154 11.8716 19.9147 11.9221C17.6756 12.0245 15.4361 12.1308 13.1977 12.2454C10.8948 12.3637 8.59475 12.5425 6.29428 12.7055C4.43658 12.8369 2.4995 12.8326 0.706105 13.3958C0.140331 13.5735 0.0570238 14.5215 0.706105 14.6514C1.56063 14.8223 2.38084 14.7561 3.2434 14.6745C4.33515 14.5713 5.44822 14.6273 6.54356 14.6176C8.90317 14.5967 11.2619 14.5749 13.621 14.6474C15.9545 14.7188 18.2855 14.869 20.6171 14.9891C21.5308 15.0361 22.4322 15.0709 23.3461 15.0328C24.2915 14.9934 25.412 14.8512 26.2959 15.2698C26.2959 14.895 26.2959 14.5202 26.2959 14.1454C24.8388 14.9079 22.7185 14.6453 21.1157 14.7907C18.8586 14.9954 16.5968 15.1484 14.3346 15.2838C10.1237 15.5355 5.85435 15.7458 1.75056 16.8157C1.06194 16.9953 1.19547 18.1352 1.91985 18.0944C6.33809 17.8461 10.7362 17.86 15.1564 17.7858C16.8961 17.7565 18.6348 17.6945 20.375 17.6884C21.164 17.6858 21.9525 17.7031 22.7404 17.7477C23.4324 17.7865 25.2877 17.6002 25.6437 18.3442C25.7705 18.0256 25.8971 17.7068 26.0239 17.3878C21.7974 19.0336 17.2073 17.8908 12.8415 18.39C11.0488 18.5947 9.25702 18.7121 7.46002 18.8776C5.88321 19.0231 4.18044 19.2146 2.79451 20.0573C2.41962 20.2853 2.34108 20.9762 2.79451 21.1816C5.17103 22.258 8.58157 21.5099 11.0334 21.355C13.2014 21.2177 15.3783 21.2418 17.5488 21.2691C19.4794 21.293 21.8057 20.9615 23.6481 21.6195C23.5975 21.2228 23.5467 20.8261 23.496 20.4295C22.3956 20.9686 20.4949 20.5513 19.3012 20.5617C17.5578 20.577 15.8168 20.6531 14.0803 20.8112C10.9312 21.0983 7.82638 21.6106 4.72835 22.2483C4.02095 22.3941 4.18523 23.5573 4.8973 23.5271C7.87115 23.4007 10.8575 23.5062 13.8347 23.4345C16.1601 23.3784 18.6229 23.1128 20.9417 23.3943C20.8853 22.9682 20.8289 22.542 20.7727 22.1155C18.7824 22.5107 16.7296 22.4329 14.7184 22.6519C12.4047 22.9038 10.0397 23.2201 7.76833 23.7412C7.06834 23.9019 7.22043 25.0555 7.93725 25.0199C11.8684 24.8249 15.8718 24.2207 19.7954 24.8084C19.7446 24.4116 19.694 24.015 19.6432 23.6186C16.8021 25.1117 13.1569 24.9204 10.0829 25.6147C9.3402 25.7825 9.57441 26.8359 10.252 26.8934C12.8459 27.1138 15.2441 28.1264 17.8123 27.1202C18.5705 26.823 18.2418 25.5637 17.474 25.8645C15.0485 26.815 12.7068 25.8 10.252 25.5915C10.3086 26.0177 10.3648 26.4438 10.4212 26.8703C13.6355 26.1441 17.3101 26.3065 20.2856 24.7425C20.7444 24.5014 20.6837 23.6351 20.1334 23.5528C16.0808 22.946 11.9988 23.5166 7.93723 23.718C7.99376 24.1441 8.05016 24.5704 8.1063 24.9967C10.4814 24.4518 12.9607 24.1086 15.3857 23.8872C17.2943 23.7128 19.2231 23.7457 21.1108 23.3713C21.8759 23.2191 21.5957 22.1718 20.9417 22.0925C18.6229 21.8109 16.1601 22.0765 13.8347 22.1327C10.8575 22.2043 7.87113 22.0987 4.89727 22.2251C4.95377 22.6513 5.01018 23.0775 5.06632 23.5039C8.52212 22.7925 11.9851 22.2471 15.504 21.9978C17.241 21.8747 18.9847 21.859 20.725 21.8565C21.8997 21.8546 23.0386 22.0925 24.1383 21.5539C24.6757 21.2907 24.4597 20.533 23.9863 20.3639C22.5574 19.8536 21.0411 20.0237 19.5547 19.999C17.3817 19.9629 15.209 19.9309 13.0356 19.9713C10.873 20.0115 8.7178 20.2317 6.55824 20.3407C5.64647 20.3868 4.27814 20.4384 3.43674 20.0573C3.43674 20.4321 3.43674 20.8069 3.43674 21.1816C4.90974 20.2856 6.82623 20.2218 8.49029 20.0923C10.2631 19.9548 12.0249 19.7466 13.7942 19.597C17.9803 19.2433 22.3093 20.2213 26.3622 18.6435C26.7636 18.4871 26.9352 18.0897 26.7425 17.6872C26.0816 16.3062 23.9896 16.534 22.7404 16.4458C20.6996 16.3014 18.637 16.4021 16.5948 16.452C11.6973 16.5714 6.81629 16.5172 1.91983 16.7926C1.97624 17.2189 2.0324 17.645 2.089 18.0713C6.39722 16.948 10.8833 16.7985 15.3013 16.5272C17.564 16.3881 19.8242 16.2149 22.0816 16.0037C23.7107 15.8511 25.4373 16.055 26.9381 15.2699C27.3411 15.0589 27.3666 14.3483 26.9381 14.1454C25.6108 13.5171 24.1013 13.7075 22.681 13.7564C20.3447 13.8364 17.9599 13.5381 15.6257 13.4263C13.104 13.3056 10.5835 13.2824 8.05937 13.3018C6.87866 13.3108 5.69794 13.3243 4.51723 13.3292C3.37614 13.3337 2.17208 13.6216 1.04405 13.3958C1.04405 13.8144 1.04405 14.2329 1.04405 14.6514C3.02482 14.0292 5.22989 14.0836 7.28383 13.9369C9.58048 13.7731 11.877 13.6084 14.1768 13.4991C16.4056 13.393 18.634 13.2796 20.8632 13.1813C22.6404 13.1026 24.6995 13.41 26.4104 12.8559C27.036 12.6534 26.9958 11.8191 26.4104 11.6003C24.5943 10.9225 22.5066 10.9215 20.5984 10.7692C18.3487 10.5894 16.1041 10.5411 13.8481 10.5551C11.6274 10.569 9.40804 10.6661 7.19402 10.8414C5.11411 11.0059 3.00005 11.5455 0.916779 11.4918C0.97316 11.918 1.02969 12.3442 1.08582 12.7706C5.18342 11.8099 9.3538 11.3479 13.5345 10.9606C17.4861 10.5948 21.4753 10.6463 25.4072 10.0773C26.1412 9.97105 25.9269 8.81688 25.2379 8.7985C21.0242 8.68593 16.8334 8.19133 12.6234 8.04595C10.4731 7.97173 8.3181 8.11332 6.17543 8.28652C4.38226 8.4314 2.55833 8.42372 0.789486 8.77904C0.0895219 8.91965 0.243594 10.1302 0.958555 10.0578C4.68053 9.68038 8.3613 8.99889 12.0674 8.49646C15.9425 7.97113 19.847 7.84325 23.7335 7.45019C24.5361 7.36911 24.5687 6.16653 23.7335 6.1483C16.6761 5.99446 9.61459 4.92185 2.58612 6.08593C2.69903 6.50448 2.81181 6.92302 2.92472 7.34154C5.94877 6.56499 9.06524 6.50252 12.1581 6.25303C13.7995 6.12048 15.434 5.90612 17.0765 5.78108C18.4839 5.67402 19.9236 5.73566 21.3118 5.46041C21.8639 5.35091 21.9191 4.53444 21.4638 4.27046C19.5738 3.17508 16.7947 3.19665 14.6841 3.07562C11.764 2.90807 8.84949 3.13638 5.93152 3.24136C5.98805 3.66762 6.04421 4.09372 6.10083 4.5201C8.16496 4.13319 10.1815 3.49773 12.254 3.16102C13.2883 2.99319 14.3343 2.89717 15.3758 2.79035C16.1956 2.70621 16.9721 2.75703 17.7601 2.46823C18.333 2.25791 18.3988 1.39464 17.7601 1.21249C16.4359 0.835706 15.0613 0.863904 13.699 0.907142C12.3607 0.949651 10.9155 0.829604 9.64881 1.34073C8.89458 1.64505 9.22287 2.90445 9.98702 2.59626Z" fill="#191918"/>
<path d="M9.98702 2.59626C11.0424 2.17038 12.2019 2.25929 13.3172 2.22218C14.6883 2.17699 16.0862 2.08793 17.4215 2.46815C17.4215 2.04948 17.4215 1.63106 17.4215 1.21242C16.6108 1.51019 15.7524 1.44968 14.9059 1.53665C13.9063 1.63917 12.9099 1.7592 11.9159 1.90571C9.84132 2.21154 7.824 2.87801 5.7624 3.26444C5.05046 3.3982 5.22299 4.56866 5.93157 4.54317C8.53692 4.44974 11.1378 4.26258 13.746 4.32919C15.0963 4.36374 16.4602 4.46873 17.7979 4.65637C18.769 4.79271 19.9564 4.89337 20.8214 5.39485C20.8722 4.9981 20.9228 4.6015 20.9736 4.20478C19.3944 4.51786 17.6964 4.42378 16.0927 4.55776C14.4866 4.69227 12.8868 4.89927 11.279 5.01955C8.36211 5.23769 5.43602 5.3544 2.58619 6.08588C1.77486 6.29436 2.13286 7.47243 2.9248 7.34149C9.82492 6.1986 16.8047 7.29913 23.7336 7.45014C23.7336 7.01605 23.7336 6.58221 23.7336 6.14825C20.0082 6.52502 16.2677 6.66771 12.5495 7.1318C8.67762 7.6151 4.84226 8.36218 0.958653 8.75584C1.01503 9.18197 1.07144 9.60809 1.12758 10.0346C2.93498 9.67142 4.83578 9.69665 6.6699 9.54833C8.81772 9.37478 10.9689 9.29061 13.1227 9.36509C17.1655 9.50462 21.1906 9.99209 25.238 10.1004C25.1818 9.67423 25.1253 9.24813 25.0689 8.82162C20.935 9.4202 16.7152 9.35896 12.5576 9.75006C8.59203 10.1228 4.63368 10.6041 0.747783 11.5149C0.0294838 11.6835 0.214949 12.7756 0.916852 12.7937C2.85464 12.8435 4.79401 12.361 6.72031 12.1837C8.93252 11.98 11.1551 11.8956 13.3754 11.862C15.4643 11.8307 17.5464 11.8656 19.6319 12.0006C21.7237 12.1358 24.0871 12.1147 26.0722 12.8559C26.0722 12.4375 26.0722 12.0188 26.0722 11.6003C25.1485 11.8997 24.1871 11.804 23.2321 11.791C22.1299 11.7763 21.0154 11.8716 19.9147 11.9221C17.6756 12.0245 15.4361 12.1308 13.1977 12.2454C10.8948 12.3637 8.59475 12.5425 6.29428 12.7055C4.43658 12.8369 2.4995 12.8326 0.706105 13.3958C0.140331 13.5735 0.0570238 14.5215 0.706105 14.6514C1.56063 14.8223 2.38084 14.7561 3.2434 14.6745C4.33515 14.5713 5.44822 14.6273 6.54356 14.6176C8.90317 14.5967 11.2619 14.5749 13.621 14.6474C15.9545 14.7188 18.2855 14.869 20.6171 14.9891C21.5308 15.0361 22.4322 15.0709 23.3461 15.0328C24.2915 14.9934 25.412 14.8512 26.2959 15.2698C26.2959 14.895 26.2959 14.5202 26.2959 14.1454C24.8388 14.9079 22.7185 14.6453 21.1157 14.7907C18.8586 14.9954 16.5968 15.1484 14.3346 15.2838C10.1237 15.5355 5.85435 15.7458 1.75056 16.8157C1.06194 16.9953 1.19547 18.1352 1.91985 18.0944C6.33809 17.8461 10.7362 17.86 15.1564 17.7858C16.8961 17.7565 18.6348 17.6945 20.375 17.6884C21.164 17.6858 21.9525 17.7031 22.7404 17.7477C23.4324 17.7865 25.2877 17.6002 25.6437 18.3442C25.7705 18.0256 25.8971 17.7068 26.0239 17.3878C21.7974 19.0336 17.2073 17.8908 12.8415 18.39C11.0488 18.5947 9.25702 18.7121 7.46002 18.8776C5.88321 19.0231 4.18044 19.2146 2.79451 20.0573C2.41962 20.2853 2.34108 20.9762 2.79451 21.1816C5.17103 22.258 8.58157 21.5099 11.0334 21.355C13.2014 21.2177 15.3783 21.2418 17.5488 21.2691C19.4794 21.293 21.8057 20.9615 23.6481 21.6195C23.5975 21.2228 23.5467 20.8261 23.496 20.4295C22.3956 20.9686 20.4949 20.5513 19.3012 20.5617C17.5578 20.577 15.8168 20.6531 14.0803 20.8112C10.9312 21.0983 7.82638 21.6106 4.72835 22.2483C4.02095 22.3941 4.18523 23.5573 4.8973 23.5271C7.87115 23.4007 10.8575 23.5062 13.8347 23.4345C16.1601 23.3784 18.6229 23.1128 20.9417 23.3943C20.8853 22.9682 20.8289 22.542 20.7727 22.1155C18.7824 22.5107 16.7296 22.4329 14.7184 22.6519C12.4047 22.9038 10.0397 23.2201 7.76833 23.7412C7.06834 23.9019 7.22043 25.0555 7.93725 25.0199C11.8684 24.8249 15.8718 24.2207 19.7954 24.8084C19.7446 24.4116 19.694 24.015 19.6432 23.6186C16.8021 25.1117 13.1569 24.9204 10.0829 25.6147C9.3402 25.7825 9.57441 26.8359 10.252 26.8934C12.8459 27.1138 15.2441 28.1264 17.8123 27.1202C18.5705 26.823 18.2418 25.5637 17.474 25.8645C15.0485 26.815 12.7068 25.8 10.252 25.5915C10.3086 26.0177 10.3648 26.4438 10.4212 26.8703C13.6355 26.1441 17.3101 26.3065 20.2856 24.7425C20.7444 24.5014 20.6837 23.6351 20.1334 23.5528C16.0808 22.946 11.9988 23.5166 7.93723 23.718C7.99376 24.1441 8.05016 24.5704 8.1063 24.9967C10.4814 24.4518 12.9607 24.1086 15.3857 23.8872C17.2943 23.7128 19.2231 23.7457 21.1108 23.3713C21.8759 23.2191 21.5957 22.1718 20.9417 22.0925C18.6229 21.8109 16.1601 22.0765 13.8347 22.1327C10.8575 22.2043 7.87113 22.0987 4.89727 22.2251C4.95377 22.6513 5.01018 23.0775 5.06632 23.5039C8.52212 22.7925 11.9851 22.2471 15.504 21.9978C17.241 21.8747 18.9847 21.859 20.725 21.8565C21.8997 21.8546 23.0386 22.0925 24.1383 21.5539C24.6757 21.2907 24.4597 20.533 23.9863 20.3639C22.5574 19.8536 21.0411 20.0237 19.5547 19.999C17.3817 19.9629 15.209 19.9309 13.0356 19.9713C10.873 20.0115 8.7178 20.2317 6.55824 20.3407C5.64647 20.3868 4.27814 20.4384 3.43674 20.0573C3.43674 20.4321 3.43674 20.8069 3.43674 21.1816C4.90974 20.2856 6.82623 20.2218 8.49029 20.0923C10.2631 19.9548 12.0249 19.7466 13.7942 19.597C17.9803 19.2433 22.3093 20.2213 26.3622 18.6435C26.7636 18.4871 26.9352 18.0897 26.7425 17.6872C26.0816 16.3062 23.9896 16.534 22.7404 16.4458C20.6996 16.3014 18.637 16.4021 16.5948 16.452C11.6973 16.5714 6.81629 16.5172 1.91983 16.7926C1.97624 17.2189 2.0324 17.645 2.089 18.0713C6.39722 16.948 10.8833 16.7985 15.3013 16.5272C17.564 16.3881 19.8242 16.2149 22.0816 16.0037C23.7107 15.8511 25.4373 16.055 26.9381 15.2699C27.3411 15.0589 27.3666 14.3483 26.9381 14.1454C25.6108 13.5171 24.1013 13.7075 22.681 13.7564C20.3447 13.8364 17.9599 13.5381 15.6257 13.4263C13.104 13.3056 10.5835 13.2824 8.05937 13.3018C6.87866 13.3108 5.69794 13.3243 4.51723 13.3292C3.37614 13.3337 2.17208 13.6216 1.04405 13.3958C1.04405 13.8144 1.04405 14.2329 1.04405 14.6514C3.02482 14.0292 5.22989 14.0836 7.28383 13.9369C9.58048 13.7731 11.877 13.6084 14.1768 13.4991C16.4056 13.393 18.634 13.2796 20.8632 13.1813C22.6404 13.1026 24.6995 13.41 26.4104 12.8559C27.036 12.6534 26.9958 11.8191 26.4104 11.6003C24.5943 10.9225 22.5066 10.9215 20.5984 10.7692C18.3487 10.5894 16.1041 10.5411 13.8481 10.5551C11.6274 10.569 9.40804 10.6661 7.19402 10.8414C5.11411 11.0059 3.00005 11.5455 0.916779 11.4918C0.97316 11.918 1.02969 12.3442 1.08582 12.7706C5.18342 11.8099 9.3538 11.3479 13.5345 10.9606C17.4861 10.5948 21.4753 10.6463 25.4072 10.0773C26.1412 9.97105 25.9269 8.81688 25.2379 8.7985C21.0242 8.68593 16.8334 8.19133 12.6234 8.04595C10.4731 7.97173 8.3181 8.11332 6.17543 8.28652C4.38226 8.4314 2.55833 8.42372 0.789486 8.77904C0.0895219 8.91965 0.243594 10.1302 0.958555 10.0578C4.68053 9.68038 8.3613 8.99889 12.0674 8.49646C15.9425 7.97113 19.847 7.84325 23.7335 7.45019C24.5361 7.36911 24.5687 6.16653 23.7335 6.1483C16.6761 5.99446 9.61459 4.92185 2.58612 6.08593C2.69903 6.50448 2.81181 6.92302 2.92472 7.34154C5.94877 6.56499 9.06524 6.50252 12.1581 6.25303C13.7995 6.12048 15.434 5.90612 17.0765 5.78108C18.4839 5.67402 19.9236 5.73566 21.3118 5.46041C21.8639 5.35091 21.9191 4.53444 21.4638 4.27046C19.5738 3.17508 16.7947 3.19665 14.6841 3.07562C11.764 2.90807 8.84949 3.13638 5.93152 3.24136C5.98805 3.66762 6.04421 4.09372 6.10083 4.5201C8.16496 4.13319 10.1815 3.49773 12.254 3.16102C13.2883 2.99319 14.3343 2.89717 15.3758 2.79035C16.1956 2.70621 16.9721 2.75703 17.7601 2.46823C18.333 2.25791 18.3988 1.39464 17.7601 1.21249C16.4359 0.835706 15.0613 0.863904 13.699 0.907142C12.3607 0.949651 10.9155 0.829604 9.64881 1.34073C8.89458 1.64505 9.22287 2.90445 9.98702 2.59626Z" fill="black" fill-opacity="0.2"/>
<path d="M9.98702 2.2721C11.0424 1.8462 12.2019 1.93514 13.3172 1.89803C14.6883 1.85283 16.0862 1.76377 17.4215 2.14397C17.4215 1.72533 17.4215 1.30691 17.4215 0.888261C16.6108 1.18603 15.7524 1.12552 14.9059 1.21247C13.9063 1.31499 12.9099 1.43504 11.9159 1.58152C9.84132 1.88738 7.824 2.5538 5.7624 2.94023C5.05046 3.07399 5.22299 4.24448 5.93157 4.21899C8.53692 4.12551 11.1378 3.93837 13.746 4.00501C15.0963 4.03956 16.4602 4.14452 17.7979 4.33216C18.769 4.46848 19.9564 4.56916 20.8214 5.07062C20.8722 4.67389 20.9228 4.27727 20.9736 3.88057C19.3944 4.19363 17.6964 4.09957 16.0927 4.23355C14.4866 4.36804 12.8868 4.57504 11.279 4.69531C8.36211 4.91349 5.43602 5.03019 2.58619 5.76167C1.77486 5.97015 2.13286 7.1482 2.9248 7.01728C9.82492 5.87436 16.8047 6.9749 23.7336 7.12593C23.7336 6.69184 23.7336 6.25798 23.7336 5.82402C20.0082 6.20081 16.2677 6.34348 12.5495 6.80757C8.67762 7.2909 4.84226 8.03794 0.958653 8.43163C1.01503 8.85776 1.07144 9.28386 1.12758 9.71036C2.93498 9.34721 4.83578 9.37242 6.6699 9.2241C8.81772 9.05054 10.9689 8.9664 13.1227 9.04088C17.1655 9.18038 21.1906 9.66788 25.238 9.77615C25.1818 9.35002 25.1253 8.92392 25.0689 8.49741C20.935 9.09599 16.7152 9.03475 12.5576 9.42583C8.59203 9.79857 4.63368 10.2799 0.747783 11.1907C0.0294838 11.3593 0.214949 12.4514 0.916852 12.4695C2.85464 12.5193 4.79401 12.0367 6.72031 11.8595C8.93252 11.6558 11.1551 11.5714 13.3754 11.5378C15.4643 11.5065 17.5464 11.5414 19.6319 11.6764C21.7237 11.8116 24.0871 11.7905 26.0722 12.5317C26.0722 12.1133 26.0722 11.6946 26.0722 11.2761C25.1485 11.5754 24.1871 11.4798 23.2321 11.4668C22.1299 11.4521 21.0154 11.5474 19.9147 11.5978C17.6756 11.7002 15.4361 11.8066 13.1977 11.9212C10.8948 12.0395 8.59475 12.2183 6.29428 12.3813C4.43658 12.5127 2.4995 12.5084 0.706105 13.0716C0.140331 13.2493 0.0570238 14.1972 0.706105 14.3272C1.56063 14.4981 2.38084 14.4319 3.2434 14.3503C4.33515 14.2471 5.44822 14.3031 6.54356 14.2934C8.90317 14.2724 11.2619 14.2506 13.621 14.3231C15.9545 14.3946 18.2855 14.5448 20.6171 14.6649C21.5308 14.7119 22.4322 14.7467 23.3461 14.7086C24.2915 14.6692 25.412 14.527 26.2959 14.9456C26.2959 14.5708 26.2959 14.196 26.2959 13.8212C24.8388 14.5837 22.7185 14.3211 21.1157 14.4664C18.8586 14.6712 16.5968 14.8242 14.3346 14.9596C10.1237 15.2113 5.85435 15.4216 1.75056 16.4915C1.06194 16.671 1.19547 17.811 1.91985 17.7702C6.33809 17.5218 10.7362 17.5358 15.1564 17.4616C16.8961 17.4323 18.6348 17.3703 20.375 17.3642C21.164 17.3616 21.9525 17.3789 22.7404 17.4235C23.4324 17.4623 25.2877 17.276 25.6437 18.02C25.7705 17.7014 25.8971 17.3826 26.0239 17.0636C21.7974 18.7093 17.2073 17.5666 12.8415 18.0658C11.0488 18.2705 9.25702 18.388 7.46002 18.5534C5.88321 18.6989 4.18044 18.8904 2.79451 19.7331C2.41962 19.9612 2.34108 20.652 2.79451 20.8574C5.17103 21.9338 8.58157 21.1857 11.0334 21.0308C13.2014 20.8935 15.3783 20.9176 17.5488 20.9449C19.4794 20.9688 21.8057 20.6373 23.6481 21.2952C23.5975 20.8987 23.5467 20.5019 23.496 20.1053C22.3956 20.6444 20.4949 20.2271 19.3012 20.2375C17.5578 20.2528 15.8168 20.3288 14.0803 20.487C10.9312 20.7741 7.82638 21.2864 4.72835 21.9241C4.02095 22.0698 4.18523 23.2331 4.8973 23.2028C7.87115 23.0764 10.8575 23.182 13.8347 23.1103C16.1601 23.0542 18.6229 22.7886 20.9417 23.0701C20.8853 22.644 20.8289 22.2179 20.7727 21.7914C18.7824 22.1865 16.7296 22.1087 14.7184 22.3277C12.4047 22.5796 10.0397 22.8959 7.76833 23.4169C7.06834 23.5777 7.22043 24.7313 7.93725 24.6957C11.8684 24.5007 15.8718 23.8965 19.7954 24.4842C19.7446 24.0874 19.694 23.6908 19.6432 23.2944C16.8021 24.7875 13.1569 24.5962 10.0829 25.2905C9.3402 25.4583 9.57441 26.5117 10.252 26.5692C12.8459 26.7896 15.2441 27.8022 17.8123 26.796C18.5705 26.4988 18.2418 25.2395 17.474 25.5404C15.0485 26.4908 12.7068 25.4758 10.252 25.2673C10.3086 25.6934 10.3648 26.1196 10.4212 26.5461C13.6355 25.8198 17.3101 25.9823 20.2856 24.4183C20.7444 24.1772 20.6837 23.3109 20.1334 23.2286C16.0808 22.6218 11.9988 23.1924 7.93723 23.3938C7.99376 23.8199 8.05016 24.2462 8.1063 24.6726C10.4814 24.1276 12.9607 23.7844 15.3857 23.563C17.2943 23.3886 19.2231 23.4215 21.1108 23.0471C21.8759 22.895 21.5957 21.8476 20.9417 21.7683C18.6229 21.4867 16.1601 21.7523 13.8347 21.8085C10.8575 21.8801 7.87113 21.7746 4.89727 21.901C4.95377 22.3271 5.01018 22.7533 5.06632 23.1797C8.52212 22.4683 11.9851 21.9229 15.504 21.6736C17.241 21.5505 18.9847 21.5348 20.725 21.5323C21.8997 21.5304 23.0386 21.7683 24.1383 21.2297C24.6757 20.9665 24.4597 20.2088 23.9863 20.0397C22.5574 19.5294 21.0411 19.6995 19.5547 19.6748C17.3817 19.6386 15.209 19.6067 13.0356 19.6471C10.873 19.6873 8.7178 19.9075 6.55824 20.0165C5.64647 20.0626 4.27814 20.1141 3.43674 19.7331C3.43674 20.1079 3.43674 20.4827 3.43674 20.8574C4.90974 19.9614 6.82623 19.8976 8.49029 19.7681C10.2631 19.6306 12.0249 19.4224 13.7942 19.2728C17.9803 18.9191 22.3093 19.8971 26.3622 18.3193C26.7636 18.163 26.9352 17.7655 26.7425 17.3631C26.0816 15.982 23.9896 16.2098 22.7404 16.1217C20.6996 15.9773 18.637 16.0779 16.5948 16.1278C11.6973 16.2472 6.81629 16.1931 1.91983 16.4684C1.97624 16.8947 2.0324 17.3208 2.089 17.7472C6.39722 16.6239 10.8833 16.4743 15.3013 16.203C17.564 16.064 19.8242 15.8908 22.0816 15.6795C23.7107 15.5269 25.4373 15.7308 26.9381 14.9457C27.3411 14.7348 27.3666 14.0241 26.9381 13.8213C25.6108 13.1929 24.1013 13.3834 22.681 13.4322C20.3447 13.5122 17.9599 13.214 15.6257 13.1022C13.104 12.9814 10.5835 12.9582 8.05937 12.9776C6.87866 12.9867 5.69794 13.0001 4.51723 13.005C3.37614 13.0096 2.17208 13.2974 1.04405 13.0717C1.04405 13.4902 1.04405 13.9087 1.04405 14.3273C3.02482 13.705 5.22989 13.7594 7.28383 13.6127C9.58048 13.4489 11.877 13.2842 14.1768 13.1749C16.4056 13.0688 18.634 12.9554 20.8632 12.8571C22.6404 12.7784 24.6995 13.0859 26.4104 12.5318C27.036 12.3292 26.9958 11.4949 26.4104 11.2761C24.5943 10.5983 22.5066 10.5973 20.5984 10.445C18.3487 10.2651 16.1041 10.2169 13.8481 10.2309C11.6274 10.2448 9.40804 10.342 7.19402 10.5172C5.11418 10.6817 3.00013 11.2212 0.916852 11.1676C0.973233 11.5937 1.02976 12.0199 1.0859 12.4463C5.1835 11.4857 9.35387 11.0237 13.5346 10.6364C17.4862 10.2705 21.4754 10.3221 25.4073 9.753C26.1413 9.64681 25.927 8.49262 25.238 8.47426C21.0243 8.36167 16.8335 7.8671 12.6235 7.72172C10.4732 7.64749 8.31817 7.78909 6.1755 7.96229C4.38233 8.10719 2.55841 8.09946 0.789559 8.45478C0.0895957 8.59542 0.243668 9.80593 0.958629 9.73354C4.68061 9.35617 8.36138 8.67466 12.0674 8.17223C15.9426 7.64687 19.8471 7.51901 23.7336 7.12595C24.5362 7.04485 24.5688 5.8423 23.7336 5.82404C16.6762 5.67022 9.61467 4.59761 2.58619 5.76172C2.6991 6.18027 2.81189 6.59879 2.9248 7.01733C5.94885 6.24078 9.06532 6.17828 12.1582 5.9288C13.7996 5.79627 15.434 5.58192 17.0766 5.45687C18.484 5.34981 19.9236 5.41142 21.3119 5.1362C21.864 5.02668 21.9192 4.2102 21.4638 3.94626C19.5739 2.85087 16.7947 2.87241 14.6841 2.75141C11.764 2.58383 8.84956 2.81218 5.93159 2.91716C5.98812 3.34341 6.04428 3.76951 6.10091 4.19589C8.16504 3.80896 10.1816 3.1735 12.2541 2.83678C13.2884 2.66898 14.3344 2.57296 15.3758 2.46615C16.1957 2.382 16.9722 2.43283 17.7601 2.144C18.3331 1.93368 18.3989 1.0704 17.7601 0.888286C16.436 0.511498 15.0614 0.539671 13.6991 0.582934C12.3608 0.625419 10.9156 0.505397 9.64888 1.01652C8.89458 1.32087 9.22287 2.58027 9.98702 2.2721Z" fill="#191918"/>
<path d="M9.98702 2.2721C11.0424 1.8462 12.2019 1.93514 13.3172 1.89803C14.6883 1.85283 16.0862 1.76377 17.4215 2.14397C17.4215 1.72533 17.4215 1.30691 17.4215 0.888261C16.6108 1.18603 15.7524 1.12552 14.9059 1.21247C13.9063 1.31499 12.9099 1.43504 11.9159 1.58152C9.84132 1.88738 7.824 2.5538 5.7624 2.94023C5.05046 3.07399 5.22299 4.24448 5.93157 4.21899C8.53692 4.12551 11.1378 3.93837 13.746 4.00501C15.0963 4.03956 16.4602 4.14452 17.7979 4.33216C18.769 4.46848 19.9564 4.56916 20.8214 5.07062C20.8722 4.67389 20.9228 4.27727 20.9736 3.88057C19.3944 4.19363 17.6964 4.09957 16.0927 4.23355C14.4866 4.36804 12.8868 4.57504 11.279 4.69531C8.36211 4.91349 5.43602 5.03019 2.58619 5.76167C1.77486 5.97015 2.13286 7.1482 2.9248 7.01728C9.82492 5.87436 16.8047 6.9749 23.7336 7.12593C23.7336 6.69184 23.7336 6.25798 23.7336 5.82402C20.0082 6.20081 16.2677 6.34348 12.5495 6.80757C8.67762 7.2909 4.84226 8.03794 0.958653 8.43163C1.01503 8.85776 1.07144 9.28386 1.12758 9.71036C2.93498 9.34721 4.83578 9.37242 6.6699 9.2241C8.81772 9.05054 10.9689 8.9664 13.1227 9.04088C17.1655 9.18038 21.1906 9.66788 25.238 9.77615C25.1818 9.35002 25.1253 8.92392 25.0689 8.49741C20.935 9.09599 16.7152 9.03475 12.5576 9.42583C8.59203 9.79857 4.63368 10.2799 0.747783 11.1907C0.0294838 11.3593 0.214949 12.4514 0.916852 12.4695C2.85464 12.5193 4.79401 12.0367 6.72031 11.8595C8.93252 11.6558 11.1551 11.5714 13.3754 11.5378C15.4643 11.5065 17.5464 11.5414 19.6319 11.6764C21.7237 11.8116 24.0871 11.7905 26.0722 12.5317C26.0722 12.1133 26.0722 11.6946 26.0722 11.2761C25.1485 11.5754 24.1871 11.4798 23.2321 11.4668C22.1299 11.4521 21.0154 11.5474 19.9147 11.5978C17.6756 11.7002 15.4361 11.8066 13.1977 11.9212C10.8948 12.0395 8.59475 12.2183 6.29428 12.3813C4.43658 12.5127 2.4995 12.5084 0.706105 13.0716C0.140331 13.2493 0.0570238 14.1972 0.706105 14.3272C1.56063 14.4981 2.38084 14.4319 3.2434 14.3503C4.33515 14.2471 5.44822 14.3031 6.54356 14.2934C8.90317 14.2724 11.2619 14.2506 13.621 14.3231C15.9545 14.3946 18.2855 14.5448 20.6171 14.6649C21.5308 14.7119 22.4322 14.7467 23.3461 14.7086C24.2915 14.6692 25.412 14.527 26.2959 14.9456C26.2959 14.5708 26.2959 14.196 26.2959 13.8212C24.8388 14.5837 22.7185 14.3211 21.1157 14.4664C18.8586 14.6712 16.5968 14.8242 14.3346 14.9596C10.1237 15.2113 5.85435 15.4216 1.75056 16.4915C1.06194 16.671 1.19547 17.811 1.91985 17.7702C6.33809 17.5218 10.7362 17.5358 15.1564 17.4616C16.8961 17.4323 18.6348 17.3703 20.375 17.3642C21.164 17.3616 21.9525 17.3789 22.7404 17.4235C23.4324 17.4623 25.2877 17.276 25.6437 18.02C25.7705 17.7014 25.8971 17.3826 26.0239 17.0636C21.7974 18.7093 17.2073 17.5666 12.8415 18.0658C11.0488 18.2705 9.25702 18.388 7.46002 18.5534C5.88321 18.6989 4.18044 18.8904 2.79451 19.7331C2.41962 19.9612 2.34108 20.652 2.79451 20.8574C5.17103 21.9338 8.58157 21.1857 11.0334 21.0308C13.2014 20.8935 15.3783 20.9176 17.5488 20.9449C19.4794 20.9688 21.8057 20.6373 23.6481 21.2952C23.5975 20.8987 23.5467 20.5019 23.496 20.1053C22.3956 20.6444 20.4949 20.2271 19.3012 20.2375C17.5578 20.2528 15.8168 20.3288 14.0803 20.487C10.9312 20.7741 7.82638 21.2864 4.72835 21.9241C4.02095 22.0698 4.18523 23.2331 4.8973 23.2028C7.87115 23.0764 10.8575 23.182 13.8347 23.1103C16.1601 23.0542 18.6229 22.7886 20.9417 23.0701C20.8853 22.644 20.8289 22.2179 20.7727 21.7914C18.7824 22.1865 16.7296 22.1087 14.7184 22.3277C12.4047 22.5796 10.0397 22.8959 7.76833 23.4169C7.06834 23.5777 7.22043 24.7313 7.93725 24.6957C11.8684 24.5007 15.8718 23.8965 19.7954 24.4842C19.7446 24.0874 19.694 23.6908 19.6432 23.2944C16.8021 24.7875 13.1569 24.5962 10.0829 25.2905C9.3402 25.4583 9.57441 26.5117 10.252 26.5692C12.8459 26.7896 15.2441 27.8022 17.8123 26.796C18.5705 26.4988 18.2418 25.2395 17.474 25.5404C15.0485 26.4908 12.7068 25.4758 10.252 25.2673C10.3086 25.6934 10.3648 26.1196 10.4212 26.5461C13.6355 25.8198 17.3101 25.9823 20.2856 24.4183C20.7444 24.1772 20.6837 23.3109 20.1334 23.2286C16.0808 22.6218 11.9988 23.1924 7.93723 23.3938C7.99376 23.8199 8.05016 24.2462 8.1063 24.6726C10.4814 24.1276 12.9607 23.7844 15.3857 23.563C17.2943 23.3886 19.2231 23.4215 21.1108 23.0471C21.8759 22.895 21.5957 21.8476 20.9417 21.7683C18.6229 21.4867 16.1601 21.7523 13.8347 21.8085C10.8575 21.8801 7.87113 21.7746 4.89727 21.901C4.95377 22.3271 5.01018 22.7533 5.06632 23.1797C8.52212 22.4683 11.9851 21.9229 15.504 21.6736C17.241 21.5505 18.9847 21.5348 20.725 21.5323C21.8997 21.5304 23.0386 21.7683 24.1383 21.2297C24.6757 20.9665 24.4597 20.2088 23.9863 20.0397C22.5574 19.5294 21.0411 19.6995 19.5547 19.6748C17.3817 19.6386 15.209 19.6067 13.0356 19.6471C10.873 19.6873 8.7178 19.9075 6.55824 20.0165C5.64647 20.0626 4.27814 20.1141 3.43674 19.7331C3.43674 20.1079 3.43674 20.4827 3.43674 20.8574C4.90974 19.9614 6.82623 19.8976 8.49029 19.7681C10.2631 19.6306 12.0249 19.4224 13.7942 19.2728C17.9803 18.9191 22.3093 19.8971 26.3622 18.3193C26.7636 18.163 26.9352 17.7655 26.7425 17.3631C26.0816 15.982 23.9896 16.2098 22.7404 16.1217C20.6996 15.9773 18.637 16.0779 16.5948 16.1278C11.6973 16.2472 6.81629 16.1931 1.91983 16.4684C1.97624 16.8947 2.0324 17.3208 2.089 17.7472C6.39722 16.6239 10.8833 16.4743 15.3013 16.203C17.564 16.064 19.8242 15.8908 22.0816 15.6795C23.7107 15.5269 25.4373 15.7308 26.9381 14.9457C27.3411 14.7348 27.3666 14.0241 26.9381 13.8213C25.6108 13.1929 24.1013 13.3834 22.681 13.4322C20.3447 13.5122 17.9599 13.214 15.6257 13.1022C13.104 12.9814 10.5835 12.9582 8.05937 12.9776C6.87866 12.9867 5.69794 13.0001 4.51723 13.005C3.37614 13.0096 2.17208 13.2974 1.04405 13.0717C1.04405 13.4902 1.04405 13.9087 1.04405 14.3273C3.02482 13.705 5.22989 13.7594 7.28383 13.6127C9.58048 13.4489 11.877 13.2842 14.1768 13.1749C16.4056 13.0688 18.634 12.9554 20.8632 12.8571C22.6404 12.7784 24.6995 13.0859 26.4104 12.5318C27.036 12.3292 26.9958 11.4949 26.4104 11.2761C24.5943 10.5983 22.5066 10.5973 20.5984 10.445C18.3487 10.2651 16.1041 10.2169 13.8481 10.2309C11.6274 10.2448 9.40804 10.342 7.19402 10.5172C5.11418 10.6817 3.00013 11.2212 0.916852 11.1676C0.973233 11.5937 1.02976 12.0199 1.0859 12.4463C5.1835 11.4857 9.35387 11.0237 13.5346 10.6364C17.4862 10.2705 21.4754 10.3221 25.4073 9.753C26.1413 9.64681 25.927 8.49262 25.238 8.47426C21.0243 8.36167 16.8335 7.8671 12.6235 7.72172C10.4732 7.64749 8.31817 7.78909 6.1755 7.96229C4.38233 8.10719 2.55841 8.09946 0.789559 8.45478C0.0895957 8.59542 0.243668 9.80593 0.958629 9.73354C4.68061 9.35617 8.36138 8.67466 12.0674 8.17223C15.9426 7.64687 19.8471 7.51901 23.7336 7.12595C24.5362 7.04485 24.5688 5.8423 23.7336 5.82404C16.6762 5.67022 9.61467 4.59761 2.58619 5.76172C2.6991 6.18027 2.81189 6.59879 2.9248 7.01733C5.94885 6.24078 9.06532 6.17828 12.1582 5.9288C13.7996 5.79627 15.434 5.58192 17.0766 5.45687C18.484 5.34981 19.9236 5.41142 21.3119 5.1362C21.864 5.02668 21.9192 4.2102 21.4638 3.94626C19.5739 2.85087 16.7947 2.87241 14.6841 2.75141C11.764 2.58383 8.84956 2.81218 5.93159 2.91716C5.98812 3.34341 6.04428 3.76951 6.10091 4.19589C8.16504 3.80896 10.1816 3.1735 12.2541 2.83678C13.2884 2.66898 14.3344 2.57296 15.3758 2.46615C16.1957 2.382 16.9722 2.43283 17.7601 2.144C18.3331 1.93368 18.3989 1.0704 17.7601 0.888286C16.436 0.511498 15.0614 0.539671 13.6991 0.582934C12.3608 0.625419 10.9156 0.505397 9.64888 1.01652C8.89458 1.32087 9.22287 2.58027 9.98702 2.2721Z" fill="black" fill-opacity="0.2"/>
<path d="M11.7779 21.1568V14.6153H9.66016V12.0843H11.7779V9.8203C11.7779 9.8203 11.8731 7.1914 14.3717 6.875H16.8936V9.21178H15.2757C15.2757 9.21178 14.4192 9.1874 14.3478 10.2341V12.1082H16.8462L16.5131 14.6154H14.3478L14.3452 21.161L11.7779 21.1568Z" fill="white"/>
</svg>
