<svg width="25" height="25" viewBox="0 0 25 25" fill="none" xmlns="http://www.w3.org/2000/svg">
<path d="M13.5417 20.7083C13.5834 21.0208 13.4792 21.3542 13.2501 21.5729C12.8334 21.9792 12.1772 21.9792 11.7709 21.5729L7.59383 17.3958C7.35424 17.1563 7.25008 16.8333 7.29174 16.5313V11.1979L2.30216 4.8125C1.94799 4.36458 2.03133 3.70833 2.47924 3.35417C2.67716 3.20833 2.89591 3.125 3.12508 3.125H17.7084C17.9376 3.125 18.1563 3.20833 18.3542 3.35417C18.8022 3.70833 18.8855 4.36458 18.5313 4.8125L13.5417 11.1979V20.7083ZM5.25008 5.20833L9.37508 10.4896V16.2292L11.4584 18.3125V10.4688L15.5834 5.20833H5.25008ZM18.4897 21.875L15.6251 18.75L16.8334 17.5417L18.4897 19.1979L22.2292 15.4583L23.4376 16.9271L18.4897 21.875Z" fill="black"/>
</svg>
