<svg width="28" height="28" viewBox="0 0 28 28" fill="none" xmlns="http://www.w3.org/2000/svg">
<path d="M9.94723 2.77337C10.998 2.35201 12.1532 2.43999 13.2636 2.40327C14.6292 2.35854 16.0211 2.27044 17.3512 2.64658C17.3512 2.2325 17.3512 1.81842 17.3512 1.40433C16.5434 1.69881 15.6886 1.63894 14.8459 1.725C13.8505 1.82642 12.8581 1.94518 11.8679 2.09014C9.80212 2.39272 7.79306 3.05208 5.7399 3.43444C5.03063 3.56677 5.20245 4.7248 5.9085 4.69958C8.50282 4.60701 11.0932 4.42197 13.6909 4.48775C15.0356 4.52205 16.3934 4.6259 17.7258 4.81156C18.6931 4.94646 19.8758 5.04604 20.7372 5.54217C20.7878 5.14966 20.8379 4.75725 20.8884 4.36475C19.3161 4.67449 17.6247 4.58142 16.0278 4.714C14.4281 4.84708 12.835 5.05188 11.234 5.17086C8.32872 5.38671 5.41484 5.50218 2.57681 6.2259C1.76855 6.43229 2.12498 7.59771 2.91368 7.46817C9.78552 6.3374 16.7366 7.42627 23.6378 7.57566C23.6378 7.14619 23.6378 6.71706 23.6378 6.28759C19.9271 6.66034 16.2021 6.80153 12.4992 7.26071C8.64293 7.7389 4.82327 8.47799 0.955553 8.8675C1.01196 9.28909 1.068 9.71068 1.12416 10.1326C2.92403 9.77334 4.81682 9.79831 6.64367 9.65166C8.78257 9.47984 10.9248 9.39645 13.0701 9.47026C17.096 9.60828 21.1048 10.0906 25.136 10.1977C25.0794 9.77614 25.0234 9.35454 24.9671 8.93258C20.8503 9.52479 16.6476 9.46423 12.5074 9.85117C8.55803 10.2199 4.61576 10.6962 0.745664 11.5973C0.0301857 11.7641 0.215161 12.8447 0.913924 12.8625C2.84389 12.9118 4.77519 12.4343 6.69374 12.259C8.89715 12.0574 11.1102 11.9739 13.3215 11.9407C15.402 11.9097 17.4754 11.9443 19.5522 12.0778C21.6361 12.2116 23.9893 12.1907 25.9662 12.9242C25.9662 12.5099 25.9662 12.096 25.9662 11.6818C25.0463 11.978 24.0888 11.8833 23.1382 11.8705C22.0406 11.8559 20.9302 11.9503 19.8339 12.0001C17.604 12.1015 15.3739 12.2066 13.1448 12.3201C10.851 12.437 8.56077 12.6139 6.26972 12.7752C4.41928 12.9053 2.49039 12.901 0.704084 13.4582C0.140665 13.6341 0.0580204 14.5719 0.704084 14.7005C1.55515 14.8696 2.3721 14.8041 3.23103 14.7234C4.3183 14.6212 5.4268 14.6766 6.518 14.6671C8.86772 14.6464 11.2166 14.6248 13.5662 14.6965C15.89 14.7672 18.2114 14.9158 20.5339 15.0346C21.4437 15.0812 22.3411 15.1156 23.2517 15.0779C24.1932 15.0389 25.3087 14.8983 26.1894 15.3124C26.1894 14.9415 26.1894 14.5707 26.1894 14.1999C24.7379 14.9543 22.6264 14.6944 21.0301 14.8384C18.7821 15.0409 16.5296 15.1923 14.2771 15.3262C10.0834 15.5752 5.83148 15.7833 1.74447 16.8419C1.05879 17.0195 1.19153 18.1472 1.91308 18.107C6.31324 17.8612 10.6931 17.875 15.095 17.8016C16.8277 17.7726 18.5596 17.7113 20.2925 17.7053C21.0781 17.7027 21.8634 17.7198 22.648 17.7639C23.3373 17.8024 25.1849 17.618 25.5395 18.3541C25.6656 18.0389 25.7918 17.7234 25.9182 17.4079C21.7089 19.0361 17.1377 17.9056 12.7899 18.3994C11.0045 18.6019 9.22019 18.7181 7.43045 18.8819C5.86022 19.0259 4.16432 19.2152 2.78393 20.049C2.41069 20.2747 2.33246 20.9581 2.78393 21.1613C5.15095 22.2263 8.5474 21.4862 10.9892 21.333C13.1484 21.1971 15.3161 21.221 17.4781 21.248C19.4008 21.2716 21.7172 20.9436 23.5521 21.5946C23.5016 21.2022 23.4515 20.8097 23.4012 20.4173C22.3048 20.9506 20.4117 20.5377 19.2231 20.548C17.4869 20.5632 15.7528 20.6384 14.0236 20.7949C10.8877 21.0789 7.79532 21.5858 4.70985 22.2167C4.00561 22.3609 4.16921 23.5118 4.87823 23.4819C7.8398 23.3568 10.8141 23.4613 13.7789 23.3903C16.095 23.3348 18.5477 23.0721 20.8567 23.3505C20.8009 22.9289 20.7446 22.5073 20.6884 22.0855C18.7065 22.4764 16.6619 22.3993 14.6592 22.616C12.3552 22.8653 9.99946 23.1782 7.73737 23.6937C7.0405 23.8527 7.19182 24.9941 7.90575 24.9589C11.8209 24.7659 15.8079 24.1681 19.7151 24.7496C19.6645 24.3571 19.6142 23.9647 19.5636 23.5724C16.7342 25.0496 13.1042 24.8605 10.0425 25.5474C9.30281 25.7134 9.53629 26.7557 10.2111 26.8125C12.7944 27.0306 15.1825 28.0324 17.7401 27.0368C18.4954 26.7428 18.168 25.4971 17.4034 25.7946C14.9881 26.735 12.6556 25.7307 10.2111 25.5244C10.2673 25.9461 10.3232 26.3677 10.3797 26.7896C13.5805 26.0711 17.24 26.2318 20.2033 24.6844C20.6602 24.4459 20.5999 23.5888 20.052 23.5073C16.0159 22.9071 11.9507 23.4716 7.90573 23.6708C7.96211 24.0924 8.01805 24.5141 8.07421 24.936C10.4396 24.3968 12.9089 24.0573 15.3235 23.8382C17.2245 23.6656 19.1455 23.6982 21.0253 23.3278C21.7871 23.1772 21.5083 22.141 20.8567 22.0626C18.5476 21.784 16.095 22.0467 13.7789 22.1024C10.8141 22.1732 7.83977 22.0688 4.8782 22.1938C4.93461 22.6155 4.99055 23.0372 5.04668 23.459C8.48834 22.7551 11.9373 22.2155 15.4415 21.9689C17.1713 21.8472 18.908 21.8316 20.6411 21.8291C21.8109 21.8273 22.9452 22.0626 24.0408 21.5297C24.5755 21.2693 24.3606 20.5197 23.8891 20.3523C22.4658 19.8474 20.9557 20.0158 19.4756 19.9913C17.3113 19.9555 15.1477 19.9239 12.9833 19.9639C10.8297 20.0037 8.68321 20.2216 6.53223 20.3294C5.62432 20.375 4.26182 20.426 3.42354 20.049C3.42354 20.4198 3.42354 20.7907 3.42354 21.1613C4.8906 20.2749 6.79912 20.2118 8.45675 20.0837C10.2222 19.9476 11.9769 19.7416 13.7388 19.5936C17.9078 19.2437 22.2192 20.2113 26.2552 18.6502C26.6549 18.4955 26.8256 18.1023 26.6339 17.7041C25.9761 16.3377 23.8922 16.5631 22.648 16.4759C20.6159 16.333 18.5617 16.4326 16.5279 16.482C11.6506 16.6001 6.78925 16.5465 1.91308 16.819C1.96899 17.2407 2.02518 17.6623 2.08143 18.0841C6.3719 16.9727 10.8396 16.8248 15.2395 16.5563C17.4931 16.4188 19.7439 16.2474 21.992 16.0384C23.6144 15.8874 25.3344 16.0892 26.829 15.3124C27.2302 15.1038 27.2554 14.4006 26.829 14.1999C25.5073 13.5782 24.0036 13.7667 22.5891 13.8149C20.2622 13.8942 17.8875 13.5991 15.5627 13.4884C13.0513 13.3689 10.5411 13.346 8.02747 13.3652C6.85162 13.3741 5.67571 13.3875 4.49998 13.3923C3.3632 13.3968 2.16408 13.6816 1.0409 13.4582C1.0409 13.8723 1.0409 14.2864 1.0409 14.7005C3.0137 14.0849 5.20937 14.1387 7.25512 13.9935C9.54248 13.8316 11.8293 13.6685 14.12 13.5604C16.3392 13.4554 18.5588 13.3432 20.7787 13.2459C22.5486 13.1681 24.5996 13.4723 26.3034 12.9242C26.9261 12.7236 26.886 11.8982 26.3034 11.6818C24.4947 11.0112 22.4152 11.0102 20.5152 10.8595C18.2743 10.6816 16.039 10.6338 13.7925 10.6476C11.581 10.6614 9.37041 10.7575 7.16556 10.9309C5.09403 11.0937 2.98888 11.6275 0.9139 11.5744C0.970404 11.996 1.02634 12.4178 1.0825 12.8396C5.16308 11.8892 9.31675 11.432 13.4799 11.0488C17.4153 10.6869 21.3886 10.738 25.3041 10.175C26.0351 10.0698 25.8216 8.92786 25.136 8.90983C20.939 8.79835 16.7652 8.30899 12.573 8.16515C10.4312 8.09172 8.28493 8.23181 6.15104 8.40315C4.36523 8.54651 2.549 8.53898 0.787146 8.89045C0.0901506 9.02956 0.243659 10.2272 0.955529 10.1556C4.66238 9.78222 8.32821 9.10794 12.0192 8.61087C15.878 8.09112 19.7666 7.9646 23.6378 7.57571C24.4367 7.49536 24.4689 6.3057 23.6378 6.28764C16.6087 6.13543 9.57613 5.07433 2.57681 6.22595C2.68889 6.64006 2.80121 7.05412 2.91368 7.46822C5.92556 6.69993 9.0293 6.63811 12.1095 6.39126C13.7441 6.26027 15.3717 6.04819 17.0075 5.92434C18.4091 5.81843 19.8429 5.87937 21.2257 5.6071C21.7756 5.49874 21.8303 4.69095 21.3769 4.42978C19.4947 3.34603 16.7268 3.36738 14.6251 3.24762C11.7169 3.08187 8.8144 3.30774 5.9085 3.41174C5.96442 3.83333 6.0206 4.25492 6.07689 4.67688C8.13268 4.29396 10.141 3.66525 12.2051 3.33224C13.2349 3.16608 14.2769 3.07107 15.3137 2.9654C16.1301 2.88216 16.9035 2.93245 17.6881 2.64668C18.2591 2.43862 18.3244 1.58451 17.6881 1.40443C16.3698 1.03153 15.001 1.0594 13.6439 1.1022C12.3113 1.14423 10.8719 1.0255 9.61034 1.5312C8.85925 1.83226 9.18597 3.07827 9.94723 2.77337Z" fill="#191918"/>
<path d="M9.94723 2.77337C10.998 2.35201 12.1532 2.43999 13.2636 2.40327C14.6292 2.35854 16.0211 2.27044 17.3512 2.64658C17.3512 2.2325 17.3512 1.81842 17.3512 1.40433C16.5434 1.69881 15.6886 1.63894 14.8459 1.725C13.8505 1.82642 12.8581 1.94518 11.8679 2.09014C9.80212 2.39272 7.79306 3.05208 5.7399 3.43444C5.03063 3.56677 5.20245 4.7248 5.9085 4.69958C8.50282 4.60701 11.0932 4.42197 13.6909 4.48775C15.0356 4.52205 16.3934 4.6259 17.7258 4.81156C18.6931 4.94646 19.8758 5.04604 20.7372 5.54217C20.7878 5.14966 20.8379 4.75725 20.8884 4.36475C19.3161 4.67449 17.6247 4.58142 16.0278 4.714C14.4281 4.84708 12.835 5.05188 11.234 5.17086C8.32872 5.38671 5.41484 5.50218 2.57681 6.2259C1.76855 6.43229 2.12498 7.59771 2.91368 7.46817C9.78552 6.3374 16.7366 7.42627 23.6378 7.57566C23.6378 7.14619 23.6378 6.71706 23.6378 6.28759C19.9271 6.66034 16.2021 6.80153 12.4992 7.26071C8.64293 7.7389 4.82327 8.47799 0.955553 8.8675C1.01196 9.28909 1.068 9.71068 1.12416 10.1326C2.92403 9.77334 4.81682 9.79831 6.64367 9.65166C8.78257 9.47984 10.9248 9.39645 13.0701 9.47026C17.096 9.60828 21.1048 10.0906 25.136 10.1977C25.0794 9.77614 25.0234 9.35454 24.9671 8.93258C20.8503 9.52479 16.6476 9.46423 12.5074 9.85117C8.55803 10.2199 4.61576 10.6962 0.745664 11.5973C0.0301857 11.7641 0.215161 12.8447 0.913924 12.8625C2.84389 12.9118 4.77519 12.4343 6.69374 12.259C8.89715 12.0574 11.1102 11.9739 13.3215 11.9407C15.402 11.9097 17.4754 11.9443 19.5522 12.0778C21.6361 12.2116 23.9893 12.1907 25.9662 12.9242C25.9662 12.5099 25.9662 12.096 25.9662 11.6818C25.0463 11.978 24.0888 11.8833 23.1382 11.8705C22.0406 11.8559 20.9302 11.9503 19.8339 12.0001C17.604 12.1015 15.3739 12.2066 13.1448 12.3201C10.851 12.437 8.56077 12.6139 6.26972 12.7752C4.41928 12.9053 2.49039 12.901 0.704084 13.4582C0.140665 13.6341 0.0580204 14.5719 0.704084 14.7005C1.55515 14.8696 2.3721 14.8041 3.23103 14.7234C4.3183 14.6212 5.4268 14.6766 6.518 14.6671C8.86772 14.6464 11.2166 14.6248 13.5662 14.6965C15.89 14.7672 18.2114 14.9158 20.5339 15.0346C21.4437 15.0812 22.3411 15.1156 23.2517 15.0779C24.1932 15.0389 25.3087 14.8983 26.1894 15.3124C26.1894 14.9415 26.1894 14.5707 26.1894 14.1999C24.7379 14.9543 22.6264 14.6944 21.0301 14.8384C18.7821 15.0409 16.5296 15.1923 14.2771 15.3262C10.0834 15.5752 5.83148 15.7833 1.74447 16.8419C1.05879 17.0195 1.19153 18.1472 1.91308 18.107C6.31324 17.8612 10.6931 17.875 15.095 17.8016C16.8277 17.7726 18.5596 17.7113 20.2925 17.7053C21.0781 17.7027 21.8634 17.7198 22.648 17.7639C23.3373 17.8024 25.1849 17.618 25.5395 18.3541C25.6656 18.0389 25.7918 17.7234 25.9182 17.4079C21.7089 19.0361 17.1377 17.9056 12.7899 18.3994C11.0045 18.6019 9.22019 18.7181 7.43045 18.8819C5.86022 19.0259 4.16432 19.2152 2.78393 20.049C2.41069 20.2747 2.33246 20.9581 2.78393 21.1613C5.15095 22.2263 8.5474 21.4862 10.9892 21.333C13.1484 21.1971 15.3161 21.221 17.4781 21.248C19.4008 21.2716 21.7172 20.9436 23.5521 21.5946C23.5016 21.2022 23.4515 20.8097 23.4012 20.4173C22.3048 20.9506 20.4117 20.5377 19.2231 20.548C17.4869 20.5632 15.7528 20.6384 14.0236 20.7949C10.8877 21.0789 7.79532 21.5858 4.70985 22.2167C4.00561 22.3609 4.16921 23.5118 4.87823 23.4819C7.8398 23.3568 10.8141 23.4613 13.7789 23.3903C16.095 23.3348 18.5477 23.0721 20.8567 23.3505C20.8009 22.9289 20.7446 22.5073 20.6884 22.0855C18.7065 22.4764 16.6619 22.3993 14.6592 22.616C12.3552 22.8653 9.99946 23.1782 7.73737 23.6937C7.0405 23.8527 7.19182 24.9941 7.90575 24.9589C11.8209 24.7659 15.8079 24.1681 19.7151 24.7496C19.6645 24.3571 19.6142 23.9647 19.5636 23.5724C16.7342 25.0496 13.1042 24.8605 10.0425 25.5474C9.30281 25.7134 9.53629 26.7557 10.2111 26.8125C12.7944 27.0306 15.1825 28.0324 17.7401 27.0368C18.4954 26.7428 18.168 25.4971 17.4034 25.7946C14.9881 26.735 12.6556 25.7307 10.2111 25.5244C10.2673 25.9461 10.3232 26.3677 10.3797 26.7896C13.5805 26.0711 17.24 26.2318 20.2033 24.6844C20.6602 24.4459 20.5999 23.5888 20.052 23.5073C16.0159 22.9071 11.9507 23.4716 7.90573 23.6708C7.96211 24.0924 8.01805 24.5141 8.07421 24.936C10.4396 24.3968 12.9089 24.0573 15.3235 23.8382C17.2245 23.6656 19.1455 23.6982 21.0253 23.3278C21.7871 23.1772 21.5083 22.141 20.8567 22.0626C18.5476 21.784 16.095 22.0467 13.7789 22.1024C10.8141 22.1732 7.83977 22.0688 4.8782 22.1938C4.93461 22.6155 4.99055 23.0372 5.04668 23.459C8.48834 22.7551 11.9373 22.2155 15.4415 21.9689C17.1713 21.8472 18.908 21.8316 20.6411 21.8291C21.8109 21.8273 22.9452 22.0626 24.0408 21.5297C24.5755 21.2693 24.3606 20.5197 23.8891 20.3523C22.4658 19.8474 20.9557 20.0158 19.4756 19.9913C17.3113 19.9555 15.1477 19.9239 12.9833 19.9639C10.8297 20.0037 8.68321 20.2216 6.53223 20.3294C5.62432 20.375 4.26182 20.426 3.42354 20.049C3.42354 20.4198 3.42354 20.7907 3.42354 21.1613C4.8906 20.2749 6.79912 20.2118 8.45675 20.0837C10.2222 19.9476 11.9769 19.7416 13.7388 19.5936C17.9078 19.2437 22.2192 20.2113 26.2552 18.6502C26.6549 18.4955 26.8256 18.1023 26.6339 17.7041C25.9761 16.3377 23.8922 16.5631 22.648 16.4759C20.6159 16.333 18.5617 16.4326 16.5279 16.482C11.6506 16.6001 6.78925 16.5465 1.91308 16.819C1.96899 17.2407 2.02518 17.6623 2.08143 18.0841C6.3719 16.9727 10.8396 16.8248 15.2395 16.5563C17.4931 16.4188 19.7439 16.2474 21.992 16.0384C23.6144 15.8874 25.3344 16.0892 26.829 15.3124C27.2302 15.1038 27.2554 14.4006 26.829 14.1999C25.5073 13.5782 24.0036 13.7667 22.5891 13.8149C20.2622 13.8942 17.8875 13.5991 15.5627 13.4884C13.0513 13.3689 10.5411 13.346 8.02747 13.3652C6.85162 13.3741 5.67571 13.3875 4.49998 13.3923C3.3632 13.3968 2.16408 13.6816 1.0409 13.4582C1.0409 13.8723 1.0409 14.2864 1.0409 14.7005C3.0137 14.0849 5.20937 14.1387 7.25512 13.9935C9.54248 13.8316 11.8293 13.6685 14.12 13.5604C16.3392 13.4554 18.5588 13.3432 20.7787 13.2459C22.5486 13.1681 24.5996 13.4723 26.3034 12.9242C26.9261 12.7236 26.886 11.8982 26.3034 11.6818C24.4947 11.0112 22.4152 11.0102 20.5152 10.8595C18.2743 10.6816 16.039 10.6338 13.7925 10.6476C11.581 10.6614 9.37041 10.7575 7.16556 10.9309C5.09403 11.0937 2.98888 11.6275 0.9139 11.5744C0.970404 11.996 1.02634 12.4178 1.0825 12.8396C5.16308 11.8892 9.31675 11.432 13.4799 11.0488C17.4153 10.6869 21.3886 10.738 25.3041 10.175C26.0351 10.0698 25.8216 8.92786 25.136 8.90983C20.939 8.79835 16.7652 8.30899 12.573 8.16515C10.4312 8.09172 8.28493 8.23181 6.15104 8.40315C4.36523 8.54651 2.549 8.53898 0.787146 8.89045C0.0901506 9.02956 0.243659 10.2272 0.955529 10.1556C4.66238 9.78222 8.32821 9.10794 12.0192 8.61087C15.878 8.09112 19.7666 7.9646 23.6378 7.57571C24.4367 7.49536 24.4689 6.3057 23.6378 6.28764C16.6087 6.13543 9.57613 5.07433 2.57681 6.22595C2.68889 6.64006 2.80121 7.05412 2.91368 7.46822C5.92556 6.69993 9.0293 6.63811 12.1095 6.39126C13.7441 6.26027 15.3717 6.04819 17.0075 5.92434C18.4091 5.81843 19.8429 5.87937 21.2257 5.6071C21.7756 5.49874 21.8303 4.69095 21.3769 4.42978C19.4947 3.34603 16.7268 3.36738 14.6251 3.24762C11.7169 3.08187 8.8144 3.30774 5.9085 3.41174C5.96442 3.83333 6.0206 4.25492 6.07689 4.67688C8.13268 4.29396 10.141 3.66525 12.2051 3.33224C13.2349 3.16608 14.2769 3.07107 15.3137 2.9654C16.1301 2.88216 16.9035 2.93245 17.6881 2.64668C18.2591 2.43862 18.3244 1.58451 17.6881 1.40443C16.3698 1.03153 15.001 1.0594 13.6439 1.1022C12.3113 1.14423 10.8719 1.0255 9.61034 1.5312C8.85925 1.83226 9.18597 3.07827 9.94723 2.77337Z" fill="black" fill-opacity="0.2"/>
<path d="M10.0577 2.16403C11.1085 1.74266 12.2636 1.83064 13.374 1.79392C14.7396 1.74919 16.1315 1.66109 17.4616 2.03723C17.4616 1.62315 17.4616 1.20907 17.4616 0.794983C16.6538 1.08946 15.7991 1.02959 14.9564 1.11562C13.9609 1.21705 12.9686 1.33583 11.9783 1.48076C9.91254 1.78337 7.90351 2.44273 5.85033 2.82506C5.14106 2.95739 5.3129 4.11545 6.01895 4.09023C8.61325 3.99766 11.2036 3.8126 13.8014 3.8784C15.1459 3.9127 16.5038 4.01655 17.8362 4.20221C18.8036 4.33709 19.9862 4.43669 20.8477 4.93282C20.8982 4.54031 20.9483 4.1479 20.9989 3.7554C19.4265 4.06514 17.7351 3.97207 16.1382 4.10465C14.5385 4.23771 12.9454 4.4425 11.3444 4.56151C8.43915 4.77736 5.52527 4.89283 2.68724 5.61655C1.87898 5.82292 2.23543 6.98834 3.0241 6.85882C9.89597 5.72803 16.847 6.81689 23.7482 6.96631C23.7482 6.53684 23.7482 6.10771 23.7482 5.67821C20.0375 6.05099 16.3126 6.19215 12.6096 6.65133C8.75335 7.12955 4.9337 7.86864 1.06595 8.25815C1.12236 8.67974 1.17842 9.10133 1.23456 9.5233C3.03446 9.16399 4.92724 9.18894 6.75407 9.04231C8.89297 8.87047 11.0352 8.7871 13.1806 8.86091C17.2064 8.99893 21.2152 9.48126 25.2464 9.58838C25.1899 9.16678 25.1338 8.74519 25.0775 8.32323C20.9607 8.91544 16.758 8.85488 12.6178 9.24179C8.66843 9.61058 4.72616 10.0868 0.856065 10.988C0.140611 11.1547 0.325562 12.2353 1.02432 12.2531C2.95429 12.3024 4.88559 11.8249 6.80414 11.6496C9.00757 11.4481 11.2206 11.3646 13.4319 11.3314C15.5124 11.3004 17.5858 11.3349 19.6626 11.4684C21.7465 11.6022 24.0997 11.5814 26.0766 12.3148C26.0766 11.9006 26.0766 11.4866 26.0766 11.0724C25.1567 11.3686 24.1992 11.2739 23.2485 11.2611C22.151 11.2466 21.0406 11.341 19.9442 11.3908C17.7144 11.4921 15.4842 11.5973 13.2552 11.7107C10.9614 11.8277 8.67113 12.0046 6.38009 12.1659C4.52963 12.2959 2.60074 12.2917 0.814436 12.8489C0.251017 13.0247 0.168372 13.9626 0.814436 14.0912C1.6655 14.2602 2.48245 14.1948 3.34138 14.114C4.42865 14.0119 5.53715 14.0673 6.62837 14.0577C8.97809 14.0371 11.327 14.0154 13.6766 14.0871C16.0003 14.1578 18.3218 14.3065 20.6442 14.4252C21.5541 14.4718 22.4515 14.5062 23.362 14.4685C24.3036 14.4295 25.419 14.2889 26.2998 14.703C26.2998 14.3322 26.2998 13.9613 26.2998 13.5905C24.8483 14.3449 22.7367 14.0851 21.1405 14.229C18.8925 14.4315 16.6399 14.5829 14.3875 14.7168C10.1938 14.9658 5.94183 15.1739 1.85482 16.2325C1.16917 16.4101 1.30189 17.5379 2.02343 17.4976C6.42359 17.2518 10.8035 17.2657 15.2054 17.1922C16.938 17.1633 18.67 17.1019 20.4028 17.0959C21.1884 17.0933 21.9738 17.1104 22.7584 17.1546C23.4476 17.193 25.2952 17.0087 25.6498 17.7447C25.776 17.4295 25.9022 17.114 26.0286 16.7985C21.8192 18.4267 17.2481 17.2962 12.9003 17.7901C11.1148 17.9926 9.33054 18.1088 7.5408 18.2725C5.97057 18.4165 4.27467 18.6059 2.89428 19.4396C2.52104 19.6653 2.44281 20.3488 2.89428 20.552C5.26131 21.6169 8.65775 20.8769 11.0996 20.7236C13.2587 20.5877 15.4265 20.6116 17.5884 20.6386C19.5111 20.6622 21.8276 20.3342 23.6625 20.9852C23.612 20.5928 23.5619 20.2003 23.5115 19.8079C22.4152 20.3412 20.5221 19.9283 19.3334 19.9386C17.5972 19.9538 15.8631 20.029 14.134 20.1855C10.998 20.4695 7.90567 20.9765 4.82022 21.6073C4.11596 21.7516 4.27956 22.9024 4.98858 22.8725C7.95017 22.7474 10.9245 22.8519 13.8893 22.7809C16.2054 22.7254 18.658 22.4627 20.9671 22.7411C20.9113 22.3195 20.855 21.898 20.7987 21.4761C18.8169 21.867 16.7723 21.79 14.7696 22.0067C12.4655 22.2559 10.1098 22.5688 7.84772 23.0843C7.15085 23.2433 7.3022 24.3848 8.0161 24.3495C11.9313 24.1565 15.9183 23.5588 19.8254 24.1402C19.7749 23.7477 19.7246 23.3553 19.674 22.963C16.8445 24.4403 13.2146 24.2511 10.1528 24.938C9.41316 25.104 9.64664 26.1463 10.3214 26.2031C12.9048 26.4212 15.2929 27.423 17.8505 26.4275C18.6058 26.1335 18.2783 24.8877 17.5137 25.1852C15.0983 26.1256 12.766 25.1213 10.3214 24.9151C10.3776 25.3367 10.4335 25.7583 10.4901 26.1802C13.6908 25.4617 17.3504 25.6224 20.3136 24.075C20.7706 23.8365 20.7102 22.9794 20.1624 22.898C16.1262 22.2977 12.061 22.8622 8.01608 23.0615C8.07246 23.483 8.12842 23.9048 8.18456 24.3266C10.5499 23.7874 13.0192 23.4479 15.4338 23.2288C17.3349 23.0562 19.2559 23.0888 21.1357 22.7184C21.8974 22.5679 21.6186 21.5316 20.9671 21.4532C18.658 21.1746 16.2054 21.4373 13.8893 21.493C10.9245 21.5639 7.95015 21.4594 4.98856 21.5844C5.04496 22.0062 5.1009 22.4278 5.15706 22.8496C8.59869 22.1458 12.0476 21.6061 15.5519 21.3595C17.2817 21.2379 19.0183 21.2222 20.7514 21.2197C21.9213 21.218 23.0555 21.4532 24.1511 20.9203C24.6858 20.6599 24.471 19.9103 23.9994 19.7429C22.5761 19.2381 21.066 19.4064 19.5859 19.3819C17.4216 19.3462 15.2581 19.3146 13.0936 19.3545C10.9401 19.3943 8.79354 19.6122 6.64261 19.72C5.73467 19.7656 4.37217 19.8166 3.53389 19.4396C3.53389 19.8104 3.53389 20.1813 3.53389 20.5519C5.00095 19.6655 6.90947 19.6023 8.5671 19.4742C10.3325 19.3382 12.0872 19.1322 13.8492 18.9842C18.0181 18.6343 22.3296 19.6019 26.3655 18.0408C26.7652 17.8861 26.936 17.4929 26.7443 17.0947C26.0865 15.7283 24.0026 15.9537 22.7584 15.8665C20.7262 15.7236 18.6721 15.8232 16.6382 15.8725C11.761 15.9907 6.89958 15.9371 2.0234 16.2095C2.07932 16.6313 2.1355 17.0529 2.19179 17.4747C6.4822 16.3633 10.95 16.2154 15.3499 15.9469C17.6034 15.8094 19.8543 15.638 22.1023 15.429C23.7247 15.278 25.4447 15.4798 26.9393 14.703C27.3405 14.4944 27.3658 13.7912 26.9393 13.5905C25.6176 12.9688 24.1139 13.1573 22.6995 13.2055C20.3725 13.2848 17.9979 12.9897 15.673 12.879C13.1616 12.7595 10.6514 12.7367 8.1378 12.7558C6.96195 12.7648 5.78604 12.7781 4.61028 12.7829C3.47351 12.7874 2.27438 13.0722 1.1512 12.8489C1.1512 13.263 1.1512 13.677 1.1512 14.0911C3.124 13.4755 5.31968 13.5293 7.36543 13.3841C9.65278 13.2222 11.9396 13.0591 14.2303 12.951C16.4495 12.8461 18.6692 12.7338 20.889 12.6365C22.6589 12.5587 24.7099 12.8629 26.4137 12.3148C27.0364 12.1143 26.9963 11.2889 26.4137 11.0724C24.605 10.4018 22.5255 10.4008 20.6255 10.2501C18.3846 10.0722 16.1493 10.0244 13.9028 10.0382C11.6913 10.052 9.48071 10.1482 7.27586 10.3216C5.20434 10.4843 3.09919 11.0181 1.0242 10.9651C1.08073 11.3866 1.13667 11.8084 1.19281 12.2302C5.27338 11.2798 9.42706 10.8227 13.5902 10.4395C17.5256 10.0775 21.4989 10.1286 25.4144 9.5656C26.1454 9.46041 25.9319 8.31849 25.2463 8.30045C21.0493 8.18895 16.8755 7.69961 12.6833 7.55578C10.5415 7.48234 8.39523 7.62243 6.26134 7.7938C4.47553 7.93716 2.6593 7.92963 0.897473 8.28107C0.200477 8.42021 0.353936 9.61789 1.06583 9.54624C4.77268 9.17287 8.43853 8.49862 12.1295 8.00152C15.9883 7.48174 19.8769 7.35525 23.7481 6.96636C24.547 6.88599 24.5792 5.69635 23.7481 5.67826C16.7191 5.52608 9.68643 4.46498 2.68709 5.6166C2.79919 6.03071 2.91151 6.44477 3.02395 6.85887C6.03584 6.09058 9.13958 6.02874 12.2198 5.78188C13.8544 5.6509 15.482 5.43882 17.1178 5.31497C18.5194 5.20905 19.9532 5.26999 21.336 4.9977C21.8859 4.88936 21.9406 4.08155 21.4872 3.82041C19.605 2.73666 16.8371 2.75798 14.7354 2.63825C11.8272 2.47247 8.92471 2.69837 6.01883 2.80234C6.07475 3.22395 6.13093 3.64554 6.18719 4.06751C8.24298 3.68456 10.2513 3.05585 12.3155 2.72284C13.3453 2.5567 14.3872 2.46169 15.4241 2.35602C16.2404 2.27278 17.0138 2.32307 17.7984 2.03731C18.3694 1.82922 18.4347 0.975109 17.7984 0.795058C16.4801 0.422159 15.1111 0.450023 13.7543 0.492828C12.4216 0.53486 10.9822 0.416122 9.72067 0.921802C8.96965 1.22291 9.29638 2.46892 10.0577 2.16403Z" fill="#191918"/>
<path d="M10.0577 2.16403C11.1085 1.74266 12.2636 1.83064 13.374 1.79392C14.7396 1.74919 16.1315 1.66109 17.4616 2.03723C17.4616 1.62315 17.4616 1.20907 17.4616 0.794983C16.6538 1.08946 15.7991 1.02959 14.9564 1.11562C13.9609 1.21705 12.9686 1.33583 11.9783 1.48076C9.91254 1.78337 7.90351 2.44273 5.85033 2.82506C5.14106 2.95739 5.3129 4.11545 6.01895 4.09023C8.61325 3.99766 11.2036 3.8126 13.8014 3.8784C15.1459 3.9127 16.5038 4.01655 17.8362 4.20221C18.8036 4.33709 19.9862 4.43669 20.8477 4.93282C20.8982 4.54031 20.9483 4.1479 20.9989 3.7554C19.4265 4.06514 17.7351 3.97207 16.1382 4.10465C14.5385 4.23771 12.9454 4.4425 11.3444 4.56151C8.43915 4.77736 5.52527 4.89283 2.68724 5.61655C1.87898 5.82292 2.23543 6.98834 3.0241 6.85882C9.89597 5.72803 16.847 6.81689 23.7482 6.96631C23.7482 6.53684 23.7482 6.10771 23.7482 5.67821C20.0375 6.05099 16.3126 6.19215 12.6096 6.65133C8.75335 7.12955 4.9337 7.86864 1.06595 8.25815C1.12236 8.67974 1.17842 9.10133 1.23456 9.5233C3.03446 9.16399 4.92724 9.18894 6.75407 9.04231C8.89297 8.87047 11.0352 8.7871 13.1806 8.86091C17.2064 8.99893 21.2152 9.48126 25.2464 9.58838C25.1899 9.16678 25.1338 8.74519 25.0775 8.32323C20.9607 8.91544 16.758 8.85488 12.6178 9.24179C8.66843 9.61058 4.72616 10.0868 0.856065 10.988C0.140611 11.1547 0.325562 12.2353 1.02432 12.2531C2.95429 12.3024 4.88559 11.8249 6.80414 11.6496C9.00757 11.4481 11.2206 11.3646 13.4319 11.3314C15.5124 11.3004 17.5858 11.3349 19.6626 11.4684C21.7465 11.6022 24.0997 11.5814 26.0766 12.3148C26.0766 11.9006 26.0766 11.4866 26.0766 11.0724C25.1567 11.3686 24.1992 11.2739 23.2485 11.2611C22.151 11.2466 21.0406 11.341 19.9442 11.3908C17.7144 11.4921 15.4842 11.5973 13.2552 11.7107C10.9614 11.8277 8.67113 12.0046 6.38009 12.1659C4.52963 12.2959 2.60074 12.2917 0.814436 12.8489C0.251017 13.0247 0.168372 13.9626 0.814436 14.0912C1.6655 14.2602 2.48245 14.1948 3.34138 14.114C4.42865 14.0119 5.53715 14.0673 6.62837 14.0577C8.97809 14.0371 11.327 14.0154 13.6766 14.0871C16.0003 14.1578 18.3218 14.3065 20.6442 14.4252C21.5541 14.4718 22.4515 14.5062 23.362 14.4685C24.3036 14.4295 25.419 14.2889 26.2998 14.703C26.2998 14.3322 26.2998 13.9613 26.2998 13.5905C24.8483 14.3449 22.7367 14.0851 21.1405 14.229C18.8925 14.4315 16.6399 14.5829 14.3875 14.7168C10.1938 14.9658 5.94183 15.1739 1.85482 16.2325C1.16917 16.4101 1.30189 17.5379 2.02343 17.4976C6.42359 17.2518 10.8035 17.2657 15.2054 17.1922C16.938 17.1633 18.67 17.1019 20.4028 17.0959C21.1884 17.0933 21.9738 17.1104 22.7584 17.1546C23.4476 17.193 25.2952 17.0087 25.6498 17.7447C25.776 17.4295 25.9022 17.114 26.0286 16.7985C21.8192 18.4267 17.2481 17.2962 12.9003 17.7901C11.1148 17.9926 9.33054 18.1088 7.5408 18.2725C5.97057 18.4165 4.27467 18.6059 2.89428 19.4396C2.52104 19.6653 2.44281 20.3488 2.89428 20.552C5.26131 21.6169 8.65775 20.8769 11.0996 20.7236C13.2587 20.5877 15.4265 20.6116 17.5884 20.6386C19.5111 20.6622 21.8276 20.3342 23.6625 20.9852C23.612 20.5928 23.5619 20.2003 23.5115 19.8079C22.4152 20.3412 20.5221 19.9283 19.3334 19.9386C17.5972 19.9538 15.8631 20.029 14.134 20.1855C10.998 20.4695 7.90567 20.9765 4.82022 21.6073C4.11596 21.7516 4.27956 22.9024 4.98858 22.8725C7.95017 22.7474 10.9245 22.8519 13.8893 22.7809C16.2054 22.7254 18.658 22.4627 20.9671 22.7411C20.9113 22.3195 20.855 21.898 20.7987 21.4761C18.8169 21.867 16.7723 21.79 14.7696 22.0067C12.4655 22.2559 10.1098 22.5688 7.84772 23.0843C7.15085 23.2433 7.3022 24.3848 8.0161 24.3495C11.9313 24.1565 15.9183 23.5588 19.8254 24.1402C19.7749 23.7477 19.7246 23.3553 19.674 22.963C16.8445 24.4403 13.2146 24.2511 10.1528 24.938C9.41316 25.104 9.64664 26.1463 10.3214 26.2031C12.9048 26.4212 15.2929 27.423 17.8505 26.4275C18.6058 26.1335 18.2783 24.8877 17.5137 25.1852C15.0983 26.1256 12.766 25.1213 10.3214 24.9151C10.3776 25.3367 10.4335 25.7583 10.4901 26.1802C13.6908 25.4617 17.3504 25.6224 20.3136 24.075C20.7706 23.8365 20.7102 22.9794 20.1624 22.898C16.1262 22.2977 12.061 22.8622 8.01608 23.0615C8.07246 23.483 8.12842 23.9048 8.18456 24.3266C10.5499 23.7874 13.0192 23.4479 15.4338 23.2288C17.3349 23.0562 19.2559 23.0888 21.1357 22.7184C21.8974 22.5679 21.6186 21.5316 20.9671 21.4532C18.658 21.1746 16.2054 21.4373 13.8893 21.493C10.9245 21.5639 7.95015 21.4594 4.98856 21.5844C5.04496 22.0062 5.1009 22.4278 5.15706 22.8496C8.59869 22.1458 12.0476 21.6061 15.5519 21.3595C17.2817 21.2379 19.0183 21.2222 20.7514 21.2197C21.9213 21.218 23.0555 21.4532 24.1511 20.9203C24.6858 20.6599 24.471 19.9103 23.9994 19.7429C22.5761 19.2381 21.066 19.4064 19.5859 19.3819C17.4216 19.3462 15.2581 19.3146 13.0936 19.3545C10.9401 19.3943 8.79354 19.6122 6.64261 19.72C5.73467 19.7656 4.37217 19.8166 3.53389 19.4396C3.53389 19.8104 3.53389 20.1813 3.53389 20.5519C5.00095 19.6655 6.90947 19.6023 8.5671 19.4742C10.3325 19.3382 12.0872 19.1322 13.8492 18.9842C18.0181 18.6343 22.3296 19.6019 26.3655 18.0408C26.7652 17.8861 26.936 17.4929 26.7443 17.0947C26.0865 15.7283 24.0026 15.9537 22.7584 15.8665C20.7262 15.7236 18.6721 15.8232 16.6382 15.8725C11.761 15.9907 6.89958 15.9371 2.0234 16.2095C2.07932 16.6313 2.1355 17.0529 2.19179 17.4747C6.4822 16.3633 10.95 16.2154 15.3499 15.9469C17.6034 15.8094 19.8543 15.638 22.1023 15.429C23.7247 15.278 25.4447 15.4798 26.9393 14.703C27.3405 14.4944 27.3658 13.7912 26.9393 13.5905C25.6176 12.9688 24.1139 13.1573 22.6995 13.2055C20.3725 13.2848 17.9979 12.9897 15.673 12.879C13.1616 12.7595 10.6514 12.7367 8.1378 12.7558C6.96195 12.7648 5.78604 12.7781 4.61028 12.7829C3.47351 12.7874 2.27438 13.0722 1.1512 12.8489C1.1512 13.263 1.1512 13.677 1.1512 14.0911C3.124 13.4755 5.31968 13.5293 7.36543 13.3841C9.65278 13.2222 11.9396 13.0591 14.2303 12.951C16.4495 12.8461 18.6692 12.7338 20.889 12.6365C22.6589 12.5587 24.7099 12.8629 26.4137 12.3148C27.0364 12.1143 26.9963 11.2889 26.4137 11.0724C24.605 10.4018 22.5255 10.4008 20.6255 10.2501C18.3846 10.0722 16.1493 10.0244 13.9028 10.0382C11.6913 10.052 9.48071 10.1482 7.27586 10.3216C5.20434 10.4843 3.09919 11.0181 1.0242 10.9651C1.08073 11.3866 1.13667 11.8084 1.19281 12.2302C5.27338 11.2798 9.42706 10.8227 13.5902 10.4395C17.5256 10.0775 21.4989 10.1286 25.4144 9.5656C26.1454 9.46041 25.9319 8.31849 25.2463 8.30045C21.0493 8.18895 16.8755 7.69961 12.6833 7.55578C10.5415 7.48234 8.39523 7.62243 6.26134 7.7938C4.47553 7.93716 2.6593 7.92963 0.897473 8.28107C0.200477 8.42021 0.353936 9.61789 1.06583 9.54624C4.77268 9.17287 8.43853 8.49862 12.1295 8.00152C15.9883 7.48174 19.8769 7.35525 23.7481 6.96636C24.547 6.88599 24.5792 5.69635 23.7481 5.67826C16.7191 5.52608 9.68643 4.46498 2.68709 5.6166C2.79919 6.03071 2.91151 6.44477 3.02395 6.85887C6.03584 6.09058 9.13958 6.02874 12.2198 5.78188C13.8544 5.6509 15.482 5.43882 17.1178 5.31497C18.5194 5.20905 19.9532 5.26999 21.336 4.9977C21.8859 4.88936 21.9406 4.08155 21.4872 3.82041C19.605 2.73666 16.8371 2.75798 14.7354 2.63825C11.8272 2.47247 8.92471 2.69837 6.01883 2.80234C6.07475 3.22395 6.13093 3.64554 6.18719 4.06751C8.24298 3.68456 10.2513 3.05585 12.3155 2.72284C13.3453 2.5567 14.3872 2.46169 15.4241 2.35602C16.2404 2.27278 17.0138 2.32307 17.7984 2.03731C18.3694 1.82922 18.4347 0.975109 17.7984 0.795058C16.4801 0.422159 15.1111 0.450023 13.7543 0.492828C12.4216 0.53486 10.9822 0.416122 9.72067 0.921802C8.96965 1.22291 9.29638 2.46892 10.0577 2.16403Z" fill="black" fill-opacity="0.2"/>
<path d="M17.813 7.55859H8.85661C7.90134 7.55859 7.12695 8.38848 7.12695 9.41199V18.7155C7.12695 19.7391 7.90134 20.5689 8.85661 20.5689H17.813C18.7684 20.5689 19.5428 19.7391 19.5428 18.7155V9.41199C19.5428 8.38848 18.7684 7.55859 17.813 7.55859ZM15.8309 9.44424C15.8309 9.44424 15.8629 9.08748 16.182 9.08748H17.906C17.906 9.08748 18.2254 9.11996 18.2254 9.41176C18.2254 9.70407 18.2254 11.2291 18.2254 11.2291C18.2254 11.2291 18.1612 11.5044 17.9537 11.5044C17.7462 11.5044 16.15 11.5044 16.15 11.5044C16.15 11.5044 15.8309 11.4884 15.8309 11.1641V9.44424ZM13.3546 11.5911C14.7082 11.5911 15.8052 12.7063 15.8052 14.0817C15.8052 15.4572 14.7082 16.5723 13.3546 16.5723C12.0014 16.5723 10.9038 15.4571 10.9038 14.0817C10.9038 12.7063 12.0014 11.5911 13.3546 11.5911ZM18.2559 18.661C18.2559 18.661 18.2332 19.0401 17.8831 19.0401H8.76991C8.76991 19.0401 8.41397 18.9713 8.41397 18.6783C8.41397 18.3855 8.42708 13.0434 8.42708 13.0434H9.63693C9.63693 13.0434 8.94735 15.4494 10.8728 17.0624C10.8728 17.0624 11.9007 18.0144 13.4227 17.9882C13.4227 17.9882 15.2702 17.9087 16.2716 16.6133C16.2716 16.6133 17.5559 15.0803 17.0815 13.0146H18.2559L18.2559 18.661Z" fill="white"/>
</svg>
