<svg width="50" height="50" viewBox="0 0 50 50" fill="none" xmlns="http://www.w3.org/2000/svg">
<path d="M18.5443 6.29652C20.328 5.59269 22.2889 5.73965 24.1738 5.67831C26.492 5.6036 28.8548 5.45644 31.1126 6.08473C31.1126 5.39306 31.1126 4.7014 31.1126 4.00973C29.7414 4.5016 28.2905 4.4016 26.86 4.54535C25.1702 4.71477 23.4856 4.91315 21.8047 5.15527C18.298 5.66069 14.8875 6.76206 11.4022 7.40073C10.1982 7.62177 10.4899 9.5561 11.6885 9.51398C16.0924 9.35935 20.4895 9.05027 24.8993 9.16015C27.1818 9.21744 29.4867 9.3909 31.7486 9.70102C33.3907 9.92635 35.3983 10.0927 36.8606 10.9214C36.9464 10.2658 37.0314 9.61031 37.1172 8.95469C34.4481 9.47206 31.577 9.3166 28.8662 9.53806C26.1507 9.76035 23.4463 10.1024 20.7286 10.3012C15.7968 10.6617 10.8505 10.8546 6.03283 12.0635C4.66078 12.4082 5.26583 14.3549 6.60466 14.1385C18.2698 12.2497 30.0693 14.0685 41.7843 14.3181C41.7843 13.6007 41.7843 12.8839 41.7843 12.1665C35.4853 12.7891 29.1621 13.025 22.8763 13.792C16.3302 14.5907 9.84624 15.8253 3.2807 16.4759C3.37645 17.1801 3.47158 17.8843 3.56691 18.5891C6.62224 17.989 9.83528 18.0307 12.9364 17.7857C16.5672 17.4987 20.2037 17.3594 23.8455 17.4827C30.6795 17.7133 37.4845 18.5189 44.3275 18.6979C44.2316 17.9936 44.1364 17.2894 44.0409 16.5846C37.0525 17.5738 29.9184 17.4726 22.8902 18.119C16.1861 18.7349 9.49399 19.5304 2.92441 21.0356C1.70987 21.3142 2.02387 23.1192 3.21003 23.1489C6.4862 23.2313 9.76462 22.4338 13.0214 22.1409C16.7617 21.8042 20.5184 21.6648 24.2722 21.6093C27.8039 21.5575 31.3236 21.6152 34.8489 21.8382C38.3864 22.0617 42.3811 22.0269 45.7368 23.252C45.7368 22.5601 45.7368 21.8686 45.7368 21.1767C44.1754 21.6715 42.5499 21.5134 40.9362 21.4919C39.0731 21.4676 37.1882 21.6254 35.3271 21.7085C31.5418 21.8778 27.7561 22.0535 23.9722 22.2429C20.0785 22.4383 16.1907 22.7338 12.3016 23.0032C9.16045 23.2204 5.88612 23.2133 2.85383 24.1441C1.89741 24.4378 1.75712 26.0044 2.85383 26.2191C4.29853 26.5015 5.68533 26.3922 7.14337 26.2574C8.98903 26.0867 10.8707 26.1792 12.7231 26.1633C16.7118 26.1288 20.6991 26.0926 24.6876 26.2124C28.6322 26.3305 32.573 26.5788 36.5153 26.7772C38.0598 26.8549 39.5832 26.9124 41.1289 26.8494C42.7272 26.7843 44.6207 26.5495 46.1158 27.2411C46.1158 26.6217 46.1158 26.0023 46.1158 25.3829C43.6519 26.643 40.0674 26.209 37.3578 26.4495C33.5417 26.7877 29.718 27.0406 25.8944 27.2642C18.7754 27.6802 11.5577 28.0278 4.61991 29.7959C3.45595 30.0927 3.68128 31.9764 4.90612 31.9092C12.3755 31.4987 19.8104 31.5217 27.2828 31.3991C30.224 31.3507 33.164 31.2483 36.1056 31.2382C37.4391 31.2339 38.7723 31.2624 40.1042 31.3361C41.2742 31.4003 44.4105 31.0924 45.0125 32.3219C45.2267 31.7954 45.4408 31.2684 45.6554 30.7414C38.5099 33.4612 30.7503 31.5728 23.3698 32.3976C20.339 32.7359 17.3101 32.93 14.272 33.2035C11.6065 33.444 8.72766 33.7604 6.38441 35.153C5.75083 35.5299 5.61803 36.6716 6.38441 37.011C10.4025 38.7899 16.168 37.5537 20.313 37.2977C23.9783 37.0708 27.6581 37.1106 31.328 37.1558C34.5919 37.1952 38.5241 36.6473 41.639 37.7347C41.5531 37.0792 41.4681 36.4236 41.3827 35.7682C39.5216 36.659 36.308 35.9694 34.2902 35.9866C31.343 36.0119 28.3994 36.1376 25.464 36.3989C20.1407 36.8734 14.8914 37.7201 9.6537 38.7739C8.45824 39.0148 8.73595 40.9372 9.93953 40.8871C14.9669 40.6782 20.0159 40.8527 25.0487 40.7341C28.9803 40.6414 33.1437 40.2026 37.0634 40.6677C36.9687 39.9635 36.8731 39.2593 36.7776 38.5547C33.4133 39.2077 29.9427 39.0789 26.543 39.4409C22.6318 39.8573 18.6329 40.3799 14.793 41.241C13.61 41.5066 13.8669 43.4132 15.0788 43.3543C21.7249 43.032 28.4929 42.0335 35.1254 43.0047C35.0396 42.3491 34.9542 41.6936 34.8683 41.0384C30.0653 43.5059 23.9034 43.1899 18.706 44.3373C17.4504 44.6146 17.8467 46.3557 18.9922 46.4506C23.3775 46.8147 27.4313 48.4881 31.7729 46.8252C33.0551 46.3341 32.4992 44.2533 31.2013 44.7502C27.1012 46.321 23.1419 44.6435 18.9922 44.299C19.0875 45.0032 19.1825 45.7074 19.2784 46.4123C24.7118 45.2121 30.9239 45.4805 35.9541 42.8958C36.7298 42.4974 36.6274 41.0657 35.6974 40.9297C28.8459 39.9271 21.9452 40.8699 15.0788 41.2028C15.1745 41.907 15.2695 42.6114 15.3648 43.316C19.38 42.4155 23.5718 41.8483 27.6706 41.4823C30.8976 41.1941 34.1586 41.2485 37.3496 40.6297C38.6427 40.3783 38.1694 38.6474 37.0634 38.5164C33.1437 38.0511 28.9803 38.4899 25.0487 38.5829C20.0158 38.7012 14.9668 38.5268 9.93949 38.7356C10.0352 39.4401 10.1302 40.1443 10.2255 40.8489C16.0678 39.6732 21.9225 38.7719 27.871 38.36C30.8073 38.1567 33.7554 38.1306 36.6974 38.1264C38.6831 38.1235 40.6086 38.5164 42.4684 37.6264C43.3761 37.1914 43.0113 35.9392 42.2109 35.6596C39.7949 34.8164 37.2314 35.0975 34.7189 35.0567C31.045 34.9969 27.3722 34.9441 23.6981 35.0109C20.0423 35.0773 16.3986 35.4413 12.7472 35.6214C11.206 35.6976 8.89316 35.7828 7.47016 35.153C7.47016 35.7724 7.47016 36.3919 7.47016 37.011C9.96053 35.5304 13.2003 35.4249 16.0142 35.2109C19.011 34.9836 21.9897 34.6395 24.9806 34.3924C32.0575 33.8079 39.3762 35.4241 46.2274 32.8165C46.9059 32.5582 47.1958 31.9014 46.8703 31.2362C45.7537 28.9539 42.2162 29.3304 40.1042 29.1846C36.6545 28.946 33.1676 29.1124 29.7151 29.1948C21.4358 29.3921 13.1835 29.3026 4.90612 29.7577C5.00103 30.4621 5.09641 31.1663 5.19191 31.8709C12.4751 30.0145 20.0592 29.7674 27.5281 29.319C31.3535 29.0893 35.1744 28.803 38.9905 28.4539C41.7446 28.2016 44.6644 28.5387 47.2015 27.2412C47.8824 26.8928 47.9254 25.7181 47.2015 25.3829C44.9579 24.3445 42.4053 24.6593 40.0042 24.7399C36.0541 24.8722 32.0231 24.3793 28.0767 24.1945C23.8135 23.9949 19.5523 23.9566 15.2855 23.9886C13.2894 24.0036 11.2933 24.0259 9.29745 24.0339C7.36774 24.0414 5.3322 24.5171 3.42558 24.1441C3.42558 24.8358 3.42558 25.5274 3.42558 26.2191C6.77445 25.1908 10.5017 25.2806 13.9744 25.0382C17.8572 24.7677 21.7391 24.4953 25.6276 24.3147C29.3949 24.1394 33.1627 23.952 36.931 23.7894C39.9353 23.6595 43.417 24.1676 46.3092 23.252C47.3662 22.917 47.2982 21.5383 46.3092 21.1768C43.2389 20.0566 39.709 20.055 36.4837 19.8032C32.6797 19.506 28.8852 19.4263 25.0717 19.4493C21.3176 19.4724 17.5651 19.6329 13.8223 19.9226C10.3059 20.1944 6.73233 21.0861 3.20999 20.9974C3.30591 21.7016 3.40087 22.4061 3.4962 23.1107C10.4231 21.5231 17.474 20.7596 24.541 20.1195C31.2215 19.5149 37.9662 19.6003 44.6129 18.6599C45.8537 18.4841 45.4914 16.5767 44.3275 16.5466C37.203 16.3604 30.1179 15.543 23.0016 15.3027C19.3659 15.1801 15.7225 15.4141 12.1002 15.7003C9.0687 15.9397 5.98562 15.9271 2.99483 16.5142C1.81166 16.7466 2.07224 18.7471 3.28066 18.6275C9.57312 18.0038 15.796 16.8775 22.0615 16.0472C28.6119 15.1791 35.2129 14.9677 41.7843 14.3181C43.1405 14.1839 43.1952 12.1968 41.7843 12.1666C29.8524 11.9124 17.9143 10.1399 6.03283 12.0636C6.22308 12.7553 6.41374 13.4469 6.60466 14.1386C11.7174 12.8553 16.9861 12.752 22.2148 12.3397C24.9896 12.1209 27.7524 11.7666 30.5293 11.5598C32.9086 11.3829 35.3424 11.4846 37.6897 11.0299C38.6233 10.8489 38.716 9.49956 37.9464 9.06331C34.7514 7.25306 30.0528 7.28873 26.4851 7.08869C21.5484 6.81181 16.6213 7.1891 11.6885 7.36281C11.7834 8.06702 11.8787 8.77123 11.9743 9.47606C15.464 8.83644 18.8732 7.78627 22.3771 7.23002C24.1252 6.95248 25.894 6.79377 27.6541 6.61727C29.0398 6.47823 30.3527 6.56223 31.6847 6.0849C32.6539 5.73735 32.7648 4.31069 31.6847 4.0099C29.4467 3.38702 27.1231 3.43356 24.8195 3.50506C22.5573 3.57527 20.1139 3.37694 17.9724 4.22165C16.6974 4.72452 17.252 6.80581 18.5443 6.29652Z" fill="url(#paint0_angular_1900_3437)"/>
<path d="M18.7319 5.28094C20.5157 4.5771 22.4765 4.72406 24.3614 4.66273C26.6796 4.58802 29.0424 4.44085 31.3002 5.06915C31.3002 4.37748 31.3002 3.68581 31.3002 2.99415C29.929 3.48602 28.4781 3.38602 27.0476 3.52973C25.3578 3.69915 23.6732 3.89756 21.9923 4.13965C18.4856 4.6451 15.0752 5.74648 11.5899 6.3851C10.3859 6.60615 10.6776 8.54052 11.8761 8.4984C16.28 8.34377 20.6772 8.03465 25.0869 8.14456C27.3692 8.20185 29.6744 8.37531 31.9362 8.68544C33.5783 8.91073 35.5859 9.0771 37.0482 9.90581C37.134 9.25019 37.219 8.59473 37.3049 7.9391C34.6357 8.45648 31.7646 8.30102 29.0538 8.52248C26.3383 8.74473 23.6339 9.08681 20.9162 9.2856C15.9845 9.64615 11.0381 9.83902 6.22045 11.0479C4.84841 11.3926 5.45349 13.3393 6.79228 13.1229C18.4574 11.2341 30.257 13.0529 41.9719 13.3025C41.9719 12.5851 41.9719 11.8683 41.9719 11.1509C35.6729 11.7736 29.3497 12.0094 23.0639 12.7764C16.5178 13.5751 10.0339 14.8097 3.46828 15.4603C3.56403 16.1645 3.6592 16.8687 3.75449 17.5736C6.80987 16.9734 10.0229 17.0151 13.124 16.7701C16.7548 16.4831 20.3913 16.3439 24.0331 16.4671C30.867 16.6977 37.6721 17.5034 44.5151 17.6823C44.4192 16.9781 44.324 16.2739 44.2285 15.569C37.2401 16.5582 30.1059 16.4571 23.0779 17.1034C16.3737 17.7194 9.68158 18.5149 3.11199 20.0201C1.89749 20.2986 2.21145 22.1036 3.39762 22.1333C6.67378 22.2157 9.9522 21.4181 13.209 21.1253C16.9494 20.7886 20.7061 20.6492 24.4598 20.5937C27.9914 20.5419 31.5111 20.5996 35.0365 20.8226C38.574 21.0461 42.5686 21.0113 45.9244 22.2364C45.9244 21.5445 45.9244 20.8531 45.9244 20.1611C44.3629 20.6559 42.7374 20.4978 41.1237 20.4764C39.2606 20.4521 37.3757 20.6097 35.5146 20.6929C31.7293 20.8621 27.9437 21.0379 24.1597 21.2274C20.2659 21.4227 16.3782 21.7182 12.4892 21.9876C9.34795 22.2048 6.07362 22.1977 3.04133 23.1285C2.08491 23.4222 1.94462 24.9887 3.04133 25.2035C4.48603 25.4859 5.87283 25.3766 7.33087 25.2418C9.17653 25.0711 11.0582 25.1636 12.9106 25.1476C16.8993 25.1132 20.8866 25.077 24.8751 25.1968C28.8197 25.3149 32.7604 25.5632 36.7028 25.7616C38.2473 25.8393 39.7707 25.8968 41.3164 25.8338C42.9147 25.7686 44.8082 25.5339 46.3033 26.2255C46.3033 25.6061 46.3033 24.9866 46.3033 24.3673C43.8394 25.6274 40.2549 25.1934 37.5453 25.4339C33.7292 25.7721 29.9055 26.0249 26.0819 26.2486C18.963 26.6646 11.7452 27.0121 4.80741 28.7803C3.64349 29.077 3.86878 30.9608 5.09362 30.8936C12.563 30.483 19.9979 30.5061 27.4703 30.3834C30.4115 30.3351 33.3515 30.2326 36.2931 30.2225C37.6266 30.2183 38.9598 30.2468 40.2917 30.3205C41.4617 30.3846 44.598 30.0768 45.2 31.3063C45.4142 30.7798 45.6283 30.2527 45.8429 29.7258C38.6974 32.4455 30.9378 30.5572 23.5573 31.382C20.5265 31.7203 17.4976 31.9144 14.4595 32.1879C11.794 32.4284 8.91516 32.7447 6.57191 34.1374C5.93833 34.5143 5.80553 35.656 6.57191 35.9954C10.59 37.7743 16.3555 36.5381 20.5006 36.282C24.1658 36.0551 27.8456 36.095 31.5155 36.1401C34.7794 36.1796 38.7116 35.6316 41.8265 36.719C41.7407 36.0636 41.6556 35.4079 41.5702 34.7525C39.7091 35.6434 36.4955 34.9537 34.4777 34.9709C31.5305 34.9962 28.5869 35.1219 25.6516 35.3833C20.3282 35.8577 15.0789 36.7045 9.84124 37.7583C8.64574 37.9991 8.92345 39.9215 10.127 39.8715C15.1544 39.6627 20.2034 39.8371 25.2362 39.7185C29.1678 39.6258 33.3312 39.187 37.2509 39.6521C37.1562 38.9479 37.0607 38.2437 36.9651 37.5391C33.6009 38.1921 30.1302 38.0633 26.7305 38.4253C22.8193 38.8416 18.8204 39.3643 14.9805 40.2254C13.7975 40.491 14.0545 42.3976 15.2663 42.3386C21.9124 42.0164 28.6804 41.0179 35.3129 41.9891C35.2271 41.3334 35.1417 40.678 35.0558 40.0228C30.2528 42.4903 24.0909 42.1743 18.8935 43.3217C17.6379 43.5989 18.0342 45.34 19.1797 45.4349C23.565 45.7991 27.6189 47.4725 31.9604 45.8096C33.2426 45.3185 32.6867 43.2376 31.3888 43.7346C27.2885 45.3053 23.3294 43.6279 19.1797 43.2834C19.275 43.9876 19.37 44.6918 19.466 45.3966C24.8993 44.1964 31.1114 44.4649 36.1417 41.8801C36.9173 41.4818 36.8149 40.0501 35.8849 39.9141C29.0334 38.9114 22.1327 39.8543 15.2663 40.1872C15.362 40.8914 15.457 41.5958 15.5523 42.3004C19.5675 41.3998 23.7593 40.8326 27.8581 40.4667C31.0851 40.1784 34.3462 40.2329 37.5371 39.6141C38.8302 39.3627 38.3569 37.6318 37.2509 37.5008C33.3312 37.0354 29.1678 37.4743 25.2362 37.5672C20.2034 37.6856 15.1544 37.5112 10.127 37.72C10.2227 38.4244 10.3177 39.1287 10.413 39.8333C16.2553 38.6576 22.1099 37.7562 28.0585 37.3443C30.9948 37.1411 33.9429 37.115 36.8849 37.1107C38.8707 37.1079 40.7961 37.5008 42.6559 36.6107C43.5636 36.1757 43.1988 34.9236 42.3984 34.644C39.9823 33.8007 37.4189 34.0819 34.9064 34.041C31.2324 33.9813 27.5597 33.9285 23.8856 33.9952C20.2298 34.0616 16.586 34.4256 12.9348 34.6058C11.3935 34.6819 9.08066 34.7671 7.65766 34.1374C7.65766 34.7567 7.65766 35.3762 7.65766 35.9954C10.148 34.5146 13.3878 34.4092 16.2017 34.1952C19.1985 33.9679 22.1772 33.6238 25.1681 33.3766C32.245 32.7923 39.5637 34.4084 46.4149 31.8008C47.0934 31.5425 47.3833 30.8856 47.0578 30.2205C45.9412 27.9382 42.4037 28.3147 40.2917 28.1689C36.842 27.9303 33.3551 28.0967 29.9026 28.1791C21.6233 28.3764 13.371 28.287 5.09358 28.742C5.18849 29.4464 5.28387 30.1506 5.37941 30.8553C12.6625 28.9989 20.2467 28.7517 27.7156 28.3033C31.5409 28.0736 35.3619 27.7874 39.1779 27.4382C41.9321 27.186 44.8518 27.523 47.389 26.2255C48.0699 25.8771 48.1128 24.7025 47.389 24.3673C45.1453 23.3289 42.5928 23.6436 40.1917 23.7241C36.2416 23.8566 32.2106 23.3636 28.2642 23.1789C24.0009 22.9793 19.7398 22.941 15.4729 22.973C13.4769 22.988 11.4807 23.0102 9.48487 23.0183C7.55516 23.0258 5.51962 23.5015 3.61299 23.1284C3.61299 23.8201 3.61299 24.5118 3.61299 25.2035C6.96187 24.1751 10.6891 24.265 14.1618 24.0226C18.0446 23.7521 21.9265 23.4796 25.815 23.2991C29.5822 23.1238 33.3502 22.9363 37.1184 22.7738C40.1227 22.6439 43.6044 23.1519 46.4966 22.2364C47.5537 21.9014 47.4856 20.5227 46.4966 20.1611C43.4263 19.041 39.8964 19.0394 36.6711 18.7875C32.8672 18.4904 29.0726 18.4106 25.2592 18.4337C21.505 18.4568 17.7525 18.6173 14.0097 18.9069C10.4933 19.1788 6.91974 20.0705 3.39741 19.9818C3.49337 20.686 3.58833 21.3904 3.68362 22.0951C10.6105 20.5075 17.6614 19.744 24.7284 19.1039C31.4089 18.4993 38.1536 18.5847 44.8003 17.6442C46.0412 17.4685 45.6788 15.5611 44.5149 15.531C37.3905 15.3447 30.3053 14.5274 23.189 14.2871C19.5533 14.1644 15.9099 14.3984 12.2876 14.6847C9.25612 14.9241 6.17303 14.9116 3.18228 15.4986C1.99912 15.731 2.25962 17.7316 3.46808 17.6119C9.76053 16.9882 15.9834 15.862 22.2489 15.0316C28.7993 14.1634 35.4003 13.9521 41.9717 13.3026C43.3279 13.1683 43.3826 11.1812 41.9717 11.151C30.0398 10.8968 18.1017 9.12435 6.2202 11.048C6.41049 11.7397 6.60116 12.4313 6.79203 13.123C11.9048 11.8397 17.1735 11.7364 22.4022 11.3241C25.177 11.1053 27.9398 10.751 30.7167 10.5441C33.0959 10.3672 35.5299 10.469 37.8772 10.0142C38.8107 9.83323 38.9034 8.4839 38.1338 8.04769C34.9388 6.23744 30.2402 6.27306 26.6725 6.07306C21.7358 5.79615 16.8087 6.17348 11.8759 6.34715C11.9708 7.0514 12.0662 7.7556 12.1617 8.46044C15.6515 7.82077 19.0606 6.7706 22.5646 6.21435C24.3127 5.93685 26.0814 5.77815 27.8415 5.60165C29.2272 5.4626 30.5402 5.5466 31.8721 5.06927C32.8413 4.72169 32.9522 3.29502 31.8721 2.99427C29.6341 2.3714 27.3103 2.41794 25.007 2.48944C22.7447 2.55965 20.3013 2.36131 18.1599 3.20598C16.885 3.70894 17.4396 5.79023 18.7319 5.28094Z" fill="url(#paint1_angular_1900_3437)"/>
<path d="M31.8967 14.293H16.693C15.0714 14.293 13.7568 15.6792 13.7568 17.3888V32.9291C13.7568 34.6388 15.0714 36.0249 16.693 36.0249H31.8966C33.5184 36.0249 34.833 34.6388 34.833 32.9291V17.3888C34.833 15.6792 33.5185 14.293 31.8967 14.293ZM28.532 17.4427C28.532 17.4427 28.5863 16.8468 29.1279 16.8468H32.0545C32.0545 16.8468 32.5966 16.901 32.5966 17.3884C32.5966 17.8767 32.5966 20.424 32.5966 20.424C32.5966 20.424 32.4877 20.8839 32.1355 20.8839C31.7833 20.8839 29.0737 20.8839 29.0737 20.8839C29.0737 20.8839 28.532 20.8571 28.532 20.3155V17.4427ZM24.3283 21.0288C26.6262 21.0288 28.4883 22.8915 28.4883 25.1889C28.4883 27.4864 26.6262 29.3491 24.3283 29.3491C22.0313 29.3491 20.1682 27.4864 20.1682 25.1889C20.1682 22.8915 22.0313 21.0288 24.3283 21.0288ZM32.6485 32.838C32.6485 32.838 32.61 33.4713 32.0157 33.4713H16.5458C16.5458 33.4713 15.9416 33.3563 15.9416 32.8668C15.9416 32.3778 15.9638 23.4546 15.9638 23.4546H18.0176C18.0176 23.4546 16.847 27.4735 20.1155 30.1677C20.1155 30.1677 21.8604 31.7579 24.4441 31.7142C24.4441 31.7142 27.5802 31.5814 29.2801 29.4175C29.2801 29.4175 31.4602 26.8569 30.655 23.4064H32.6484L32.6485 32.838Z" fill="white"/>
<defs>
<radialGradient id="paint0_angular_1900_3437" cx="0" cy="0" r="1" gradientUnits="userSpaceOnUse" gradientTransform="translate(24.885 25.293) rotate(43.5096) scale(30.0953 30.5594)">
<stop offset="0.0808375" stop-color="#FEDA77"/>
<stop offset="0.263963" stop-color="#F58529"/>
<stop offset="0.393987" stop-color="#515BD4"/>
<stop offset="0.682539" stop-color="#8134AF"/>
<stop offset="0.952558" stop-color="#DD2A2A"/>
</radialGradient>
<radialGradient id="paint1_angular_1900_3437" cx="0" cy="0" r="1" gradientUnits="userSpaceOnUse" gradientTransform="translate(25.0725 24.2774) rotate(43.5096) scale(30.0953 30.5594)">
<stop offset="0.0808375" stop-color="#FEDA77"/>
<stop offset="0.263963" stop-color="#F58529"/>
<stop offset="0.393987" stop-color="#515BD4"/>
<stop offset="0.682539" stop-color="#8134AF"/>
<stop offset="0.952558" stop-color="#DD2A2A"/>
</radialGradient>
</defs>
</svg>
