<svg width="511" height="81" viewBox="0 0 511 81" fill="none" xmlns="http://www.w3.org/2000/svg">
<path d="M30.49 0.629995H33.805L34.315 0.204995L36.1 0.289999L37.375 0.459997L34.315 0.969995L33.72 1.14L32.785 1.905L30.49 0.629995ZM32.785 2.075L34.315 1.565L33.125 4.2L32.785 2.075ZM3.97 59.96L4.14 59.62L2.95 57.495V57.41L2.185 57.495L2.355 54.86L1.675 58.345V51.715L2.355 54.605V54.265L2.95 52.48L2.61 52.14L2.27 53.16L1.845 51.46L1.675 51.29L1.76 51.035L1.59 50.1L1.93 50.525L2.355 49.335L1.675 49.59V47.89L2.525 47.04V42.025L1.25 42.11L2.1 38.455L0.315 39.73V34.715H0.4L1.76 31.23V31.145H1.845L2.355 31.23L2.695 28.34L2.95 29.02L3.375 27.15L3.29 26.385L3.8 26.3V26.13H3.715L3.8 25.96V18.14L3.97 17.375L2.61 16.1L2.355 16.44V15.93L1.93 18.14V16.44L2.355 15.845V15.335L2.1 15.25L2.355 15.08V14.74H2.525V6.495L3.205 3.18L4.82 2.5H10.005L11.28 3.095L10.005 3.265V3.35L9.41 3.435L8.9 3.01L7.03 3.945L7.71 3.86L8.985 3.18L9.41 3.605L7.71 3.86L6.18 4.625L10.005 4.115L9.41 3.605L10.005 3.52V3.35L11.365 3.095H11.28L11.705 3.01L10.6 2.5H30.49L31.935 3.265L32.785 2.33L33.125 4.455L31.51 7.345L29.81 7.005L27.94 6.835L27.855 6.41H27.6L25.475 5.645L23.775 5.305L21.31 5.815L21.65 6.75L24.03 6.24L25.645 6.58L25.475 6.325L27.6 7.09L27.94 8.96L28.195 9.215L30.065 9.385L30.745 9.555L31.51 8.11L32.02 8.025L33.125 5.985L36.44 5.305L35.93 6.58H36.185L36.95 4.54L33.635 5.22L34.825 2.58499L37.885 2.075L36.61 1.99L38.395 2.075L41.88 2.67L43.58 3.01L45.28 3.52L46.895 4.2L49.275 5.475L49.445 5.305L52.08 7.6L53.1 9.045L54.035 10.575L54.715 12.19L55.48 15.59L54.29 15.505L54.715 16.1L51.825 15.675L51.995 15.505L50.72 15.675L51.825 17.29L50.295 17.375L47.15 17.29L46.895 15.93L46.3 16.95L46.555 18.48L45.705 18.14L45.535 18.31V18.055L45.11 17.885L45.62 16.525L45.705 14.91L46.81 15.42L46.64 14.145L46.725 12.615L48 13.55L49.785 13.04L49.87 11.68L46.725 12.615V12.53L46.47 12.785L45.705 14.74L44.43 18.565L44.855 20.775L42.22 20.52L40.52 21.03L40.775 18.225L41.795 16.44L41.71 14.995L42.9 12.275H42.985L42.22 12.615L41.115 14.91L39.415 17.885L39.585 18.99L39.16 18.905L38.99 20.605L38.055 18.65H37.885L38.99 20.945H39.075L39.245 23.325L37.29 23.07L38.82 25.96L38.99 26.13L38.48 25.28L40.605 25.535V25.62L41.795 25.28L42.305 26.555L42.985 26.81L41.88 24.26H41.71L41.54 21.88L44.345 21.03L44.26 23.58L42.39 24.09L44.855 24.345L43.24 26.81L46.47 27.065L47.83 29.36V29.275L49.785 28.425L48.85 30.975L50.465 29.955L50.975 30.805L51.825 28.425L50.975 28.765L50.89 29.275L50.635 28.935L49.87 29.275L50.21 28.255L49.445 26.895L49.615 26.3H49.19L49.53 23.835H49.275L48.935 26.3L48.255 25.195L47.66 26.895L44.26 26.64L46.045 23.92L47.49 23.835L47.405 23.58L47.065 23.835L45.11 21.285L46.555 21.54L45.365 21.285L46.98 18.48H47.575L47.83 17.885L47.745 18.48L50.04 18.565L51.485 18.48V20.69L51.57 20.86V18.48L53.525 18.735L51.995 16.61L54.12 16.78L56.075 16.61L54.8 18.48L54.12 17.545L53.695 18.82L54.46 18.905L55.055 19.67L55.48 18.395L55.65 20.095L55.735 21.88L55.31 21.285L54.8 24.175L54.545 24.515L55.14 26.81L57.01 24.175L56.245 25.875L55.225 27.405L52.505 29.955L51.06 30.89L53.1 33.95L53.185 34.12L55.14 36.755L55.735 38.88H55.82L55.905 38.455L55.225 36.33L55.99 37.86L56.415 39.39V39.305H56.5L56.415 39.56L56.925 41.175L56.33 41.515V42.28L57.01 42.875L56.755 46.615L56.585 46.785L56.415 48.23L55.31 49.59L54.205 50.695L51.825 48.4L50.975 46.105L49.615 43.3L47.745 43.98L45.195 44.15L45.025 44.575L47.83 44.405L49.7 43.725L51.06 46.53L51.91 48.825L54.29 51.12L55.395 50.015L56.5 48.74L55.395 51.97L54.545 53.415L53.355 54.945L53.015 55.285L52.335 56.22L51.23 57.155L51.145 57.24L50.975 57.325L51.145 57.24L50.125 54.01L47.49 54.86L45.45 54.775L45.365 54.945L47.405 55.03L50.04 54.18L50.975 57.41L49.615 58.43L46.555 59.96L45.79 60.215L45.45 60.385H45.535L44.94 60.555L43.24 61.065L45.11 59.79L44.43 59.875L43.07 60.895L42.39 61.065L42.985 61.15L41.625 62.425L38.225 62.935L34.74 63.19H28.195L27.77 63.02L27.6 62H10.77L12.64 61.915L11.535 59.62L10.6 57.07L10.09 56.815L10.855 59.11L11.96 61.405L10.09 61.49H5.245L4.31 59.875L3.97 59.96ZM11.96 2.925L11.705 3.01L11.875 3.095L11.705 3.35L10.855 3.605L10.94 4.455L11.11 4.625L10.94 4.795L11.11 6.24L12.045 7.175L12.555 5.985L11.62 6.24L12.47 4.71L12.3 4.115L11.79 5.305L11.11 4.625L11.705 3.35L12.045 3.265L11.96 3.095H11.875L11.96 2.925ZM10.26 3.86L10.855 3.605V3.435L10.005 3.52L10.26 6.07L10.94 4.795V4.455L10.26 3.86ZM36.015 9.47L36.61 9.725L37.205 7.345H36.525L36.015 9.13L35.59 7.43L35.505 7.685L35.93 9.47H36.015ZM39.925 13.125L40.605 12.785L40.86 11.17L40.435 7.43L40.18 8.875L40.35 10.745L39.925 13.125ZM17.485 11.68L16.635 13.125L16.805 14.06L17.74 12.615L19.865 8.705L22.84 10.15L22.415 9.13L19.61 7.77L17.485 11.68ZM5.585 15.675L3.375 15.42L5.075 14.145L4.99 14.06L2.95 14.655L2.355 15.08V15.335L3.375 15.42L2.78 15.845V15.93L4.225 16.1V15.845L4.565 16.1L5.84 16.27L8.56 15.59L7.88 13.89L7.54 13.295H7.455L6.86 12.275L5.755 10.66H5.925L5.755 10.32L7.625 8.96L8.05 10.32L8.475 11L10.09 8.365L7.625 8.96H7.285L5.585 10.235L5.755 10.32L3.46 10.66L5.585 13.89L5.33 13.975L5.075 14.145L5.585 15.675ZM32.36 13.55L30.32 13.635L30.235 15.25L32.615 15.165L34.06 12.02L34.995 13.04L35.505 11.765L34.145 10.32L33.805 10.405L32.36 13.55ZM9.75 13.04H9.665L9.75 13.295L12.045 13.04L14.085 10.915L15.615 10.49V10.405H13.575L11.79 10.915L9.75 13.04ZM43.495 11.17L43.24 12.02L44.005 11.34L43.495 11.17ZM4.735 13.295L3.035 14.57L4.99 14.06L4.735 13.295ZM23.775 26.64V27.15L23.86 27.065L23.945 26.895L24.625 26.98L28.365 26.215L30.49 28.85L32.02 28.68L34.315 28.935L33.72 30.55L34.06 31.145L35.25 30.975L34.315 29.19L36.95 29.7L35.76 30.89H37.885L37.375 30.21H37.29L37.375 30.125L36.95 29.445L38.905 28.51V28.17L37.63 27.915L36.95 28.255L35.42 25.28H35.165L35.335 25.62L34.315 28.34L32.02 28.085L30.49 28.255L28.365 25.62L25.05 26.3L25.815 24.26H30.065L31.935 23.75L32.87 21.88L31.425 18.905L33.805 17.035L35.59 16.865L36.61 15.505L38.99 15.675L38.82 14.655L36.355 14.485L35.335 14.57L34.485 16.695L31.765 17.715L28.195 17.63L27.6 16.185L27.175 16.44L26.495 15.675L22.925 17.97L23.945 14.74L22.925 17.46V18.905L22.84 18.225L22.245 18.395L20.545 19.925L19.61 17.63L20.12 14.91L20.035 14.825L19.78 15.335L17.91 16.95L18.93 18.055L19.61 18.14L20.545 20.435L20.29 23.41H20.375L20.545 21.455L22.925 21.115V24.175H22.67L23.69 26.725L23.775 26.64ZM11.705 15.505L8.73 16.27L8.645 15.93L7.795 18.225L9.41 18.31L9.495 18.14L11.11 19.16L11.705 18.225H10.685L11.705 15.505ZM34.995 18.225L37.12 18.565L34.995 18.225ZM36.44 20.775L34.91 22.9H35.505L35.675 22.645L35.76 22.9L37.035 22.815L36.525 20.945L34.995 18.31H34.91L36.44 20.775ZM51.06 22.985L52.93 21.37L51.655 20.945L49.53 22.05L49.02 22.475L49.615 23.24L49.7 22.985L49.785 23.24L51.145 22.05L50.975 22.985L49.87 23.495L49.955 23.665L50.125 23.835H50.04L50.295 24.345L50.465 23.835L51.825 26.215L52.76 26.13V26.045L51.485 23.155L51.06 22.985ZM47.15 21.625H47.235L46.895 21.54L46.81 21.625H47.15ZM48.765 21.965H48.85L48.595 21.88L48.68 21.965H48.765ZM25.815 24.005L25.05 26.045L23.775 26.3L22.925 22.39L25.815 24.005ZM34.485 23.495L34.655 24.005L34.825 23.75L34.655 23.325L34.485 23.495ZM6.18 29.445L5.585 28.255L5.5 28.68L5.84 29.445L5.33 29.19V29.275L5.67 29.445L6.605 31.06L9.41 31.145H9.75L8.22 31.06L7.115 29.7L8.05 26.81L8.56 26.725L9.495 24.6L10.94 24.005L11.025 23.325L8.475 24.43L7.455 26.555L7.54 26.81L6.775 26.725L6.18 29.445ZM13.66 30.38L16.72 29.275L18.845 29.53L18.59 28.68L16.72 28.425L13.66 29.53L13.83 25.705L11.875 26.045V26.13L13.49 25.875L13.32 29.7L13.405 30.805L11.535 29.785L11.45 30.04L13.745 31.23L13.66 30.38ZM20.46 25.79H18.165L18.59 27.15H20.46L21.055 28.51H21.735L20.46 25.79ZM4.905 26.725L4.735 26.385L4.395 26.3H4.31L4.565 26.725H4.905ZM47.235 29.275L46.47 31.23L46.725 31.995L47.745 29.445L45.535 28.34V28.51L47.235 29.275ZM42.9 33.355H44.43L43.58 32.08L42.815 30.295L41.795 29.615L40.01 28.595L41.285 31.485L42.645 33.525L42.9 33.355ZM23.095 29.7L23.35 28.765L22.585 28.68L22.075 30.465L24.285 30.975L23.435 31.91L23.605 32.08H28.11L30.83 31.145L32.87 31.23H32.955L30.405 31.145L27.685 32.08H25.9L27.6 29.445L26.155 29.36L25.9 29.7H23.095ZM10.685 29.36L10.6 28.765H10.515L10.345 29.445H10.77L10.685 29.36ZM21.055 30.55H21.48L21.395 30.38H21.225L21.055 30.55ZM40.69 33.95L41.88 34.12L42.39 33.78L39.415 33.355L38.055 30.72L37.885 30.975L39.16 33.355L40.69 33.95ZM3.715 31.145L3.63 31.4H3.97L3.63 30.805L3.715 31.145ZM20.885 32.93V32.845L20.375 31.06L19.1 31.23L19.865 33.61L21.48 33.95L21.14 33.695L20.885 32.93ZM15.785 36.075L17.4 36.67L17.485 36.5L14.34 35.395L15.105 34.375L14.425 34.29L13.745 31.485V31.23L12.47 31.315L13.065 33.61L11.025 36.075L9.41 36.84L8.56 38.965L9.58 40.92L8.645 41.345L9.835 41.77L12.895 40.24L11.875 38.285L12.725 36.16L14.34 35.395L16.805 38.455L17.06 37.69L15.785 36.075ZM48.595 39.9L49.445 37.18L49.275 36.075H48.935L47.66 34.205L46.81 32.08V32.165L47.745 34.375L49.02 36.245L48 39.56L48.765 40.155V40.07L48.595 39.9ZM36.95 36.67L35.76 36.84L34.825 38.625L34.995 38.88L36.015 38.625L37.12 36.67L38.48 33.525L37.46 33.1L36.44 35.225L36.95 36.67ZM25.135 33.78L24.71 33.27L23.69 35.905L24.37 35.82L25.135 33.78ZM32.02 33.525L34.91 33.95L32.02 33.525ZM44.005 35.82L41.965 38.71L42.305 38.625L44.175 35.99L45.875 36.415L45.705 36.075L44.855 35.82L45.365 35.055L45.195 34.545L45.025 34.12L44.855 33.865L44.175 34.8H43.665L42.22 35.905L44.005 35.82ZM34.91 33.95L33.38 36.585L33.55 37.01L34.4 36.84L35.335 35.225L34.91 33.95ZM20.375 35.055L21.65 35.395L21.735 34.29L21.65 34.205L20.375 35.055ZM39.415 38.285L38.82 38.37L39.33 39.39L40.01 37.86L39.075 35.905L39.415 38.285ZM34.23 40.92L31.51 38.37L31.85 38.455L30.66 35.99L30.32 36.245L31.51 38.71L30.83 39.135H24.54L22.16 39.73L22.5 41.345L21.48 44.15L22.925 44.065L23.18 46.105L25.22 45.85L26.41 47.635H26.155L26.41 48.825L26.495 47.125L26.07 45.255H30.83L32.87 44.66V47.125V47.21V46.105L35.25 48.57L36.865 48.995L37.29 49.59H38.31L36.865 47.55L35.25 47.125L33.72 45.51L32.87 45.765L33.465 45.255L32.87 44.66L34.4 44.32L33.55 41.175H34.57L34.485 44.235L35.165 43.64V43.725L35.25 42.11L35.165 41.94H35.25V41.515L35.42 41.77L35.08 41.175L34.995 40.92H34.23ZM28.62 37.35L28.79 37.18L25.475 36.5H25.22V36.585L28.62 37.35ZM22.16 39.645V39.73L22.67 38.625L21.65 38.455L20.97 39.39L22.16 39.645ZM55.99 38.71L55.905 38.455V38.88H55.99V38.71ZM42.985 42.45L42.22 44.405L42.475 44.49L43.155 42.62L44.345 38.54L44.09 38.625L42.985 42.45ZM51.315 41.43L51.74 39.305H51.06L50.72 41.175L51.315 41.43ZM23.435 40.75L23.86 43.47L22.415 43.555L23.435 40.75ZM36.525 43.81L36.1 43.045L36.61 43.98H36.78V43.81L39.585 43.555H39.5L41.54 41.43H40.945L39.67 42.705L37.545 42.96L36.525 43.81ZM55.82 41.855L56.33 42.28V41.515L55.82 41.855ZM17.315 44.235L17.655 43.13L16.21 42.705L15.955 43.895L17.315 44.32L16.72 45.085L19.44 44.065L20.035 45.935L20.8 45.85L20.12 43.385L20.8 41.685L19.865 41.6V41.685H20.12L19.695 42.79L20.12 43.215L19.27 43.555V43.725L19.1 43.64L17.315 44.235ZM8.39 43.81L8.05 41.685L6.775 42.365L7.03 44.065L8.39 43.81ZM4.65 41.855L3.545 41.94L3.46 42.025L4.905 41.94L4.65 41.855ZM4.735 44.32L4.99 44.745L6.35 42.365L5.925 42.28L4.735 44.32ZM5.075 45L4.14 46.445L5.84 46.615L8.645 47.125L10.005 48.485L12.215 49.59L10.77 47.295L11.28 47.21L10.685 46.615H10.6L7.795 46.105L5.16 45.765L5.84 44.745L4.99 44.915L5.075 45ZM12.215 49.675L11.025 51.205H12.3L13.15 50.015L14.425 47.21L14.935 47.38V47.295L13.49 46.87L13.575 46.53L12.725 46.7H12.555L12.725 46.955L13.49 46.87L13.15 47.635L13.66 48.485L12.895 48.06L12.215 49.675ZM42.56 47.72L42.9 49.25L43.92 46.87L42.985 46.7L42.56 47.72ZM16.975 48.06L15.785 48.315L15.36 49.335L16.72 49.08L16.975 48.315L17.145 48.995H17.23L17.57 48.4L16.975 48.06ZM19.1 55.03L18.335 57.495L17.74 56.56L17.57 57.495H18.59L19.185 55.71L20.29 56.985L19.44 57.495H20.375L22.16 56.39L21.99 56.305L20.885 55.03L21.395 54.945L20.29 52.735L23.775 53.67L22.67 54.86L23.945 54.69L25.05 54.35L25.39 53.67L23.265 51.885L25.475 51.29L25.39 51.035L25.815 51.205L26.24 51.12L25.22 49.59L26.495 49.42L26.41 50.44L28.365 51.8L29.215 52.905L27.685 54.35L27.345 53.16L27.175 53.5L27.685 54.945L26.75 54.52L26.665 54.775V54.69L26.155 55.795L26.665 57.41L25.73 57.325V58.26L26.155 58.6H25.815V58.685L26.665 58.77L27.94 58.685L29.215 54.86L32.19 55.625L30.405 57.495L33.465 57.665L36.1 57.41L35.505 60.3L36.78 60.045L39.245 57.495L40.605 58.175L41.2 57.495L41.625 54.69L44.515 56.73L45.11 59.705L44.94 60.555L45.535 60.215L45.705 59.62L45.11 59.705L45.195 59.45L44.685 56.815L44.515 56.73L44.6 56.56L41.71 54.52L43.155 51.885L42.815 50.27L41.625 52.395L41.2 55.2L39.245 54.18L36.78 56.73L35.505 56.985L36.1 54.095L33.465 54.35L30.405 54.18L32.19 52.31L29.215 51.545L28.365 50.44L26.495 49.08V49.165L25.22 49.335L24.455 49.505L25.39 50.27L22.245 51.12H21.905L21.65 52.055L20.715 51.205L19.185 51.46L17.74 51.12L17.825 51.29H17.145L17.06 51.375L17.995 51.46H17.91L18.845 51.545L17.825 53.5L18.42 54.35H17.315V54.435V54.35H15.785V54.435H18.25L18.165 54.86L19.1 55.03ZM26.835 51.885L26.41 50.525V51.12L26.58 51.715L26.835 51.885ZM11.79 53.415L9.92 54.265L10.77 56.56L12.81 57.58L11.62 54.52L13.745 53.585L14.765 51.63L14 51.545L12.81 51.63L11.79 53.415ZM53.27 55.115L53.185 55.285L54.46 53.67L53.27 55.115ZM25.39 53.755L25.56 54.265L26.07 54.095L25.39 53.755ZM26.665 57.835L27.685 55.37L29.215 53.925L27.94 57.75L26.665 57.835ZM9.665 54.35L8.985 55.455L9.07 55.54L9.92 54.265L9.665 54.35ZM6.35 56.73L7.03 55.455L6.35 55.03L5.415 56.9L6.52 56.815L6.435 57.07L8.475 56.475L6.265 59.025L7.285 58.77L9.325 56.39L8.73 56.135V56.05L8.56 56.135L8.475 56.22H8.39L6.35 56.73ZM23.775 57.07L23.945 56.815L22.245 56.39L23.095 58.09L23.86 57.155L23.775 57.07ZM24.2 57.155L25.135 57.835L25.645 57.325L24.2 57.155ZM23.69 59.28L23.86 59.11L23.775 58.77H23.435L23.69 59.28ZM39.585 60.385L41.795 60.895L42.645 60.13L40.265 59.535L39.585 60.385ZM24.54 61.49L27.515 61.235L27.43 60.81L26.58 60.13L25.22 60.47L24.54 61.49ZM69.5369 57.24L72.4269 55.88L73.4469 58.515L73.3619 58.77L75.0619 57.75L75.9969 59.28H76.4219L75.4869 61.745L73.4469 59.025L73.2769 58.94L75.4019 61.915L75.9119 60.725L77.9519 60.64L78.2919 59.45L76.3369 59.535L76.9319 57.58L75.1469 57.75L74.4669 56.73L73.3619 57.41L72.3419 54.775L69.4519 56.135L69.1119 58.43L67.4969 60.47H65.8819L63.5869 58.175V54.775H63.4169V44.915L63.8419 44.49V44.405L63.3319 44.83V43.215L64.6919 40.92L65.2019 44.32L67.0719 41.77L68.9419 43.895L69.1119 43.81L69.9619 46.19L70.1319 46.02L69.2819 43.98L71.3219 44.83L72.0019 44.745L70.3019 41.43L72.8519 40.835L73.7869 39.05L72.7669 36.075L72.3419 36.84L73.1069 39.05L70.3869 39.815L69.1969 39.56L69.0269 41.09L67.0719 38.88L65.1169 41.6L64.6069 38.03L63.2469 40.325V25.28L63.1619 25.11V25.195V21.965L63.8419 18.65L65.4569 17.97V18.48L66.7319 21.88L66.8169 21.795L65.4569 18.31V17.8H70.3869L71.5769 19.16L69.4519 21.54H70.1319L71.5769 19.925V19.16H71.9169L70.7269 17.885H72.4269L73.6169 19.075L75.9969 17.8L74.5519 20.69L73.7869 19.33H73.5319L74.4669 20.86L73.1069 23.325H73.0219L72.5119 25.195L70.8969 23.92L70.1319 24.175L72.4269 25.96L73.1069 23.325L73.4469 23.835L74.5519 21.795L75.9969 18.905L77.1869 22.645L78.9719 22.475L80.5869 20.01L80.2469 19.84L79.1419 21.54V19.5L79.0569 19.415V21.455L77.2719 21.625L76.0819 17.885L79.0569 18.395V18.735L79.1419 18.82V18.48L80.7569 19.075V19.16L82.0319 19.415L82.7119 21.03V22.475L83.0519 23.75L83.5619 23.665H83.2219L84.0719 22.22L83.2219 20.69H86.1119L84.2419 19.415L87.3019 17.545L88.9169 16.78L87.3019 17.97L88.3219 20.095L89.5119 19.245L92.9119 18.225V19.075L93.8469 18.99L94.8669 17.375L96.7369 17.545L98.8619 18.225L98.2669 17.715H100.817L100.307 16.95L101.922 17.63L101.157 18.225L100.902 17.8L100.392 18.395L100.817 18.99L101.497 18.48V18.565L101.837 18.055L103.282 20.775L102.347 20.265V21.115L102.262 20.18L101.752 20.01L102.092 21.625L102.517 21.795V23.41L102.432 24.175L101.922 23.41L99.4569 23.665L99.3719 23.835L99.7119 24.43L102.432 24.175L100.562 25.96L99.9669 26.555L102.347 25.11L102.092 25.96L103.367 24.685L103.452 25.62H103.367V28.51L102.347 29.02V33.355L101.667 35.055L100.052 35.65H98.5219H98.4369H94.0169V34.8H93.9319L94.0169 35.905H92.4019L92.1469 33.525L91.9769 33.27L92.2319 35.65H90.6169L87.8969 35.735L85.8569 36.585L86.0269 36.16L85.6869 36.755L85.4319 40.41L84.4119 41.43L83.1369 41.77V43.385H83.2219V46.615L83.1369 46.7V53.585L81.4369 54.69L80.1619 51.12H79.9919L79.3119 52.565H75.5719L75.0619 50.695L74.6369 51.46L72.3419 51.205L72.8519 52.905L73.1919 53.075L74.2119 54.605H76.7619L78.4619 53.67L81.1819 54.095L82.4569 57.665L79.6519 56.985L79.3119 57.92L80.7569 58.26L81.6919 60.045L79.7369 60.555L80.0769 61.405L82.9669 60.64L83.0519 62.51L81.4369 63.19H74.9769L75.4019 62H72.2569L72.3419 61.575H67.5819L69.1969 59.535L69.5369 57.24ZM77.5269 17.545H79.1419L79.3119 18.225L77.5269 17.545ZM77.1019 17.63L78.9719 18.31L75.9969 17.8L73.6169 19.075L72.1719 17.63H77.1019ZM100.902 19.925L100.647 20.69L100.732 20.86L102.007 21.54L100.732 19.16L100.562 19.5L100.902 19.925ZM94.7819 23.58L93.1669 20.435L92.7419 21.115L92.6569 21.285L93.7619 23.41L94.7819 23.58ZM90.2769 21.795L91.2119 23.495L91.2969 23.155L91.5519 23.41L90.7019 21.88L88.7469 20.945L88.8319 21.115L90.2769 21.795ZM86.7919 22.56V23.58L86.9619 23.75H86.7919V24.855H86.9619L87.1319 23.75L89.4269 24.345L87.9819 21.54L86.9619 21.285H86.8769L86.7919 22.56ZM97.4169 24.26L96.9919 24.005L96.5669 24.685L98.0969 25.62L97.3319 23.325L97.1619 23.58L97.4169 24.26ZM83.5619 23.665L84.1569 24.855L84.2419 23.665H83.5619ZM93.2519 24.94H94.1019L93.1669 24.09L92.1469 23.92L93.2519 24.94ZM81.0969 24.855L82.0319 25.705L83.1369 25.535L82.2869 24.685L81.0969 24.855ZM81.2669 32.59L79.4819 30.635L79.1419 31.06L78.9719 30.465L78.6319 30.635L78.9719 31.57L79.1419 31.145L81.2669 33.525L82.0319 31.74L84.0719 34.63L86.5369 34.545H86.7069H86.7919L88.0669 34.715L89.9369 30.805L90.1069 31.06L92.3169 30.975L93.2519 28.595L96.3119 28.68L96.5669 28.425L99.1169 29.445L97.8419 27.49L97.4169 27.32L96.4819 24.855L96.3969 24.94H95.5469L96.5669 27.745L93.0819 27.66L92.1469 30.04L89.9369 30.125L88.4919 30.89L88.0669 31.74L86.5369 31.57L84.0719 31.655L82.6269 29.53L81.9469 29.615L82.0319 29.87L81.5219 29.7L81.2669 29.785L79.9919 30.21L79.7369 30.38L82.0319 30.805L81.2669 32.59ZM100.987 29.105L102.262 28.51L103.197 25.79L101.837 26.555L100.987 29.105ZM67.1569 26.045L66.6469 26.13L66.5619 26.725L67.9219 26.47V26.3L67.1569 26.045ZM99.7119 26.64H99.7969L99.5419 26.045L98.5219 26.13L98.8619 26.725L99.7119 26.64ZM68.9419 26.555H68.8569V26.64L68.9419 26.81V26.555ZM68.9419 33.95L68.0069 35.48L68.6869 36.585L69.4519 36.755L71.9169 35.735L72.0869 36.075L72.6819 35.905L72.5969 35.735L73.6169 34.035L76.4219 33.355H75.6569L76.4219 31.91L75.4019 31.655L76.5069 29.53L76.2519 28.935L75.3169 30.72L72.6819 31.145L72.1719 31.315L71.6619 32.165L71.2369 31.655H71.1519V32.165L71.6619 32.845L70.9819 33.1L70.8119 34.205L70.4719 33.27L68.9419 33.95L67.5819 31.74L67.0719 29.19L66.3919 30.805L64.0119 33.695L66.8169 32.76L66.3069 34.035L66.3919 34.205L66.5619 33.695L67.2419 32.08L67.4969 33.355L68.9419 33.95ZM77.7819 32.59H78.5469L78.8019 32.08H77.4419L77.7819 32.59ZM63.6719 34.12L64.8619 35.395L64.9469 35.31L63.7569 33.95L63.6719 34.12ZM86.5369 34.63H86.6219L86.5369 34.545V34.63ZM82.7969 36.67L82.9669 37.52L84.8369 37.18L84.6669 36.585L82.7969 36.67ZM78.7169 38.88L80.2469 37.18L80.1619 36.925L78.8019 38.54L78.7169 38.88ZM81.1819 39.645H80.7569L80.0769 40.75L80.3319 40.92L81.0119 39.645L82.1169 41.175V40.41L82.6269 40.665L83.3919 39.305L83.2219 39.135L81.0969 39.56L81.1819 39.645ZM69.6219 41.26H69.7069L70.3869 39.815L72.1719 40.835L69.7069 41.43L71.4069 44.745L69.2819 43.81L69.6219 41.43V41.345V41.26ZM81.8619 42.195L82.1169 41.6V41.43L80.6719 44.15L82.0319 43.725L82.1169 43.64V42.11L81.8619 42.195ZM76.3369 42.025L75.5719 42.79L76.5069 45L77.1869 46.53L78.0369 46.785L78.2919 46.615L77.5269 45L76.3369 42.025ZM83.3069 43.385L84.3269 42.365V43.895L83.3069 43.385ZM67.4969 52.48L67.7519 52.735L69.0269 52.31L68.7719 52.055H67.6669L67.7519 50.95L67.6669 50.865L67.5819 52.395L65.3719 49.675L63.5869 50.015L64.6919 46.7L67.0719 46.105V45.935L66.9869 46.02L66.7319 45.85L64.6069 46.445V46.53V46.785L63.5019 50.1L65.2869 49.76L67.4969 52.48ZM67.9219 48.4L68.0919 48.485L70.1319 46.445L69.8769 46.36L67.7519 48.485L67.8369 48.74L67.9219 48.655V48.4ZM72.0019 49.59L70.6419 46.7L70.3019 46.615L71.7469 49.505L72.0019 49.59ZM75.5719 48.74H75.9119L76.0819 48.485L75.5719 48.57V48.74ZM67.8369 48.74L67.6669 50.865H67.7519L67.9219 48.74H67.8369ZM75.6569 49.675L76.5069 49.76L76.6769 49.335L75.9119 49.08L75.6569 49.675ZM86.1969 59.96L86.1119 58.09L86.8769 55.115V58.345L86.1969 59.96ZM83.1369 57.665L84.8369 56.56L84.0719 59.45L83.1369 57.665ZM86.7919 25.705L85.1769 23.75L84.4969 23.665L86.0269 25.62L86.7919 25.705ZM119.991 52.565L120.246 53.84H120.331L120.161 53.33L120.586 53.5L120.671 53.415L119.906 50.695L119.226 51.8L119.566 53.415L118.461 53.16L119.481 53.415L118.206 54.605H118.291L118.036 54.69L118.206 57.07L117.186 56.645L116.421 58.77L114.976 57.92L114.381 57.495L114.041 58.09L114.126 58.6L114.891 59.28L113.871 58.515V58.6L113.786 58.515L113.531 58.26L110.981 55.965L110.726 55.54L113.446 55.2V55.115L110.471 55.54L110.641 55.965L109.536 54.605L107.836 51.715L107.156 50.1L107.411 48.57L106.986 47.21L106.646 45.51L106.476 43.81L106.306 40.325L106.901 37.35H108.346V37.265H107.241L105.201 37.35L105.116 36.67L104.606 39.22L104.776 36.5L105.116 36.33V35.905L105.201 34.12L106.561 33.185L106.306 35.82L107.411 35.565V35.395L106.986 35.48L107.241 32.845L107.496 30.295H107.581L108.941 27.49L109.026 27.235L109.961 25.79L110.981 25.025L110.131 27.49L108.261 30.21L108.176 30.295H112.851L111.066 33.1L110.981 33.95L112.681 35.31L115.146 35.48V35.055L113.701 34.97L111.406 33.1L113.191 30.295L116.591 30.465L116.846 30.295H116.336L116.676 29.7L116.081 28.425L114.891 30.295H109.536L111.491 27.49L112.086 27.66L112.001 27.575L111.576 27.49L111.746 26.895L110.981 25.025L112.426 24.77L112.681 24.345L115.231 21.965L116.676 20.86L118.206 20.01L121.436 18.565L122.456 18.905L122.371 19.245L123.051 19.415V19.33L124.156 19.075L120.926 17.885L119.821 17.545L121.521 17.035L123.221 16.61L124.326 19.075L124.751 18.99L126.536 18.735H130.701L132.146 18.65L133.846 18.99L134.696 18.055H136.821L140.051 19.075L141.581 19.67L139.711 22.305L138.861 24.77L138.946 25.195L137.841 27.49L137.926 27.66L139.116 25.195L140.306 21.88L142.176 19.33L143.706 20.095L145.151 20.945L146.511 21.965L148.976 24.345L150.676 27.15L150.761 27.065L150.081 25.62L150.846 26.98L150.931 26.895L151.696 27.745L151.526 28L151.866 28.51L151.441 28.085L151.271 28.255L151.611 28.935L151.866 28.51L152.631 30.125L153.651 33.355L152.886 32.08L154.076 34.97L154.331 36.67L152.631 37.18L151.951 37.265V37.52L151.781 37.265L149.996 37.52L150.931 36.5L150.676 36.245L149.656 37.52L148.551 35.055H148.721L148.636 34.97L147.616 34.545V33.1L147.361 32.675H147.446L147.276 32.165L147.361 33.695L143.451 34.205L143.366 32.165L142.941 32.08L143.026 33.95L140.391 34.035L138.181 33.525L138.606 34.63L138.436 34.715L140.731 35.14L143.366 35.055L147.276 34.545L147.446 35.31L148.636 35.735L149.741 38.2L149.231 40.835L148.721 41.855L149.571 40.155L150.081 37.52L152.291 39.73L152.716 37.18L154.331 39.815L154.586 42.62L153.141 42.96L153.906 44.235L152.291 44.915H147.276L144.981 44.49L144.556 45.17L141.836 45.595H140.136L136.396 45.085L133.336 45.425L132.826 44.49L131.721 44.575L132.061 42.11L132.146 42.195L133.336 40.92H132.061L131.721 40.835V41.09H130.021L129.596 41.005L130.616 43.215L128.066 42.195L128.831 41.005L128.151 40.92L128.066 41.005L127.896 40.92H126.876L127.046 40.58L126.961 40.495L126.026 40.665V40.07L125.346 39.73L125.941 39.645V39.39H125.346V37.095L123.476 37.69L124.496 34.29H123.816L122.966 37.095V40.155L121.691 41.175L119.481 41.515L117.951 41.94L119.141 38.625L119.736 37.265L118.206 34.205L119.056 32.845L118.631 32.93L117.526 34.8L116.336 33.525L116.251 34.29L117.016 35.14L118.546 38.2L117.951 39.56L116.761 42.875L115.656 45H116.421L117.696 42.535L117.866 42.45L117.781 42.365L119.056 42.11H119.226L119.991 42.025L123.051 43.555L125.176 45L125.006 47.38L126.621 50.355L127.726 52.14L127.471 53.075L129.001 53.245L130.021 49.845L131.806 52.565L130.956 55.285L132.231 58.855L132.486 60.725L131.126 60.215L130.701 60.81L128.661 60.725L126.876 60.64L125.176 60.385L123.476 60.13V59.195L123.051 59.025L122.966 59.195L122.881 60.555L119.311 59.365L119.056 55.88L120.756 56.645L120.586 55.625V55.88L120.076 55.71L118.801 55.795L119.226 55.285L118.886 55.115L119.991 52.565ZM149.911 22.475L150.931 24.6L148.806 21.2L149.911 22.475ZM137.926 29.53L136.566 29.955L136.821 30.295L139.031 29.615L142.006 29.785L143.451 30.125L143.536 28.935L143.621 29.105L144.896 26.725L143.876 24.515H143.621L144.726 26.725L143.196 29.615L141.411 29.19L139.201 29.02L138.946 29.615L138.606 29.02H138.436L138.521 28.85L137.926 27.745L137.841 27.66L137.756 27.745L137.671 27.66L136.056 27.065L136.226 25.365L135.971 25.025L137.756 21.88L137.671 21.71L135.546 25.45V25.025L133.081 24.43L135.291 22.39L135.036 22.22L132.571 24.345L135.121 24.94L134.951 26.98L136.906 27.66L137.926 29.53ZM132.826 22.05L135.036 22.135L132.826 22.05ZM123.986 22.475L121.521 22.645V22.73L123.986 22.56V22.475ZM115.571 24.43L113.786 24.77L112.936 26.47L113.616 28L113.871 27.915L115.571 24.43ZM120.756 26.385L118.971 28.85L119.566 30.21L119.736 29.785L122.201 26.385L119.736 25.28L117.186 24.685L117.356 25.025L118.291 25.28L120.756 26.385ZM127.301 24.685L124.666 25.025V25.11L127.131 24.77L127.301 24.685ZM146.341 25.28L145.746 26.385L147.361 26.3L147.021 25.96H146.086L146.426 25.365L146.341 25.28ZM146.766 29.7L146.936 30.465L148.296 27.15L147.871 26.81L146.766 29.7ZM126.111 27.235L126.961 27.49L127.046 27.405L126.196 27.065L126.111 27.235ZM116.931 27.575L117.016 29.275L117.186 29.02L117.101 27.745L117.016 27.575L116.931 27.32L116.761 27.405L116.676 27.49L116.931 27.575ZM125.771 34.12H125.941L125.006 31.825L127.046 32.42H127.301L126.961 34.205L128.406 34.29L127.896 33.185L130.361 32.93L129.936 34.29H130.106L131.551 35.565L131.806 35.055L131.636 34.885H131.891L133.166 32.335L134.781 32.675L133.166 29.445L132.231 28.85L132.316 28.68H130.871L130.956 28.85L129.256 28.935L128.151 27.745L127.556 27.575L127.726 27.745H127.811H127.726L128.321 28.34L126.706 31.825L124.751 31.23L124.496 32.08L125.431 34.375H124.581L125.431 36.33L126.026 36.075L126.366 34.8L125.771 34.12ZM113.531 28L112.341 27.66V27.745L113.531 28ZM132.486 27.83L130.786 28.34V28.425L132.486 27.915V27.83ZM149.571 28.935L150.761 29.105L151.101 28.34L150.421 28.255L149.571 28.935ZM117.526 30.38L116.421 32.845L118.716 32.25L119.481 30.465L117.526 30.38ZM135.206 30.465V30.38L134.951 30.465L135.461 30.805L135.546 30.55L135.206 30.465ZM152.206 34.63H151.951L151.696 35.055L152.121 34.97L152.376 34.63L152.631 31.74L152.546 31.655L152.121 30.635L150.591 31.06L150.081 32.335H149.996L152.206 34.63ZM145.066 31.91L144.811 31.4L143.706 31.06V31.4L145.066 31.91ZM137.671 33.185L137.161 35.225L137.501 34.97L137.841 33.525L137.501 32.505L136.651 31.485L135.461 31.4L135.036 32.845L137.671 33.185ZM152.291 34.63L150.081 32.335L152.546 31.655L152.291 34.63ZM121.691 32.08L121.521 32.165L121.861 32.25L121.776 31.995L121.691 32.08ZM134.356 35.31L134.866 32.76L134.781 32.675L134.441 34.545L134.271 35.31L133.931 35.395L133.081 36.67H133.676L134.526 35.31H134.356ZM126.366 34.12L126.281 33.95L126.196 34.12H126.366ZM128.151 36.33L128.661 34.885L128.576 34.63L127.981 36.16L128.151 36.33ZM110.216 34.97V34.8L107.666 35.31V35.48L110.216 34.97ZM132.061 35.65L132.826 36.67H133.081L132.146 35.565L131.636 35.65H131.721H131.636H131.466L131.551 35.565L129.681 34.885L129.596 35.225L131.551 35.99L132.061 35.65ZM133.166 37.435L133.251 37.35H133.166L132.826 37.775L133.081 37.86L134.441 38.2L137.076 35.735L138.096 38.37V38.2L136.991 35.48L134.526 37.775L133.166 37.435ZM138.436 40.75L135.886 41.005L134.101 40.92L134.356 41.515L135.546 41.6L135.886 41.26L138.436 41.005L141.241 40.325L143.451 38.455L144.811 41.005L145.066 38.03L148.041 37.35L147.786 36.67L144.981 37.35L144.726 40.325L143.366 37.775L141.156 39.645L138.351 40.325L138.436 40.75ZM129.341 38.625L129.766 38.795L130.106 37.945L129.681 37.01L128.661 37.095L129.341 38.625ZM133.336 37.265L133.421 37.095L133.336 37.265ZM122.626 40.75L124.071 40.665L124.156 40.58L124.241 40.665H125.006L127.726 41.94L126.536 44.745L124.411 43.3L123.476 41.855L122.881 41.6L123.136 41.43L122.626 40.75ZM132.146 42.28L132.571 43.045L134.271 42.62L133.931 41.77L132.146 42.28ZM110.896 43.045L110.131 43.81L110.471 44.15L111.066 43.555L110.896 43.045ZM108.856 44.66L110.301 47.38L111.321 47.635L111.151 47.295L110.726 47.125L109.366 44.745L109.281 44.66V44.745V44.66H108.856ZM111.916 46.19L112.341 47.465L112.681 47.38L113.446 45.765L112.851 45.34H112.341L111.916 46.19ZM131.891 48.145L132.401 47.21L132.061 46.785L134.866 45.595L133.846 48.485L134.186 48.91L131.891 48.145ZM119.141 47.805L120.246 45.765L119.141 47.805L116.761 47.72L117.016 47.975L117.696 48.06L121.351 47.89L121.266 47.72L119.141 47.805ZM111.321 47.635L112.001 47.465L111.406 47.295L111.321 47.635ZM133.336 48.74L134.101 50.1H134.186L134.866 48.06L137.501 48.4L141.326 48.06H142.941L145.236 48.655L145.661 49.08L147.361 48.91L149.486 48.485L149.656 47.975L153.141 49.845L152.801 50.015L151.611 53.33L150.591 54.775L149.401 56.135L148.211 57.325L148.466 57.24L145.491 59.28L143.961 60.13L143.196 58.855L140.646 59.705L138.946 60.045L137.161 60.385L133.591 60.725L133.336 58.77L132.061 55.2L132.911 52.48L132.826 52.395L132.571 52.82L131.381 50.525L130.956 50.44L129.851 48.655L133.336 48.74ZM109.536 53.075L110.046 52.905L110.641 50.78L110.216 50.525L109.536 53.075ZM116.166 52.48L118.036 52.99L116.166 52.48ZM145.491 52.905H145.406L145.321 53.16L145.576 52.99L145.491 52.905ZM124.241 56.135L123.646 57.495L124.071 57.07L124.411 56.135H124.241ZM123.051 59.025L123.476 59.195V57.835L123.391 58.005L123.051 59.025ZM117.101 60.13L115.571 59.365L116.846 59.96L117.101 60.13ZM167 61.66V61.575L165.385 60.895L163.77 59.96L162.41 57.92L159.86 55.2V55.285L162.41 58.005L163.77 60.045L162.325 58.94L159.86 56.22V56.135L159.01 54.605L158.415 52.905L157.82 49.335L157.99 47.465L158.415 45.765L159.01 44.15L159.86 42.705V42.62L160.965 41.26L161.39 40.92L162.155 40.155L162.835 39.73L163.005 39.56L165.045 38.2L166.575 37.435L169.72 36.245L171.42 35.735L173.035 35.31L171.76 37.86L172.1 37.69L173.375 35.31H175.16L177.455 34.545L177.965 33.185H178.815L177.88 31.57H165.81V30.55L167.85 29.87L170.145 27.745L172.44 26.725L172.95 24.175L174.735 24.005L172.1 23.58L169.295 23.92L168.785 26.47L166.49 27.49L164.195 29.615L162.155 30.295V31.315L160.285 29.445L160.625 27.66L161.39 26.045L162.325 24.6L163.43 23.325L166.065 21.115L167.595 20.18L169.125 19.33L170.74 18.65L174.055 17.63L177.455 17.035L179.155 16.865L181.365 17.375L181.025 18.905L183.065 19.415L183.32 17.97L182.555 18.395L184.34 15.08L186.125 15.335L184.68 17.29L184.34 17.46L185.445 17.205L186.72 15.505L190.29 15.76L191.99 16.1L191.31 17.375L189.44 20.435L187.655 19.925L187.57 20.01L187.485 19.925L187.23 19.84L188.42 21.54L187.315 21.625L187.4 21.795L188.93 22.135L190.8 19.075L191.48 17.8L194.795 18.905L196.41 19.585L197.94 20.435L199.385 21.37L201.85 23.835L202.785 25.28L203.635 26.81L204.74 30.04H203.21L201.085 30.125L201.34 30.21L203.72 30.125H205.25L205.505 31.4L205.76 30.21L205.845 35.14L205.59 34.545L205.165 36.5L205.42 39.56L205.25 41.005L205.335 41.43L205.42 40.835L205.845 42.535L205.76 42.62L205.845 42.875V44.49L204.995 45.085H202.955L202.36 46.615L204.995 46.7L205.845 49.08V50.95L204.23 52.82L203.295 50.355L201.425 49.93L200.15 47.38L199.64 48.06L201.425 51.545L203.295 51.97L204.23 54.435V54.095L205.845 55.455V57.155L204.74 58.77L205.845 60.385L203.55 62.68H195.305L194.115 62H189.78L189.185 61.575L187.91 61.32L188.59 61.15L188.505 60.98L187.06 61.405L186.89 58.855L186.295 58.005L184.085 58.26V58.515L183.915 59.79H184H183.915V59.96L183.745 59.875L181.11 61.405V61.575L179.495 62.17L176.095 62.765L174.395 62.85L173.63 60.47H173.46L174.31 62.765L170.485 62.51H170.57L167.595 60.725H167.425L170.485 62.595L167 61.66ZM188.93 18.31L186.21 17.63L186.125 17.715L188.845 18.395L188.93 18.31ZM184.765 20.35L186.89 19.245L187.06 19.585L187.145 19.5L186.125 17.8L184.765 20.35ZM175.755 23.835L176.945 24.005L176.435 22.305L177.455 19.84L178.815 19.33L178.9 19.245V19.33L180.005 18.905L178.39 18.48L175.415 19.585L174.395 22.05L174.99 23.92L175.755 23.835ZM180.6 22.56L180.43 18.99H180.345L179.155 22.815L180.6 22.56ZM184.51 23.41L186.465 22.39L186.55 21.88L186.465 21.71L184.34 22.815L184.68 24.175L183.235 24.09L182.725 25.11L183.065 25.79L184.935 24.94L184.85 24.77L184.51 23.41ZM180.515 27.235H180.685L181.195 26.215L180.175 26.045L180.515 27.235ZM186.38 31.995L186.295 31.145L185.615 31.74L185.53 32.42L185.7 32.675L186.38 32.08L186.125 33.185V33.27L186.55 33.185L186.38 33.1L186.72 32.76L186.38 32.25L186.975 32.42L188.505 30.465L190.12 30.635L193.01 33.015L193.435 33.78L192.5 32.08L189.61 29.7L189.44 28.935L188.505 28.85L189.1 27.66L189.015 27.405L188.505 28.425L186.975 26.215L186.55 26.47L188.505 29.36L186.38 31.995ZM183.405 26.385L181.195 27.32L182.895 27.66L184.595 28.51L184.255 26.725L183.235 26.215L183.405 26.385ZM178.22 27.235L178.135 27.15L178.05 27.235V27.49L178.22 27.235ZM199.64 31.485L196.75 32.42L197.09 32.59L200.15 31.57L198.96 29.53L198.365 29.275L199.64 31.485ZM180.175 36.075L180.43 33.355L182.3 34.205L183.915 33.695L184.765 33.525L185.19 33.1L185.36 32.42L184.765 29.36H182.555L181.025 30.635L179.155 30.295L179.41 33.185H180.43L180.175 35.905L177.285 36.075L176.945 37.095L177.115 37.35L179.75 37.095L180.175 36.075ZM194.37 31.4L195.305 34.375L195.815 34.46L194.965 31.74L194.37 31.4ZM188.675 35.395L187.145 33.355L186.72 33.27L186.38 33.525L187.57 35.225L188.675 35.395ZM194.285 37.095L192.5 36.67L192.16 37.35L194.625 37.945L194.03 34.12L193.86 34.29L193.945 34.8L194.03 34.885V34.97L194.285 37.095ZM200.49 34.375L198.62 34.97L198.365 35.225L198.62 35.48L200.49 34.97V34.375ZM182.385 42.195L181.11 39.475L179.155 43.3L179.92 43.045L181.28 40.41L182.215 42.28L182.725 42.195L182.3 42.62L182.64 43.3L182.98 42.96L182.725 41.77L182.98 39.9L183.83 39.56L183.065 37.775L183.915 35.395H184.085L183.49 35.14L182.725 35.225L183.065 34.885L182.64 34.715L181.875 36.755L182.98 39.305L181.28 38.2L179.24 39.22L179.07 39.56L179.41 40.07L181.025 39.305L180.94 39.22L181.11 39.305L181.28 39.22L181.195 39.39L182.64 40.325L182.385 42.195ZM184.85 34.97V34.885L184.765 34.97L184.255 35.31L185.87 35.14L184.85 34.97ZM188.93 36.585L187.74 37.095L187.91 37.52L188.59 37.18L188.93 36.585ZM175.245 36.755L176.86 37.265H176.775L175.245 36.755ZM176.86 39.985L177.455 38.37L176.86 37.35H177.03L176.86 37.265V37.35V37.265L175.84 39.9L174.99 36.84L174.82 36.925L174.31 37.605L174.82 39.73L175.84 39.985L178.645 40.495L178.56 40.325L176.86 39.985ZM201.935 40.155L200.66 37.265L200.405 37.18L201.68 40.07L201.935 40.155ZM198.025 37.35L198.195 39.135V38.88L198.535 38.965L199.98 37.435L199.81 37.265L198.025 37.35ZM187.315 44.745L187.825 45.595L186.805 43.555L189.27 43.81L189.695 42.705L188.335 42.535L189.185 39.22L187.655 39.135H187.57L186.805 42.195L185.87 39.56L185.275 39.815L186.21 42.535L187.315 44.745ZM200.32 43.64L200.83 44.83L201.34 44.235L200.32 42.025L198.025 41.09L197.94 41.685L196.24 40.325L193.265 39.56L192.245 39.475L191.82 40.41L193.265 40.58L195.135 44.32L197.77 42.79L198.11 41.345L199.3 43.215L200.32 43.64ZM173.545 42.875L173.12 39.56L172.95 39.475L171.505 41.175L171.59 42.025L173.545 42.875ZM193.265 39.9L196.24 40.665L197.94 42.025L195.135 43.64L193.265 39.9ZM178.645 40.495L178.9 40.325H178.73L178.645 40.495ZM162.155 44.32L164.705 42.45V42.365L162.155 44.235L160.37 45.255V45.34L162.155 44.32ZM184.17 44.15L181.45 44.575L181.535 44.49L180.685 44.745L178.985 45.255L177.54 46.275L178.05 49.675L177.625 49.845H177.795H178.05V50.015L180.09 50.865L182.385 49.675L184.68 47.55L185.02 45.68L184.085 42.535L183.83 42.79L184.17 44.15ZM167 42.875L166.915 42.62L164.62 44.66V45L167 42.875ZM195.73 46.105L197.77 43.045V42.96L195.73 46.105ZM180.515 44.575L181.705 44.405L182.555 43.47L181.11 43.895L180.515 44.575ZM198.025 44.235L198.11 45.68L198.025 44.235ZM162.325 44.49L164.62 45.085V45L162.155 44.32L162.325 44.49ZM167.34 44.49L164.62 45L166.49 48.315L166.575 48.4L164.705 45L167.34 44.49ZM198.11 45.68L197.43 48.74L199.64 48.06L198.11 45.68ZM168.445 50.355L164.705 50.95L164.11 47.125L164.025 47.04V47.21L163.94 47.04L162.24 47.55L162.325 47.635L164.025 47.21L164.62 50.865V50.95L164.79 51.035L168.36 50.44L168.445 50.355ZM171.505 48.145L170.145 47.55L171.165 49.93L171.505 48.145ZM191.055 57.92L193.01 61.065L193.265 61.15L191.65 58.6L190.885 56.39L193.605 55.115L196.07 55.37L195.645 54.69L193.69 54.435L194.455 52.735L193.18 51.63L192.67 50.1L191.99 49.59L190.885 51.63L189.865 49.25L189.355 48.315L190.29 50.61L188.165 49.675L189.865 53.33L191.14 52.905L193.01 54.435L190.29 55.71L191.055 57.92ZM173.545 50.355L171.93 52.82V52.905L173.545 50.355V50.44L175.585 50.355L177.54 49.93L177.455 49.845L175.585 50.27L173.545 50.355ZM167.34 58.09V58.345L168.53 55.03L170.23 54.775L168.53 52.14L171.845 53.075H174.735V52.99H171.845L168.615 52.055L166.575 51.97L166.49 52.055H166.66L168.36 54.69L166.66 54.945L165.555 58.175L167.085 58.345L167.34 58.09ZM171.76 57.58L169.89 60.385H169.975L171.845 57.495L173.375 54.86H173.29L171.76 57.58ZM181.195 58.175L182.98 55.625L182.81 54.945L181.365 57.07L181.195 58.09L180.94 59.62H181.025L181.28 58.175H181.195ZM194.965 57.665H195.135L196.24 55.795L196.155 55.625L194.965 57.665ZM164.195 58.005L165.385 58.09L164.705 56.985L164.195 57.835L163.6 55.965H163.515L164.195 58.005ZM189.78 58.09L188.42 60.47L188.675 60.81H189.95V60.555H188.76L189.865 58.685L189.78 58.09ZM167.425 60.64V60.725L168.615 58.685H168.53L167.425 60.64ZM165.13 60.13L167.425 60.64V60.385L165.385 59.96L165.13 60.13ZM196.07 60.555L198.535 60.81L198.28 60.13L196.495 59.96L196.07 60.555ZM173.46 60.385H173.545H173.46ZM219.876 52.31V52.225V51.545L220.046 51.63L220.386 50.015L220.216 49.675L217.666 50.355L216.136 49.505V29.615L214.861 29.19V27.66L214.266 27.575L214.861 27.065V25.11L213.926 26.045L213.076 24.26H212.821L213.501 20.86L214.861 23.495V22.39L215.456 22.475V15.335L214.351 12.785L214.011 15.76V3.945L214.691 2.33L217.921 1.65H218.431L218.686 1.055H226.931L226.336 3.605L226.421 3.86L226.931 1.82H230.246L231.861 2.5L232.541 4.115L231.521 3.945L227.611 4.37L226.931 5.39L226.506 4.71L224.041 5.05L224.551 5.72999L226.931 5.39V5.475L227.611 4.455L231.521 4.03L232.541 4.2V9.045L231.521 8.11L232.031 7.09L231.776 6.495H231.521H229.906L231.521 8.11L232.541 10.745V13.975L230.161 14.57L229.736 17.205L229.141 13.295L227.441 15.42L226.846 14.91L224.551 15.93L224.126 16.78L224.381 16.95L224.211 17.205L224.891 17.545L227.186 16.525L229.141 14.06L229.736 18.055L230.161 15.42L232.541 14.74V22.815H232.371V23.41L231.861 26.895L231.266 29.19L231.436 29.275L232.116 26.895L232.626 28.255L231.521 29.275L232.031 29.36L231.776 29.955L232.541 31.06L231.181 33.78L230.671 32.76L229.991 33.185L228.631 30.21L229.991 30.04L229.481 29.02L229.141 28.935H228.971L228.121 30.55L228.886 32.165L229.736 33.78L228.971 33.865L229.056 34.035L228.546 33.95L227.611 34.035V33.95L227.186 34.63L227.441 34.715L226.336 36.245L226.591 37.01L227.101 38.03L227.526 38.455L226.846 37.01H230.416L228.291 39.135V39.22L230.501 37.01L230.926 39.39H228.121L228.291 39.22H228.206L228.036 39.39L227.951 39.305L227.356 41.685L225.741 41.345L226.166 42.28L227.186 42.45L227.356 42.025L227.441 42.195L228.036 39.9H230.841L233.391 39.815L233.561 39.05L234.496 40.835L233.051 42.025L232.796 42.96L234.496 41.6L236.026 39.56L237.641 41.94L237.981 41.26L236.451 39.05L235.516 39.135L234.496 40.41L233.561 38.625L232.626 36.925H232.031L232.116 37.01H230.926L230.841 37.18V37.01H228.546L230.756 34.035L230.926 34.46L231.861 33.95L231.691 34.46L233.051 34.29L233.561 34.97L234.581 35.14L234.411 33.695L233.051 33.525L231.266 33.78L232.626 31.06L233.136 33.44L234.921 31.825L235.006 32.505L235.431 31.74L234.496 31.4L233.051 32.675L232.541 30.21L233.136 30.38L232.456 29.36L233.306 28.51V28.255L236.621 26.045L237.471 24.685V26.47L237.641 26.725L239.681 25.79L238.661 27.065L239.681 27.32L240.871 25.79L243.931 26.385L244.101 27.575L244.611 27.745L244.696 26.725L244.441 26.3H244.696L244.781 25.45L245.886 22.305L248.691 24.6L249.966 22.22L250.051 25.705L250.306 25.875L251.071 24.345L251.411 27.065L250.561 28.765L249.031 29.53L249.116 29.7L250.391 29.275L249.966 31.23V31.315L250.306 32.76L251.071 32.505L250.561 33.44L250.731 34.205L250.561 35.31L249.031 35.905L248.776 36.245L248.691 35.99L248.011 36.245L248.096 33.695L248.011 33.44L246.821 33.695L247.076 34.205L247.841 34.035L247.756 35.735L248.011 36.245L247.756 36.33V36.84L247.501 36.33L245.801 36.585L244.101 33.1L243.846 33.27L242.061 31.655L244.866 31.995L245.291 31.57L247.331 30.55L245.461 29.955L244.781 31.145L242.231 30.89L242.061 31.57L241.806 30.805H241.636L241.721 30.465L241.126 28.85H241.211L240.871 28.765L240.446 30.55L238.321 27.575L237.981 28L237.726 28.935L239.936 31.995L237.046 31.145L237.216 31.74L237.046 31.825L239.341 32.505L240.191 31.995L240.871 29.105L241.806 31.825L240.701 34.035L240.446 33.95L239.256 35.395L239.766 35.565L241.041 34.035L241.551 33.95L242.401 32.335L243.676 33.525L243.931 33.44L245.801 37.18L247.926 36.84L250.476 35.905L250.561 39.135L254.216 44.745L251.836 41.515L251.666 44.66H251.751L251.836 42.96L253.111 44.745H254.216L257.021 48.995L254.726 46.36L256.256 49.08L255.746 48.995L256.936 50.44L257.106 50.695H257.531V50.61L258.891 52.31L258.806 52.735L259.741 53.245L262.291 57.24L262.461 56.56L263.566 58.855L263.736 59.025L261.696 61.065L261.866 60.045L260.931 62L261.696 62.085H260.081L257.276 61.915L259.486 60.385L259.061 59.705H257.446L257.276 59.79L255.236 59.96H251.921V59.875L250.731 59.96L251.921 62.765L249.711 62.68L250.561 59.96H250.391L249.881 61.575L247.246 61.66H245.631L245.036 59.79L242.571 58.94L241.891 59.11L241.381 60.215L235.686 50.695L235.176 50.185L235.346 50.1L235.006 49.59L234.241 49.505L231.096 48.995L232.541 53.415V57.75L231.691 56.475V56.39L228.886 56.985L228.971 57.155L231.691 56.56L230.841 59.45L231.096 59.535L231.691 57.495L232.541 58.77V60.47L232.201 60.385L231.861 61.235L229.566 61.065V60.98H229.481L229.566 61.49L226.931 62.255L225.996 60.045L229.056 59.025L229.226 59.96L229.311 59.875L229.056 58.6L228.971 58.09L226.676 56.475L229.056 53.5L228.886 56.645V56.815L229.056 53.84L230.416 54.435L229.651 53.245L229.056 52.99L227.016 50.695L225.061 53.075L225.146 53.245L227.016 50.95L229.056 53.245L226.676 56.22L226.591 56.135L225.996 58.6L224.721 55.285L222.426 56.22L219.196 55.54L218.601 53.755L218.346 53.67L218.516 53.5L218.431 53.245H218.771L219.876 52.31ZM232.371 6.41H232.116L232.286 6.58L232.371 6.41ZM222.426 10.49L222.596 10.83L223.361 8.705L225.741 7.94L225.231 7.345L223.361 7.94L222.426 10.49ZM227.526 11.935L225.741 13.465L227.526 11.935L228.886 8.365L227.526 11.935ZM219.366 13.125L221.066 14.06L220.811 13.805L219.366 13.04V13.125ZM223.871 13.89L223.616 13.38L222.001 14.655L222.511 15.08L223.956 13.89H223.871ZM217.326 14.06L217.071 14.4L217.241 14.74L217.496 14.4L217.326 14.06ZM252.771 25.535L252.941 24.855H252.601V24.6L252.006 24.175L252.686 23.92V23.155L250.051 24.175L249.966 20.605L248.691 22.985L245.886 20.69L244.781 23.835L241.976 24.6L241.721 24.43L240.361 24.175L238.406 24.685L238.916 23.92L238.661 23.835L235.601 25.195V22.73L238.151 22.05L239.171 22.645L239.766 22.475L240.956 20.605L240.446 20.35L239.851 18.905L243.166 18.055L242.996 18.48L244.186 17.8H251.836V17.715L252.431 16.525L251.581 16.44H252.516L252.601 16.185L252.771 16.44H254.726L254.131 16.525H252.771L253.196 17.715H253.451L253.366 17.8L255.321 17.885L256.426 17.375V17.29L258.381 18.905L257.021 17.205H258.551L260.931 17.8L262.801 18.055L261.526 14.825L258.551 14.145H261.611L263.651 16.185L263.226 17.46L262.036 19.16L262.886 21.115L260.846 20.86L256.426 27.065V24.77H255.321L254.896 25.96L254.386 25.875V25.96L254.216 25.79L252.771 25.535ZM253.196 14.57L254.556 16.27L252.601 14.655L253.196 14.57ZM256.511 18.395L256.766 20.01L257.276 19.755L256.426 17.46L255.321 19.925L255.491 20.01L256.511 18.395ZM219.451 19.33L222.171 20.265L221.916 19.585L220.471 17.8L219.451 19.33ZM242.316 20.69L243.676 21.455L245.036 18.395L242.741 18.99L242.146 20.35L242.316 20.69ZM224.636 21.795V21.88H225.486L226.081 20.265L225.486 18.99L224.636 18.48L224.041 20.18L224.636 21.795ZM254.896 20.435L253.536 22.475L254.811 22.73L255.406 21.285L254.811 20.945L255.236 20.35V19.925L253.791 19.415V19.585L252.601 19.16L252.176 19.33L252.091 19.415L252.601 19.585H252.091L251.411 20.69L254.896 20.435ZM217.751 29.7L219.366 29.445L219.876 28.68L221.321 29.105L221.406 28.51L220.811 25.535L221.746 25.79L221.831 25.11L220.726 24.77L221.236 24.005L220.896 23.665L221.321 23.24L220.981 23.155L222.256 21.965V22.05L222.511 21.71L222.596 21.455L222.341 20.775L220.981 22.39L217.921 22.985L216.136 19.585L215.541 22.475H217.326L219.366 24.515H218.771L219.026 24.77L217.921 26.725L219.281 26.81L218.091 28.595L218.431 29.36L217.326 29.53L217.751 29.7ZM227.441 23.325L226.761 23.665L226.676 23.835V23.92L227.696 23.41V23.325H227.441ZM228.801 26.045L228.291 28.68L228.801 27.745L229.056 26.045L229.141 25.96L227.951 23.75L227.696 25.535L227.951 25.96L228.801 26.045ZM216.306 24.6L216.561 25.195L216.816 24.6H216.306ZM227.271 28.85L227.356 28.935H228.121L228.206 28.765L227.186 26.64L225.911 29.02L227.271 28.935V28.85ZM248.266 29.275L248.096 28L246.991 27.915L246.906 28.255L248.011 29.955L248.351 29.275H248.266ZM250.901 36.33L250.731 35.905L250.901 34.8L253.196 31.06L250.136 31.91L250.901 28.51L254.726 28.425V30.805L250.901 36.33ZM236.791 29.7L236.876 30.21L237.131 28.935L236.791 29.7ZM223.276 32.675L223.021 33.525L224.466 31.06L222.681 31.4L222.341 32.165L222.766 32.675L222.171 32.76L222.256 32.93L223.276 32.675ZM226.506 31.995L226.676 31.74L226.591 31.57L226.336 31.91L226.506 31.995ZM236.451 32.335L237.471 34.12L237.556 33.865L236.536 31.995L235.091 32.505V32.76L236.451 32.335ZM219.961 33.44L220.726 33.27L220.811 33.1L220.301 33.185L219.961 33.44ZM222.426 38.71L221.831 39.985H222.001L222.341 39.305L223.956 36.16L222.596 35.055L222.256 36.245L221.066 33.695L219.876 35.82L220.811 37.35L222.426 38.71ZM231.521 35.735L231.436 35.395V35.48L231.521 35.735ZM242.571 36.925L242.231 36.84L240.956 39.05L242.826 38.03L242.571 36.925ZM245.376 37.435L245.631 37.945H246.056L245.716 37.18L245.376 37.435ZM225.486 40.835L226.081 39.56H225.911L225.486 40.665V40.835ZM219.876 40.24L220.386 40.155L220.216 39.645L219.706 39.73L219.876 40.24ZM245.461 43.215L244.526 46.785H244.696L245.461 43.895L248.776 43.47L248.606 42.875L245.461 43.215L245.121 42.28L243.761 42.535L242.486 40.835L241.891 40.92L243.761 43.555L245.461 43.215ZM228.376 44.15L228.121 43.81L226.931 44.32L227.101 44.745L228.376 44.15ZM236.451 45L235.516 46.615L235.601 46.87L236.451 45.425L237.131 46.615L238.236 46.785V47.04L240.361 47.38L239.001 49.165H239.171L240.531 47.21L240.361 46.19L237.641 45.85L236.791 44.49L236.451 45ZM224.381 44.745L224.976 45.765H225.316L224.466 44.66L224.381 44.745ZM221.661 45.425L220.811 46.445H221.661L221.321 45.935L222.936 45.85V45.765L221.661 44.83V45.425ZM242.146 45.85L242.061 45.935L240.871 48.485L240.956 48.655L242.146 45.85ZM221.661 46.53L221.576 47.04L221.831 46.785L221.661 46.53ZM245.631 51.8L247.926 51.035L248.606 49.76L248.691 50.1L250.306 50.44L251.496 52.395L252.941 54.52L251.836 54.18L249.881 54.35L250.051 55.03L252.091 54.86L253.196 55.2L255.576 55.285L255.746 55.54L257.106 55.285L255.831 53.33H255.491L255.576 53.925L253.451 53.84L253.196 54.095L251.751 52.055L250.561 50.1L248.776 49.76L249.201 49.08L247.841 46.87H246.991V47.295L248.096 48.995L248.946 49.165L248.096 50.695L247.501 49.59L247.246 49.505L247.926 50.95L244.951 51.97L246.736 49.42V49.165L244.951 51.63L242.231 51.8V51.885L240.616 50.61L238.066 50.865L237.811 51.12L240.786 50.865L240.956 51.8L242.231 52.82L242.316 52.99L244.951 52.82L246.141 55.37L246.396 54.775L246.821 54.605L246.906 54.52L245.631 51.8ZM237.216 49.505L236.621 50.015L236.536 50.95L237.216 50.27L237.301 49.505L236.366 47.21L235.686 47.04L236.451 49.165L236.706 48.995L236.621 49.42L237.216 49.505ZM223.021 48.825L222.086 47.21L221.491 47.295L221.321 47.975L221.661 48.315L222.936 48.995L223.021 48.825ZM228.631 47.635L228.801 48.57L229.141 47.295L228.631 47.55V47.635ZM243.506 48.145L240.956 48.995L243.506 48.23V48.145ZM254.471 48.91L254.641 49.505L255.746 49.59L255.406 48.995L254.471 48.91ZM256.256 50.525L256.086 50.185L255.916 50.695H256.171L256.256 50.525ZM213.076 58.77V58.175V57.835V57.665L212.481 57.41L211.801 55.795V54.18L211.886 55.88H213.161V55.115L213.501 55.795H213.756V55.285L213.161 54.18L213.076 52.735V51.035L214.606 51.885L216.646 51.375L217.156 50.61L218.431 53.585L215.541 53.925L215.286 54.35L215.796 54.945L218.431 54.605L216.731 56.135L219.196 56.56L217.581 59.79L220.046 58.43L219.196 56.475L221.746 56.985L221.831 56.9V57.07L222.426 57.155L224.721 56.22L223.786 59.195L223.871 60.64L224.721 58.005L225.996 61.32L226.931 63.53H225.316L223.956 63.275L223.871 61.745H218.686L219.281 61.575L217.496 59.79V59.875L216.051 61.235L215.881 59.45L213.161 59.62L213.076 58.685V58.77ZM236.621 51.29L237.131 51.205V50.95L236.451 51.035V51.12L236.621 51.29ZM248.946 51.46L248.861 51.12L248.436 51.205L248.266 51.545L248.946 51.46ZM255.321 52.225L255.406 52.82L255.491 52.565L255.406 51.97L255.321 52.225ZM248.011 52.225L248.946 53.925L248.011 52.225ZM257.786 55.455L258.041 55.965L258.721 54.095L258.381 53.84L257.786 55.455ZM213.756 55.795H213.926L213.841 55.455L213.756 55.795ZM214.946 56.985L214.861 57.495L216.221 56.22L215.966 55.965L214.946 56.985ZM259.571 56.305L262.036 57.325L259.571 56.305ZM257.106 56.645L256.256 56.305L256.511 56.645H257.106ZM250.221 57.41L249.966 56.645L248.606 58.685L249.371 58.6L250.221 57.41ZM262.291 57.495V57.41L262.036 57.325L262.291 57.495ZM229.056 58.94L225.996 59.96L226.676 57.325L229.056 58.94ZM214.776 57.495H214.861L214.776 57.41V57.495ZM257.701 59.535L259.061 59.62L258.551 58.94L257.701 59.535ZM229.396 60.47L229.481 60.98H229.566L229.396 60.47ZM256.851 62.765H255.236L257.276 62.595L256.851 62.765ZM290.267 61.66V61.575L288.652 60.895L287.037 59.96L285.677 57.92L283.127 55.2V55.285L285.677 58.005L287.037 60.045L285.592 58.94L283.127 56.22V56.135L282.277 54.605L281.682 52.905L281.087 49.335L281.257 47.465L281.682 45.765L282.277 44.15L283.127 42.705V42.62L284.232 41.26L284.657 40.92L285.422 40.155L286.102 39.73L286.272 39.56L288.312 38.2L289.842 37.435L292.987 36.245L294.687 35.735L296.302 35.31L295.027 37.86L295.367 37.69L296.642 35.31H298.427L300.722 34.545L301.232 33.185H302.082L301.147 31.57H289.077V30.55L291.117 29.87L293.412 27.745L295.707 26.725L296.217 24.175L298.002 24.005L295.367 23.58L292.562 23.92L292.052 26.47L289.757 27.49L287.462 29.615L285.422 30.295V31.315L283.552 29.445L283.892 27.66L284.657 26.045L285.592 24.6L286.697 23.325L289.332 21.115L290.862 20.18L292.392 19.33L294.007 18.65L297.322 17.63L300.722 17.035L302.422 16.865L304.632 17.375L304.292 18.905L306.332 19.415L306.587 17.97L305.822 18.395L307.607 15.08L309.392 15.335L307.947 17.29L307.607 17.46L308.712 17.205L309.987 15.505L313.557 15.76L315.257 16.1L314.577 17.375L312.707 20.435L310.922 19.925L310.837 20.01L310.752 19.925L310.497 19.84L311.687 21.54L310.582 21.625L310.667 21.795L312.197 22.135L314.067 19.075L314.747 17.8L318.062 18.905L319.677 19.585L321.207 20.435L322.652 21.37L325.117 23.835L326.052 25.28L326.902 26.81L328.007 30.04H326.477L324.352 30.125L324.607 30.21L326.987 30.125H328.517L328.772 31.4L329.027 30.21L329.112 35.14L328.857 34.545L328.432 36.5L328.687 39.56L328.517 41.005L328.602 41.43L328.687 40.835L329.112 42.535L329.027 42.62L329.112 42.875V44.49L328.262 45.085H326.222L325.627 46.615L328.262 46.7L329.112 49.08V50.95L327.497 52.82L326.562 50.355L324.692 49.93L323.417 47.38L322.907 48.06L324.692 51.545L326.562 51.97L327.497 54.435V54.095L329.112 55.455V57.155L328.007 58.77L329.112 60.385L326.817 62.68H318.572L317.382 62H313.047L312.452 61.575L311.177 61.32L311.857 61.15L311.772 60.98L310.327 61.405L310.157 58.855L309.562 58.005L307.352 58.26V58.515L307.182 59.79H307.267H307.182V59.96L307.012 59.875L304.377 61.405V61.575L302.762 62.17L299.362 62.765L297.662 62.85L296.897 60.47H296.727L297.577 62.765L293.752 62.51H293.837L290.862 60.725H290.692L293.752 62.595L290.267 61.66ZM312.197 18.31L309.477 17.63L309.392 17.715L312.112 18.395L312.197 18.31ZM308.032 20.35L310.157 19.245L310.327 19.585L310.412 19.5L309.392 17.8L308.032 20.35ZM299.022 23.835L300.212 24.005L299.702 22.305L300.722 19.84L302.082 19.33L302.167 19.245V19.33L303.272 18.905L301.657 18.48L298.682 19.585L297.662 22.05L298.257 23.92L299.022 23.835ZM303.867 22.56L303.697 18.99H303.612L302.422 22.815L303.867 22.56ZM307.777 23.41L309.732 22.39L309.817 21.88L309.732 21.71L307.607 22.815L307.947 24.175L306.502 24.09L305.992 25.11L306.332 25.79L308.202 24.94L308.117 24.77L307.777 23.41ZM303.782 27.235H303.952L304.462 26.215L303.442 26.045L303.782 27.235ZM309.647 31.995L309.562 31.145L308.882 31.74L308.797 32.42L308.967 32.675L309.647 32.08L309.392 33.185V33.27L309.817 33.185L309.647 33.1L309.987 32.76L309.647 32.25L310.242 32.42L311.772 30.465L313.387 30.635L316.277 33.015L316.702 33.78L315.767 32.08L312.877 29.7L312.707 28.935L311.772 28.85L312.367 27.66L312.282 27.405L311.772 28.425L310.242 26.215L309.817 26.47L311.772 29.36L309.647 31.995ZM306.672 26.385L304.462 27.32L306.162 27.66L307.862 28.51L307.522 26.725L306.502 26.215L306.672 26.385ZM301.487 27.235L301.402 27.15L301.317 27.235V27.49L301.487 27.235ZM322.907 31.485L320.017 32.42L320.357 32.59L323.417 31.57L322.227 29.53L321.632 29.275L322.907 31.485ZM303.442 36.075L303.697 33.355L305.567 34.205L307.182 33.695L308.032 33.525L308.457 33.1L308.627 32.42L308.032 29.36H305.822L304.292 30.635L302.422 30.295L302.677 33.185H303.697L303.442 35.905L300.552 36.075L300.212 37.095L300.382 37.35L303.017 37.095L303.442 36.075ZM317.637 31.4L318.572 34.375L319.082 34.46L318.232 31.74L317.637 31.4ZM311.942 35.395L310.412 33.355L309.987 33.27L309.647 33.525L310.837 35.225L311.942 35.395ZM317.552 37.095L315.767 36.67L315.427 37.35L317.892 37.945L317.297 34.12L317.127 34.29L317.212 34.8L317.297 34.885V34.97L317.552 37.095ZM323.757 34.375L321.887 34.97L321.632 35.225L321.887 35.48L323.757 34.97V34.375ZM305.652 42.195L304.377 39.475L302.422 43.3L303.187 43.045L304.547 40.41L305.482 42.28L305.992 42.195L305.567 42.62L305.907 43.3L306.247 42.96L305.992 41.77L306.247 39.9L307.097 39.56L306.332 37.775L307.182 35.395H307.352L306.757 35.14L305.992 35.225L306.332 34.885L305.907 34.715L305.142 36.755L306.247 39.305L304.547 38.2L302.507 39.22L302.337 39.56L302.677 40.07L304.292 39.305L304.207 39.22L304.377 39.305L304.547 39.22L304.462 39.39L305.907 40.325L305.652 42.195ZM308.117 34.97V34.885L308.032 34.97L307.522 35.31L309.137 35.14L308.117 34.97ZM312.197 36.585L311.007 37.095L311.177 37.52L311.857 37.18L312.197 36.585ZM298.512 36.755L300.127 37.265H300.042L298.512 36.755ZM300.127 39.985L300.722 38.37L300.127 37.35H300.297L300.127 37.265V37.35V37.265L299.107 39.9L298.257 36.84L298.087 36.925L297.577 37.605L298.087 39.73L299.107 39.985L301.912 40.495L301.827 40.325L300.127 39.985ZM325.202 40.155L323.927 37.265L323.672 37.18L324.947 40.07L325.202 40.155ZM321.292 37.35L321.462 39.135V38.88L321.802 38.965L323.247 37.435L323.077 37.265L321.292 37.35ZM310.582 44.745L311.092 45.595L310.072 43.555L312.537 43.81L312.962 42.705L311.602 42.535L312.452 39.22L310.922 39.135H310.837L310.072 42.195L309.137 39.56L308.542 39.815L309.477 42.535L310.582 44.745ZM323.587 43.64L324.097 44.83L324.607 44.235L323.587 42.025L321.292 41.09L321.207 41.685L319.507 40.325L316.532 39.56L315.512 39.475L315.087 40.41L316.532 40.58L318.402 44.32L321.037 42.79L321.377 41.345L322.567 43.215L323.587 43.64ZM296.812 42.875L296.387 39.56L296.217 39.475L294.772 41.175L294.857 42.025L296.812 42.875ZM316.532 39.9L319.507 40.665L321.207 42.025L318.402 43.64L316.532 39.9ZM301.912 40.495L302.167 40.325H301.997L301.912 40.495ZM285.422 44.32L287.972 42.45V42.365L285.422 44.235L283.637 45.255V45.34L285.422 44.32ZM307.437 44.15L304.717 44.575L304.802 44.49L303.952 44.745L302.252 45.255L300.807 46.275L301.317 49.675L300.892 49.845H301.062H301.317V50.015L303.357 50.865L305.652 49.675L307.947 47.55L308.287 45.68L307.352 42.535L307.097 42.79L307.437 44.15ZM290.267 42.875L290.182 42.62L287.887 44.66V45L290.267 42.875ZM318.997 46.105L321.037 43.045V42.96L318.997 46.105ZM303.782 44.575L304.972 44.405L305.822 43.47L304.377 43.895L303.782 44.575ZM321.292 44.235L321.377 45.68L321.292 44.235ZM285.592 44.49L287.887 45.085V45L285.422 44.32L285.592 44.49ZM290.607 44.49L287.887 45L289.757 48.315L289.842 48.4L287.972 45L290.607 44.49ZM321.377 45.68L320.697 48.74L322.907 48.06L321.377 45.68ZM291.712 50.355L287.972 50.95L287.377 47.125L287.292 47.04V47.21L287.207 47.04L285.507 47.55L285.592 47.635L287.292 47.21L287.887 50.865V50.95L288.057 51.035L291.627 50.44L291.712 50.355ZM294.772 48.145L293.412 47.55L294.432 49.93L294.772 48.145ZM314.322 57.92L316.277 61.065L316.532 61.15L314.917 58.6L314.152 56.39L316.872 55.115L319.337 55.37L318.912 54.69L316.957 54.435L317.722 52.735L316.447 51.63L315.937 50.1L315.257 49.59L314.152 51.63L313.132 49.25L312.622 48.315L313.557 50.61L311.432 49.675L313.132 53.33L314.407 52.905L316.277 54.435L313.557 55.71L314.322 57.92ZM296.812 50.355L295.197 52.82V52.905L296.812 50.355V50.44L298.852 50.355L300.807 49.93L300.722 49.845L298.852 50.27L296.812 50.355ZM290.607 58.09V58.345L291.797 55.03L293.497 54.775L291.797 52.14L295.112 53.075H298.002V52.99H295.112L291.882 52.055L289.842 51.97L289.757 52.055H289.927L291.627 54.69L289.927 54.945L288.822 58.175L290.352 58.345L290.607 58.09ZM295.027 57.58L293.157 60.385H293.242L295.112 57.495L296.642 54.86H296.557L295.027 57.58ZM304.462 58.175L306.247 55.625L306.077 54.945L304.632 57.07L304.462 58.09L304.207 59.62H304.292L304.547 58.175H304.462ZM318.232 57.665H318.402L319.507 55.795L319.422 55.625L318.232 57.665ZM287.462 58.005L288.652 58.09L287.972 56.985L287.462 57.835L286.867 55.965H286.782L287.462 58.005ZM313.047 58.09L311.687 60.47L311.942 60.81H313.217V60.555H312.027L313.132 58.685L313.047 58.09ZM290.692 60.64V60.725L291.882 58.685H291.797L290.692 60.64ZM288.397 60.13L290.692 60.64V60.385L288.652 59.96L288.397 60.13ZM319.337 60.555L321.802 60.81L321.547 60.13L319.762 59.96L319.337 60.555ZM296.727 60.385H296.812H296.727ZM354.069 58.855L355.514 58.77V58.6L353.049 58.77L352.964 59.62V54.605L356.109 53.585L358.234 53.925L359.339 56.39L360.529 56.305L359.509 54.01L357.384 53.67L357.639 52.31L357.044 49.165L359.084 49.335L360.869 49.76L361.379 49.42V49.845L361.974 49.93L363.504 48.825L362.569 48.485L362.994 47.89L362.654 47.38H362.739L362.314 46.785L363.844 46.36L362.909 45.34L362.144 45.51L362.229 44.49L361.889 44.065H361.974L361.804 42.45L360.189 41.685L359.849 41.77L359.934 41.6L359.764 41.515L359.849 42.025L362.144 44.745L359.509 45.34L361.379 48.06L357.809 47.295L355.769 47.125L356.364 50.27L356.109 51.63L354.154 49.76L352.964 51.035V44.405L354.409 44.15L352.964 42.705V39.39L353.049 37.69V31.4L353.899 30.975L353.049 28.085L354.579 26.895L353.049 24.77V16.44L353.219 19.245L356.024 19.16L356.279 20.18L357.129 19.245V19.16H357.214L357.384 18.905L355.174 19.16L355.259 18.735L353.644 18.82L353.474 16.015V7.685L353.984 8.11L353.389 6.24L354.154 5.815V5.56L353.984 5.22H354.154L353.984 3.18L355.429 3.265L357.044 4.625L357.469 4.54L355.599 2.84L354.154 2.755L357.469 2.075H365.969L363.164 2.33L363.334 2.67L365.799 2.415H372.599L374.214 3.095L374.894 4.71L374.299 4.2V8.025H374.384H374.299V8.62H374.384L374.469 8.535L374.894 9.725V17.97H372.939L372.004 18.565L372.939 19.16L374.639 18.055H376.594V24.685L374.554 23.58L376.594 26.3L375.404 28.425V32.93V33.015L375.234 35.905L374.384 36.16V36.5L374.554 39.475V41.175L376.254 44.49H377.954L379.994 45.935L380.164 49.505L380.419 52.225L377.954 52.565L378.039 52.65L380.759 52.31L382.374 52.225L380.504 49.59H380.419L382.289 52.225L380.674 52.31L380.419 49.59H380.334L380.164 46.02L378.124 44.575H397.504L399.119 45.255L399.799 46.87L398.779 46.275L399.799 48.485V51.63L400.734 51.205V57.665L400.054 59.28L398.439 59.96H391.129H390.959H383.564L383.309 57.325L381.779 55.455V57.495L383.309 59.365L383.479 60.555H384.414L386.369 62.68H381.354L378.464 59.96L382.204 60.555H382.289L381.694 59.875H379.484L375.744 59.28V59.535L378.379 62H372.089L374.469 60.215L374.894 56.22L374.044 56.475L373.874 58.43L372.599 56.9L371.834 57.155L372.429 56.73L372.004 56.305L370.984 57.155H371.664L371.494 57.41L373.874 60.215H374.299L371.919 62H365.289L366.819 61.49L367.839 59.875L367.669 59.62L365.629 60.13L366.139 58.855L365.544 59.025L365.204 60.045L364.354 59.875L365.034 60.385L363.844 60.895L363.759 61.405L363.249 60.98L362.824 62H356.279L355.684 61.745L355.259 61.915V61.575L354.664 61.32L353.984 59.705L354.069 58.855ZM357.724 5.305L357.214 5.39L356.024 8.45L354.409 5.985H354.239L354.069 8.195H354.154H354.239L354.409 5.985L356.194 8.705L356.364 8.79L356.959 8.705L358.319 5.305L360.019 6.07L359.764 5.72999L357.894 4.88L357.469 4.54L357.384 4.965L357.724 5.305ZM370.219 5.22L370.389 5.72999L372.514 6.75L372.599 6.495L370.219 5.22ZM364.949 6.41L364.864 6.325L363.164 8.62H363.249L364.949 6.41ZM371.919 9.215V9.3L374.214 8.705L373.959 8.195L371.919 8.705L371.834 9.045L371.919 9.215ZM362.059 9.98L362.314 10.575L363.929 11.51L366.649 8.45H366.479L364.099 11.17L362.059 9.98ZM360.529 12.955L363.589 13.89L363.334 13.465L360.359 12.53L360.189 10.065L357.894 13.72L358.149 13.635L360.104 10.49L360.274 12.615L360.359 12.53L360.274 12.785V12.955L360.104 13.04L359.169 15.25L357.044 16.185L356.704 17.715L357.554 18.82L358.574 18.31L357.214 16.61L359.339 15.675L360.529 12.955ZM367.499 11.425L369.879 11.085L369.709 10.575L367.074 10.915L368.604 12.955H368.689L367.499 11.425ZM371.664 13.72L372.259 11.595L372.004 11.17L371.239 13.805L371.324 14.06L374.214 14.145L373.959 13.805L371.664 13.72ZM365.714 23.665L366.054 23.835L366.989 23.07L367.159 20.775L368.264 19.415L368.434 17.46L366.904 16.695L366.564 19.33L365.459 20.69L363.249 20.945V21.115L365.799 20.775L365.544 23.665H365.714ZM359.509 22.985L358.829 23.24L357.554 26.47L358.999 26.895L359.594 26.555L359.509 22.985L359.934 21.71L361.124 17.885L359.254 18.82L359.169 18.905H359.509L359.084 19.33L358.404 21.37L359.764 21.71L359.424 22.9L359.509 22.985ZM355.769 24.09L356.364 23.835L356.959 21.37L356.364 21.285L355.769 24.09ZM370.049 25.875L369.454 27.065L370.049 28.425L371.239 25.875L369.879 23.155L369.794 21.54L368.604 22.56L368.689 23.155L370.049 25.875ZM361.124 23.325L359.764 26.47L360.359 26.215L361.464 23.325H361.124ZM361.634 23.41V25.195L362.399 23.495L361.634 23.41ZM362.654 28.68L361.294 31.145L359.254 31.315L360.019 33.78L358.744 33.95L359.254 35.905L359.509 36.415H359.594L361.719 37.35L363.334 36.585L362.144 33.865L361.974 33.78L361.209 31.315L363.249 31.145L364.609 28.68L362.654 28.51L363.249 25.705L361.719 26.47V26.895L361.209 26.725L361.039 26.81L360.699 28.51L362.654 28.68ZM352.284 30.975L351.434 31.4V28.085L352.284 30.975ZM371.494 31.315L372.174 32.25V31.655L372.259 31.485L371.494 31.315ZM366.904 33.78L364.609 34.63H364.694L366.989 33.78H366.904ZM374.129 34.375L373.109 34.205L372.174 35.395L373.194 35.65L374.129 34.375ZM356.364 38.285L356.109 38.71V38.795L357.299 39.39L359.509 40.325L360.699 39.9L357.469 38.285L356.534 36.33L354.324 36.075L354.834 37.01L355.344 36.245L356.024 38.54L356.364 38.285ZM369.624 36.67L369.709 37.18L370.304 36.5L369.624 36.67ZM369.369 40.835L372.004 41.26V41.175L370.134 40.92L370.644 39.305L370.134 38.455L370.559 37.945L369.879 37.69L370.134 38.455L369.369 40.835ZM364.439 43.725L364.014 41.26L362.909 42.79L364.014 43.81L364.439 43.725ZM362.399 43.555L362.059 44.065L362.314 43.98L362.399 43.555ZM365.119 44.745L364.354 44.915L364.269 46.105V46.275L365.204 46.02L365.119 45.935L365.714 44.83L364.524 43.81L364.439 44.15L365.119 44.745ZM365.289 46.785L365.629 47.21L365.204 46.105L364.694 46.955L365.289 46.785ZM372.429 46.615L370.814 48.57L370.984 48.825H372.769L372.429 46.615ZM391.724 49.42L391.214 49.93L392.659 52.65L392.744 51.29L391.724 49.42L389.854 46.7V46.87L391.554 49.335L391.724 49.42ZM394.869 46.785L393.254 48.4L393.594 48.74L394.954 47.465L394.869 46.785ZM366.479 49.845L365.544 51.12L367.244 50.695L368.689 50.78L368.944 50.44L367.669 48.4L366.479 49.42L366.224 48.825L365.544 49.335V49.505L366.479 49.845ZM395.124 51.29L395.039 53.585L395.804 52.735L395.889 51.29V50.95L395.124 48.91V48.825L393.594 48.74V48.825L395.124 48.91V51.29ZM373.024 51.97H372.939L373.024 52.055L374.979 51.29L376.084 49.675L375.914 49.335L374.639 51.205L372.854 51.8L373.024 51.97ZM360.019 51.8L361.464 51.97L361.379 51.375L360.784 51.29L360.019 51.8ZM351.944 53.075L353.134 51.8L355.089 53.67L351.944 54.69V53.075ZM370.389 51.885L369.879 51.97L372.004 52.055L373.194 54.775L373.959 54.52L372.854 52.055L370.389 51.97V51.885ZM398.694 52.65L399.034 52.82L399.544 51.97L398.694 52.65ZM367.414 53.84H366.394L367.074 54.775L369.199 52.14L368.689 52.225L367.414 53.84ZM365.034 52.48L364.779 52.14L364.609 52.395L365.034 52.48ZM366.734 54.945L366.309 55.37L366.564 56.56L366.989 55.88L366.819 54.945H366.904H366.989L364.014 54.52L363.929 54.605L366.734 54.945ZM374.214 55.2V55.115V55.2ZM364.184 56.985H364.439L361.889 56.39H361.549L364.184 56.985ZM366.309 57.07L366.819 56.9V56.815H366.564H366.394L366.309 57.07ZM366.904 56.9L366.989 56.815H366.904V56.9ZM369.114 57.07L369.029 56.985L367.839 56.9L367.414 57.58L367.499 57.835L369.199 57.92L369.794 57.07H369.114ZM391.044 57.495V57.75L392.064 57.92V57.41L391.044 57.495ZM356.874 61.235L356.364 61.49L356.279 62L357.894 61.32L358.404 60.3L358.234 58.685L356.874 61.235ZM362.314 59.79L362.399 59.62L362.059 59.705L362.314 59.79ZM359.594 61.915L361.804 60.13L362.059 60.045L361.804 59.79L360.784 60.045L359.509 61.065L359.594 61.915ZM362.994 62L364.524 61.405L364.609 62H362.994ZM418.072 52.565L418.327 53.84H418.412L418.242 53.33L418.667 53.5L418.752 53.415L417.987 50.695L417.307 51.8L417.647 53.415L416.542 53.16L417.562 53.415L416.287 54.605H416.372L416.117 54.69L416.287 57.07L415.267 56.645L414.502 58.77L413.057 57.92L412.462 57.495L412.122 58.09L412.207 58.6L412.972 59.28L411.952 58.515V58.6L411.867 58.515L411.612 58.26L409.062 55.965L408.807 55.54L411.527 55.2V55.115L408.552 55.54L408.722 55.965L407.617 54.605L405.917 51.715L405.237 50.1L405.492 48.57L405.067 47.21L404.727 45.51L404.557 43.81L404.387 40.325L404.982 37.35H406.427V37.265H405.322L403.282 37.35L403.197 36.67L402.687 39.22L402.857 36.5L403.197 36.33V35.905L403.282 34.12L404.642 33.185L404.387 35.82L405.492 35.565V35.395L405.067 35.48L405.322 32.845L405.577 30.295H405.662L407.022 27.49L407.107 27.235L408.042 25.79L409.062 25.025L408.212 27.49L406.342 30.21L406.257 30.295H410.932L409.147 33.1L409.062 33.95L410.762 35.31L413.227 35.48V35.055L411.782 34.97L409.487 33.1L411.272 30.295L414.672 30.465L414.927 30.295H414.417L414.757 29.7L414.162 28.425L412.972 30.295H407.617L409.572 27.49L410.167 27.66L410.082 27.575L409.657 27.49L409.827 26.895L409.062 25.025L410.507 24.77L410.762 24.345L413.312 21.965L414.757 20.86L416.287 20.01L419.517 18.565L420.537 18.905L420.452 19.245L421.132 19.415V19.33L422.237 19.075L419.007 17.885L417.902 17.545L419.602 17.035L421.302 16.61L422.407 19.075L422.832 18.99L424.617 18.735H428.782L430.227 18.65L431.927 18.99L432.777 18.055H434.902L438.132 19.075L439.662 19.67L437.792 22.305L436.942 24.77L437.027 25.195L435.922 27.49L436.007 27.66L437.197 25.195L438.387 21.88L440.257 19.33L441.787 20.095L443.232 20.945L444.592 21.965L447.057 24.345L448.757 27.15L448.842 27.065L448.162 25.62L448.927 26.98L449.012 26.895L449.777 27.745L449.607 28L449.947 28.51L449.522 28.085L449.352 28.255L449.692 28.935L449.947 28.51L450.712 30.125L451.732 33.355L450.967 32.08L452.157 34.97L452.412 36.67L450.712 37.18L450.032 37.265V37.52L449.862 37.265L448.077 37.52L449.012 36.5L448.757 36.245L447.737 37.52L446.632 35.055H446.802L446.717 34.97L445.697 34.545V33.1L445.442 32.675H445.527L445.357 32.165L445.442 33.695L441.532 34.205L441.447 32.165L441.022 32.08L441.107 33.95L438.472 34.035L436.262 33.525L436.687 34.63L436.517 34.715L438.812 35.14L441.447 35.055L445.357 34.545L445.527 35.31L446.717 35.735L447.822 38.2L447.312 40.835L446.802 41.855L447.652 40.155L448.162 37.52L450.372 39.73L450.797 37.18L452.412 39.815L452.667 42.62L451.222 42.96L451.987 44.235L450.372 44.915H445.357L443.062 44.49L442.637 45.17L439.917 45.595H438.217L434.477 45.085L431.417 45.425L430.907 44.49L429.802 44.575L430.142 42.11L430.227 42.195L431.417 40.92H430.142L429.802 40.835V41.09H428.102L427.677 41.005L428.697 43.215L426.147 42.195L426.912 41.005L426.232 40.92L426.147 41.005L425.977 40.92H424.957L425.127 40.58L425.042 40.495L424.107 40.665V40.07L423.427 39.73L424.022 39.645V39.39H423.427V37.095L421.557 37.69L422.577 34.29H421.897L421.047 37.095V40.155L419.772 41.175L417.562 41.515L416.032 41.94L417.222 38.625L417.817 37.265L416.287 34.205L417.137 32.845L416.712 32.93L415.607 34.8L414.417 33.525L414.332 34.29L415.097 35.14L416.627 38.2L416.032 39.56L414.842 42.875L413.737 45H414.502L415.777 42.535L415.947 42.45L415.862 42.365L417.137 42.11H417.307L418.072 42.025L421.132 43.555L423.257 45L423.087 47.38L424.702 50.355L425.807 52.14L425.552 53.075L427.082 53.245L428.102 49.845L429.887 52.565L429.037 55.285L430.312 58.855L430.567 60.725L429.207 60.215L428.782 60.81L426.742 60.725L424.957 60.64L423.257 60.385L421.557 60.13V59.195L421.132 59.025L421.047 59.195L420.962 60.555L417.392 59.365L417.137 55.88L418.837 56.645L418.667 55.625V55.88L418.157 55.71L416.882 55.795L417.307 55.285L416.967 55.115L418.072 52.565ZM447.992 22.475L449.012 24.6L446.887 21.2L447.992 22.475ZM436.007 29.53L434.647 29.955L434.902 30.295L437.112 29.615L440.087 29.785L441.532 30.125L441.617 28.935L441.702 29.105L442.977 26.725L441.957 24.515H441.702L442.807 26.725L441.277 29.615L439.492 29.19L437.282 29.02L437.027 29.615L436.687 29.02H436.517L436.602 28.85L436.007 27.745L435.922 27.66L435.837 27.745L435.752 27.66L434.137 27.065L434.307 25.365L434.052 25.025L435.837 21.88L435.752 21.71L433.627 25.45V25.025L431.162 24.43L433.372 22.39L433.117 22.22L430.652 24.345L433.202 24.94L433.032 26.98L434.987 27.66L436.007 29.53ZM430.907 22.05L433.117 22.135L430.907 22.05ZM422.067 22.475L419.602 22.645V22.73L422.067 22.56V22.475ZM413.652 24.43L411.867 24.77L411.017 26.47L411.697 28L411.952 27.915L413.652 24.43ZM418.837 26.385L417.052 28.85L417.647 30.21L417.817 29.785L420.282 26.385L417.817 25.28L415.267 24.685L415.437 25.025L416.372 25.28L418.837 26.385ZM425.382 24.685L422.747 25.025V25.11L425.212 24.77L425.382 24.685ZM444.422 25.28L443.827 26.385L445.442 26.3L445.102 25.96H444.167L444.507 25.365L444.422 25.28ZM444.847 29.7L445.017 30.465L446.377 27.15L445.952 26.81L444.847 29.7ZM424.192 27.235L425.042 27.49L425.127 27.405L424.277 27.065L424.192 27.235ZM415.012 27.575L415.097 29.275L415.267 29.02L415.182 27.745L415.097 27.575L415.012 27.32L414.842 27.405L414.757 27.49L415.012 27.575ZM423.852 34.12H424.022L423.087 31.825L425.127 32.42H425.382L425.042 34.205L426.487 34.29L425.977 33.185L428.442 32.93L428.017 34.29H428.187L429.632 35.565L429.887 35.055L429.717 34.885H429.972L431.247 32.335L432.862 32.675L431.247 29.445L430.312 28.85L430.397 28.68H428.952L429.037 28.85L427.337 28.935L426.232 27.745L425.637 27.575L425.807 27.745H425.892H425.807L426.402 28.34L424.787 31.825L422.832 31.23L422.577 32.08L423.512 34.375H422.662L423.512 36.33L424.107 36.075L424.447 34.8L423.852 34.12ZM411.612 28L410.422 27.66V27.745L411.612 28ZM430.567 27.83L428.867 28.34V28.425L430.567 27.915V27.83ZM447.652 28.935L448.842 29.105L449.182 28.34L448.502 28.255L447.652 28.935ZM415.607 30.38L414.502 32.845L416.797 32.25L417.562 30.465L415.607 30.38ZM433.287 30.465V30.38L433.032 30.465L433.542 30.805L433.627 30.55L433.287 30.465ZM450.287 34.63H450.032L449.777 35.055L450.202 34.97L450.457 34.63L450.712 31.74L450.627 31.655L450.202 30.635L448.672 31.06L448.162 32.335H448.077L450.287 34.63ZM443.147 31.91L442.892 31.4L441.787 31.06V31.4L443.147 31.91ZM435.752 33.185L435.242 35.225L435.582 34.97L435.922 33.525L435.582 32.505L434.732 31.485L433.542 31.4L433.117 32.845L435.752 33.185ZM450.372 34.63L448.162 32.335L450.627 31.655L450.372 34.63ZM419.772 32.08L419.602 32.165L419.942 32.25L419.857 31.995L419.772 32.08ZM432.437 35.31L432.947 32.76L432.862 32.675L432.522 34.545L432.352 35.31L432.012 35.395L431.162 36.67H431.757L432.607 35.31H432.437ZM424.447 34.12L424.362 33.95L424.277 34.12H424.447ZM426.232 36.33L426.742 34.885L426.657 34.63L426.062 36.16L426.232 36.33ZM408.297 34.97V34.8L405.747 35.31V35.48L408.297 34.97ZM430.142 35.65L430.907 36.67H431.162L430.227 35.565L429.717 35.65H429.802H429.717H429.547L429.632 35.565L427.762 34.885L427.677 35.225L429.632 35.99L430.142 35.65ZM431.247 37.435L431.332 37.35H431.247L430.907 37.775L431.162 37.86L432.522 38.2L435.157 35.735L436.177 38.37V38.2L435.072 35.48L432.607 37.775L431.247 37.435ZM436.517 40.75L433.967 41.005L432.182 40.92L432.437 41.515L433.627 41.6L433.967 41.26L436.517 41.005L439.322 40.325L441.532 38.455L442.892 41.005L443.147 38.03L446.122 37.35L445.867 36.67L443.062 37.35L442.807 40.325L441.447 37.775L439.237 39.645L436.432 40.325L436.517 40.75ZM427.422 38.625L427.847 38.795L428.187 37.945L427.762 37.01L426.742 37.095L427.422 38.625ZM431.417 37.265L431.502 37.095L431.417 37.265ZM420.707 40.75L422.152 40.665L422.237 40.58L422.322 40.665H423.087L425.807 41.94L424.617 44.745L422.492 43.3L421.557 41.855L420.962 41.6L421.217 41.43L420.707 40.75ZM430.227 42.28L430.652 43.045L432.352 42.62L432.012 41.77L430.227 42.28ZM408.977 43.045L408.212 43.81L408.552 44.15L409.147 43.555L408.977 43.045ZM406.937 44.66L408.382 47.38L409.402 47.635L409.232 47.295L408.807 47.125L407.447 44.745L407.362 44.66V44.745V44.66H406.937ZM409.997 46.19L410.422 47.465L410.762 47.38L411.527 45.765L410.932 45.34H410.422L409.997 46.19ZM429.972 48.145L430.482 47.21L430.142 46.785L432.947 45.595L431.927 48.485L432.267 48.91L429.972 48.145ZM417.222 47.805L418.327 45.765L417.222 47.805L414.842 47.72L415.097 47.975L415.777 48.06L419.432 47.89L419.347 47.72L417.222 47.805ZM409.402 47.635L410.082 47.465L409.487 47.295L409.402 47.635ZM431.417 48.74L432.182 50.1H432.267L432.947 48.06L435.582 48.4L439.407 48.06H441.022L443.317 48.655L443.742 49.08L445.442 48.91L447.567 48.485L447.737 47.975L451.222 49.845L450.882 50.015L449.692 53.33L448.672 54.775L447.482 56.135L446.292 57.325L446.547 57.24L443.572 59.28L442.042 60.13L441.277 58.855L438.727 59.705L437.027 60.045L435.242 60.385L431.672 60.725L431.417 58.77L430.142 55.2L430.992 52.48L430.907 52.395L430.652 52.82L429.462 50.525L429.037 50.44L427.932 48.655L431.417 48.74ZM407.617 53.075L408.127 52.905L408.722 50.78L408.297 50.525L407.617 53.075ZM414.247 52.48L416.117 52.99L414.247 52.48ZM443.572 52.905H443.487L443.402 53.16L443.657 52.99L443.572 52.905ZM422.322 56.135L421.727 57.495L422.152 57.07L422.492 56.135H422.322ZM421.132 59.025L421.557 59.195V57.835L421.472 58.005L421.132 59.025ZM415.182 60.13L413.652 59.365L414.927 59.96L415.182 60.13ZM493.301 17.715L493.386 16.185L495.341 17.46L493.301 17.715ZM464.571 55.88L465.421 56.305L463.891 55.37L462.786 55.455L465.166 56.815L463.381 56.05L462.786 55.455L460.916 53.5L459.981 51.97L459.216 50.44L458.621 48.825L458.111 47.125L458.536 46.87L458.111 44.745L457.941 43.045H458.451L458.281 41.43L458.366 41.345H457.176L457.431 39.985L457.091 40.41L457.006 38.2L457.261 34.035L457.431 32.335L458.111 29.36L457.856 28.595L458.366 26.98L459.896 23.835L460.831 22.39L462.021 21.03L463.296 19.84L464.316 22.135V22.05L463.636 20.52L464.996 20.095L465.251 19.585L465.081 19.5L465.251 19.415L465.421 19.16L466.016 19.075L467.631 18.31L467.886 17.29L469.501 16.865L470.096 17.375L471.626 17.12L472.816 18.735H472.901L472.816 18.82L473.241 19.33L472.731 19.16L471.881 22.135L471.286 23.75L469.841 26.555L468.311 28.34L469.076 29.19V29.105L470.181 27.915L471.626 25.11L472.306 26.64L472.476 26.725L473.581 24.09L474.941 27.065L476.046 27.235L474.006 29.615L472.986 31.825L475.621 31.57L476.131 30.38L478.171 28.085L477.406 27.235L480.126 27.83L481.316 27.66V27.575L482.506 27.065L481.231 27.235L478.171 26.555L475.706 26.215L474.346 23.155L472.986 22.135L474.006 18.735L472.391 16.525L475.876 16.27L477.916 16.44L479.531 16.695L482.931 17.8L483.951 18.31L483.696 17.12L487.691 17.97L484.886 20.435L485.226 22.135L487.691 20.01V22.645L488.031 22.05V21.285L488.541 21.2L488.796 20.69L488.626 19.925L487.691 20.01L488.371 18.395L489.986 17.715H491.601L491.516 19.245L493.556 18.99L491.601 17.715H494.916L495.341 17.97H497.976L498.231 17.715H503.246L503.841 19.075L501.121 19.33L500.101 21.285L500.186 21.37L501.121 19.5L503.756 19.245L503.841 19.16L504.861 22.645L507.156 23.41V24.6H507.496L507.581 28L510.046 30.72L508.431 30.21V32.08L508.941 31.995L509.536 34.205L509.621 35.82L507.156 37.18L507.241 40.325L505.201 40.75L504.096 39.645L504.521 40.75L506.306 42.45L505.626 44.32L503.841 41.77L502.056 39.73L501.971 41.685L500.271 40.155L501.801 37.52L502.311 37.69L502.396 36.755L504.096 38.625L505.711 37.775L504.691 35.225L503.076 34.715L503.756 32.25L500.866 32.675L500.951 32.335V32.42L500.441 33.1H499.506L498.996 34.545L501.376 34.205L500.696 36.67L498.826 34.97L498.486 35.99L497.126 38.285L500.696 38.03L499.166 40.665L500.356 41.685H500.441L502.311 41.77L501.971 45.34H502.056L503.331 47.04H503.246L504.181 47.805L503.416 46.7L503.756 43.13L505.541 45.68L506.221 43.81L508.176 43.385V45.085L507.326 46.53L508.176 48.485V50.355L509.111 51.63L507.751 54.605L508.771 57.41L507.836 58.345V58.855L506.986 60.215V60.045L506.221 62L505.201 58.94L503.671 57.155L503.926 54.69L503.501 52.565L505.541 52.225L504.096 50.185L501.121 50.355L502.651 52.735L500.356 53.075L500.441 53.16L500.866 55.285L500.186 55.37H500.356L501.631 55.285L501.376 57.75L500.186 56.05L500.016 56.22L502.141 58.855L501.291 59.62L501.716 60.13L502.566 62.85L503.841 63.105L502.651 59.535L504.096 58.005L504.436 59.195L504.521 58.855L505.711 62.425L505.456 62.34L505.541 62.68L505.371 64.38L504.521 67.865L503.841 69.48L503.671 69.82L504.096 69.905L503.161 70.84L503.331 71.69L502.906 71.86L503.246 73.9L502.566 73.56L503.246 75.09L500.781 74.92L500.696 74.665L500.356 74.92L501.376 75.005L498.486 77.045L496.956 77.895L495.341 78.575L493.641 79.17L490.241 80.02L486.671 80.445L484.971 80.53L483.186 80.615L480.976 80.53L479.276 80.445L479.191 78.49L478.681 78.575L478.766 80.53L475.281 80.02L473.581 79.68L471.881 79.255L471.626 78.49L470.521 77.98V77.64L470.181 78.66L469.161 77.045L469.246 77.98L466.186 76.365L466.866 75.345L468.906 75.6L468.056 74.41L466.696 74.325L466.016 75.345L464.571 74.325L462.786 72.71L463.296 69.565L460.406 69.395L459.811 70.415L461.341 70.5L460.831 69.905L461.426 70.5L462.871 70.585L462.361 73.815L460.406 71.775L459.386 70.33L457.856 67.185L457.516 65.485L458.196 63.87L459.641 65.995L461.256 67.61L461.766 66.675L460.066 64.975L458.621 62.765L461.936 62.17H463.551L464.231 62.595L466.951 62.255L466.016 63.36L466.611 63.955H468.736L466.951 62.255L469.331 62.34L471.881 62.17L474.006 62.595L476.811 62.17L479.191 63.87L478.001 65.145L475.961 64.04L477.066 65.91L477.491 66.165L478.681 64.89L482.251 67.44L478.936 67.78L480.381 70.245L481.826 68.12L481.656 67.78L481.996 67.695L482.251 67.44V67.015L483.356 67.61L484.036 67.525L482.761 66.93L485.736 65.485L487.521 65.4L488.116 62L488.541 60.555L486.756 57.325L484.886 57.155L485.481 54.945H484.461L484.036 56.475L483.526 55.88L484.886 57.495L483.441 58.685L481.911 59.365L480.211 59.79L480.381 58.94L476.386 59.365L478.936 57.07L480.551 56.73L480.466 55.88L477.661 56.475L477.746 56.135L475.451 55.795H473.156L472.476 56.73H475.196L477.661 57.155L475.111 59.45L470.351 59.025L467.971 58.43L467.716 57.92L465.166 56.815L465.336 56.56L464.571 55.88ZM507.156 19.5V22.9L504.861 22.05L503.841 18.565L503.246 17.205H504.861L507.156 19.5ZM483.441 21.37L484.121 22.135L484.886 22.475L485.226 22.22L483.441 21.37ZM491.091 24.855L490.326 26.725L490.411 27.065L491.431 25.28L491.091 24.855L492.791 22.05L490.241 21.625L491.091 24.855ZM472.221 22.39L473.581 23.41L471.626 24.005L472.221 22.39ZM499.591 22.475L499.676 22.39H499.591L498.911 25.195L497.466 22.56L497.041 25.025L498.911 25.195L497.466 26.98L495.171 27.15L495.851 28.085L498.316 27.915H500.951L500.696 27.575H500.356L500.526 27.32L500.186 26.81L500.781 26.98L501.801 25.79L502.141 24.26H502.056L502.311 22.475H500.781V22.56L500.611 22.475H499.591ZM485.651 23.835L485.226 23.41L485.311 23.835H485.651ZM473.666 23.665L472.561 26.3L471.711 24.26L473.666 23.665ZM483.781 26.895L483.356 26.98L485.056 30.38L484.546 30.805L484.631 31.145L485.141 32.845H482.846L481.061 33.27L479.616 34.375L478.681 37.86L478.596 38.115L477.576 35.48L478.596 32.25L476.131 32.505L475.451 34.715L476.471 37.35L473.751 37.775L473.156 38.795L473.411 39.39L473.071 40.92L473.411 41.26L475.111 38.37L477.831 37.945L477.916 37.69V39.815L479.786 40.325L480.041 42.195L480.891 44.235L480.126 44.49L482.166 45.17L484.376 44.745L485.311 43.81L484.971 43.3L485.821 43.215L485.906 43.13L486.416 40.92V36.33L487.181 37.435H487.436L487.266 37.265L485.226 32.93L487.946 33.61L489.816 30.465L491.516 30.55L495.001 29.87L493.471 27.49L494.236 26.215L493.641 25.535L492.706 26.895L494.151 29.105L491.686 29.615L491.261 30.465L490.666 29.785L490.496 29.53L488.966 29.445L490.326 26.64L489.476 23.92L487.266 27.49L486.586 23.92L486.246 24.515L486.756 27.575L484.461 26.81L484.546 26.64L483.781 26.895ZM506.306 24.515L506.391 24.685H506.561L506.306 24.515ZM485.566 27.575L486.246 28.34L485.821 27.575L488.116 28.34L487.861 29.955L488.031 29.785L488.371 32.165L486.076 31.655L485.396 32.76L485.056 30.38L485.566 27.575ZM503.076 27.575H502.226L501.631 28.68L502.056 29.275L502.906 29.36L504.351 29.275H504.606L504.691 29.105L504.351 28.085L505.116 28.34L505.201 28.17L503.076 27.575ZM481.231 28.68L481.146 30.55L481.996 29.87L481.486 28.085L479.616 29.615L480.041 30.125L481.231 28.68ZM467.631 30.805L465.931 33.44L467.971 30.21L468.226 28.425L467.886 28.85L467.631 30.805ZM472.051 29.105L471.966 28.68L471.796 28.935L471.881 29.105H472.051ZM479.446 29.445V29.275L479.361 29.36L479.446 29.445ZM460.916 29.36L459.046 31.23L459.216 31.655L461.171 29.7L460.916 29.36ZM507.156 31.655V31.74L507.326 32.08H508.006L508.346 30.21L507.241 29.785H507.156V30.21L506.816 29.785L506.221 29.7V29.785L507.071 31.57L507.156 31.655ZM487.011 29.955L486.501 30.89L487.266 30.38L487.011 29.955ZM470.436 31.315H470.351L470.521 31.995L471.456 32.25L471.201 31.57L470.436 31.315ZM463.806 34.46L463.296 35.65L463.381 36.5L462.956 36.67L462.786 37.01L462.701 39.645L459.981 38.965L458.281 39.56L459.046 40.325L460.661 39.815L463.381 40.495L463.466 40.58L465.336 40.155L467.376 42.365L466.016 45L466.271 45.51L467.971 42.365L467.546 41.09L467.376 41.685L465.336 39.475L467.546 39.985L467.971 38.795L466.441 38.455L466.271 38.625L463.636 39.22L464.996 36.16L467.461 36.33L467.716 36.16V36.075L464.061 35.735L463.806 33.61L464.401 32.25V32.165L463.551 33.865L463.806 34.46ZM467.631 33.27L468.906 34.715H469.416L469.161 33.355L467.631 33.27ZM497.976 37.775L499.336 35.48L501.546 37.52L497.976 37.775ZM495.256 36.075L494.831 36.585L495.341 37.605L495.766 36.33L495.511 35.905L495.426 35.82L495.256 36.075ZM462.701 40.07L462.786 37.435L464.061 37.01L462.701 40.07ZM488.796 43.725L489.051 43.555L487.776 40.495L489.391 40.155L491.346 38.285L489.476 38.37L488.541 39.22L486.926 39.56L488.201 42.705L488.796 44.235H488.711L489.306 44.405V44.32V44.405H489.391L489.136 43.81L488.796 43.725ZM503.756 38.88L503.926 38.795L503.671 38.71L503.756 38.88ZM472.646 48.06L471.711 50.525L471.796 50.78L472.646 48.57L472.731 50.185L476.896 50.355L477.831 50.27L479.106 51.29L480.891 50.44L478.341 49.845L474.601 49.675L474.516 48.06L471.456 47.38L472.986 45L470.181 44.83L471.541 42.11L472.051 40.495L471.966 40.325L470.266 38.795L469.671 40.835L468.396 43.3L468.906 44.915L471.116 45L469.586 47.38L472.646 48.06ZM491.686 40.155L494.491 40.75L494.576 40.58L491.856 39.985L491.686 40.155ZM474.261 41.94L474.856 42.535L474.686 45L476.131 42.195L474.856 42.535L475.281 40.665L475.961 40.41L473.411 41.26L474.176 41.94H474.261ZM460.831 43.13L459.131 41.43L458.706 41.345L458.451 43.045L460.831 43.13ZM492.281 45L492.876 43.47L492.281 45ZM492.026 44.915L492.281 45L491.601 44.32L490.921 44.15L490.411 44.575L492.026 44.915ZM488.626 47.975L489.136 45.17L488.711 44.235L487.521 44.32L487.096 46.275L488.116 47.89L485.481 47.465L482.761 47.55V47.635L485.481 47.55L488.116 47.975L490.751 48.23H493.046L495.256 47.465V47.38L492.961 48.145H491.261V48.23L490.666 48.145L488.626 47.975ZM497.806 44.745L499.421 48.06H499.506L497.891 44.745H497.806ZM480.466 46.785L479.361 44.83H479.276L480.296 46.785H480.466ZM496.701 46.955H496.616L496.106 48.995V49.08L496.701 46.955ZM467.631 47.295L469.501 47.635L469.586 47.38L467.801 47.04L467.631 47.295ZM463.126 48.74L462.191 48.315L461.426 50.27L462.616 50.185L463.126 48.74ZM505.881 49.505L505.796 49.675H506.136L505.881 49.335L505.286 48.91L505.881 49.505ZM496.361 49.845L496.531 50.525L497.381 51.46L497.891 50.695L497.636 49.76H498.146L496.361 49.845ZM483.866 50.355V50.27L483.696 50.355H483.866ZM481.741 51.12L482.676 53.33L482.931 53.415L481.741 50.695L482.336 50.61L482.251 50.525L481.741 50.61L480.891 50.44L480.806 52.14L481.741 51.12ZM494.406 57.495L494.576 57.24L493.981 55.71L494.661 55.795L494.491 55.54L496.106 55.2H496.191L495.766 53.16L493.556 50.525L493.046 52.82L493.641 53.755H494.066L493.811 54.01L494.406 54.945L492.706 55.285L491.856 56.305L490.581 56.645L490.156 57.58L491.516 58.175L491.856 58.09V58.005H492.196L493.896 57.495L494.321 58.175L496.361 58.855L496.191 58.515L495.511 57.325L495.001 57.41L494.746 57.75L494.661 57.41L494.406 57.495ZM505.711 51.29L505.626 52.225L505.881 52.14L505.966 51.715L505.711 51.29ZM472.391 52.65L472.136 52.14H472.051L471.881 52.565L473.241 54.35L473.836 54.18L473.921 54.01L472.986 52.905L472.391 52.65ZM481.911 56.475L481.741 57.24L482.846 55.37L482.591 54.945L480.806 55.115L480.891 55.625L480.551 55.115H480.466L479.021 53.245L478.936 53.33L478.851 53.585L480.466 55.625V55.455L481.146 56.645L481.911 56.475ZM497.636 55.37L498.061 56.39L498.401 56.05L498.061 55.37H497.636ZM498.911 57.58V57.495H498.486L498.911 57.58ZM491.261 59.96V60.98L491.686 61.065V59.96H491.261ZM491.431 71.095L491.941 73.22L492.536 73.135L492.111 71.18L494.831 70.755L497.041 68.715L493.726 69.225L494.406 66.675L491.856 66.165L489.816 65.995L491.176 63.445L489.306 63.53L487.691 65.315H488.881L487.521 67.865L489.561 68.035L492.111 68.545L491.431 71.095ZM472.986 67.185H474.261L474.431 66.165H472.051L470.606 64.72L468.821 63.955L470.011 66.76L468.226 69.99L468.991 70.84L469.246 70.755L470.946 67.78L469.756 64.975L471.541 65.74L472.986 67.185ZM486.756 72.54L487.606 75.175H488.116L487.266 72.455L486.926 69.905L485.651 68.375L484.631 67.865L484.461 68.12L485.141 68.46L486.416 69.99L486.756 72.54ZM477.406 68.375L477.236 68.035L475.876 69.31L476.046 69.65L477.406 68.375ZM471.626 70.755L473.836 71.095L475.196 73.39L476.386 73.475L475.536 71.605H475.281L475.366 71.095L475.111 70.585L475.451 70.245L475.536 69.565L474.941 69.65L474.771 70.84L472.561 70.5L471.201 70.67V72.88L473.836 75.43H473.751L474.261 75.77L474.856 75.685V74.495L474.261 75.685L471.626 73.135V70.755ZM498.911 74.835L500.101 74.92L499.336 72.88L500.186 73.305L500.696 72.37L500.526 71.35L498.231 73.135H496.361L497.211 70.84L494.831 71.18L492.876 73.05L494.916 72.71L494.066 75.005H495.936L498.316 73.22L498.911 74.835ZM500.696 71.095L500.866 71.01L500.781 70.925L500.696 71.095ZM466.356 71.265L467.461 72.625L469.756 73.39V73.305L468.651 71.945L466.356 71.265ZM462.786 73.05L462.531 72.795L462.786 72.965V73.05ZM470.946 76.025L470.861 76.535L471.541 77.725L473.666 75.43L471.116 76.025L470.521 74.665L469.841 74.495L468.906 75.6H469.076V75.685L470.351 75.94L470.266 75.6L470.521 75.94L470.946 76.025ZM483.866 75.43L481.231 78.15H481.741L484.291 75.43H483.866Z" fill="white"/>
</svg>
