<svg width="64" height="64" viewBox="0 0 64 64" fill="none" xmlns="http://www.w3.org/2000/svg">
<path fill-rule="evenodd" clip-rule="evenodd" d="M63.9987 2.90909C63.9987 4.51574 62.6963 5.81818 61.0896 5.81818H2.90909C1.30244 5.81818 0 4.51574 0 2.90909V2.90909C0 1.30244 1.30244 0 2.90909 0H61.0896C62.6963 0 63.9987 1.30244 63.9987 2.90909V2.90909ZM40.6514 32.1335C40.6476 33.7413 39.3403 35.0412 37.7325 35.0358L2.90635 34.9189C1.3009 34.9135 0.00332599 33.6085 0.00703382 32.0031V32.0031C0.0107472 30.3952 1.31806 29.0953 2.92589 29.1007L37.752 29.2177C39.3575 29.2231 40.6551 30.528 40.6514 32.1335V32.1335ZM64 61.0909C64 62.6976 62.6976 64 61.0909 64H2.91037C1.30372 64 0.00127927 62.6976 0.00127927 61.0909V61.0909C0.00127927 59.4843 1.30372 58.1818 2.91037 58.1818H61.0909C62.6976 58.1818 64 59.4843 64 61.0909V61.0909Z" fill="white"/>
</svg>
