<svg width="25" height="25" viewBox="0 0 25 25" fill="none" xmlns="http://www.w3.org/2000/svg">
<g clip-path="url(#clip0_1890_1874)">
<path d="M9.76042 5.73958C9.57292 6.40625 9.47917 7.10417 9.47917 7.8125C9.47917 12.0625 12.9375 15.5208 17.1875 15.5208C17.8958 15.5208 18.5937 15.4271 19.2604 15.2396C18.1771 17.9062 15.5521 19.7917 12.5 19.7917C8.47917 19.7917 5.20833 16.5208 5.20833 12.5C5.20833 9.44792 7.09375 6.82292 9.76042 5.73958ZM12.5 3.125C7.32292 3.125 3.125 7.32292 3.125 12.5C3.125 17.6771 7.32292 21.875 12.5 21.875C17.6771 21.875 21.875 17.6771 21.875 12.5C21.875 12.0208 21.8333 11.5417 21.7708 11.0833C20.75 12.5104 19.0833 13.4375 17.1875 13.4375C14.0833 13.4375 11.5625 10.9167 11.5625 7.8125C11.5625 5.92708 12.4896 4.25 13.9167 3.22917C13.4583 3.16667 12.9792 3.125 12.5 3.125Z" fill="white"/>
</g>
<defs>
<clipPath id="clip0_1890_1874">
<rect width="25" height="25" fill="white"/>
</clipPath>
</defs>
</svg>
