<svg width="60" height="60" viewBox="0 0 60 60" fill="none" xmlns="http://www.w3.org/2000/svg">
<path d="M22.5 50C22.5 52.75 20.25 55 17.5 55C14.75 55 12.5 52.75 12.5 50C12.5 47.25 14.75 45 17.5 45C20.25 45 22.5 47.25 22.5 50ZM42.5 45C39.75 45 37.5 47.25 37.5 50C37.5 52.75 39.75 55 42.5 55C45.25 55 47.5 52.75 47.5 50C47.5 47.25 45.25 45 42.5 45ZM18 37V36.75L20.25 32.5H38.75C40.5 32.5 42.25 31.5 43 30L52.75 12.5L48.5 10L38.75 27.5H21.25L10.75 5H2.5V10H7.5L16.5 29L13 35C12.75 35.75 12.5 36.5 12.5 37.5C12.5 40.25 14.75 42.5 17.5 42.5H47.5V37.5H18.5C18.25 37.5 18 37.25 18 37ZM45 7L41.5 3.5L29.5 15.5L23 9L19.5 12.5L29.5 22.5L45 7Z" fill="black"/>
</svg>
