<svg width="50" height="50" viewBox="0 0 50 50" fill="none" xmlns="http://www.w3.org/2000/svg">
<path d="M18.6125 6.04691C20.4034 5.34016 22.3721 5.48774 24.265 5.42616C26.5925 5.35116 28.9654 5.20336 31.2329 5.83428C31.2329 5.13974 31.2329 4.4452 31.2329 3.75053C29.8557 4.24461 28.3991 4.14424 26.962 4.28853C25.2658 4.45866 23.5738 4.65782 21.8865 4.90095C18.3654 5.40845 14.9408 6.51432 11.4412 7.15561C10.232 7.37757 10.5247 9.31982 11.7281 9.27753C16.1505 9.12249 20.5658 8.81191 24.9932 8.92245C27.2851 8.97978 29.5999 9.15399 31.8709 9.46532C33.5199 9.69157 35.5359 9.85861 37.0042 10.6907C37.0902 10.0324 37.176 9.37428 37.2619 8.71591C34.5815 9.23545 31.6991 9.07936 28.9771 9.30166C26.2497 9.52486 23.5344 9.86836 20.8058 10.0679C15.8539 10.4299 10.8868 10.6236 6.04958 11.8374C4.67196 12.1834 5.27946 14.1383 6.62338 13.921C18.3367 12.0244 30.1847 13.8507 41.9478 14.1013C41.9478 13.3809 41.9478 12.661 41.9478 11.9409C35.6228 12.5661 29.2741 12.8029 22.9619 13.573C16.3889 14.375 9.87871 15.6147 3.28621 16.2679C3.38213 16.975 3.47746 17.6822 3.57358 18.3899C6.64104 17.7872 9.86729 17.8291 12.9813 17.583C16.6269 17.295 20.2787 17.1553 23.9348 17.2789C30.7975 17.5104 37.6304 18.3194 44.5014 18.4991C44.405 17.7919 44.3097 17.0848 44.214 16.3771C37.1967 17.3704 30.0336 17.2688 22.9763 17.9178C16.2445 18.5363 9.52463 19.3351 2.92804 20.8464C1.7085 21.1261 2.02417 22.9383 3.21542 22.9684C6.50446 23.0511 9.79634 22.2503 13.0665 21.9562C16.8226 21.6182 20.5948 21.4782 24.3641 21.4224C27.9104 21.3704 31.4446 21.4284 34.9843 21.6523C38.5359 21.8767 42.5468 21.8418 45.9168 23.0717C45.9168 22.3773 45.9168 21.6826 45.9168 20.9881C44.3485 21.4849 42.7164 21.3262 41.0963 21.3046C39.2253 21.2802 37.3332 21.4384 35.4641 21.5221C31.6631 21.692 27.8622 21.8684 24.0622 22.0587C20.1524 22.255 16.2488 22.5516 12.344 22.8221C9.18959 23.0402 5.90171 23.033 2.857 23.9676C1.89663 24.2625 1.75579 25.8355 2.857 26.0511C4.30763 26.3347 5.7005 26.2249 7.16417 26.0895C9.01742 25.9182 10.9069 26.0111 12.7668 25.995C16.7719 25.9603 20.7762 25.9241 24.7805 26.0444C28.7421 26.1629 32.699 26.4123 36.6574 26.6115C38.2084 26.6895 39.7379 26.7473 41.2893 26.684C42.8944 26.6186 44.7962 26.3826 46.297 27.0774C46.297 26.4554 46.297 25.8334 46.297 25.2115C43.8231 26.4767 40.2241 26.041 37.5033 26.2822C33.6715 26.6221 29.8323 26.8759 25.9923 27.1005C18.8445 27.5182 11.5971 27.8672 4.63083 29.6427C3.46213 29.9406 3.68838 31.8323 4.91783 31.7646C12.4183 31.3524 19.8838 31.3756 27.3873 31.2524C30.3399 31.2038 33.2919 31.101 36.2454 31.0909C37.5846 31.0866 38.9237 31.1152 40.2607 31.1892C41.4355 31.2537 44.5848 30.9445 45.1893 32.1791C45.4046 31.6504 45.6198 31.1214 45.8351 30.5921C38.6598 33.323 30.8688 31.4267 23.4571 32.2551C20.4146 32.5947 17.3728 32.7897 14.3225 33.0642C11.6461 33.3057 8.755 33.6234 6.40258 35.0217C5.766 35.4002 5.63304 36.5465 6.40258 36.8876C10.437 38.6736 16.226 37.4323 20.3884 37.1752C24.0681 36.9473 27.7637 36.9876 31.4488 37.0327C34.7257 37.0723 38.6743 36.5221 41.8021 37.614C41.7159 36.9559 41.6304 36.2976 41.5442 35.6394C39.6759 36.5339 36.4493 35.8414 34.4226 35.8587C31.464 35.8841 28.5083 36.0103 25.5606 36.2727C20.215 36.7492 14.9445 37.5994 9.68492 38.6575C8.48492 38.8994 8.76342 40.8297 9.97234 40.7794C15.0201 40.5697 20.09 40.7449 25.1433 40.6258C29.0911 40.5327 33.2716 40.092 37.208 40.5592C37.112 39.852 37.0167 39.1449 36.9206 38.4372C33.5425 39.0929 30.0571 38.9638 26.6437 39.3272C22.7163 39.7453 18.7014 40.2701 14.8453 41.1347C13.6579 41.4014 13.9154 43.3158 15.1327 43.2567C21.8057 42.9331 28.6015 41.9304 35.2614 42.9057C35.1754 42.2473 35.0893 41.5892 35.0037 40.9312C30.1809 43.4089 23.9931 43.0916 18.7748 44.2437C17.5138 44.5221 17.912 46.2701 19.0622 46.3656C23.4656 46.7314 27.5358 48.4115 31.8955 46.7418C33.1829 46.2487 32.6244 44.1591 31.3213 44.6583C27.204 46.2355 23.2284 44.5512 19.0621 44.2052C19.1575 44.9124 19.2533 45.6195 19.3491 46.3272C24.8052 45.1221 31.0433 45.3916 36.0939 42.7963C36.8723 42.3962 36.7699 40.9587 35.8361 40.8221C28.9558 39.8151 22.0267 40.7621 15.1326 41.0963C15.2283 41.8034 15.3237 42.5107 15.42 43.2182C19.4511 42.3139 23.6605 41.7444 27.7765 41.3769C31.0166 41.0875 34.291 41.1422 37.4951 40.5209C38.7935 40.2684 38.3179 38.5304 37.2079 38.3989C33.2715 37.9316 29.091 38.3723 25.1432 38.4656C20.09 38.5844 15.02 38.4092 9.97225 38.619C10.068 39.3261 10.1633 40.0334 10.2596 40.741C16.1255 39.5605 22.004 38.6554 27.9778 38.2418C30.9259 38.0375 33.8859 38.0114 36.8402 38.0072C38.8335 38.0042 40.7672 38.3989 42.6345 37.5052C43.5459 37.0684 43.1796 35.8111 42.3762 35.5304C39.95 34.6836 37.3766 34.9659 34.8538 34.9249C31.1644 34.8649 27.4765 34.8119 23.7871 34.8789C20.1162 34.9456 16.4578 35.311 12.7918 35.4919C11.244 35.5684 8.92121 35.6539 7.49296 35.0216C7.49296 35.6436 7.49296 36.2655 7.49296 36.8874C9.993 35.4005 13.2465 35.2946 16.0715 35.0797C19.0808 34.8514 22.0715 34.5059 25.075 34.2578C32.1813 33.6708 39.5299 35.2937 46.4092 32.6754C47.0903 32.4161 47.3818 31.7565 47.0547 31.0887C45.9332 28.797 42.3813 29.175 40.2606 29.0287C36.7974 28.7891 33.296 28.9561 29.8293 29.0389C21.5154 29.237 13.2296 29.1472 4.91775 29.6041C5.0135 30.3114 5.10942 31.0185 5.20471 31.726C12.5182 29.862 20.1335 29.6138 27.6335 29.1637C31.474 28.9329 35.3112 28.6455 39.1425 28.2949C41.9083 28.0417 44.8395 28.3801 47.3873 27.0772C48.0708 26.7274 48.1143 25.5479 47.3873 25.2114C45.134 24.1687 42.5711 24.4847 40.1602 24.5659C36.1943 24.6986 32.1468 24.2036 28.1838 24.0181C23.9033 23.8177 19.6242 23.7793 15.3398 23.8114C13.3355 23.8264 11.3315 23.8488 9.32717 23.8569C7.38992 23.8644 5.34604 24.3421 3.43183 23.9675C3.43183 24.662 3.43183 25.3565 3.43183 26.051C6.79384 25.0185 10.5365 25.1087 14.0233 24.8652C17.9221 24.5935 21.8201 24.3201 25.7248 24.1388C29.508 23.9628 33.2911 23.7746 37.075 23.6114C40.0911 23.4809 43.5873 23.991 46.4911 23.0715C47.5527 22.7354 47.4848 21.351 46.4911 20.988C43.4084 19.8632 39.8645 19.8616 36.6253 19.6087C32.8057 19.3104 28.9955 19.2303 25.1668 19.2534C21.3973 19.2766 17.6292 19.4378 13.8707 19.7287C10.3398 20.0016 6.75154 20.8969 3.21533 20.8079C3.31108 21.515 3.40642 22.2224 3.50254 22.9299C10.4579 21.3357 17.5373 20.5691 24.6335 19.9264C31.3417 19.3193 38.1138 19.4048 44.7881 18.4605C46.034 18.2843 45.6704 16.3691 44.5013 16.3386C37.348 16.1518 30.2336 15.3311 23.0876 15.0898C19.4374 14.9666 15.7787 15.2016 12.1415 15.489C9.09817 15.7294 6.00221 15.7169 2.99892 16.3063C1.81071 16.5396 2.07271 18.5484 3.28613 18.4282C9.60446 17.802 15.853 16.6711 22.1441 15.8373C28.7214 14.9656 35.3497 14.7534 41.9477 14.1012C43.3097 13.9666 43.3645 11.9711 41.9477 11.9408C29.9669 11.6855 17.9799 9.90557 6.04954 11.8373C6.24063 12.5318 6.43229 13.2263 6.62333 13.9208C11.7575 12.6322 17.048 12.5286 22.2978 12.1145C25.0842 11.8948 27.8582 11.5391 30.6468 11.3314C33.0358 11.1537 35.4798 11.2559 37.8363 10.7992C38.7737 10.6175 38.8665 9.26266 38.0944 8.82461C34.886 7.00691 30.1677 7.04274 26.5854 6.84186C21.6285 6.56382 16.6817 6.9427 11.728 7.11711C11.8238 7.8242 11.9195 8.53132 12.015 9.23882C15.5197 8.59678 18.9425 7.54232 22.4606 6.98378C24.2159 6.70511 25.9923 6.54574 27.7598 6.36849C29.1513 6.22886 30.4696 6.3132 31.8066 5.83395C32.7798 5.48495 32.8911 4.05241 31.8066 3.7502C29.5594 3.12499 27.2261 3.17174 24.9135 3.24349C22.6421 3.31399 20.188 3.11482 18.0378 3.96299C16.7576 4.46841 17.3148 6.55828 18.6125 6.04691Z" fill="#D52028"/>
<path d="M18.6125 5.37476C20.4034 4.66805 22.3721 4.81563 24.265 4.75401C26.5925 4.67901 28.9654 4.53126 31.2329 5.16213C31.2329 4.46759 31.2329 3.77309 31.2329 3.07838C29.8557 3.57246 28.3991 3.47209 26.962 3.61638C25.2658 3.78651 23.5738 3.98567 21.8865 4.2288C18.3654 4.7363 14.9408 5.84221 11.4412 6.48346C10.232 6.70542 10.5247 8.64767 11.7281 8.60542C16.1505 8.45034 20.5658 8.13975 24.9932 8.2503C27.2851 8.30763 29.5999 8.48184 31.8709 8.79317C33.5199 9.01942 35.5359 9.1865 37.0042 10.0186C37.0902 9.36021 37.176 8.70213 37.2619 8.04376C34.5815 8.5633 31.6991 8.40721 28.9771 8.62955C26.2497 8.85271 23.5344 9.19621 20.8058 9.3958C15.8539 9.7578 10.8868 9.95151 6.04958 11.1653C4.67196 11.5113 5.27946 13.4661 6.62338 13.2488C18.3367 11.3523 30.1847 13.1785 41.9478 13.4291C41.9478 12.7088 41.9478 11.9889 41.9478 11.2688C35.6228 11.894 29.2741 12.1308 22.9619 12.9009C16.3889 13.7029 9.87871 14.9425 3.28621 15.5958C3.38213 16.303 3.47746 17.01 3.57358 17.7178C6.64104 17.1151 9.86729 17.157 12.9813 16.9109C16.6269 16.6229 20.2787 16.4833 23.9348 16.6068C30.7975 16.8383 37.6304 17.6473 44.5014 17.827C44.405 17.1198 44.3097 16.4127 44.214 15.705C37.1967 16.6983 30.0336 16.5967 22.9763 17.2457C16.2445 17.8642 9.52463 18.663 2.92804 20.1743C1.7085 20.454 2.02417 22.2662 3.21542 22.2963C6.50446 22.379 9.79634 21.5783 13.0665 21.2842C16.8226 20.9462 20.5948 20.8061 24.3641 20.7504C27.9104 20.6983 31.4446 20.7563 34.9843 20.9803C38.5359 21.2047 42.5468 21.1698 45.9168 22.3996C45.9168 21.7053 45.9168 21.0105 45.9168 20.3161C44.3485 20.8128 42.7164 20.6541 41.0963 20.6325C39.2253 20.6081 37.3332 20.7663 35.4641 20.85C31.6631 21.02 27.8622 21.1964 24.0622 21.3867C20.1524 21.583 16.2488 21.8795 12.344 22.15C9.18959 22.3682 5.90171 22.361 2.857 23.2956C1.89663 23.5905 1.75579 25.1635 2.857 25.3791C4.30763 25.6626 5.7005 25.5529 7.16417 25.4175C9.01742 25.2462 10.9069 25.3391 12.7668 25.323C16.7719 25.2883 20.7762 25.2521 24.7805 25.3724C28.7421 25.4909 32.699 25.7403 36.6574 25.9395C38.2084 26.0175 39.7379 26.0753 41.2893 26.012C42.8944 25.9466 44.7962 25.7106 46.297 26.4053C46.297 25.7834 46.297 25.1614 46.297 24.5395C43.8231 25.8047 40.2241 25.369 37.5033 25.6102C33.6715 25.95 29.8323 26.2039 25.9923 26.4285C18.8445 26.8462 11.5971 27.1952 4.63083 28.9706C3.46213 29.2686 3.68838 31.1603 4.91783 31.0926C12.4183 30.6804 19.8838 30.7035 27.3873 30.5804C30.3399 30.5318 33.2919 30.4289 36.2454 30.4188C37.5846 30.4145 38.9237 30.4432 40.2607 30.5172C41.4355 30.5816 44.5848 30.2725 45.1893 31.507C45.4046 30.9783 45.6198 30.4493 45.8351 29.92C38.6598 32.6509 30.8688 30.7545 23.4571 31.583C20.4146 31.9227 17.3728 32.1176 14.3225 32.3922C11.6461 32.6336 8.755 32.9513 6.40258 34.3497C5.766 34.7281 5.63304 35.8745 6.40258 36.2155C10.437 38.0015 16.226 36.7603 20.3884 36.5031C24.0681 36.2753 27.7637 36.3155 31.4488 36.3606C34.7257 36.4003 38.6743 35.85 41.8021 36.9419C41.7159 36.2838 41.6304 35.6255 41.5442 34.9673C39.6759 35.8618 36.4493 35.1693 34.4226 35.1866C31.464 35.212 28.5083 35.3383 25.5606 35.6006C20.215 36.0771 14.9445 36.9273 9.68492 37.9854C8.48492 38.2273 8.76342 40.1575 9.97234 40.1073C15.0201 39.8976 20.09 40.0728 25.1433 39.9537C29.0911 39.8606 33.2716 39.4199 37.208 39.887C37.112 39.1799 37.0167 38.4728 36.9206 37.7651C33.5425 38.4208 30.0571 38.2918 26.6437 38.6551C22.7163 39.0732 18.7014 39.598 14.8453 40.4627C13.6579 40.7293 13.9154 42.6438 15.1327 42.5846C21.8057 42.261 28.6015 41.2584 35.2614 42.2336C35.1754 41.5753 35.0893 40.9171 35.0037 40.2592C30.1809 42.7368 23.9931 42.4196 18.7748 43.5716C17.5138 43.85 17.912 45.598 19.0622 45.6936C23.4656 46.0594 27.5358 47.7395 31.8955 46.0698C33.1829 45.5767 32.6244 43.487 31.3213 43.9863C27.204 45.5635 23.2284 43.8792 19.0621 43.5333C19.1575 44.2403 19.2533 44.9475 19.3491 45.6552C24.8052 44.4501 31.0433 44.7197 36.0939 42.1243C36.8723 41.7243 36.7699 40.2867 35.8361 40.1501C28.9558 39.1432 22.0267 40.0901 15.1326 40.4243C15.2283 41.1314 15.3237 41.8388 15.42 42.5463C19.4511 41.642 23.6605 41.0725 27.7765 40.705C31.0166 40.4156 34.291 40.4703 37.4951 39.8489C38.7935 39.5965 38.3179 37.8585 37.2079 37.7269C33.2715 37.2597 29.091 37.7003 25.1432 37.7936C20.09 37.9125 15.02 37.7373 9.97225 37.947C10.068 38.6542 10.1633 39.3615 10.2596 40.069C16.1255 38.8885 22.004 37.9834 27.9778 37.5698C30.9259 37.3655 33.8859 37.3395 36.8402 37.3352C38.8335 37.3322 40.7672 37.7269 42.6345 36.8332C43.5459 36.3964 43.1796 35.1391 42.3762 34.8584C39.95 34.0116 37.3766 34.294 34.8538 34.2529C31.1644 34.1929 27.4765 34.1399 23.7871 34.207C20.1162 34.2736 16.4578 34.6391 12.7918 34.82C11.244 34.8964 8.92121 34.982 7.49296 34.3497C7.49296 34.9716 7.49296 35.5935 7.49296 36.2155C9.993 34.7285 13.2465 34.6226 16.0715 34.4078C19.0808 34.1795 22.0715 33.834 25.075 33.5858C32.1813 32.9988 39.5299 34.6218 46.4092 32.0035C47.0903 31.7441 47.3818 31.0845 47.0547 30.4167C45.9332 28.125 42.3813 28.503 40.2606 28.3567C36.7974 28.1171 33.296 28.2842 29.8293 28.3669C21.5154 28.565 13.2296 28.4752 4.91775 28.9321C5.0135 29.6395 5.10942 30.3466 5.20471 31.0541C12.5182 29.19 20.1335 28.9418 27.6335 28.4917C31.474 28.261 35.3112 27.9736 39.1425 27.623C41.9083 27.3697 44.8395 27.7081 47.3873 26.4053C48.0708 26.0555 48.1143 24.876 47.3873 24.5394C45.134 23.4967 42.5711 23.8128 40.1602 23.8939C36.1943 24.0266 32.1468 23.5317 28.1838 23.3461C23.9033 23.1457 19.6242 23.1073 15.3398 23.1394C13.3355 23.1545 11.3315 23.1768 9.32717 23.185C7.38992 23.1925 5.34604 23.6701 3.43183 23.2955C3.43183 23.99 3.43183 24.6845 3.43183 25.379C6.79384 24.3465 10.5365 24.4368 14.0233 24.1933C17.9221 23.9215 21.8201 23.6482 25.7248 23.4668C29.508 23.2908 33.2911 23.1026 37.075 22.9394C40.0911 22.8089 43.5873 23.319 46.4911 22.3995C47.5527 22.0634 47.4848 20.679 46.4911 20.316C43.4084 19.1912 39.8645 19.1896 36.6253 18.9368C32.8057 18.6384 28.9955 18.5583 25.1668 18.5815C21.3973 18.6046 17.6292 18.7658 13.8707 19.0567C10.3398 19.3296 6.75154 20.225 3.21533 20.136C3.31108 20.843 3.40642 21.5504 3.50254 22.2579C10.4579 20.6638 17.5373 19.8971 24.6335 19.2544C31.3417 18.6473 38.1138 18.7329 44.7881 17.7885C46.034 17.6123 45.6704 15.6971 44.5013 15.6666C37.348 15.4798 30.2336 14.6591 23.0876 14.4178C19.4374 14.2946 15.7787 14.5296 12.1415 14.817C9.09817 15.0575 6.00221 15.0449 2.99892 15.6343C1.81071 15.8677 2.07271 17.8764 3.28613 17.7563C9.60446 17.13 15.853 15.9991 22.1441 15.1654C28.7214 14.2936 35.3497 14.0814 41.9477 13.4292C43.3097 13.2947 43.3645 11.2992 41.9477 11.2688C29.9669 11.0135 17.9799 9.23367 6.04954 11.1654C6.24063 11.8599 6.43229 12.5545 6.62333 13.2489C11.7575 11.9603 17.048 11.8566 22.2978 11.4426C25.0842 11.2229 27.8582 10.8672 30.6468 10.6595C33.0358 10.4818 35.4798 10.5841 37.8363 10.1273C38.7737 9.94563 38.8665 8.59075 38.0944 8.15275C34.886 6.33505 30.1677 6.37084 26.5854 6.17C21.6285 5.89192 16.6817 6.27084 11.728 6.44521C11.8238 7.1523 11.9195 7.85946 12.015 8.56696C15.5197 7.92488 18.9425 6.87042 22.4606 6.31188C24.2159 6.03321 25.9923 5.87388 27.7598 5.69663C29.1513 5.55696 30.4696 5.64134 31.8066 5.16205C32.7798 4.81305 32.8911 3.38055 31.8066 3.0783C29.5594 2.45313 27.2261 2.49988 24.9135 2.57159C22.6421 2.64213 20.188 2.44296 18.0378 3.29113C16.7576 3.7963 17.3148 5.88617 18.6125 5.37476Z" fill="#D52028"/>
<path d="M18.9974 26.5851C18.9974 26.5851 19.3972 26.7071 19.2234 27.4543L18.7718 28.9483C18.7718 28.9483 18.4761 29.227 18.0246 29.001C18.0246 29.001 14.3994 27.7022 15.1345 21.6471C15.1345 21.6471 15.8346 16.5022 20.9443 14.577C26.0539 12.6522 30.3945 14.5418 30.9197 14.8215C31.4444 15.1017 36.0647 17.9026 35.6448 23.3973C35.2237 28.8923 32.4948 30.8874 31.935 31.3773C31.3752 31.8671 26.4045 34.702 23.6393 31.062L22.2393 36.1372C22.2393 36.1372 21.5392 37.887 20.9443 38.4125C20.9443 38.4125 19.2295 37.9226 19.1594 37.7124C19.1594 37.7124 19.0543 35.3322 19.3344 34.5273L21.3999 25.9873C21.3999 25.9873 20.4893 23.5721 21.1547 21.9623C21.1547 21.9623 22.2046 19.1272 24.3749 19.6174C24.3749 19.6174 26.3344 20.0721 25.9145 22.6272L24.7594 26.6518C24.7594 26.6518 24.2348 28.5417 25.1094 29.3124C25.1094 29.3124 26.58 31.2022 29.1698 29.4527C29.1698 29.4527 31.0247 28.7171 31.7599 23.8876C31.7599 23.8876 32.355 19.5817 30.0097 17.7965C30.0097 17.7965 27.3495 15.242 22.52 16.8175C22.52 16.8175 18.8796 18.0768 18.1444 21.9624C18.1443 21.9623 17.4707 24.2089 18.9974 26.5851Z" fill="white"/>
</svg>
