<svg width="28" height="28" viewBox="0 0 28 28" fill="none" xmlns="http://www.w3.org/2000/svg">
<path d="M9.9874 2.63053C11.0424 2.20588 12.2021 2.29456 13.3172 2.25756C14.6883 2.21249 16.0862 2.12369 17.422 2.50277C17.422 2.08547 17.422 1.66816 17.422 1.25078C16.6106 1.54764 15.7526 1.48733 14.906 1.57403C13.9068 1.67625 12.91 1.79591 11.9161 1.94199C9.8418 2.24692 7.82438 2.91137 5.76281 3.29668C5.0505 3.43004 5.22291 4.59702 5.93185 4.57161C8.53706 4.47845 11.138 4.29184 13.7462 4.35826C15.0963 4.39271 16.46 4.49738 17.7978 4.68444C18.7692 4.82038 19.9568 4.92074 20.8218 5.42069C20.8724 5.02514 20.923 4.62974 20.9736 4.23416C19.3946 4.54632 17.6966 4.45254 16.0931 4.5861C14.4864 4.72021 12.8868 4.9266 11.2794 5.04652C8.36232 5.26402 5.43623 5.38038 2.58668 6.1097C1.77513 6.31756 2.133 7.49213 2.92469 7.36157C9.82489 6.22206 16.8044 7.31934 23.734 7.4699C23.734 7.03709 23.734 6.60454 23.734 6.17186C20.008 6.54749 16.2681 6.68978 12.5496 7.1525C8.67746 7.63437 4.84238 8.37921 0.958796 8.77171C1.0153 9.19655 1.07146 9.62142 1.12809 10.0466C2.9351 9.68456 4.83565 9.70972 6.67011 9.56184C8.81767 9.3888 10.9689 9.30488 13.1227 9.37913C17.1654 9.51825 21.1906 10.0043 25.2383 10.1123C25.1815 9.68739 25.1254 9.26252 25.069 8.8373C20.9351 9.43411 16.7155 9.37305 12.5581 9.76299C8.59244 10.1346 4.63379 10.6146 0.747803 11.5226C0.0293817 11.6907 0.215338 12.7795 0.917093 12.7976C2.85464 12.8473 4.79385 12.3661 6.72028 12.1894C8.93296 11.9863 11.1551 11.9022 13.3756 11.8687C15.4647 11.8375 17.5467 11.8723 19.6318 12.0068C21.7241 12.1417 24.0869 12.1207 26.0721 12.8596C26.0721 12.4425 26.0721 12.025 26.0721 11.6078C25.1483 11.9062 24.1868 11.8109 23.2324 11.7979C22.1302 11.7833 21.0156 11.8783 19.9145 11.9286C17.6754 12.0307 15.4363 12.1367 13.1978 12.251C10.8945 12.3689 8.59492 12.5471 6.29469 12.7097C4.43642 12.8407 2.49956 12.8364 0.705953 13.398C0.140204 13.5752 0.0572407 14.5202 0.705953 14.6498C1.5605 14.8202 2.38103 14.7542 3.24327 14.6729C4.335 14.5699 5.44806 14.6257 6.54372 14.6161C8.90311 14.5952 11.262 14.5735 13.6209 14.6458C15.9546 14.717 18.2856 14.8668 20.6175 14.9865C21.5312 15.0334 22.4322 15.0681 23.3461 15.0301C24.2916 14.9908 25.412 14.849 26.2961 15.2664C26.2961 14.8927 26.2961 14.519 26.2961 14.1453C24.8387 14.9055 22.7186 14.6437 21.1158 14.7887C18.8585 14.9929 16.5969 15.1454 14.3347 15.2803C10.124 15.5313 5.85468 15.741 1.7509 16.8077C1.06243 16.9868 1.19571 18.1233 1.91997 18.0827C6.3384 17.835 10.7363 17.8489 15.1565 17.7749C16.8959 17.7457 18.6349 17.684 20.3748 17.6779C21.1637 17.6753 21.9525 17.6925 22.7401 17.737C23.4322 17.7757 25.2875 17.59 25.6436 18.3317C25.7704 18.0141 25.8972 17.6962 26.024 17.3782C21.7971 19.019 17.2074 17.8796 12.8413 18.3774C11.049 18.5815 9.25705 18.6986 7.46018 18.8636C5.88353 19.0086 4.18041 19.1995 2.79462 20.0397C2.41962 20.2671 2.34129 20.9558 2.79462 21.1608C5.17124 22.2338 8.58151 21.488 11.0336 21.3336C13.2012 21.1967 15.3783 21.2208 17.5492 21.2479C19.4795 21.2718 21.8056 20.9412 23.6482 21.5972C23.5974 21.2018 23.547 20.8063 23.4962 20.4108C22.3957 20.9483 20.4949 20.5322 19.301 20.5426C17.5581 20.5578 15.8169 20.6337 14.0804 20.7913C10.9314 21.0776 7.82659 21.5884 4.72822 22.2242C4.02131 22.3695 4.18537 23.5293 4.89753 23.4991C7.87112 23.3731 10.8578 23.4784 13.8346 23.4068C16.1602 23.3509 18.6229 23.0861 20.9418 23.3668C20.8853 22.9419 20.8291 22.517 20.7725 22.0918C18.7825 22.4858 16.7293 22.4082 14.7185 22.6266C12.4049 22.8778 10.0398 23.1931 7.76815 23.7126C7.06868 23.8728 7.22037 25.0231 7.93744 24.9875C11.8684 24.7931 15.8718 24.1907 19.7951 24.7766C19.7444 24.3811 19.6937 23.9857 19.6433 23.5903C16.8022 25.079 13.157 24.8884 10.083 25.5806C9.34012 25.7479 9.5747 26.7981 10.2523 26.8555C12.8463 27.0753 15.244 28.0848 17.8123 27.0816C18.5707 26.7853 18.2417 25.5297 17.474 25.8297C15.0486 26.7774 12.7066 25.7653 10.2522 25.5575C10.3084 25.9824 10.3649 26.4072 10.4213 26.8324C13.6355 26.1084 17.3102 26.2703 20.2855 24.7109C20.7441 24.4706 20.6837 23.6068 20.1337 23.5247C16.0805 22.9197 11.9987 23.4887 7.93739 23.6895C7.9938 24.1144 8.04996 24.5393 8.10671 24.9644C10.4814 24.4211 12.9611 24.0789 15.3858 23.8581C17.2945 23.6842 19.2234 23.7171 21.1109 23.3438C21.8758 23.1921 21.5956 22.1478 20.9418 22.0688C18.6229 21.7881 16.1601 22.0528 13.8346 22.1089C10.8577 22.1803 7.87107 22.075 4.89748 22.2011C4.95387 22.6259 5.01003 23.0509 5.06677 23.476C8.52231 22.7667 11.9853 22.2229 15.5044 21.9744C17.2411 21.8517 18.9848 21.836 20.7252 21.8335C21.8994 21.8316 23.0385 22.0688 24.1386 21.5318C24.6754 21.2694 24.4597 20.514 23.9864 20.3453C22.5571 19.8365 21.0411 20.0061 19.555 19.9815C17.3816 19.9455 15.2091 19.9136 13.0357 19.9539C10.8732 19.9939 8.71806 20.2135 6.55843 20.3222C5.64664 20.3681 4.27832 20.4195 3.43696 20.0396C3.43696 20.4133 3.43696 20.787 3.43696 21.1607C4.90971 20.2673 6.82629 20.2036 8.49047 20.0745C10.2633 19.9374 12.025 19.7298 13.7944 19.5807C17.9806 19.228 22.3096 20.2031 26.3622 18.63C26.7634 18.4741 26.9351 18.0778 26.7424 17.6765C26.0817 16.2996 23.9894 16.5268 22.7401 16.4388C20.6999 16.2949 18.6373 16.3952 16.5951 16.445C11.6974 16.564 6.81635 16.51 1.91992 16.7846C1.97633 17.2095 2.03283 17.6344 2.08897 18.0595C6.39726 16.9395 10.8834 16.7904 15.3016 16.5199C17.564 16.3813 19.8244 16.2086 22.0814 15.998C23.7107 15.8458 25.4375 16.0491 26.9383 15.2663C27.341 15.0561 27.3666 14.3475 26.9383 14.1453C25.611 13.5188 24.1012 13.7087 22.6809 13.7574C20.3447 13.8371 17.9603 13.5398 15.6257 13.4283C13.1041 13.3079 10.5833 13.2848 8.05946 13.3041C6.87875 13.3131 5.69818 13.3266 4.51747 13.3314C3.37625 13.336 2.17223 13.623 1.04458 13.3979C1.04458 13.8152 1.04458 14.2325 1.04458 14.6497C3.02511 14.0294 5.22988 14.0836 7.28394 13.9373C9.58069 13.774 11.877 13.6098 14.1772 13.5008C16.4058 13.3951 18.6344 13.282 20.8635 13.1839C22.6402 13.1055 24.6998 13.412 26.4104 12.8596C27.0358 12.6576 26.9958 11.8258 26.4104 11.6077C24.5944 10.9319 22.5067 10.9309 20.5985 10.779C18.3485 10.5997 16.1039 10.5516 13.8485 10.5655C11.6279 10.5794 9.40813 10.6763 7.19401 10.851C5.11398 11.015 3.00019 11.553 0.917044 11.4995C0.973449 11.9244 1.02961 12.3493 1.08624 12.7744C5.18356 11.8166 9.35401 11.356 13.5343 10.9698C17.486 10.6051 21.4754 10.6565 25.4072 10.0891C26.1412 9.9832 25.9269 8.83247 25.2383 8.81414C21.0243 8.70191 16.8333 8.2088 12.6236 8.06382C10.4733 7.98982 8.31799 8.13099 6.17535 8.30368C4.38257 8.44813 2.55877 8.4406 0.789555 8.79474C0.0895916 8.93491 0.243934 10.1419 0.958747 10.0697C4.68082 9.69342 8.36181 9.01392 12.0678 8.51298C15.9424 7.98919 19.8471 7.86169 23.7339 7.46982C24.5363 7.38898 24.5686 6.18999 23.7339 6.17179C16.6762 6.0184 9.61471 4.94896 2.58665 6.1096C2.69922 6.52691 2.81213 6.94419 2.92467 7.36147C5.94916 6.58722 9.06575 6.52495 12.1584 6.27616C13.7998 6.14415 15.4339 5.93043 17.0767 5.80563C18.484 5.69888 19.9237 5.76031 21.3119 5.48591C21.8641 5.37673 21.9189 4.56267 21.464 4.29948C19.574 3.20733 16.7945 3.22886 14.6842 3.10817C11.7641 2.94111 8.84997 3.16875 5.93181 3.27355C5.98821 3.69839 6.04462 4.12326 6.10088 4.54835C8.16544 4.16259 10.1818 3.52903 12.2543 3.19344C13.2883 3.026 14.3348 2.93024 15.376 2.82374C16.1957 2.73985 16.9723 2.79052 17.7599 2.50257C18.3332 2.29288 18.3988 1.43216 17.7599 1.25058C16.4361 0.874928 15.0616 0.903017 13.6992 0.946128C12.3612 0.988487 10.9155 0.86882 9.64885 1.37843C8.89469 1.6821 9.22289 2.93778 9.9874 2.63053Z" fill="#191918"/>
<path d="M9.9874 2.63053C11.0424 2.20588 12.2021 2.29456 13.3172 2.25756C14.6883 2.21249 16.0862 2.12369 17.422 2.50277C17.422 2.08547 17.422 1.66816 17.422 1.25078C16.6106 1.54764 15.7526 1.48733 14.906 1.57403C13.9068 1.67625 12.91 1.79591 11.9161 1.94199C9.8418 2.24692 7.82438 2.91137 5.76281 3.29668C5.0505 3.43004 5.22291 4.59702 5.93185 4.57161C8.53706 4.47845 11.138 4.29184 13.7462 4.35826C15.0963 4.39271 16.46 4.49738 17.7978 4.68444C18.7692 4.82038 19.9568 4.92074 20.8218 5.42069C20.8724 5.02514 20.923 4.62974 20.9736 4.23416C19.3946 4.54632 17.6966 4.45254 16.0931 4.5861C14.4864 4.72021 12.8868 4.9266 11.2794 5.04652C8.36232 5.26402 5.43623 5.38038 2.58668 6.1097C1.77513 6.31756 2.133 7.49213 2.92469 7.36157C9.82489 6.22206 16.8044 7.31934 23.734 7.4699C23.734 7.03709 23.734 6.60454 23.734 6.17186C20.008 6.54749 16.2681 6.68978 12.5496 7.1525C8.67746 7.63437 4.84238 8.37921 0.958796 8.77171C1.0153 9.19655 1.07146 9.62142 1.12809 10.0466C2.9351 9.68456 4.83565 9.70972 6.67011 9.56184C8.81767 9.3888 10.9689 9.30488 13.1227 9.37913C17.1654 9.51825 21.1906 10.0043 25.2383 10.1123C25.1815 9.68739 25.1254 9.26252 25.069 8.8373C20.9351 9.43411 16.7155 9.37305 12.5581 9.76299C8.59244 10.1346 4.63379 10.6146 0.747803 11.5226C0.0293817 11.6907 0.215338 12.7795 0.917093 12.7976C2.85464 12.8473 4.79385 12.3661 6.72028 12.1894C8.93296 11.9863 11.1551 11.9022 13.3756 11.8687C15.4647 11.8375 17.5467 11.8723 19.6318 12.0068C21.7241 12.1417 24.0869 12.1207 26.0721 12.8596C26.0721 12.4425 26.0721 12.025 26.0721 11.6078C25.1483 11.9062 24.1868 11.8109 23.2324 11.7979C22.1302 11.7833 21.0156 11.8783 19.9145 11.9286C17.6754 12.0307 15.4363 12.1367 13.1978 12.251C10.8945 12.3689 8.59492 12.5471 6.29469 12.7097C4.43642 12.8407 2.49956 12.8364 0.705953 13.398C0.140204 13.5752 0.0572407 14.5202 0.705953 14.6498C1.5605 14.8202 2.38103 14.7542 3.24327 14.6729C4.335 14.5699 5.44806 14.6257 6.54372 14.6161C8.90311 14.5952 11.262 14.5735 13.6209 14.6458C15.9546 14.717 18.2856 14.8668 20.6175 14.9865C21.5312 15.0334 22.4322 15.0681 23.3461 15.0301C24.2916 14.9908 25.412 14.849 26.2961 15.2664C26.2961 14.8927 26.2961 14.519 26.2961 14.1453C24.8387 14.9055 22.7186 14.6437 21.1158 14.7887C18.8585 14.9929 16.5969 15.1454 14.3347 15.2803C10.124 15.5313 5.85468 15.741 1.7509 16.8077C1.06243 16.9868 1.19571 18.1233 1.91997 18.0827C6.3384 17.835 10.7363 17.8489 15.1565 17.7749C16.8959 17.7457 18.6349 17.684 20.3748 17.6779C21.1637 17.6753 21.9525 17.6925 22.7401 17.737C23.4322 17.7757 25.2875 17.59 25.6436 18.3317C25.7704 18.0141 25.8972 17.6962 26.024 17.3782C21.7971 19.019 17.2074 17.8796 12.8413 18.3774C11.049 18.5815 9.25705 18.6986 7.46018 18.8636C5.88353 19.0086 4.18041 19.1995 2.79462 20.0397C2.41962 20.2671 2.34129 20.9558 2.79462 21.1608C5.17124 22.2338 8.58151 21.488 11.0336 21.3336C13.2012 21.1967 15.3783 21.2208 17.5492 21.2479C19.4795 21.2718 21.8056 20.9412 23.6482 21.5972C23.5974 21.2018 23.547 20.8063 23.4962 20.4108C22.3957 20.9483 20.4949 20.5322 19.301 20.5426C17.5581 20.5578 15.8169 20.6337 14.0804 20.7913C10.9314 21.0776 7.82659 21.5884 4.72822 22.2242C4.02131 22.3695 4.18537 23.5293 4.89753 23.4991C7.87112 23.3731 10.8578 23.4784 13.8346 23.4068C16.1602 23.3509 18.6229 23.0861 20.9418 23.3668C20.8853 22.9419 20.8291 22.517 20.7725 22.0918C18.7825 22.4858 16.7293 22.4082 14.7185 22.6266C12.4049 22.8778 10.0398 23.1931 7.76815 23.7126C7.06868 23.8728 7.22037 25.0231 7.93744 24.9875C11.8684 24.7931 15.8718 24.1907 19.7951 24.7766C19.7444 24.3811 19.6937 23.9857 19.6433 23.5903C16.8022 25.079 13.157 24.8884 10.083 25.5806C9.34012 25.7479 9.5747 26.7981 10.2523 26.8555C12.8463 27.0753 15.244 28.0848 17.8123 27.0816C18.5707 26.7853 18.2417 25.5297 17.474 25.8297C15.0486 26.7774 12.7066 25.7653 10.2522 25.5575C10.3084 25.9824 10.3649 26.4072 10.4213 26.8324C13.6355 26.1084 17.3102 26.2703 20.2855 24.7109C20.7441 24.4706 20.6837 23.6068 20.1337 23.5247C16.0805 22.9197 11.9987 23.4887 7.93739 23.6895C7.9938 24.1144 8.04996 24.5393 8.10671 24.9644C10.4814 24.4211 12.9611 24.0789 15.3858 23.8581C17.2945 23.6842 19.2234 23.7171 21.1109 23.3438C21.8758 23.1921 21.5956 22.1478 20.9418 22.0688C18.6229 21.7881 16.1601 22.0528 13.8346 22.1089C10.8577 22.1803 7.87107 22.075 4.89748 22.2011C4.95387 22.6259 5.01003 23.0509 5.06677 23.476C8.52231 22.7667 11.9853 22.2229 15.5044 21.9744C17.2411 21.8517 18.9848 21.836 20.7252 21.8335C21.8994 21.8316 23.0385 22.0688 24.1386 21.5318C24.6754 21.2694 24.4597 20.514 23.9864 20.3453C22.5571 19.8365 21.0411 20.0061 19.555 19.9815C17.3816 19.9455 15.2091 19.9136 13.0357 19.9539C10.8732 19.9939 8.71806 20.2135 6.55843 20.3222C5.64664 20.3681 4.27832 20.4195 3.43696 20.0396C3.43696 20.4133 3.43696 20.787 3.43696 21.1607C4.90971 20.2673 6.82629 20.2036 8.49047 20.0745C10.2633 19.9374 12.025 19.7298 13.7944 19.5807C17.9806 19.228 22.3096 20.2031 26.3622 18.63C26.7634 18.4741 26.9351 18.0778 26.7424 17.6765C26.0817 16.2996 23.9894 16.5268 22.7401 16.4388C20.6999 16.2949 18.6373 16.3952 16.5951 16.445C11.6974 16.564 6.81635 16.51 1.91992 16.7846C1.97633 17.2095 2.03283 17.6344 2.08897 18.0595C6.39726 16.9395 10.8834 16.7904 15.3016 16.5199C17.564 16.3813 19.8244 16.2086 22.0814 15.998C23.7107 15.8458 25.4375 16.0491 26.9383 15.2663C27.341 15.0561 27.3666 14.3475 26.9383 14.1453C25.611 13.5188 24.1012 13.7087 22.6809 13.7574C20.3447 13.8371 17.9603 13.5398 15.6257 13.4283C13.1041 13.3079 10.5833 13.2848 8.05946 13.3041C6.87875 13.3131 5.69818 13.3266 4.51747 13.3314C3.37625 13.336 2.17223 13.623 1.04458 13.3979C1.04458 13.8152 1.04458 14.2325 1.04458 14.6497C3.02511 14.0294 5.22988 14.0836 7.28394 13.9373C9.58069 13.774 11.877 13.6098 14.1772 13.5008C16.4058 13.3951 18.6344 13.282 20.8635 13.1839C22.6402 13.1055 24.6998 13.412 26.4104 12.8596C27.0358 12.6576 26.9958 11.8258 26.4104 11.6077C24.5944 10.9319 22.5067 10.9309 20.5985 10.779C18.3485 10.5997 16.1039 10.5516 13.8485 10.5655C11.6279 10.5794 9.40813 10.6763 7.19401 10.851C5.11398 11.015 3.00019 11.553 0.917044 11.4995C0.973449 11.9244 1.02961 12.3493 1.08624 12.7744C5.18356 11.8166 9.35401 11.356 13.5343 10.9698C17.486 10.6051 21.4754 10.6565 25.4072 10.0891C26.1412 9.9832 25.9269 8.83247 25.2383 8.81414C21.0243 8.70191 16.8333 8.2088 12.6236 8.06382C10.4733 7.98982 8.31799 8.13099 6.17535 8.30368C4.38257 8.44813 2.55877 8.4406 0.789555 8.79474C0.0895916 8.93491 0.243934 10.1419 0.958747 10.0697C4.68082 9.69342 8.36181 9.01392 12.0678 8.51298C15.9424 7.98919 19.8471 7.86169 23.7339 7.46982C24.5363 7.38898 24.5686 6.18999 23.7339 6.17179C16.6762 6.0184 9.61471 4.94896 2.58665 6.1096C2.69922 6.52691 2.81213 6.94419 2.92467 7.36147C5.94916 6.58722 9.06575 6.52495 12.1584 6.27616C13.7998 6.14415 15.4339 5.93043 17.0767 5.80563C18.484 5.69888 19.9237 5.76031 21.3119 5.48591C21.8641 5.37673 21.9189 4.56267 21.464 4.29948C19.574 3.20733 16.7945 3.22886 14.6842 3.10817C11.7641 2.94111 8.84997 3.16875 5.93181 3.27355C5.98821 3.69839 6.04462 4.12326 6.10088 4.54835C8.16544 4.16259 10.1818 3.52903 12.2543 3.19344C13.2883 3.026 14.3348 2.93024 15.376 2.82374C16.1957 2.73985 16.9723 2.79052 17.7599 2.50257C18.3332 2.29288 18.3988 1.43216 17.7599 1.25058C16.4361 0.874928 15.0616 0.903017 13.6992 0.946128C12.3612 0.988487 10.9155 0.86882 9.64885 1.37843C8.89469 1.6821 9.22289 2.93778 9.9874 2.63053Z" fill="black" fill-opacity="0.2"/>
<path d="M9.9874 2.22802C11.0424 1.8034 12.2021 1.89207 13.3172 1.85505C14.6883 1.80998 16.0862 1.72121 17.422 2.10026C17.422 1.68296 17.422 1.26567 17.422 0.848268C16.6106 1.14513 15.7526 1.08482 14.906 1.17152C13.9068 1.27374 12.91 1.3934 11.9161 1.53948C9.8418 1.84441 7.82438 2.50888 5.76281 2.89417C5.0505 3.02753 5.22291 4.19451 5.93185 4.16912C8.53706 4.07594 11.138 3.88933 13.7462 3.95575C15.0963 3.9902 16.46 4.09487 17.7978 4.28193C18.7692 4.41787 19.9568 4.51826 20.8218 5.0182C20.8724 4.62263 20.923 4.22723 20.9736 3.83165C19.3946 4.14381 17.6966 4.05003 16.0931 4.18362C14.4864 4.3177 12.8868 4.52409 11.2794 4.64401C8.36232 4.86151 5.43623 4.9779 2.58668 5.70722C1.77513 5.91506 2.133 7.08962 2.92469 6.95906C9.82489 5.81955 16.8044 6.91683 23.734 7.06739C23.734 6.63461 23.734 6.20206 23.734 5.76935C20.008 6.145 16.2681 6.28727 12.5496 6.74999C8.67746 7.23189 4.84238 7.9767 0.958796 8.3692C1.0153 8.79409 1.07146 9.21894 1.12809 9.64418C2.9351 9.28207 4.83565 9.30723 6.67011 9.15935C8.81767 8.98631 10.9689 8.90242 13.1227 8.97665C17.1654 9.11577 21.1906 9.60179 25.2383 9.70977C25.1815 9.2849 25.1254 8.86004 25.069 8.43482C20.9351 9.03165 16.7155 8.97056 12.5581 9.36051C8.59244 9.73213 4.63379 10.2121 0.747803 11.1202C0.0293817 11.2882 0.215338 12.377 0.917093 12.3951C2.85464 12.4448 4.79385 11.9637 6.72028 11.787C8.93296 11.5839 11.1551 11.4997 13.3756 11.4663C15.4647 11.435 17.5467 11.4698 19.6318 11.6044C21.7241 11.7392 24.0869 11.7182 26.0721 12.4572C26.0721 12.04 26.0721 11.6226 26.0721 11.2053C25.1483 11.5038 24.1868 11.4084 23.2324 11.3955C22.1302 11.3808 21.0156 11.4758 19.9145 11.5262C17.6754 11.6282 15.4363 11.7342 13.1978 11.8486C10.8945 11.9665 8.59492 12.1447 6.29469 12.3072C4.43642 12.4383 2.49956 12.434 0.705953 12.9955C0.140204 13.1727 0.0572407 14.1178 0.705953 14.2474C1.5605 14.4177 2.38103 14.3518 3.24327 14.2705C4.335 14.1675 5.44806 14.2233 6.54372 14.2137C8.90311 14.1928 11.262 14.1711 13.6209 14.2434C15.9546 14.3145 18.2856 14.4644 20.6175 14.5841C21.5312 14.631 22.4322 14.6657 23.3461 14.6277C24.2916 14.5883 25.412 14.4466 26.2961 14.864C26.2961 14.4903 26.2961 14.1166 26.2961 13.7429C24.8387 14.5031 22.7186 14.2413 21.1158 14.3862C18.8585 14.5904 16.5969 14.743 14.3347 14.8779C10.124 15.1289 5.85468 15.3386 1.7509 16.4053C1.06243 16.5843 1.19571 17.7209 1.91997 17.6803C6.3384 17.4326 10.7363 17.4465 15.1565 17.3725C16.8959 17.3433 18.6349 17.2815 20.3748 17.2754C21.1637 17.2728 21.9525 17.2901 22.7401 17.3345C23.4322 17.3733 25.2875 17.1875 25.6436 17.9293C25.7704 17.6116 25.8972 17.2937 26.024 16.9757C21.7971 18.6166 17.2074 17.4771 12.8413 17.9749C11.049 18.179 9.25705 18.2961 7.46018 18.4611C5.88353 18.6062 4.18041 18.7971 2.79462 19.6373C2.41962 19.8646 2.34129 20.5534 2.79462 20.7583C5.17124 21.8314 8.58151 21.0856 11.0336 20.9311C13.2012 20.7942 15.3783 20.8184 17.5492 20.8455C19.4795 20.8693 21.8056 20.5387 23.6482 21.1948C23.5974 20.7993 23.547 20.4038 23.4962 20.0083C22.3957 20.5458 20.4949 20.1297 19.301 20.1401C17.5581 20.1554 15.8169 20.2312 14.0804 20.3889C10.9314 20.6751 7.82659 21.1859 4.72822 21.8217C4.02131 21.967 4.18537 23.1268 4.89753 23.0967C7.87112 22.9706 10.8578 23.0759 13.8346 23.0043C16.1602 22.9484 18.6229 22.6836 20.9418 22.9643C20.8853 22.5394 20.8291 22.1146 20.7725 21.6893C18.7825 22.0833 16.7293 22.0058 14.7185 22.2241C12.4049 22.4753 10.0398 22.7907 7.76815 23.3102C7.06868 23.4704 7.22037 24.6207 7.93744 24.5851C11.8684 24.3907 15.8718 23.7882 19.7951 24.3742C19.7444 23.9786 19.6937 23.5832 19.6433 23.1879C16.8022 24.6766 13.157 24.4859 10.083 25.1781C9.34012 25.3454 9.5747 26.3957 10.2523 26.4531C12.8463 26.6729 15.244 27.6823 17.8123 26.6791C18.5707 26.3829 18.2417 25.1273 17.474 25.4273C15.0486 26.3749 12.7066 25.3629 10.2522 25.1551C10.3084 25.5799 10.3649 26.0048 10.4213 26.43C13.6355 25.706 17.3102 25.8679 20.2855 24.3085C20.7441 24.0682 20.6837 23.2044 20.1337 23.1223C16.0805 22.5174 11.9987 23.0863 7.93739 23.2871C7.9938 23.712 8.04996 24.137 8.10671 24.5621C10.4814 24.0187 12.9611 23.6765 15.3858 23.4558C17.2945 23.2819 19.2234 23.3147 21.1109 22.9414C21.8758 22.7897 21.5956 21.7454 20.9418 21.6664C18.6229 21.3857 16.1601 21.6504 13.8346 21.7065C10.8577 21.7779 7.87107 21.6726 4.89748 21.7987C4.95387 22.2235 5.01003 22.6485 5.06677 23.0736C8.52231 22.3644 11.9853 21.8205 15.5044 21.572C17.2411 21.4493 18.9848 21.4336 20.7252 21.4311C21.8994 21.4292 23.0385 21.6664 24.1386 21.1294C24.6754 20.867 24.4597 20.1115 23.9864 19.9429C22.5571 19.4341 21.0411 19.6038 19.555 19.5791C17.3816 19.5431 15.2091 19.5112 13.0357 19.5515C10.8732 19.5915 8.71806 19.8111 6.55843 19.9198C5.64664 19.9657 4.27832 20.0171 3.43696 19.6372C3.43696 20.0109 3.43696 20.3846 3.43696 20.7583C4.90971 19.8648 6.82629 19.8012 8.49047 19.6721C10.2633 19.535 12.025 19.3274 13.7944 19.1783C17.9806 18.8256 22.3096 19.8007 26.3622 18.2275C26.7634 18.0717 26.9351 17.6754 26.7424 17.2741C26.0817 15.8972 23.9894 16.1244 22.7401 16.0364C20.6999 15.8925 18.6373 15.9929 16.5951 16.0425C11.6974 16.1616 6.81635 16.1076 1.91992 16.3822C1.97633 16.8072 2.03283 17.232 2.08897 17.6571C6.39726 16.5371 10.8834 16.388 15.3016 16.1175C17.564 15.9789 19.8244 15.8062 22.0814 15.5956C23.7107 15.4434 25.4375 15.6467 26.9383 14.8639C27.341 14.6538 27.3666 13.9451 26.9383 13.7429C25.611 13.1164 24.1012 13.3063 22.6809 13.355C20.3447 13.4347 17.9603 13.1374 15.6257 13.0259C13.1041 12.9055 10.5833 12.8824 8.05946 12.9017C6.87875 12.9107 5.69818 12.9242 4.51747 12.9291C3.37625 12.9336 2.17223 13.2206 1.04458 12.9955C1.04458 13.4128 1.04458 13.83 1.04458 14.2473C3.02511 13.627 5.22988 13.6812 7.28394 13.5349C9.58069 13.3716 11.877 13.2074 14.1772 13.0984C16.4058 12.9927 18.6344 12.8796 20.8635 12.7815C22.6402 12.7031 24.6998 13.0096 26.4104 12.4571C27.0358 12.2552 26.9958 11.4234 26.4104 11.2053C24.5944 10.5295 22.5067 10.5285 20.5985 10.3766C18.3485 10.1973 16.1039 10.1492 13.8485 10.1631C11.6279 10.177 9.40813 10.2739 7.19401 10.4486C5.11398 10.6126 3.00019 11.1506 0.917044 11.0971C0.973449 11.5219 1.02961 11.9469 1.08624 12.372C5.18356 11.4142 9.35401 10.9536 13.5343 10.5674C17.486 10.2027 21.4754 10.2541 25.4072 9.68669C26.1412 9.58081 25.9269 8.43006 25.2383 8.41174C21.0243 8.2995 16.8333 7.80639 12.6236 7.66141C10.4733 7.58741 8.31799 7.72858 6.17535 7.90127C4.38257 8.04575 2.55877 8.03819 0.789555 8.39233C0.0895916 8.53255 0.243934 9.73946 0.958747 9.66728C4.68082 9.29104 8.36181 8.61154 12.0678 8.11059C15.9424 7.58681 19.8471 7.45931 23.7339 7.06744C24.5363 6.9866 24.5686 5.78763 23.7339 5.7694C16.6762 5.61601 9.61471 4.5466 2.58665 5.70727C2.69922 6.12455 2.81213 6.54185 2.92467 6.95911C5.94916 6.18486 9.06575 6.12257 12.1584 5.87382C13.7998 5.74181 15.4339 5.52809 17.0767 5.40327C18.484 5.29654 19.9237 5.35798 21.3119 5.08355C21.8641 4.97437 21.9189 4.16031 21.464 3.89714C19.574 2.80499 16.7945 2.8265 14.6842 2.70583C11.7641 2.53875 8.84997 2.76642 5.93181 2.87119C5.98821 3.29603 6.04462 3.72092 6.10088 4.14601C8.16544 3.76023 10.1818 3.12667 12.2543 2.79108C13.2883 2.62364 14.3348 2.52791 15.376 2.42141C16.1957 2.33749 16.9723 2.38819 17.7599 2.10021C18.3332 1.89052 18.3988 1.02982 17.7599 0.848217C16.4361 0.472594 15.0616 0.500683 13.6992 0.543768C12.3612 0.586152 10.9155 0.466485 9.64885 0.976096C8.89469 1.27962 9.22289 2.53529 9.9874 2.22802Z" fill="#191918"/>
<path d="M9.9874 2.22802C11.0424 1.8034 12.2021 1.89207 13.3172 1.85505C14.6883 1.80998 16.0862 1.72121 17.422 2.10026C17.422 1.68296 17.422 1.26567 17.422 0.848268C16.6106 1.14513 15.7526 1.08482 14.906 1.17152C13.9068 1.27374 12.91 1.3934 11.9161 1.53948C9.8418 1.84441 7.82438 2.50888 5.76281 2.89417C5.0505 3.02753 5.22291 4.19451 5.93185 4.16912C8.53706 4.07594 11.138 3.88933 13.7462 3.95575C15.0963 3.9902 16.46 4.09487 17.7978 4.28193C18.7692 4.41787 19.9568 4.51826 20.8218 5.0182C20.8724 4.62263 20.923 4.22723 20.9736 3.83165C19.3946 4.14381 17.6966 4.05003 16.0931 4.18362C14.4864 4.3177 12.8868 4.52409 11.2794 4.64401C8.36232 4.86151 5.43623 4.9779 2.58668 5.70722C1.77513 5.91506 2.133 7.08962 2.92469 6.95906C9.82489 5.81955 16.8044 6.91683 23.734 7.06739C23.734 6.63461 23.734 6.20206 23.734 5.76935C20.008 6.145 16.2681 6.28727 12.5496 6.74999C8.67746 7.23189 4.84238 7.9767 0.958796 8.3692C1.0153 8.79409 1.07146 9.21894 1.12809 9.64418C2.9351 9.28207 4.83565 9.30723 6.67011 9.15935C8.81767 8.98631 10.9689 8.90242 13.1227 8.97665C17.1654 9.11577 21.1906 9.60179 25.2383 9.70977C25.1815 9.2849 25.1254 8.86004 25.069 8.43482C20.9351 9.03165 16.7155 8.97056 12.5581 9.36051C8.59244 9.73213 4.63379 10.2121 0.747803 11.1202C0.0293817 11.2882 0.215338 12.377 0.917093 12.3951C2.85464 12.4448 4.79385 11.9637 6.72028 11.787C8.93296 11.5839 11.1551 11.4997 13.3756 11.4663C15.4647 11.435 17.5467 11.4698 19.6318 11.6044C21.7241 11.7392 24.0869 11.7182 26.0721 12.4572C26.0721 12.04 26.0721 11.6226 26.0721 11.2053C25.1483 11.5038 24.1868 11.4084 23.2324 11.3955C22.1302 11.3808 21.0156 11.4758 19.9145 11.5262C17.6754 11.6282 15.4363 11.7342 13.1978 11.8486C10.8945 11.9665 8.59492 12.1447 6.29469 12.3072C4.43642 12.4383 2.49956 12.434 0.705953 12.9955C0.140204 13.1727 0.0572407 14.1178 0.705953 14.2474C1.5605 14.4177 2.38103 14.3518 3.24327 14.2705C4.335 14.1675 5.44806 14.2233 6.54372 14.2137C8.90311 14.1928 11.262 14.1711 13.6209 14.2434C15.9546 14.3145 18.2856 14.4644 20.6175 14.5841C21.5312 14.631 22.4322 14.6657 23.3461 14.6277C24.2916 14.5883 25.412 14.4466 26.2961 14.864C26.2961 14.4903 26.2961 14.1166 26.2961 13.7429C24.8387 14.5031 22.7186 14.2413 21.1158 14.3862C18.8585 14.5904 16.5969 14.743 14.3347 14.8779C10.124 15.1289 5.85468 15.3386 1.7509 16.4053C1.06243 16.5843 1.19571 17.7209 1.91997 17.6803C6.3384 17.4326 10.7363 17.4465 15.1565 17.3725C16.8959 17.3433 18.6349 17.2815 20.3748 17.2754C21.1637 17.2728 21.9525 17.2901 22.7401 17.3345C23.4322 17.3733 25.2875 17.1875 25.6436 17.9293C25.7704 17.6116 25.8972 17.2937 26.024 16.9757C21.7971 18.6166 17.2074 17.4771 12.8413 17.9749C11.049 18.179 9.25705 18.2961 7.46018 18.4611C5.88353 18.6062 4.18041 18.7971 2.79462 19.6373C2.41962 19.8646 2.34129 20.5534 2.79462 20.7583C5.17124 21.8314 8.58151 21.0856 11.0336 20.9311C13.2012 20.7942 15.3783 20.8184 17.5492 20.8455C19.4795 20.8693 21.8056 20.5387 23.6482 21.1948C23.5974 20.7993 23.547 20.4038 23.4962 20.0083C22.3957 20.5458 20.4949 20.1297 19.301 20.1401C17.5581 20.1554 15.8169 20.2312 14.0804 20.3889C10.9314 20.6751 7.82659 21.1859 4.72822 21.8217C4.02131 21.967 4.18537 23.1268 4.89753 23.0967C7.87112 22.9706 10.8578 23.0759 13.8346 23.0043C16.1602 22.9484 18.6229 22.6836 20.9418 22.9643C20.8853 22.5394 20.8291 22.1146 20.7725 21.6893C18.7825 22.0833 16.7293 22.0058 14.7185 22.2241C12.4049 22.4753 10.0398 22.7907 7.76815 23.3102C7.06868 23.4704 7.22037 24.6207 7.93744 24.5851C11.8684 24.3907 15.8718 23.7882 19.7951 24.3742C19.7444 23.9786 19.6937 23.5832 19.6433 23.1879C16.8022 24.6766 13.157 24.4859 10.083 25.1781C9.34012 25.3454 9.5747 26.3957 10.2523 26.4531C12.8463 26.6729 15.244 27.6823 17.8123 26.6791C18.5707 26.3829 18.2417 25.1273 17.474 25.4273C15.0486 26.3749 12.7066 25.3629 10.2522 25.1551C10.3084 25.5799 10.3649 26.0048 10.4213 26.43C13.6355 25.706 17.3102 25.8679 20.2855 24.3085C20.7441 24.0682 20.6837 23.2044 20.1337 23.1223C16.0805 22.5174 11.9987 23.0863 7.93739 23.2871C7.9938 23.712 8.04996 24.137 8.10671 24.5621C10.4814 24.0187 12.9611 23.6765 15.3858 23.4558C17.2945 23.2819 19.2234 23.3147 21.1109 22.9414C21.8758 22.7897 21.5956 21.7454 20.9418 21.6664C18.6229 21.3857 16.1601 21.6504 13.8346 21.7065C10.8577 21.7779 7.87107 21.6726 4.89748 21.7987C4.95387 22.2235 5.01003 22.6485 5.06677 23.0736C8.52231 22.3644 11.9853 21.8205 15.5044 21.572C17.2411 21.4493 18.9848 21.4336 20.7252 21.4311C21.8994 21.4292 23.0385 21.6664 24.1386 21.1294C24.6754 20.867 24.4597 20.1115 23.9864 19.9429C22.5571 19.4341 21.0411 19.6038 19.555 19.5791C17.3816 19.5431 15.2091 19.5112 13.0357 19.5515C10.8732 19.5915 8.71806 19.8111 6.55843 19.9198C5.64664 19.9657 4.27832 20.0171 3.43696 19.6372C3.43696 20.0109 3.43696 20.3846 3.43696 20.7583C4.90971 19.8648 6.82629 19.8012 8.49047 19.6721C10.2633 19.535 12.025 19.3274 13.7944 19.1783C17.9806 18.8256 22.3096 19.8007 26.3622 18.2275C26.7634 18.0717 26.9351 17.6754 26.7424 17.2741C26.0817 15.8972 23.9894 16.1244 22.7401 16.0364C20.6999 15.8925 18.6373 15.9929 16.5951 16.0425C11.6974 16.1616 6.81635 16.1076 1.91992 16.3822C1.97633 16.8072 2.03283 17.232 2.08897 17.6571C6.39726 16.5371 10.8834 16.388 15.3016 16.1175C17.564 15.9789 19.8244 15.8062 22.0814 15.5956C23.7107 15.4434 25.4375 15.6467 26.9383 14.8639C27.341 14.6538 27.3666 13.9451 26.9383 13.7429C25.611 13.1164 24.1012 13.3063 22.6809 13.355C20.3447 13.4347 17.9603 13.1374 15.6257 13.0259C13.1041 12.9055 10.5833 12.8824 8.05946 12.9017C6.87875 12.9107 5.69818 12.9242 4.51747 12.9291C3.37625 12.9336 2.17223 13.2206 1.04458 12.9955C1.04458 13.4128 1.04458 13.83 1.04458 14.2473C3.02511 13.627 5.22988 13.6812 7.28394 13.5349C9.58069 13.3716 11.877 13.2074 14.1772 13.0984C16.4058 12.9927 18.6344 12.8796 20.8635 12.7815C22.6402 12.7031 24.6998 13.0096 26.4104 12.4571C27.0358 12.2552 26.9958 11.4234 26.4104 11.2053C24.5944 10.5295 22.5067 10.5285 20.5985 10.3766C18.3485 10.1973 16.1039 10.1492 13.8485 10.1631C11.6279 10.177 9.40813 10.2739 7.19401 10.4486C5.11398 10.6126 3.00019 11.1506 0.917044 11.0971C0.973449 11.5219 1.02961 11.9469 1.08624 12.372C5.18356 11.4142 9.35401 10.9536 13.5343 10.5674C17.486 10.2027 21.4754 10.2541 25.4072 9.68669C26.1412 9.58081 25.9269 8.43006 25.2383 8.41174C21.0243 8.2995 16.8333 7.80639 12.6236 7.66141C10.4733 7.58741 8.31799 7.72858 6.17535 7.90127C4.38257 8.04575 2.55877 8.03819 0.789555 8.39233C0.0895916 8.53255 0.243934 9.73946 0.958747 9.66728C4.68082 9.29104 8.36181 8.61154 12.0678 8.11059C15.9424 7.58681 19.8471 7.45931 23.7339 7.06744C24.5363 6.9866 24.5686 5.78763 23.7339 5.7694C16.6762 5.61601 9.61471 4.5466 2.58665 5.70727C2.69922 6.12455 2.81213 6.54185 2.92467 6.95911C5.94916 6.18486 9.06575 6.12257 12.1584 5.87382C13.7998 5.74181 15.4339 5.52809 17.0767 5.40327C18.484 5.29654 19.9237 5.35798 21.3119 5.08355C21.8641 4.97437 21.9189 4.16031 21.464 3.89714C19.574 2.80499 16.7945 2.8265 14.6842 2.70583C11.7641 2.53875 8.84997 2.76642 5.93181 2.87119C5.98821 3.29603 6.04462 3.72092 6.10088 4.14601C8.16544 3.76023 10.1818 3.12667 12.2543 2.79108C13.2883 2.62364 14.3348 2.52791 15.376 2.42141C16.1957 2.33749 16.9723 2.38819 17.7599 2.10021C18.3332 1.89052 18.3988 1.02982 17.7599 0.848217C16.4361 0.472594 15.0616 0.500683 13.6992 0.543768C12.3612 0.586152 10.9155 0.466485 9.64885 0.976096C8.89469 1.27962 9.22289 2.53529 9.9874 2.22802Z" fill="black" fill-opacity="0.2"/>
<path d="M10.2134 14.9704C10.2134 14.9704 10.4489 15.0437 10.3466 15.4926L10.0805 16.3903C10.0805 16.3903 9.90632 16.5578 9.64037 16.422C9.64037 16.422 7.50479 15.6416 7.93785 12.0035C7.93785 12.0035 8.35024 8.91222 11.3603 7.75548C14.3703 6.599 16.9274 7.73438 17.2368 7.90239C17.5458 8.0708 20.2676 9.75364 20.0203 13.0551C19.7722 16.3567 18.1646 17.5554 17.8349 17.8497C17.5051 18.144 14.5769 19.8474 12.9479 17.6603L12.1232 20.7097C12.1232 20.7097 11.7108 21.7611 11.3603 22.0767C11.3603 22.0767 10.3502 21.7824 10.3089 21.6561C10.3089 21.6561 10.2469 20.226 10.412 19.7424L11.6287 14.6113C11.6287 14.6113 11.0923 13.1601 11.4843 12.1929C11.4843 12.1929 12.1027 10.4894 13.3813 10.784C13.3813 10.784 14.5356 11.0572 14.2883 12.5924L13.6078 15.0105C13.6078 15.0105 13.2987 16.146 13.814 16.6091C13.814 16.6091 14.6803 17.7446 16.2059 16.6934C16.2059 16.6934 17.2986 16.2514 17.7317 13.3497C17.7317 13.3497 18.0823 10.7625 16.7007 9.68991C16.7007 9.68991 15.1336 8.15509 12.2886 9.10166C12.2886 9.10166 10.144 9.85832 9.71094 12.1929C9.71089 12.1929 9.31409 13.5427 10.2134 14.9704Z" fill="white"/>
</svg>
