<svg width="32" height="32" viewBox="0 0 32 32" fill="none" xmlns="http://www.w3.org/2000/svg">
<path d="M16 7.9987V11.9987L21.3333 6.66536L16 1.33203V5.33203C13.171 5.33203 10.4579 6.45584 8.45754 8.45623C6.45715 10.4566 5.33334 13.1697 5.33334 15.9987C5.33334 18.092 5.94668 20.0387 6.98668 21.6787L8.93334 19.732C8.33334 18.6254 8.00001 17.332 8.00001 15.9987C8.00001 13.877 8.84287 11.8421 10.3432 10.3418C11.8434 8.84155 13.8783 7.9987 16 7.9987ZM25.0133 10.3187L23.0667 12.2654C23.6533 13.3854 24 14.6654 24 15.9987C24 18.1204 23.1572 20.1553 21.6569 21.6556C20.1566 23.1558 18.1217 23.9987 16 23.9987V19.9987L10.6667 25.332L16 30.6654V26.6654C18.829 26.6654 21.5421 25.5416 23.5425 23.5412C25.5429 21.5408 26.6667 18.8277 26.6667 15.9987C26.6667 13.9054 26.0533 11.9587 25.0133 10.3187Z" fill="black"/>
</svg>
