<svg width="28" height="28" viewBox="0 0 28 28" fill="none" xmlns="http://www.w3.org/2000/svg">
<path d="M9.98704 2.66754C11.0424 2.24433 12.2022 2.33271 13.3174 2.29583C14.6883 2.25092 16.0864 2.16242 17.4217 2.54022C17.4217 2.12435 17.4217 1.70845 17.4217 1.29258C16.6108 1.58832 15.7523 1.52821 14.906 1.61464C13.9065 1.71649 12.91 1.83577 11.916 1.98133C9.84141 2.28525 7.82411 2.94748 5.7625 3.33149C5.05056 3.4644 5.22296 4.62746 5.93179 4.60214C8.53703 4.50917 11.1379 4.32332 13.746 4.38939C15.0964 4.42384 16.4602 4.52813 17.7981 4.71459C18.7692 4.85004 19.9565 4.95009 20.8215 5.44838C20.8722 5.05416 20.923 4.66005 20.9738 4.26586C19.3944 4.57694 17.6966 4.48347 16.0928 4.61661C14.4867 4.75024 12.8868 4.95593 11.2792 5.07544C8.36197 5.29224 5.43609 5.40821 2.58613 6.13506C1.7748 6.34235 2.13282 7.51294 2.92476 7.38272C9.82489 6.24703 16.8048 7.34061 23.7337 7.49068C23.7337 7.05934 23.7337 6.62835 23.7337 6.19701C20.0082 6.57141 16.2679 6.71318 12.5496 7.17434C8.67758 7.65461 4.84221 8.39693 0.958687 8.78812C1.01497 9.21155 1.07147 9.63496 1.12773 10.0588C2.93502 9.69791 4.83571 9.72299 6.66983 9.5757C8.81791 9.40315 10.9688 9.31939 13.1227 9.39352C17.1657 9.53214 21.1907 10.0166 25.238 10.1241C25.182 9.7007 25.1254 9.2773 25.069 8.85349C20.9352 9.44828 16.7152 9.38743 12.5577 9.77603C8.59209 10.1464 4.63362 10.6247 0.747693 11.5297C0.0295144 11.6972 0.214883 12.7825 0.916763 12.8004C2.85456 12.8499 4.79405 12.3704 6.72037 12.1943C8.93261 11.9919 11.1551 11.908 13.3755 11.8746C15.4645 11.8435 17.5464 11.8782 19.632 12.0123C21.7238 12.1467 24.0871 12.1257 26.0723 12.8623C26.0723 12.4463 26.0723 12.0306 26.0723 11.6145C25.1487 11.912 24.1872 11.8169 23.2322 11.8042C22.1299 11.7895 21.0154 11.8843 19.9148 11.9343C17.6757 12.036 15.4362 12.1417 13.1978 12.2556C10.8948 12.3731 8.59471 12.5508 6.29435 12.7128C4.43652 12.8433 2.49944 12.8391 0.706015 13.3987C0.140387 13.5753 0.0570301 14.5172 0.706015 14.6464C1.56069 14.8161 2.38088 14.7504 3.24346 14.6694C4.3352 14.5668 5.44827 14.6224 6.54361 14.6127C8.90335 14.5921 11.2619 14.5703 13.621 14.6423C15.9546 14.7133 18.2856 14.8626 20.6171 14.9819C21.5309 15.0286 22.4323 15.0632 23.3462 15.0253C24.2916 14.9862 25.4121 14.845 26.296 15.2609C26.296 14.8884 26.296 14.516 26.296 14.1436C24.8388 14.9012 22.7185 14.6403 21.1157 14.7849C18.8587 14.9882 16.5968 15.1402 14.3345 15.2747C10.1237 15.5248 5.85437 15.7338 1.75055 16.7969C1.06183 16.9754 1.19521 18.108 1.91984 18.0676C6.33812 17.8208 10.7362 17.8347 15.1564 17.7609C16.8962 17.7318 18.6347 17.6702 20.375 17.6641C21.164 17.6616 21.9524 17.6789 22.7405 17.7231C23.4323 17.7617 25.2877 17.5765 25.6436 18.3158C25.7705 17.9992 25.8972 17.6824 26.0239 17.3655C21.7974 19.0008 17.2072 17.8654 12.8414 18.3613C11.0487 18.5647 9.25703 18.6814 7.46002 18.8459C5.88309 18.9904 4.18044 19.1807 2.79438 20.0181C2.41961 20.2447 2.34107 20.9311 2.79438 21.1352C5.1709 22.2048 8.58146 21.4615 11.0334 21.3076C13.2014 21.1711 15.3784 21.1951 17.5487 21.2223C19.4793 21.246 21.8058 20.9165 23.6481 21.5703C23.5976 21.1762 23.5468 20.782 23.496 20.3879C22.3956 20.9236 20.4949 20.5089 19.3012 20.5193C17.5578 20.5345 15.8169 20.61 14.0805 20.7672C10.9312 21.0525 7.82641 21.5616 4.72835 22.1952C4.02097 22.34 4.18523 23.4959 4.89717 23.4659C7.87116 23.3403 10.8574 23.4452 13.8348 23.374C16.16 23.3181 18.623 23.0543 20.9418 23.3341C20.8853 22.9105 20.829 22.4871 20.7727 22.0634C18.7825 22.4561 16.7295 22.3787 14.7184 22.5963C12.4046 22.8466 10.0396 23.1609 7.76822 23.6786C7.06823 23.8383 7.22031 24.9847 7.93729 24.9493C11.8685 24.7555 15.8717 24.1551 19.7954 24.7391C19.7447 24.3449 19.6939 23.9507 19.6431 23.5568C16.802 25.0404 13.1568 24.8505 10.0829 25.5403C9.34009 25.707 9.57428 26.7539 10.252 26.811C12.8459 27.0299 15.244 28.0361 17.8124 27.0362C18.5705 26.741 18.2417 25.4898 17.474 25.7886C15.0484 26.7331 12.7068 25.7244 10.252 25.5173C10.3085 25.9407 10.3648 26.3641 10.4211 26.7879C13.6355 26.0663 17.3102 26.2277 20.2856 24.6736C20.7445 24.4341 20.6836 23.5732 20.1333 23.4914C16.0807 22.8886 11.9989 23.4555 7.93726 23.6556C7.99377 24.0791 8.05005 24.5026 8.10631 24.9263C10.4814 24.3848 12.9607 24.0438 15.3858 23.8237C17.2944 23.6504 19.2231 23.6831 21.1108 23.3111C21.876 23.1599 21.5958 22.1192 20.9418 22.0404C18.623 21.7606 16.16 22.0245 13.8347 22.0803C10.8574 22.1515 7.87114 22.0466 4.89715 22.1722C4.95367 22.5958 5.01018 23.0192 5.06619 23.4429C8.52201 22.736 11.985 22.194 15.5041 21.9463C17.241 21.8241 18.9848 21.8084 20.725 21.8059C21.8996 21.8041 23.0386 22.0404 24.1382 21.5052C24.6756 21.2437 24.4596 20.4908 23.9864 20.3227C22.5575 19.8157 21.0412 19.9847 19.5547 19.9601C17.3818 19.9242 15.2091 19.8925 13.0356 19.9326C10.8729 19.9725 8.71769 20.1914 6.55809 20.2997C5.64645 20.3455 4.27811 20.3967 3.43659 20.0181C3.43659 20.3905 3.43659 20.7629 3.43659 21.1353C4.90959 20.245 6.82608 20.1816 8.49017 20.0529C10.263 19.9162 12.0248 19.7093 13.7943 19.5607C17.9802 19.2093 22.3094 20.1811 26.3622 18.6132C26.7636 18.4579 26.9353 18.0629 26.7425 17.663C26.0815 16.2907 23.9898 16.5171 22.7404 16.4295C20.6997 16.286 18.6371 16.386 16.5949 16.4356C11.6972 16.5542 6.81627 16.5004 1.91977 16.7742C1.97605 17.1976 2.03233 17.621 2.08881 18.0447C6.39717 16.9285 10.8832 16.7799 15.3012 16.5103C17.564 16.3721 19.8241 16.2001 22.0816 15.9901C23.7108 15.8385 25.4373 16.0411 26.9381 15.2609C27.3412 15.0515 27.3666 14.3452 26.9381 14.1436C25.6107 13.5192 24.1013 13.7085 22.681 13.7569C20.3448 13.8366 17.9598 13.5402 15.6257 13.4291C13.1038 13.3091 10.5834 13.2861 8.05935 13.3053C6.87851 13.3145 5.69792 13.3278 4.51708 13.3326C3.37601 13.3371 2.17193 13.6231 1.04401 13.3988C1.04401 13.8147 1.04401 14.2305 1.04401 14.6464C3.02469 14.0281 5.22974 14.0822 7.28369 13.9364C9.58046 13.7737 11.877 13.6099 14.1767 13.5014C16.4057 13.396 18.634 13.2833 20.8632 13.1855C22.6403 13.1074 24.6995 13.4129 26.4103 12.8624C27.036 12.661 26.9958 11.832 26.4103 11.6146C24.5944 10.9411 22.5067 10.9401 20.5983 10.7887C18.3487 10.61 16.1041 10.5621 13.8481 10.5759C11.6275 10.5898 9.40803 10.6865 7.19387 10.8605C5.11408 11.024 3.00002 11.5601 0.916591 11.5068C0.973095 11.9302 1.02962 12.3538 1.08564 12.7775C5.183 11.8229 9.35366 11.3638 13.5344 10.9789C17.4861 10.6154 21.4752 10.6667 25.4071 10.1013C26.1411 9.99562 25.9271 8.84873 25.2378 8.83061C21.0241 8.71864 16.8333 8.22716 12.6234 8.0827C10.4729 8.00895 8.31794 8.14962 6.17538 8.32175C4.3822 8.46572 2.55815 8.45818 0.789396 8.81115C0.0894056 8.95087 0.243625 10.1537 0.958466 10.0818C4.68033 9.70679 8.36124 9.02959 12.0673 8.53036C15.9425 8.00833 19.8471 7.88128 23.7334 7.49071C24.5362 7.41002 24.5687 6.21517 23.7334 6.19703C16.676 6.04419 9.61441 4.97849 2.58591 6.13508C2.69894 6.55098 2.81173 6.96685 2.92454 7.38275C5.94858 6.61111 9.06508 6.54903 12.1581 6.3011C13.7995 6.16954 15.4338 5.95654 17.0764 5.83216C18.4838 5.72577 19.9235 5.787 21.3117 5.51352C21.8639 5.40469 21.919 4.5934 21.4638 4.3311C19.5738 3.24264 16.7945 3.26405 14.6841 3.14382C11.7639 2.97732 8.84933 3.2042 5.93159 3.30864C5.98788 3.73207 6.04416 4.15548 6.10066 4.57928C8.16492 4.19467 10.1815 3.56323 12.2541 3.22877C13.2881 3.06205 14.3342 2.9665 15.3756 2.86036C16.1956 2.77675 16.9719 2.82725 17.7601 2.54027C18.3329 2.33131 18.3987 1.47349 17.7601 1.29263C16.436 0.918051 15.0614 0.946045 13.6991 0.989009C12.3609 1.03123 10.9157 0.911963 9.64887 1.41985C8.89456 1.72232 9.22286 2.97376 9.98704 2.66754Z" fill="#191918"/>
<path d="M9.98704 2.66754C11.0424 2.24433 12.2022 2.33271 13.3174 2.29583C14.6883 2.25092 16.0864 2.16242 17.4217 2.54022C17.4217 2.12435 17.4217 1.70845 17.4217 1.29258C16.6108 1.58832 15.7523 1.52821 14.906 1.61464C13.9065 1.71649 12.91 1.83577 11.916 1.98133C9.84141 2.28525 7.82411 2.94748 5.7625 3.33149C5.05056 3.4644 5.22296 4.62746 5.93179 4.60214C8.53703 4.50917 11.1379 4.32332 13.746 4.38939C15.0964 4.42384 16.4602 4.52813 17.7981 4.71459C18.7692 4.85004 19.9565 4.95009 20.8215 5.44838C20.8722 5.05416 20.923 4.66005 20.9738 4.26586C19.3944 4.57694 17.6966 4.48347 16.0928 4.61661C14.4867 4.75024 12.8868 4.95593 11.2792 5.07544C8.36197 5.29224 5.43609 5.40821 2.58613 6.13506C1.7748 6.34235 2.13282 7.51294 2.92476 7.38272C9.82489 6.24703 16.8048 7.34061 23.7337 7.49068C23.7337 7.05934 23.7337 6.62835 23.7337 6.19701C20.0082 6.57141 16.2679 6.71318 12.5496 7.17434C8.67758 7.65461 4.84221 8.39693 0.958687 8.78812C1.01497 9.21155 1.07147 9.63496 1.12773 10.0588C2.93502 9.69791 4.83571 9.72299 6.66983 9.5757C8.81791 9.40315 10.9688 9.31939 13.1227 9.39352C17.1657 9.53214 21.1907 10.0166 25.238 10.1241C25.182 9.7007 25.1254 9.2773 25.069 8.85349C20.9352 9.44828 16.7152 9.38743 12.5577 9.77603C8.59209 10.1464 4.63362 10.6247 0.747693 11.5297C0.0295144 11.6972 0.214883 12.7825 0.916763 12.8004C2.85456 12.8499 4.79405 12.3704 6.72037 12.1943C8.93261 11.9919 11.1551 11.908 13.3755 11.8746C15.4645 11.8435 17.5464 11.8782 19.632 12.0123C21.7238 12.1467 24.0871 12.1257 26.0723 12.8623C26.0723 12.4463 26.0723 12.0306 26.0723 11.6145C25.1487 11.912 24.1872 11.8169 23.2322 11.8042C22.1299 11.7895 21.0154 11.8843 19.9148 11.9343C17.6757 12.036 15.4362 12.1417 13.1978 12.2556C10.8948 12.3731 8.59471 12.5508 6.29435 12.7128C4.43652 12.8433 2.49944 12.8391 0.706015 13.3987C0.140387 13.5753 0.0570301 14.5172 0.706015 14.6464C1.56069 14.8161 2.38088 14.7504 3.24346 14.6694C4.3352 14.5668 5.44827 14.6224 6.54361 14.6127C8.90335 14.5921 11.2619 14.5703 13.621 14.6423C15.9546 14.7133 18.2856 14.8626 20.6171 14.9819C21.5309 15.0286 22.4323 15.0632 23.3462 15.0253C24.2916 14.9862 25.4121 14.845 26.296 15.2609C26.296 14.8884 26.296 14.516 26.296 14.1436C24.8388 14.9012 22.7185 14.6403 21.1157 14.7849C18.8587 14.9882 16.5968 15.1402 14.3345 15.2747C10.1237 15.5248 5.85437 15.7338 1.75055 16.7969C1.06183 16.9754 1.19521 18.108 1.91984 18.0676C6.33812 17.8208 10.7362 17.8347 15.1564 17.7609C16.8962 17.7318 18.6347 17.6702 20.375 17.6641C21.164 17.6616 21.9524 17.6789 22.7405 17.7231C23.4323 17.7617 25.2877 17.5765 25.6436 18.3158C25.7705 17.9992 25.8972 17.6824 26.0239 17.3655C21.7974 19.0008 17.2072 17.8654 12.8414 18.3613C11.0487 18.5647 9.25703 18.6814 7.46002 18.8459C5.88309 18.9904 4.18044 19.1807 2.79438 20.0181C2.41961 20.2447 2.34107 20.9311 2.79438 21.1352C5.1709 22.2048 8.58146 21.4615 11.0334 21.3076C13.2014 21.1711 15.3784 21.1951 17.5487 21.2223C19.4793 21.246 21.8058 20.9165 23.6481 21.5703C23.5976 21.1762 23.5468 20.782 23.496 20.3879C22.3956 20.9236 20.4949 20.5089 19.3012 20.5193C17.5578 20.5345 15.8169 20.61 14.0805 20.7672C10.9312 21.0525 7.82641 21.5616 4.72835 22.1952C4.02097 22.34 4.18523 23.4959 4.89717 23.4659C7.87116 23.3403 10.8574 23.4452 13.8348 23.374C16.16 23.3181 18.623 23.0543 20.9418 23.3341C20.8853 22.9105 20.829 22.4871 20.7727 22.0634C18.7825 22.4561 16.7295 22.3787 14.7184 22.5963C12.4046 22.8466 10.0396 23.1609 7.76822 23.6786C7.06823 23.8383 7.22031 24.9847 7.93729 24.9493C11.8685 24.7555 15.8717 24.1551 19.7954 24.7391C19.7447 24.3449 19.6939 23.9507 19.6431 23.5568C16.802 25.0404 13.1568 24.8505 10.0829 25.5403C9.34009 25.707 9.57428 26.7539 10.252 26.811C12.8459 27.0299 15.244 28.0361 17.8124 27.0362C18.5705 26.741 18.2417 25.4898 17.474 25.7886C15.0484 26.7331 12.7068 25.7244 10.252 25.5173C10.3085 25.9407 10.3648 26.3641 10.4211 26.7879C13.6355 26.0663 17.3102 26.2277 20.2856 24.6736C20.7445 24.4341 20.6836 23.5732 20.1333 23.4914C16.0807 22.8886 11.9989 23.4555 7.93726 23.6556C7.99377 24.0791 8.05005 24.5026 8.10631 24.9263C10.4814 24.3848 12.9607 24.0438 15.3858 23.8237C17.2944 23.6504 19.2231 23.6831 21.1108 23.3111C21.876 23.1599 21.5958 22.1192 20.9418 22.0404C18.623 21.7606 16.16 22.0245 13.8347 22.0803C10.8574 22.1515 7.87114 22.0466 4.89715 22.1722C4.95367 22.5958 5.01018 23.0192 5.06619 23.4429C8.52201 22.736 11.985 22.194 15.5041 21.9463C17.241 21.8241 18.9848 21.8084 20.725 21.8059C21.8996 21.8041 23.0386 22.0404 24.1382 21.5052C24.6756 21.2437 24.4596 20.4908 23.9864 20.3227C22.5575 19.8157 21.0412 19.9847 19.5547 19.9601C17.3818 19.9242 15.2091 19.8925 13.0356 19.9326C10.8729 19.9725 8.71769 20.1914 6.55809 20.2997C5.64645 20.3455 4.27811 20.3967 3.43659 20.0181C3.43659 20.3905 3.43659 20.7629 3.43659 21.1353C4.90959 20.245 6.82608 20.1816 8.49017 20.0529C10.263 19.9162 12.0248 19.7093 13.7943 19.5607C17.9802 19.2093 22.3094 20.1811 26.3622 18.6132C26.7636 18.4579 26.9353 18.0629 26.7425 17.663C26.0815 16.2907 23.9898 16.5171 22.7404 16.4295C20.6997 16.286 18.6371 16.386 16.5949 16.4356C11.6972 16.5542 6.81627 16.5004 1.91977 16.7742C1.97605 17.1976 2.03233 17.621 2.08881 18.0447C6.39717 16.9285 10.8832 16.7799 15.3012 16.5103C17.564 16.3721 19.8241 16.2001 22.0816 15.9901C23.7108 15.8385 25.4373 16.0411 26.9381 15.2609C27.3412 15.0515 27.3666 14.3452 26.9381 14.1436C25.6107 13.5192 24.1013 13.7085 22.681 13.7569C20.3448 13.8366 17.9598 13.5402 15.6257 13.4291C13.1038 13.3091 10.5834 13.2861 8.05935 13.3053C6.87851 13.3145 5.69792 13.3278 4.51708 13.3326C3.37601 13.3371 2.17193 13.6231 1.04401 13.3988C1.04401 13.8147 1.04401 14.2305 1.04401 14.6464C3.02469 14.0281 5.22974 14.0822 7.28369 13.9364C9.58046 13.7737 11.877 13.6099 14.1767 13.5014C16.4057 13.396 18.634 13.2833 20.8632 13.1855C22.6403 13.1074 24.6995 13.4129 26.4103 12.8624C27.036 12.661 26.9958 11.832 26.4103 11.6146C24.5944 10.9411 22.5067 10.9401 20.5983 10.7887C18.3487 10.61 16.1041 10.5621 13.8481 10.5759C11.6275 10.5898 9.40803 10.6865 7.19387 10.8605C5.11408 11.024 3.00002 11.5601 0.916591 11.5068C0.973095 11.9302 1.02962 12.3538 1.08564 12.7775C5.183 11.8229 9.35366 11.3638 13.5344 10.9789C17.4861 10.6154 21.4752 10.6667 25.4071 10.1013C26.1411 9.99562 25.9271 8.84873 25.2378 8.83061C21.0241 8.71864 16.8333 8.22716 12.6234 8.0827C10.4729 8.00895 8.31794 8.14962 6.17538 8.32175C4.3822 8.46572 2.55815 8.45818 0.789396 8.81115C0.0894056 8.95087 0.243625 10.1537 0.958466 10.0818C4.68033 9.70679 8.36124 9.02959 12.0673 8.53036C15.9425 8.00833 19.8471 7.88128 23.7334 7.49071C24.5362 7.41002 24.5687 6.21517 23.7334 6.19703C16.676 6.04419 9.61441 4.97849 2.58591 6.13508C2.69894 6.55098 2.81173 6.96685 2.92454 7.38275C5.94858 6.61111 9.06508 6.54903 12.1581 6.3011C13.7995 6.16954 15.4338 5.95654 17.0764 5.83216C18.4838 5.72577 19.9235 5.787 21.3117 5.51352C21.8639 5.40469 21.919 4.5934 21.4638 4.3311C19.5738 3.24264 16.7945 3.26405 14.6841 3.14382C11.7639 2.97732 8.84933 3.2042 5.93159 3.30864C5.98788 3.73207 6.04416 4.15548 6.10066 4.57928C8.16492 4.19467 10.1815 3.56323 12.2541 3.22877C13.2881 3.06205 14.3342 2.9665 15.3756 2.86036C16.1956 2.77675 16.9719 2.82725 17.7601 2.54027C18.3329 2.33131 18.3987 1.47349 17.7601 1.29263C16.436 0.918051 15.0614 0.946045 13.6991 0.989009C12.3609 1.03123 10.9157 0.911963 9.64887 1.41985C8.89456 1.72232 9.22286 2.97376 9.98704 2.66754Z" fill="black" fill-opacity="0.2"/>
<path d="M9.98704 2.17527C11.0424 1.75206 12.2022 1.84044 13.3174 1.80356C14.6883 1.75865 16.0864 1.67015 17.4217 2.04797C17.4217 1.63208 17.4217 1.21618 17.4217 0.80031C16.6108 1.09605 15.7523 1.03594 14.906 1.12237C13.9065 1.22424 12.91 1.3435 11.916 1.48909C9.84141 1.79298 7.82411 2.45521 5.7625 2.83922C5.05056 2.97213 5.22296 4.13519 5.93179 4.10987C8.53703 4.0169 11.1379 3.83105 13.746 3.89712C15.0964 3.93157 16.4602 4.03586 17.7981 4.22232C18.7692 4.3578 19.9565 4.45782 20.8215 4.95611C20.8722 4.56189 20.923 4.16778 20.9738 3.77359C19.3944 4.08469 17.6966 3.99123 16.0928 4.12434C14.4867 4.258 12.8868 4.46369 11.2792 4.5832C8.36197 4.79997 5.43609 4.91594 2.58613 5.64279C1.7748 5.85008 2.13282 7.02069 2.92476 6.89045C9.82489 5.75476 16.8048 6.84836 23.7337 6.99841C23.7337 6.56707 23.7337 6.13608 23.7337 5.70476C20.0082 6.07914 16.2679 6.22094 12.5496 6.68209C8.67758 7.16234 4.84221 7.90466 0.958687 8.29585C1.01497 8.71928 1.07147 9.14269 1.12773 9.5665C2.93502 9.20564 4.83571 9.23072 6.66983 9.08346C8.81791 8.91088 10.9688 8.82712 13.1227 8.90125C17.1657 9.03987 21.1907 9.52428 25.238 9.63187C25.182 9.20843 25.1254 8.78503 25.069 8.36122C20.9352 8.95601 16.7152 8.89516 12.5577 9.28378C8.59209 9.65412 4.63362 10.1324 0.747693 11.0375C0.0295144 11.205 0.214883 12.2902 0.916763 12.3081C2.85456 12.3577 4.79405 11.8781 6.72037 11.702C8.93261 11.4996 11.1551 11.4158 13.3755 11.3824C15.4645 11.3512 17.5464 11.3859 19.632 11.5201C21.7238 11.6544 24.0871 11.6335 26.0723 12.3701C26.0723 11.9541 26.0723 11.5383 26.0723 11.1223C25.1487 11.4198 24.1872 11.3247 23.2322 11.3119C22.1299 11.2972 21.0154 11.392 19.9148 11.4421C17.6757 11.5438 15.4362 11.6494 13.1978 11.7634C10.8948 11.8808 8.59471 12.0585 6.29435 12.2205C4.43652 12.3511 2.49944 12.3468 0.706015 12.9065C0.140387 13.0831 0.0570301 14.025 0.706015 14.1541C1.56069 14.3239 2.38088 14.2582 3.24346 14.1771C4.3352 14.0745 5.44827 14.1302 6.54361 14.1205C8.90335 14.0999 11.2619 14.0781 13.621 14.1501C15.9546 14.2211 18.2856 14.3704 20.6171 14.4897C21.5309 14.5364 22.4323 14.571 23.3462 14.5331C24.2916 14.4939 25.4121 14.3528 26.296 14.7687C26.296 14.3962 26.296 14.0238 26.296 13.6513C24.8388 14.409 22.7185 14.148 21.1157 14.2926C18.8587 14.496 16.5968 14.648 14.3345 14.7825C10.1237 15.0326 5.85437 15.2416 1.75055 16.3047C1.06183 16.4832 1.19521 17.6158 1.91984 17.5754C6.33812 17.3286 10.7362 17.3424 15.1564 17.2687C16.8962 17.2396 18.6347 17.178 20.375 17.1719C21.164 17.1694 21.9524 17.1866 22.7405 17.2309C23.4323 17.2695 25.2877 17.0843 25.6436 17.8236C25.7705 17.507 25.8972 17.1902 26.0239 16.8733C21.7974 18.5086 17.2072 17.3731 12.8414 17.8691C11.0487 18.0725 9.25703 18.1892 7.46002 18.3536C5.88309 18.4982 4.18044 18.6884 2.79438 19.5258C2.41961 19.7525 2.34107 20.4389 2.79438 20.643C5.1709 21.7126 8.58146 20.9693 11.0334 20.8154C13.2014 20.6789 15.3784 20.7029 17.5487 20.73C19.4793 20.7538 21.8058 20.4243 23.6481 21.0781C23.5976 20.684 23.5468 20.2898 23.496 19.8957C22.3956 20.4314 20.4949 20.0167 19.3012 20.0271C17.5578 20.0423 15.8169 20.1178 14.0805 20.275C10.9312 20.5602 7.82641 21.0694 4.72835 21.703C4.02097 21.8478 4.18523 23.0037 4.89717 22.9737C7.87116 22.848 10.8574 22.953 13.8348 22.8818C16.16 22.8259 18.623 22.562 20.9418 22.8418C20.8853 22.4183 20.829 21.9949 20.7727 21.5712C18.7825 21.9638 16.7295 21.8864 14.7184 22.104C12.4046 22.3544 10.0396 22.6686 7.76822 23.1864C7.06823 23.3461 7.22031 24.4925 7.93729 24.4571C11.8685 24.2633 15.8717 23.6629 19.7954 24.2469C19.7447 23.8526 19.6939 23.4586 19.6431 23.0646C16.802 24.5482 13.1568 24.3582 10.0829 25.0481C9.34009 25.2148 9.57428 26.2617 10.252 26.3187C12.8459 26.5377 15.244 27.5439 17.8124 26.544C18.5705 26.2487 18.2417 24.9976 17.474 25.2964C15.0484 26.2408 12.7068 25.2322 10.252 25.0251C10.3085 25.4485 10.3648 25.8719 10.4211 26.2957C13.6355 25.5741 17.3102 25.7355 20.2856 24.1814C20.7445 23.9418 20.6836 23.081 20.1333 22.9992C16.0807 22.3964 11.9989 22.9633 7.93726 23.1634C7.99377 23.5868 8.05005 24.0104 8.10631 24.4341C10.4814 23.8926 12.9607 23.5515 15.3858 23.3315C17.2944 23.1582 19.2231 23.1909 21.1108 22.8189C21.876 22.6677 21.5958 21.6269 20.9418 21.5482C18.623 21.2684 16.16 21.5323 13.8347 21.5881C10.8574 21.6593 7.87114 21.5544 4.89715 21.68C4.95367 22.1035 5.01018 22.527 5.06619 22.9507C8.52201 22.2437 11.985 21.7018 15.5041 21.4541C17.241 21.3319 18.9848 21.3162 20.725 21.3136C21.8996 21.3119 23.0386 21.5482 24.1382 21.013C24.6756 20.7515 24.4596 19.9986 23.9864 19.8305C22.5575 19.3234 21.0412 19.4925 19.5547 19.4679C17.3818 19.432 15.2091 19.4003 13.0356 19.4404C10.8729 19.4803 8.71769 19.6992 6.55809 19.8075C5.64645 19.8533 4.27811 19.9045 3.43659 19.5259C3.43659 19.8983 3.43659 20.2707 3.43659 20.6431C4.90959 19.7528 6.82608 19.6893 8.49017 19.5607C10.263 19.424 12.0248 19.2171 13.7943 19.0685C17.9802 18.7171 22.3094 19.6888 26.3622 18.121C26.7636 17.9657 26.9353 17.5707 26.7425 17.1708C26.0815 15.7985 23.9898 16.0249 22.7404 15.9373C20.6997 15.7938 18.6371 15.8938 16.5949 15.9434C11.6972 16.062 6.81627 16.0082 1.91977 16.282C1.97605 16.7054 2.03233 17.1288 2.08881 17.5525C6.39717 16.4363 10.8832 16.2877 15.3012 16.0181C17.564 15.8799 19.8241 15.7078 22.0816 15.4979C23.7108 15.3463 25.4373 15.5489 26.9381 14.7687C27.3412 14.5592 27.3666 13.853 26.9381 13.6514C25.6107 13.0271 24.1013 13.2163 22.681 13.2648C20.3448 13.3443 17.9598 13.048 15.6257 12.9369C13.1038 12.8169 10.5834 12.7939 8.05935 12.8131C6.87851 12.8222 5.69792 12.8356 4.51708 12.8403C3.37601 12.8449 2.17193 13.1309 1.04401 12.9066C1.04401 13.3224 1.04401 13.7383 1.04401 14.1542C3.02469 13.5359 5.22974 13.59 7.28369 13.4441C9.58046 13.2815 11.877 13.1177 14.1767 13.0092C16.4057 12.9037 18.634 12.791 20.8632 12.6933C22.6403 12.6152 24.6995 12.9207 26.4103 12.3702C27.036 12.1687 26.9958 11.3398 26.4103 11.1224C24.5944 10.4488 22.5067 10.4479 20.5983 10.2965C18.3487 10.1178 16.1041 10.0698 13.8481 10.0837C11.6275 10.0976 9.40803 10.1942 7.19387 10.3682C5.11408 10.5317 3.00002 11.0679 0.916591 11.0145C0.973095 11.438 1.02962 11.8615 1.08564 12.2852C5.183 11.3306 9.35366 10.8715 13.5344 10.4867C17.4861 10.1231 21.4752 10.1745 25.4071 9.60904C26.1411 9.50337 25.9271 8.35648 25.2378 8.33837C21.0241 8.22639 16.8333 7.73492 12.6234 7.59046C10.4729 7.5167 8.31794 7.6574 6.17538 7.82951C4.3822 7.97347 2.55815 7.96596 0.789396 8.31891C0.0894056 8.45863 0.243625 9.66148 0.958466 9.58955C4.68033 9.21455 8.36124 8.53737 12.0673 8.03812C15.9425 7.51611 19.8471 7.38903 23.7334 6.99846C24.5362 6.91777 24.5687 5.72293 23.7334 5.70481C16.676 5.55194 9.61441 4.48624 2.58591 5.64284C2.69894 6.05873 2.81173 6.47461 2.92454 6.8905C5.94858 6.11886 9.06508 6.05679 12.1581 5.80886C13.7995 5.67729 15.4338 5.46429 17.0764 5.33992C18.4838 5.23353 19.9235 5.29476 21.3117 5.02128C21.8639 4.91247 21.919 4.10116 21.4638 3.83886C19.5738 2.7504 16.7945 2.77183 14.6841 2.65157C11.7639 2.48508 8.84933 2.71195 5.93159 2.81639C5.98788 3.23982 6.04416 3.66323 6.10066 4.08704C8.16492 3.70245 10.1815 3.07101 12.2541 2.73655C13.2881 2.56978 14.3342 2.47425 15.3756 2.36811C16.1956 2.2845 16.9719 2.335 17.7601 2.04805C18.3329 1.83907 18.3987 0.981249 17.7601 0.800384C16.4358 0.425856 15.0612 0.45385 13.6988 0.496839C12.3607 0.539055 10.9154 0.419793 9.64863 0.927681C8.89456 1.23005 9.22286 2.48149 9.98704 2.17527Z" fill="#191918"/>
<path d="M9.98704 2.17527C11.0424 1.75206 12.2022 1.84044 13.3174 1.80356C14.6883 1.75865 16.0864 1.67015 17.4217 2.04797C17.4217 1.63208 17.4217 1.21618 17.4217 0.80031C16.6108 1.09605 15.7523 1.03594 14.906 1.12237C13.9065 1.22424 12.91 1.3435 11.916 1.48909C9.84141 1.79298 7.82411 2.45521 5.7625 2.83922C5.05056 2.97213 5.22296 4.13519 5.93179 4.10987C8.53703 4.0169 11.1379 3.83105 13.746 3.89712C15.0964 3.93157 16.4602 4.03586 17.7981 4.22232C18.7692 4.3578 19.9565 4.45782 20.8215 4.95611C20.8722 4.56189 20.923 4.16778 20.9738 3.77359C19.3944 4.08469 17.6966 3.99123 16.0928 4.12434C14.4867 4.258 12.8868 4.46369 11.2792 4.5832C8.36197 4.79997 5.43609 4.91594 2.58613 5.64279C1.7748 5.85008 2.13282 7.02069 2.92476 6.89045C9.82489 5.75476 16.8048 6.84836 23.7337 6.99841C23.7337 6.56707 23.7337 6.13608 23.7337 5.70476C20.0082 6.07914 16.2679 6.22094 12.5496 6.68209C8.67758 7.16234 4.84221 7.90466 0.958687 8.29585C1.01497 8.71928 1.07147 9.14269 1.12773 9.5665C2.93502 9.20564 4.83571 9.23072 6.66983 9.08346C8.81791 8.91088 10.9688 8.82712 13.1227 8.90125C17.1657 9.03987 21.1907 9.52428 25.238 9.63187C25.182 9.20843 25.1254 8.78503 25.069 8.36122C20.9352 8.95601 16.7152 8.89516 12.5577 9.28378C8.59209 9.65412 4.63362 10.1324 0.747693 11.0375C0.0295144 11.205 0.214883 12.2902 0.916763 12.3081C2.85456 12.3577 4.79405 11.8781 6.72037 11.702C8.93261 11.4996 11.1551 11.4158 13.3755 11.3824C15.4645 11.3512 17.5464 11.3859 19.632 11.5201C21.7238 11.6544 24.0871 11.6335 26.0723 12.3701C26.0723 11.9541 26.0723 11.5383 26.0723 11.1223C25.1487 11.4198 24.1872 11.3247 23.2322 11.3119C22.1299 11.2972 21.0154 11.392 19.9148 11.4421C17.6757 11.5438 15.4362 11.6494 13.1978 11.7634C10.8948 11.8808 8.59471 12.0585 6.29435 12.2205C4.43652 12.3511 2.49944 12.3468 0.706015 12.9065C0.140387 13.0831 0.0570301 14.025 0.706015 14.1541C1.56069 14.3239 2.38088 14.2582 3.24346 14.1771C4.3352 14.0745 5.44827 14.1302 6.54361 14.1205C8.90335 14.0999 11.2619 14.0781 13.621 14.1501C15.9546 14.2211 18.2856 14.3704 20.6171 14.4897C21.5309 14.5364 22.4323 14.571 23.3462 14.5331C24.2916 14.4939 25.4121 14.3528 26.296 14.7687C26.296 14.3962 26.296 14.0238 26.296 13.6513C24.8388 14.409 22.7185 14.148 21.1157 14.2926C18.8587 14.496 16.5968 14.648 14.3345 14.7825C10.1237 15.0326 5.85437 15.2416 1.75055 16.3047C1.06183 16.4832 1.19521 17.6158 1.91984 17.5754C6.33812 17.3286 10.7362 17.3424 15.1564 17.2687C16.8962 17.2396 18.6347 17.178 20.375 17.1719C21.164 17.1694 21.9524 17.1866 22.7405 17.2309C23.4323 17.2695 25.2877 17.0843 25.6436 17.8236C25.7705 17.507 25.8972 17.1902 26.0239 16.8733C21.7974 18.5086 17.2072 17.3731 12.8414 17.8691C11.0487 18.0725 9.25703 18.1892 7.46002 18.3536C5.88309 18.4982 4.18044 18.6884 2.79438 19.5258C2.41961 19.7525 2.34107 20.4389 2.79438 20.643C5.1709 21.7126 8.58146 20.9693 11.0334 20.8154C13.2014 20.6789 15.3784 20.7029 17.5487 20.73C19.4793 20.7538 21.8058 20.4243 23.6481 21.0781C23.5976 20.684 23.5468 20.2898 23.496 19.8957C22.3956 20.4314 20.4949 20.0167 19.3012 20.0271C17.5578 20.0423 15.8169 20.1178 14.0805 20.275C10.9312 20.5602 7.82641 21.0694 4.72835 21.703C4.02097 21.8478 4.18523 23.0037 4.89717 22.9737C7.87116 22.848 10.8574 22.953 13.8348 22.8818C16.16 22.8259 18.623 22.562 20.9418 22.8418C20.8853 22.4183 20.829 21.9949 20.7727 21.5712C18.7825 21.9638 16.7295 21.8864 14.7184 22.104C12.4046 22.3544 10.0396 22.6686 7.76822 23.1864C7.06823 23.3461 7.22031 24.4925 7.93729 24.4571C11.8685 24.2633 15.8717 23.6629 19.7954 24.2469C19.7447 23.8526 19.6939 23.4586 19.6431 23.0646C16.802 24.5482 13.1568 24.3582 10.0829 25.0481C9.34009 25.2148 9.57428 26.2617 10.252 26.3187C12.8459 26.5377 15.244 27.5439 17.8124 26.544C18.5705 26.2487 18.2417 24.9976 17.474 25.2964C15.0484 26.2408 12.7068 25.2322 10.252 25.0251C10.3085 25.4485 10.3648 25.8719 10.4211 26.2957C13.6355 25.5741 17.3102 25.7355 20.2856 24.1814C20.7445 23.9418 20.6836 23.081 20.1333 22.9992C16.0807 22.3964 11.9989 22.9633 7.93726 23.1634C7.99377 23.5868 8.05005 24.0104 8.10631 24.4341C10.4814 23.8926 12.9607 23.5515 15.3858 23.3315C17.2944 23.1582 19.2231 23.1909 21.1108 22.8189C21.876 22.6677 21.5958 21.6269 20.9418 21.5482C18.623 21.2684 16.16 21.5323 13.8347 21.5881C10.8574 21.6593 7.87114 21.5544 4.89715 21.68C4.95367 22.1035 5.01018 22.527 5.06619 22.9507C8.52201 22.2437 11.985 21.7018 15.5041 21.4541C17.241 21.3319 18.9848 21.3162 20.725 21.3136C21.8996 21.3119 23.0386 21.5482 24.1382 21.013C24.6756 20.7515 24.4596 19.9986 23.9864 19.8305C22.5575 19.3234 21.0412 19.4925 19.5547 19.4679C17.3818 19.432 15.2091 19.4003 13.0356 19.4404C10.8729 19.4803 8.71769 19.6992 6.55809 19.8075C5.64645 19.8533 4.27811 19.9045 3.43659 19.5259C3.43659 19.8983 3.43659 20.2707 3.43659 20.6431C4.90959 19.7528 6.82608 19.6893 8.49017 19.5607C10.263 19.424 12.0248 19.2171 13.7943 19.0685C17.9802 18.7171 22.3094 19.6888 26.3622 18.121C26.7636 17.9657 26.9353 17.5707 26.7425 17.1708C26.0815 15.7985 23.9898 16.0249 22.7404 15.9373C20.6997 15.7938 18.6371 15.8938 16.5949 15.9434C11.6972 16.062 6.81627 16.0082 1.91977 16.282C1.97605 16.7054 2.03233 17.1288 2.08881 17.5525C6.39717 16.4363 10.8832 16.2877 15.3012 16.0181C17.564 15.8799 19.8241 15.7078 22.0816 15.4979C23.7108 15.3463 25.4373 15.5489 26.9381 14.7687C27.3412 14.5592 27.3666 13.853 26.9381 13.6514C25.6107 13.0271 24.1013 13.2163 22.681 13.2648C20.3448 13.3443 17.9598 13.048 15.6257 12.9369C13.1038 12.8169 10.5834 12.7939 8.05935 12.8131C6.87851 12.8222 5.69792 12.8356 4.51708 12.8403C3.37601 12.8449 2.17193 13.1309 1.04401 12.9066C1.04401 13.3224 1.04401 13.7383 1.04401 14.1542C3.02469 13.5359 5.22974 13.59 7.28369 13.4441C9.58046 13.2815 11.877 13.1177 14.1767 13.0092C16.4057 12.9037 18.634 12.791 20.8632 12.6933C22.6403 12.6152 24.6995 12.9207 26.4103 12.3702C27.036 12.1687 26.9958 11.3398 26.4103 11.1224C24.5944 10.4488 22.5067 10.4479 20.5983 10.2965C18.3487 10.1178 16.1041 10.0698 13.8481 10.0837C11.6275 10.0976 9.40803 10.1942 7.19387 10.3682C5.11408 10.5317 3.00002 11.0679 0.916591 11.0145C0.973095 11.438 1.02962 11.8615 1.08564 12.2852C5.183 11.3306 9.35366 10.8715 13.5344 10.4867C17.4861 10.1231 21.4752 10.1745 25.4071 9.60904C26.1411 9.50337 25.9271 8.35648 25.2378 8.33837C21.0241 8.22639 16.8333 7.73492 12.6234 7.59046C10.4729 7.5167 8.31794 7.6574 6.17538 7.82951C4.3822 7.97347 2.55815 7.96596 0.789396 8.31891C0.0894056 8.45863 0.243625 9.66148 0.958466 9.58955C4.68033 9.21455 8.36124 8.53737 12.0673 8.03812C15.9425 7.51611 19.8471 7.38903 23.7334 6.99846C24.5362 6.91777 24.5687 5.72293 23.7334 5.70481C16.676 5.55194 9.61441 4.48624 2.58591 5.64284C2.69894 6.05873 2.81173 6.47461 2.92454 6.8905C5.94858 6.11886 9.06508 6.05679 12.1581 5.80886C13.7995 5.67729 15.4338 5.46429 17.0764 5.33992C18.4838 5.23353 19.9235 5.29476 21.3117 5.02128C21.8639 4.91247 21.919 4.10116 21.4638 3.83886C19.5738 2.7504 16.7945 2.77183 14.6841 2.65157C11.7639 2.48508 8.84933 2.71195 5.93159 2.81639C5.98788 3.23982 6.04416 3.66323 6.10066 4.08704C8.16492 3.70245 10.1815 3.07101 12.2541 2.73655C13.2881 2.56978 14.3342 2.47425 15.3756 2.36811C16.1956 2.2845 16.9719 2.335 17.7601 2.04805C18.3329 1.83907 18.3987 0.981249 17.7601 0.800384C16.4358 0.425856 15.0612 0.45385 13.6988 0.496839C12.3607 0.539055 10.9154 0.419793 9.64863 0.927681C8.89456 1.23005 9.22286 2.48149 9.98704 2.17527Z" fill="black" fill-opacity="0.2"/>
<path d="M9.1424 15.638V9.30412C9.1424 9.30412 8.95799 7.3468 10.6906 7.3468C10.6906 7.3468 12.2385 7.2217 12.2385 8.57497V10.5326H17.2988C17.2988 10.5326 18.5824 10.8399 18.4696 12.2982C18.4696 12.2982 18.3185 13.6035 16.9966 13.7187H12.2764V15.4456C12.2764 15.4456 12.2146 16.8276 13.4472 16.8276H16.9588C16.9588 16.8276 18.4317 16.8659 18.4696 18.5165C18.4696 18.5165 18.3939 19.9368 16.9209 20.052H13.4847C13.4847 20.052 9.1424 19.8113 9.1424 15.638Z" fill="white"/>
</svg>
