<svg width="50" height="50" viewBox="0 0 50 50" fill="none" xmlns="http://www.w3.org/2000/svg">
<path d="M18.6119 6.12473C20.4034 5.41798 22.3721 5.56556 24.2651 5.50398C26.5924 5.42898 28.9656 5.28119 31.2323 5.91211C31.2323 5.21761 31.2323 4.52306 31.2323 3.82856C29.8559 4.32244 28.3986 4.22206 26.9619 4.3664C25.2652 4.53648 23.5737 4.73569 21.8863 4.97877C18.3646 5.48631 14.9402 6.59223 11.4406 7.23352C10.2321 7.45548 10.5247 9.39777 11.728 9.35548C16.1504 9.20023 20.5655 8.88986 24.9928 9.00019C27.2851 9.05773 29.6001 9.2319 31.8714 9.54327C33.5197 9.76948 35.5352 9.93657 37.0035 10.7687C37.0897 10.1104 37.1759 9.45219 37.2621 8.7939C34.5811 9.3134 31.699 9.15731 28.9766 9.37965C26.2501 9.60282 23.5343 9.94631 20.8054 10.1459C15.8533 10.5079 10.8865 10.7016 6.04865 11.9154C4.6714 12.2616 5.27915 14.2165 6.62348 13.999C18.3366 12.1024 30.1851 13.9287 41.9471 14.1793C41.9471 13.459 41.9471 12.7392 41.9471 12.0189C35.623 12.6441 29.2737 12.8809 22.9619 13.651C16.389 14.4531 9.8784 15.6927 3.28602 16.346C3.38156 17.0531 3.47748 17.7602 3.57298 18.468C6.6409 17.8654 9.86735 17.9072 12.9808 17.6613C16.6272 17.3731 20.2785 17.2332 23.9346 17.357C30.7977 17.5885 37.6303 18.3975 44.5007 18.5771C44.4056 17.87 44.3096 17.1629 44.2138 16.4552C37.1966 17.4485 30.0331 17.3469 22.9757 17.9958C16.2439 18.6143 9.52431 19.4131 2.92785 20.9245C1.70873 21.2042 2.0234 23.0166 3.21485 23.0464C6.50431 23.1292 9.79665 22.3284 13.0666 22.0342C16.8219 21.6962 20.5947 21.5562 24.3639 21.5005C27.9099 21.4484 31.4441 21.5064 34.9844 21.7304C38.5352 21.9548 42.5471 21.9198 45.917 23.1499C45.917 22.4552 45.917 21.7609 45.917 21.0661C44.3491 21.5629 42.717 21.4041 41.0958 21.3828C39.2247 21.3582 37.3328 21.5166 35.4644 21.6001C31.6636 21.77 27.8619 21.9464 24.0623 22.1367C20.1529 22.3328 16.2484 22.6296 12.3434 22.9001C9.18973 23.1182 5.90148 23.1111 2.8571 24.0456C1.89694 24.3405 1.75544 25.9135 2.8571 26.1292C4.30794 26.4127 5.70023 26.303 7.16448 26.1676C9.01773 25.9963 10.9072 26.0891 12.7666 26.0731C16.7723 26.0385 20.776 26.0022 24.7805 26.1225C28.742 26.241 32.6989 26.4904 36.6567 26.6896C38.2079 26.7676 39.738 26.8254 41.2893 26.7621C42.8941 26.6967 44.7962 26.4609 46.2966 27.1554C46.2966 26.5335 46.2966 25.9115 46.2966 25.2895C43.823 26.5548 40.2238 26.119 37.503 26.3605C33.6717 26.7001 29.8321 26.954 25.9919 27.1786C18.8438 27.5962 11.5966 27.9452 4.63023 29.7207C3.4611 30.0187 3.68752 31.9101 4.9176 31.8427C12.4177 31.4304 19.8836 31.4536 27.387 31.3304C30.3403 31.2819 33.2915 31.179 36.2456 31.1689C37.5851 31.1646 38.9233 31.1934 40.2611 31.2673C41.4355 31.3317 44.5852 31.0226 45.1892 32.2571C45.4047 31.7284 45.6197 31.1994 45.8348 30.6701C38.6603 33.401 30.8683 31.5049 23.4573 32.3332C20.4141 32.6728 17.3726 32.8677 14.3222 33.1423C11.6453 33.3837 8.75502 33.7014 6.40215 35.0999C5.76598 35.4783 5.63265 36.6247 6.40215 36.9655C10.4364 38.7517 16.2259 37.5104 20.3881 37.2533C24.0682 37.0255 27.7638 37.0655 31.448 37.1109C34.7252 37.1505 38.6745 36.6003 41.8018 37.6922C41.716 37.034 41.6298 36.3757 41.5437 35.7176C39.6757 36.6121 36.4493 35.9196 34.4229 35.9369C31.4634 35.9623 28.5081 36.0885 25.5605 36.3509C20.2145 36.8273 14.9441 37.6775 9.6851 38.7357C8.48431 38.9775 8.76315 40.9079 9.97169 40.8577C15.0201 40.6479 20.0893 40.8231 25.1434 40.7042C29.0906 40.6109 33.2716 40.1703 37.2078 40.6376C37.1119 39.9302 37.0163 39.2232 36.9208 38.5156C33.5423 39.1713 30.0573 39.042 26.6435 39.4054C22.7158 39.8235 18.7011 40.3483 14.8454 41.2129C13.6571 41.4797 13.9153 43.3941 15.1324 43.3349C21.8056 43.0114 28.6012 42.0087 35.2619 42.9839C35.1756 42.3256 35.0895 41.6674 35.0033 41.0095C30.1805 43.4872 23.9926 43.1699 18.7746 44.3219C17.5136 44.6004 17.9112 46.3486 19.0616 46.4439C23.4649 46.8096 27.5357 48.4899 31.8955 46.8201C33.1825 46.327 32.6244 44.2376 31.3211 44.7366C27.2036 46.3138 23.2287 44.6294 19.0616 44.2835C19.1576 44.9906 19.2531 45.6977 19.3486 46.4055C24.8052 45.2004 31.0431 45.4699 36.0939 42.8745C36.8728 42.4745 36.7695 41.0369 35.8354 40.9004C28.956 39.8936 22.0271 40.8404 15.1323 41.1746C15.2282 41.8817 15.3238 42.589 15.4193 43.2965C19.4511 42.3923 23.6596 41.8227 27.7764 41.4553C31.0162 41.1659 34.2902 41.2205 37.4947 40.5992C38.7936 40.3467 38.3179 38.6087 37.2078 38.4772C33.2715 38.0099 29.0906 38.4506 25.1434 38.5438C20.0893 38.6627 15.0201 38.4875 9.97165 38.6973C10.0676 39.4046 10.1635 40.1117 10.2586 40.8192C16.1249 39.6387 22.0035 38.7337 27.9771 38.32C30.9256 38.116 33.8857 38.0897 36.8399 38.0855C38.8338 38.0826 40.7672 38.4772 42.6338 37.5834C43.546 37.1467 43.1794 35.8893 42.3761 35.6087C39.9505 34.7619 37.3765 35.0442 34.8532 35.0032C31.1646 34.9432 27.4764 34.8902 23.7869 34.9572C20.1156 35.0239 16.4571 35.3893 12.7911 35.5702C11.2436 35.6467 8.92081 35.7322 7.49231 35.0999C7.49231 35.7219 7.49231 36.3438 7.49231 36.9656C9.99277 35.4788 13.2461 35.3729 16.0709 35.158C19.0803 34.9298 22.071 34.5842 25.0747 34.3361C32.1805 33.7493 39.5294 35.3721 46.4091 32.7538C47.0904 32.4944 47.3819 31.8348 47.0547 31.167C45.9327 28.8753 42.3818 29.2533 40.261 29.107C36.7968 28.8674 33.2955 29.0344 29.8288 29.1172C21.5149 29.3153 13.2294 29.2255 4.91748 29.6826C5.01302 30.3898 5.10856 31.0969 5.20444 31.8044C12.518 29.9404 20.1331 29.6922 27.6328 29.2419C31.4739 29.0112 35.3105 28.7239 39.1427 28.3732C41.9082 28.12 44.8391 28.4584 47.3867 27.1555C48.0709 26.8057 48.114 25.6262 47.3867 25.2897C45.1334 24.2469 42.5712 24.563 40.1602 24.6439C36.1943 24.7769 32.1459 24.2819 28.1836 24.0964C23.9027 23.896 19.6242 23.8575 15.3396 23.8897C13.3351 23.9049 11.331 23.9273 9.32648 23.9352C7.38948 23.9427 5.34552 24.4204 3.43085 24.0457C3.43085 24.7403 3.43085 25.4348 3.43085 26.1293C6.7931 25.0968 10.5362 25.187 14.0229 24.9435C17.9217 24.6719 21.8201 24.3984 25.7239 24.2171C29.5076 24.0411 33.2902 23.8529 37.0744 23.6896C40.0911 23.5592 43.5867 24.0693 46.4908 23.15C47.5529 22.8137 47.4847 21.4293 46.4908 21.0662C43.4082 19.9414 39.8642 19.9398 36.6248 19.6869C32.806 19.3886 28.9958 19.3085 25.1661 19.3316C21.3965 19.3548 17.629 19.5162 13.8704 19.8069C10.3399 20.0799 6.75123 20.9752 3.21456 20.8862C3.31048 21.5933 3.40644 22.3006 3.50152 23.0082C10.4569 21.414 17.5367 20.6474 24.6335 20.0046C31.3417 19.3975 38.1134 19.4833 44.7878 18.5389C46.0338 18.3625 45.6704 16.4472 44.5004 16.417C37.3475 16.23 30.2336 15.4092 23.0871 15.168C19.4367 15.0448 15.7785 15.2797 12.1415 15.5672C9.09752 15.8076 6.00115 15.795 2.99865 16.3845C1.8104 16.6178 2.07219 18.6266 3.28565 18.5064C9.6036 17.8802 15.852 16.7493 22.1432 15.9156C28.7214 15.0438 35.3495 14.8316 41.9467 14.1794C43.3093 14.0446 43.3646 12.0492 41.9467 12.0189C29.9665 11.7637 17.9793 9.98398 6.04827 11.9155C6.24015 12.61 6.4316 13.3045 6.6231 13.9991C11.7565 12.7104 17.0468 12.6068 22.2973 12.1927C25.0835 11.973 27.8579 11.6173 30.6462 11.4096C33.0352 11.2319 35.4791 11.3342 37.8357 10.8775C38.7731 10.6957 38.8666 9.3409 38.0939 8.90286C34.8857 7.08515 30.1677 7.1209 26.5851 6.92011C21.6282 6.64206 16.6806 7.02094 11.7276 7.19536C11.8232 7.90248 11.9187 8.60956 12.0146 9.31732C15.5188 8.67502 18.942 7.62052 22.4603 7.06198C24.2156 6.78356 25.9912 6.62398 27.7591 6.44673C29.151 6.30711 30.4689 6.39144 31.8067 5.91219C32.7791 5.56323 32.8909 4.13069 31.8067 3.82865C29.5591 3.20311 27.2257 3.24986 24.9131 3.32161C22.6416 3.39211 20.1883 3.19294 18.0378 4.04111C16.7574 4.54623 17.3146 6.63611 18.6119 6.12473Z" fill="#0090B8"/>
<path d="M18.6119 5.30037C20.4034 4.59363 22.3721 4.74121 24.2651 4.67962C26.5924 4.60462 28.9656 4.45683 31.2323 5.08779C31.2323 4.39325 31.2323 3.69871 31.2323 3.00421C29.8559 3.49808 28.3986 3.39771 26.9619 3.54204C25.2652 3.71217 23.5737 3.91133 21.8863 4.15446C18.3646 4.66196 14.9402 5.76787 11.4406 6.40917C10.2321 6.63112 10.5247 8.57342 11.728 8.53113C16.1504 8.37587 20.5655 8.0655 24.9928 8.17583C27.2851 8.23338 29.6001 8.40754 31.8714 8.71892C33.5197 8.94517 35.5352 9.11221 37.0035 9.94433C37.0897 9.286 37.1759 8.62783 37.2621 7.96954C34.5811 8.48908 31.699 8.333 28.9766 8.55529C26.2501 8.7785 23.5343 9.122 20.8054 9.32158C15.8533 9.68358 10.8865 9.87725 6.04865 11.0911C4.6714 11.4373 5.27915 13.3922 6.62348 13.1747C18.3366 11.2781 30.1851 13.1044 41.9471 13.355C41.9471 12.6346 41.9471 11.9149 41.9471 11.1946C35.623 11.8198 29.2737 12.0566 22.9619 12.8267C16.389 13.6287 9.8784 14.8684 3.28602 15.5217C3.38156 16.2288 3.47748 16.9359 3.57298 17.6436C6.6409 17.041 9.86735 17.0829 12.9808 16.837C16.6272 16.5488 20.2785 16.4089 23.9346 16.5327C30.7977 16.7642 37.6303 17.5731 44.5007 17.7528C44.4056 17.0457 44.3096 16.3386 44.2138 15.6308C37.1966 16.6241 30.0331 16.5225 22.9757 17.1715C16.2439 17.79 9.52431 18.5887 2.92785 20.1001C1.70873 20.3798 2.0234 22.1923 3.21485 22.2221C6.50431 22.3048 9.79665 21.504 13.0666 21.2099C16.8219 20.8719 20.5947 20.7319 24.3639 20.6762C27.9099 20.6241 31.4441 20.6821 34.9844 20.906C38.5352 21.1305 42.5471 21.0955 45.917 22.3256C45.917 21.6309 45.917 20.9365 45.917 20.2418C44.3491 20.7385 42.717 20.5798 41.0958 20.5585C39.2247 20.5339 37.3328 20.6922 35.4644 20.7758C31.6636 20.9457 27.8619 21.1221 24.0623 21.3124C20.1529 21.5085 16.2484 21.8053 12.3434 22.0758C9.18973 22.2939 5.90148 22.2868 2.8571 23.2214C1.89694 23.5163 1.75544 25.0893 2.8571 25.3049C4.30794 25.5885 5.70023 25.4787 7.16448 25.3433C9.01773 25.172 10.9072 25.2649 12.7666 25.2488C16.7723 25.2143 20.776 25.1779 24.7805 25.2982C28.742 25.4167 32.6989 25.6661 36.6567 25.8653C38.2079 25.9433 39.738 26.0011 41.2893 25.9378C42.8941 25.8724 44.7962 25.6366 46.2966 26.3312C46.2966 25.7092 46.2966 25.0872 46.2966 24.4652C43.823 25.7305 40.2238 25.2947 37.503 25.5362C33.6717 25.8758 29.8321 26.1297 25.9919 26.3543C18.8438 26.772 11.5966 27.121 4.63023 28.8964C3.4611 29.1944 3.68752 31.0858 4.9176 31.0184C12.4177 30.6062 19.8836 30.6293 27.387 30.5062C30.3403 30.4576 33.2915 30.3548 36.2456 30.3446C37.5851 30.3403 38.9233 30.3692 40.2611 30.443C41.4355 30.5075 44.5852 30.1983 45.1892 31.4328C45.4047 30.9042 45.6197 30.3751 45.8348 29.8458C38.6603 32.5768 30.8683 30.6806 23.4573 31.5089C20.4141 31.8485 17.3726 32.0435 14.3222 32.318C11.6453 32.5595 8.75502 32.8772 6.40215 34.2756C5.76598 34.654 5.63265 35.8004 6.40215 36.1413C10.4364 37.9275 16.2259 36.6862 20.3881 36.4291C24.0682 36.2012 27.7638 36.2412 31.448 36.2866C34.7252 36.3262 38.6745 35.776 41.8018 36.8679C41.716 36.2097 41.6298 35.5514 41.5437 34.8933C39.6757 35.7878 36.4493 35.0953 34.4229 35.1126C31.4634 35.138 28.5081 35.2642 25.5605 35.5266C20.2145 36.003 14.9441 36.8532 9.6851 37.9114C8.48431 38.1532 8.76315 40.0836 9.97169 40.0334C15.0201 39.8236 20.0893 39.9988 25.1434 39.88C29.0906 39.7867 33.2716 39.346 37.2078 39.8133C37.1119 39.106 37.0163 38.3989 36.9208 37.6913C33.5423 38.347 30.0573 38.2178 26.6435 38.5812C22.7158 38.9993 18.7011 39.524 14.8454 40.3887C13.6571 40.6554 13.9153 42.5698 15.1324 42.5107C21.8056 42.1871 28.6012 41.1845 35.2619 42.1597C35.1756 41.5013 35.0895 40.8432 35.0033 40.1852C30.1805 42.6629 23.9926 42.3456 18.7746 43.4977C17.5136 43.7761 17.9112 45.5243 19.0616 45.6197C23.4649 45.9853 27.5357 47.6656 31.8955 45.9959C33.1825 45.5028 32.6244 43.4133 31.3211 43.9123C27.2036 45.4895 23.2287 43.8052 19.0616 43.4592C19.1576 44.1664 19.2531 44.8735 19.3486 45.5812C24.8052 44.3761 31.0431 44.6456 36.0939 42.0503C36.8728 41.6502 36.7695 40.2126 35.8354 40.0761C28.956 39.0693 22.0271 40.0161 15.1323 40.3503C15.2282 41.0574 15.3238 41.7647 15.4193 42.4723C19.4511 41.568 23.6596 40.9985 27.7764 40.631C31.0162 40.3416 34.2902 40.3962 37.4947 39.7749C38.7936 39.5225 38.3179 37.7844 37.2078 37.6529C33.2715 37.1856 29.0906 37.6263 25.1434 37.7196C20.0893 37.8385 15.0201 37.6632 9.97165 37.873C10.0676 38.5803 10.1635 39.2875 10.2586 39.995C16.1249 38.8145 22.0035 37.9094 27.9771 37.4958C30.9256 37.2917 33.8857 37.2655 36.8399 37.2612C38.8338 37.2583 40.7672 37.6529 42.6338 36.7592C43.546 36.3224 43.1794 35.065 42.3761 34.7844C39.9505 33.9376 37.3765 34.2199 34.8532 34.1789C31.1646 34.1189 27.4764 34.0659 23.7869 34.1329C20.1156 34.1996 16.4571 34.565 12.7911 34.746C11.2436 34.8224 8.92081 34.908 7.49231 34.2756C7.49231 34.8976 7.49231 35.5195 7.49231 36.1413C9.99277 34.6545 13.2461 34.5486 16.0709 34.3338C19.0803 34.1055 22.071 33.76 25.0747 33.5118C32.1805 32.925 39.5294 34.5478 46.4091 31.9295C47.0904 31.6701 47.3819 31.0106 47.0547 30.3427C45.9327 28.051 42.3818 28.429 40.261 28.2827C36.7968 28.0431 33.2955 28.2102 29.8288 28.2929C21.5149 28.491 13.2294 28.4012 4.91748 28.8584C5.01302 29.5655 5.10856 30.2726 5.20444 30.9801C12.518 29.1161 20.1331 28.8679 27.6328 28.4177C31.4739 28.187 35.3105 27.8996 39.1427 27.549C41.9082 27.2957 44.8391 27.6341 47.3867 26.3313C48.0709 25.9815 48.114 24.802 47.3867 24.4654C45.1334 23.4227 42.5712 23.7388 40.1602 23.8197C36.1943 23.9526 32.1459 23.4576 28.1836 23.2721C23.9027 23.0717 19.6242 23.0333 15.3396 23.0654C13.3351 23.0806 11.331 23.103 9.32648 23.1109C7.38948 23.1185 5.34552 23.5961 3.43085 23.2215C3.43085 23.916 3.43085 24.6105 3.43085 25.305C6.7931 24.2725 10.5362 24.3628 14.0229 24.1192C17.9217 23.8477 21.8201 23.5741 25.7239 23.3928C29.5076 23.2168 33.2902 23.0286 37.0744 22.8654C40.0911 22.7349 43.5867 23.245 46.4908 22.3257C47.5529 21.9893 47.4847 20.605 46.4908 20.2419C43.4082 19.1171 39.8642 19.1155 36.6248 18.8627C32.806 18.5643 28.9958 18.4842 25.1661 18.5073C21.3965 18.5305 17.629 18.6919 13.8704 18.9825C10.3399 19.2555 6.75123 20.1509 3.21456 20.0618C3.31048 20.769 3.40644 21.4763 3.50152 22.1838C10.4569 20.5897 17.5367 19.823 24.6335 19.1803C31.3417 18.5732 38.1134 18.659 44.7878 17.7147C46.0338 17.5382 45.6704 15.6229 44.5004 15.5927C37.3475 15.4057 30.2336 14.5849 23.0871 14.3437C19.4367 14.2205 15.7785 14.4555 12.1415 14.7429C9.09752 14.9833 6.00115 14.9708 2.99865 15.5602C1.8104 15.7935 2.07219 17.8023 3.28565 17.6821C9.6036 17.0559 15.852 15.925 22.1432 15.0913C28.7214 14.2195 35.3495 14.0073 41.9467 13.355C43.3093 13.2203 43.3646 11.2249 41.9467 11.1947C29.9665 10.9394 17.9793 9.15967 6.04827 11.0912C6.24015 11.7857 6.4316 12.4802 6.6231 13.1748C11.7565 11.8861 17.0468 11.7825 22.2973 11.3684C25.0835 11.1487 27.8579 10.793 30.6462 10.5853C33.0352 10.4076 35.4791 10.5099 37.8357 10.0532C38.7731 9.87146 38.8666 8.51658 38.0939 8.07854C34.8857 6.26083 30.1677 6.29662 26.5851 6.09579C21.6282 5.81775 16.6806 6.19662 11.7276 6.37104C11.8232 7.07817 11.9187 7.78525 12.0146 8.493C15.5188 7.85075 18.942 6.79625 22.4603 6.23771C24.2156 5.95921 25.9912 5.79967 27.7591 5.62242C29.151 5.48279 30.4689 5.56713 31.8067 5.08792C32.7791 4.73892 32.8909 3.30637 31.8067 3.00433C29.5587 2.37887 27.2254 2.42562 24.9127 2.49742C22.6411 2.56792 20.1879 2.36875 18.0374 3.21692C16.7574 3.72187 17.3146 5.81175 18.6119 5.30037Z" fill="#0090B8"/>
<path d="M17.1776 27.7848V17.2074C17.1776 17.2074 16.8646 13.9387 19.8057 13.9387C19.8057 13.9387 22.4333 13.7298 22.4333 15.9897V19.2589H31.0233C31.0233 19.2589 33.2022 19.7721 33.0107 22.2075C33.0107 22.2075 32.7542 24.3872 30.5103 24.5797H22.4976V27.4636C22.4976 27.4636 22.3927 29.7714 24.485 29.7714H30.4461C30.4461 29.7714 32.9465 29.8354 33.0107 32.592C33.0107 32.592 32.8823 34.9638 30.3819 35.1563H24.5488C24.5488 35.1563 17.1776 34.7542 17.1776 27.7848Z" fill="white"/>
</svg>
