<svg width="25" height="25" viewBox="0 0 25 25" fill="none" xmlns="http://www.w3.org/2000/svg">
<path d="M12.4997 2.08203C11.1317 2.08203 9.7772 2.35147 8.51339 2.87495C7.24958 3.39844 6.10126 4.16573 5.13398 5.133C3.18047 7.08651 2.08301 9.73603 2.08301 12.4987C2.08301 15.2614 3.18047 17.9109 5.13398 19.8644C6.10126 20.8317 7.24958 21.599 8.51339 22.1224C9.7772 22.6459 11.1317 22.9154 12.4997 22.9154C15.2623 22.9154 17.9119 21.8179 19.8654 19.8644C21.8189 17.9109 22.9163 15.2614 22.9163 12.4987C22.9163 11.1308 22.6469 9.77622 22.1234 8.51241C21.5999 7.2486 20.8326 6.10028 19.8654 5.133C18.8981 4.16573 17.7498 3.39844 16.486 2.87495C15.2222 2.35147 13.8676 2.08203 12.4997 2.08203ZM7.36426 19.0404C7.81217 18.1029 10.5413 17.1862 12.4997 17.1862C14.458 17.1862 17.1872 18.1029 17.6351 19.0404C16.2184 20.1654 14.4372 20.832 12.4997 20.832C10.5622 20.832 8.78092 20.1654 7.36426 19.0404ZM19.1247 17.5299C17.6351 15.7174 14.0205 15.1029 12.4997 15.1029C10.9788 15.1029 7.36426 15.7174 5.87467 17.5299C4.81217 16.1445 4.16634 14.3945 4.16634 12.4987C4.16634 7.90495 7.90592 4.16536 12.4997 4.16536C17.0934 4.16536 20.833 7.90495 20.833 12.4987C20.833 14.3945 20.1872 16.1445 19.1247 17.5299ZM12.4997 6.2487C10.4788 6.2487 8.85384 7.8737 8.85384 9.89453C8.85384 11.9154 10.4788 13.5404 12.4997 13.5404C14.5205 13.5404 16.1455 11.9154 16.1455 9.89453C16.1455 7.8737 14.5205 6.2487 12.4997 6.2487ZM12.4997 11.457C12.0853 11.457 11.6878 11.2924 11.3948 10.9994C11.1018 10.7064 10.9372 10.3089 10.9372 9.89453C10.9372 9.48013 11.1018 9.0827 11.3948 8.78968C11.6878 8.49665 12.0853 8.33203 12.4997 8.33203C12.9141 8.33203 13.3115 8.49665 13.6045 8.78968C13.8976 9.0827 14.0622 9.48013 14.0622 9.89453C14.0622 10.3089 13.8976 10.7064 13.6045 10.9994C13.3115 11.2924 12.9141 11.457 12.4997 11.457Z" fill="white"/>
</svg>
