<svg width="25" height="25" viewBox="0 0 25 25" fill="none" xmlns="http://www.w3.org/2000/svg">
<path d="M12.6043 19.3229L12.5002 19.4271L12.3856 19.3229C7.43766 14.8333 4.16683 11.8646 4.16683 8.85417C4.16683 6.77083 5.72933 5.20833 7.81266 5.20833C9.41683 5.20833 10.9793 6.25 11.5314 7.66667H13.4689C14.021 6.25 15.5835 5.20833 17.1877 5.20833C19.271 5.20833 20.8335 6.77083 20.8335 8.85417C20.8335 11.8646 17.5627 14.8333 12.6043 19.3229ZM17.1877 3.125C15.3752 3.125 13.6356 3.96875 12.5002 5.29167C11.3647 3.96875 9.62516 3.125 7.81266 3.125C4.60433 3.125 2.0835 5.63542 2.0835 8.85417C2.0835 12.7812 5.62516 16 10.9897 20.8646L12.5002 22.2396L14.0106 20.8646C19.3752 16 22.9168 12.7812 22.9168 8.85417C22.9168 5.63542 20.396 3.125 17.1877 3.125Z" fill="white"/>
</svg>
