<svg width="50" height="50" viewBox="0 0 50 50" fill="none" xmlns="http://www.w3.org/2000/svg">
<path d="M18.6117 6.04648C20.4034 5.33977 22.3717 5.48735 24.265 5.42573C26.5925 5.35073 28.9657 5.20298 31.2323 5.83389C31.2323 5.13935 31.2323 4.44485 31.2323 3.75031C29.8559 4.24439 28.399 4.14402 26.9618 4.28831C25.265 4.45823 23.5733 4.65739 21.8861 4.90052C18.3646 5.40802 14.9399 6.51394 11.4403 7.15544C10.232 7.37739 10.5246 9.31948 11.7277 9.27739C16.1501 9.12214 20.5653 8.81156 24.9928 8.9221C27.2851 8.97943 29.6002 9.15364 31.8713 9.46498C33.5197 9.69123 35.5352 9.85831 37.0035 10.6904C37.0897 10.032 37.1758 9.37393 37.262 8.71556C34.5811 9.2351 31.699 9.07902 28.9766 9.30135C26.2497 9.52452 23.5341 9.86802 20.805 10.0676C15.8535 10.4296 10.8864 10.6233 6.04876 11.8371C4.67151 12.1833 5.27905 14.1379 6.62339 13.9207C18.3367 12.0241 30.1851 13.8504 41.947 14.101C41.947 13.3807 41.947 12.661 41.947 11.9406C35.623 12.566 29.2738 12.8026 22.9615 13.5727C16.3889 14.3747 9.87826 15.6144 3.28576 16.2676C3.38172 16.9748 3.47747 17.6819 3.57276 18.3896C6.64068 17.787 9.86734 17.8289 12.981 17.5829C16.6269 17.2947 20.2783 17.1551 23.9345 17.2786C30.7977 17.5104 37.6303 18.3191 44.5007 18.499C44.4055 17.7916 44.3096 17.0846 44.2137 16.377C37.1966 17.3701 30.0331 17.2685 22.9755 17.9175C16.2438 18.536 9.52426 19.3348 2.92809 20.8462C1.70876 21.1259 2.02339 22.9383 3.21505 22.9682C6.50451 23.0509 9.79643 22.2501 13.0666 21.956C16.8219 21.618 20.5945 21.4779 24.3638 21.4222C27.9099 21.3702 31.4441 21.4281 34.9844 21.6521C38.5353 21.8767 42.5471 21.8416 45.917 23.0716C45.917 22.3771 45.917 21.6826 45.917 20.9881C44.3491 21.4846 42.717 21.3259 41.0958 21.3043C39.2247 21.28 37.3328 21.4383 35.4645 21.5219C31.6636 21.6918 27.862 21.8682 24.062 22.0584C20.1528 22.2548 16.2485 22.5514 12.3434 22.8219C9.18968 23.04 5.90147 23.0329 2.85718 23.9674C1.89676 24.2623 1.75555 25.8353 2.85718 26.051C4.30776 26.3345 5.70026 26.2247 7.16451 26.0894C9.01759 25.918 10.907 26.0109 12.7666 25.9949C16.7721 25.9603 20.776 25.9239 24.7807 26.0442C28.7421 26.1627 32.6991 26.4121 36.6568 26.6113C38.2081 26.6894 39.7382 26.7471 41.2894 26.6839C42.8943 26.6184 44.7963 26.3826 46.2967 27.0772C46.2967 26.4552 46.2967 25.8333 46.2967 25.2113C43.8231 26.4768 40.2239 26.0408 37.5032 26.282C33.6718 26.6219 29.8324 26.8757 25.9921 27.1004C18.8439 27.518 11.5965 27.867 4.63018 29.6426C3.46147 29.9404 3.68814 31.8321 4.91759 31.7644C12.4176 31.3522 19.8836 31.3754 27.3873 31.2522C30.3405 31.2036 33.2918 31.1008 36.2458 31.0906C37.5853 31.0864 38.9235 31.115 40.2613 31.189C41.4357 31.2535 44.5853 30.9443 45.1894 32.1789C45.4048 31.6502 45.6198 31.1211 45.8349 30.5919C38.6605 33.3228 30.8685 31.4266 23.4573 32.2549C20.4144 32.5945 17.3726 32.7894 14.3223 33.064C11.6455 33.3055 8.75522 33.6232 6.40234 35.0215C5.76614 35.4 5.6328 36.5464 6.40234 36.8874C10.4367 38.6734 16.2262 37.4321 20.3882 37.175C24.0683 36.9471 27.7641 36.9874 31.4483 37.0325C34.7256 37.0721 38.6748 36.5219 41.802 37.6138C41.7162 36.9556 41.6301 36.2974 41.5438 35.6392C39.6759 36.5337 36.4496 35.8412 34.4231 35.8585C31.4637 35.8839 28.5084 36.0101 25.5604 36.2725C20.2148 36.7489 14.9443 37.5991 9.68509 38.6573C8.48426 38.8991 8.76309 40.8294 9.97205 40.7793C15.0203 40.5695 20.0894 40.7447 25.1435 40.6258C29.0909 40.5325 33.2718 40.0919 37.208 40.5592C37.1121 39.8519 37.0166 39.1447 36.9211 38.4372C33.5426 39.0929 30.0576 38.9636 26.6435 39.327C22.7161 39.7451 18.7012 40.2699 14.8455 41.1346C13.6573 41.4012 13.9156 43.3156 15.1325 43.2566C21.8055 42.933 28.6015 41.9303 35.2621 42.9055C35.1759 42.2471 35.0898 41.5891 35.0036 40.9313C30.1808 43.409 23.9929 43.0915 18.7748 44.2435C17.514 44.522 17.9114 46.2702 19.0616 46.3655C23.4651 46.7314 27.5361 48.4114 31.8958 46.7419C33.1828 46.2486 32.6247 44.1592 31.3214 44.6582C27.2037 46.2354 23.2286 44.5511 19.0616 44.2052C19.1579 44.9123 19.2532 45.6194 19.3489 46.3271C24.8051 45.1221 31.0433 45.3916 36.0942 42.7962C36.873 42.3962 36.7698 40.9586 35.8356 40.822C28.9563 39.8153 22.027 40.7621 15.1324 41.0962C15.2282 41.8033 15.3239 42.5107 15.4194 43.2182C19.4509 42.3139 23.6599 41.7444 27.7766 41.3769C31.0165 41.0875 34.2904 41.1424 37.495 40.5209C38.7938 40.2684 38.3181 38.5303 37.208 38.3988C33.2718 37.9318 29.0908 38.3723 25.1435 38.4655C20.0894 38.5844 15.0203 38.4094 9.97201 38.6189C10.0678 39.3263 10.1637 40.0334 10.259 40.7409C16.1253 39.5604 22.0038 38.6553 27.9774 38.2417C30.9258 38.0377 33.8861 38.0114 36.8401 38.0071C38.8341 38.0043 40.7674 38.3988 42.6341 37.5051C43.5463 37.0683 43.1796 35.811 42.3763 35.5303C39.9507 34.6836 37.3767 34.9659 34.8535 34.9248C31.1649 34.8651 27.4766 34.8118 23.7869 34.8789C20.116 34.9455 16.4572 35.311 12.7916 35.4919C11.2438 35.5683 8.92097 35.6541 7.49272 35.0216C7.49272 35.6435 7.49272 36.2655 7.49272 36.8875C9.99314 35.4004 13.2462 35.2946 16.0712 35.0797C19.0806 34.8515 22.0713 34.5059 25.0748 34.2578C32.1807 33.671 39.5296 35.2938 46.4093 32.6754C47.0906 32.4161 47.382 31.7565 47.0548 31.0886C45.9328 28.7969 42.382 29.175 40.2613 29.0287C36.797 28.7891 33.2958 28.9561 29.8291 29.0389C21.5152 29.237 13.2293 29.1471 4.91755 29.6041C5.01326 30.3114 5.1088 31.0185 5.20493 31.7261C12.518 29.862 20.1333 29.6139 27.6331 29.1637C31.4742 28.933 35.3108 28.6456 39.143 28.295C41.9084 28.0417 44.8393 28.3801 47.3869 27.0773C48.0711 26.7275 48.1141 25.548 47.3869 25.2114C45.1337 24.1687 42.5714 24.4848 40.1604 24.5659C36.1946 24.6988 32.1461 24.2036 28.1839 24.0181C23.903 23.8177 19.6245 23.7792 15.3396 23.8114C13.3353 23.8264 11.3312 23.8488 9.32689 23.8569C7.38968 23.8644 5.3458 24.3421 3.43114 23.9675C3.43114 24.662 3.43114 25.3565 3.43114 26.0511C6.79355 25.0185 10.5367 25.1088 14.0231 24.8655C17.9219 24.5937 21.8203 24.3202 25.7242 24.1388C29.508 23.9629 33.2905 23.7746 37.0747 23.6114C40.0914 23.4809 43.5869 23.9911 46.491 23.0718C47.5532 22.7354 47.4849 21.351 46.491 20.9882C43.4085 19.8632 39.8646 19.8616 36.6251 19.6087C32.8064 19.3106 28.9962 19.2303 25.1663 19.2534C21.3968 19.2768 17.6291 19.4378 13.8709 19.7286C10.34 20.0016 6.75134 20.8969 3.21514 20.8079C3.31089 21.5151 3.40664 22.2223 3.50193 22.9299C10.4576 21.3358 17.5372 20.5691 24.6338 19.9264C31.3421 19.3193 38.1137 19.4051 44.7882 18.4608C46.0341 18.2844 45.6707 16.3691 44.5008 16.3388C37.3479 16.1518 30.234 15.331 23.0874 15.0898C19.4372 14.9666 15.7788 15.2016 12.1418 15.489C9.09789 15.7295 6.00155 15.7169 2.99909 16.3063C1.81089 16.5396 2.07247 18.5484 3.28584 18.4283C9.60422 17.8021 15.8524 16.6711 22.1435 15.8374C28.7218 14.9658 35.3499 14.7534 41.9471 14.1011C43.3097 13.9666 43.365 11.9711 41.9471 11.9408C29.9669 11.6855 17.9797 9.90577 6.04884 11.8373C6.24034 12.5318 6.43197 13.2264 6.62347 13.9209C11.7568 12.6324 17.0473 12.5286 22.2976 12.1146C25.0836 11.8948 27.8584 11.5391 30.6466 11.3314C33.0356 11.1538 35.4796 11.256 37.8361 10.7995C38.7735 10.6176 38.867 9.26268 38.0942 8.82468C34.8861 7.00698 30.1681 7.04273 26.5854 6.84193C21.6283 6.56385 16.6811 6.94277 11.7278 7.11714C11.8236 7.82427 11.9191 8.53139 12.0152 9.23914C15.5191 8.59685 18.9423 7.54235 22.4604 6.98381C24.2161 6.70514 25.9917 6.54577 27.7596 6.36856C29.1515 6.22889 30.4694 6.31327 31.8072 5.83398C32.7796 5.48498 32.8914 4.05243 31.8072 3.75039C29.5592 3.12502 27.2257 3.17173 24.9133 3.24348C22.6415 3.31402 20.1882 3.11485 18.038 3.96302C16.7572 4.46802 17.3148 6.55785 18.6117 6.04648Z" fill="#E52226"/>
<path d="M18.6118 5.37463C20.4034 4.66788 22.3718 4.81546 24.2651 4.75388C26.5925 4.67888 28.9657 4.53109 31.2324 5.162C31.2324 4.4675 31.2324 3.77296 31.2324 3.07842C29.8559 3.57259 28.399 3.47213 26.9618 3.61642C25.265 3.78634 23.5733 3.9855 21.8861 4.22863C18.3646 4.73617 14.94 5.84205 11.4403 6.48355C10.232 6.7055 10.5247 8.64763 11.7277 8.6055C16.1501 8.45021 20.5654 8.13963 24.9928 8.25021C27.2851 8.30755 29.6002 8.48171 31.8713 8.79309C33.5198 9.0193 35.5352 9.18638 37.0035 10.0185C37.0897 9.36017 37.1759 8.70205 37.2621 8.04371C34.5812 8.56321 31.699 8.40713 28.9766 8.62946C26.2498 8.85263 23.5341 9.19613 20.8051 9.39571C15.8536 9.75767 10.8865 9.95142 6.0488 11.1653C4.67155 11.5114 5.27909 13.466 6.62343 13.2488C18.3367 11.3523 30.1852 13.1785 41.9471 13.4291C41.9471 12.7088 41.9471 11.9891 41.9471 11.2687C35.623 11.8941 29.2738 12.1307 22.9616 12.9008C16.389 13.7029 9.8783 14.9425 3.2858 15.5958C3.38176 16.3029 3.47751 17.01 3.5728 17.7178C6.64072 17.1151 9.86739 17.157 12.981 16.911C16.6269 16.6228 20.2784 16.4832 23.9345 16.6068C30.7978 16.8385 37.6303 17.6473 44.5007 17.8271C44.4056 17.1198 44.3096 16.4127 44.2137 15.7051C37.1966 16.6983 30.0331 16.5966 22.9756 17.2456C16.2438 17.8641 9.52426 18.6629 2.92809 20.1743C1.70876 20.454 2.02339 22.2664 3.21505 22.2963C6.50451 22.379 9.79643 21.5782 13.0666 21.284C16.8219 20.946 20.5945 20.806 24.3638 20.7503C27.9099 20.6983 31.4441 20.7562 34.9844 20.9802C38.5353 21.2048 42.5471 21.1697 45.917 22.3998C45.917 21.7052 45.917 21.0107 45.917 20.3162C44.3491 20.8127 42.717 20.654 41.0958 20.6325C39.2247 20.608 37.3328 20.7664 35.4645 20.8499C31.6636 21.0198 27.862 21.1963 24.062 21.3865C20.1528 21.5829 16.2485 21.8795 12.3434 22.15C9.18968 22.368 5.90147 22.3609 2.85718 23.2955C1.89676 23.5904 1.75555 25.1634 2.85718 25.379C4.30776 25.6625 5.70026 25.5528 7.16451 25.4175C9.01759 25.2461 10.907 25.339 12.7666 25.3229C16.7721 25.2884 20.776 25.252 24.7807 25.3723C28.7421 25.4908 32.6991 25.7402 36.6568 25.9394C38.2081 26.0175 39.7382 26.0752 41.2894 26.012C42.8943 25.9465 44.7963 25.7108 46.2967 26.4053C46.2967 25.7833 46.2967 25.1613 46.2967 24.5394C43.8231 25.8048 40.2239 25.3689 37.5032 25.6101C33.6718 25.95 29.8324 26.2038 25.9921 26.4284C18.8439 26.8461 11.5965 27.1951 4.63018 28.9707C3.46147 29.2685 3.68814 31.1602 4.91759 31.0925C12.4176 30.6803 19.8836 30.7035 27.3873 30.5803C30.3405 30.5317 33.2918 30.4289 36.2458 30.4187C37.5853 30.4145 38.9235 30.4431 40.2613 30.5171C41.4357 30.5815 44.5853 30.2724 45.1894 31.507C45.4048 30.9783 45.6199 30.4493 45.8349 29.92C38.6605 32.6508 30.8685 30.7548 23.4573 31.583C20.4144 31.9226 17.3726 32.1175 14.3223 32.3921C11.6455 32.6335 8.75522 32.9513 6.40234 34.3497C5.76614 34.7281 5.6328 35.8745 6.40234 36.2155C10.4367 38.0015 16.2262 36.7603 20.3882 36.5031C24.0683 36.2753 27.7641 36.3155 31.4483 36.3606C34.7256 36.4003 38.6748 35.8501 41.802 36.9419C41.7162 36.2838 41.6301 35.6255 41.5438 34.9673C39.6759 35.8618 36.4496 35.1693 34.4231 35.1866C31.4637 35.212 28.5084 35.3383 25.5604 35.6007C20.2148 36.0771 14.9443 36.9273 9.68509 37.9854C8.48426 38.2273 8.76309 40.1575 9.97205 40.1074C15.0203 39.8976 20.0894 40.0728 25.1435 39.954C29.0909 39.8606 33.2718 39.42 37.208 39.8873C37.1121 39.18 37.0166 38.4729 36.9211 37.7653C33.5426 38.421 30.0576 38.2918 26.6435 38.6551C22.7161 39.0732 18.7012 39.598 14.8455 40.4627C13.6573 40.7294 13.9156 42.6438 15.1325 42.5847C21.8055 42.2611 28.6015 41.2585 35.2621 42.2336C35.1759 41.5753 35.0898 40.9171 35.0036 40.2594C30.1808 42.7371 23.9929 42.4196 18.7748 43.5717C17.514 43.8501 17.9114 45.5983 19.0616 45.6936C23.4651 46.0595 27.5361 47.7396 31.8958 46.07C33.1828 45.5768 32.6247 43.4873 31.3214 43.9863C27.2037 45.5635 23.2286 43.8792 19.0616 43.5333C19.1579 44.2404 19.2532 44.9475 19.3489 45.6553C24.8051 44.4501 31.0433 44.7197 36.0942 42.1243C36.873 41.7243 36.7698 40.2867 35.8356 40.1501C28.9563 39.1434 22.027 40.0901 15.1324 40.4243C15.2282 41.1315 15.3239 41.8388 15.4194 42.5463C19.4509 41.642 23.6599 41.0725 27.7766 40.705C31.0165 40.4156 34.2904 40.4705 37.495 39.8489C38.7938 39.5965 38.3181 37.8585 37.208 37.727C33.2718 37.2599 29.0908 37.7003 25.1435 37.7936C20.0894 37.9125 15.0203 37.7375 9.97201 37.9471C10.0678 38.6544 10.1637 39.3615 10.259 40.069C16.1253 38.8885 22.0038 37.9835 27.9774 37.5698C30.9258 37.3658 33.8861 37.3396 36.8401 37.3353C38.8341 37.3324 40.7674 37.727 42.6341 36.8333C43.5463 36.3965 43.1796 35.1392 42.3763 34.8585C39.9507 34.0117 37.3767 34.294 34.8535 34.253C31.1649 34.1932 27.4766 34.14 23.7869 34.207C20.116 34.2737 16.4572 34.6391 12.7916 34.82C11.2438 34.8965 8.92097 34.9822 7.49272 34.3497C7.49272 34.9717 7.49272 35.5936 7.49272 36.2156C9.99314 34.7286 13.2462 34.6227 16.0712 34.4078C19.0806 34.1796 22.0713 33.834 25.0748 33.5859C32.1807 32.9991 39.5296 34.6219 46.4093 32.0036C47.0906 31.7442 47.382 31.0846 47.0548 30.4168C45.9328 28.1251 42.382 28.5031 40.2613 28.3568C36.797 28.1171 33.2958 28.2843 29.8291 28.367C21.5152 28.5651 13.2293 28.4753 4.91755 28.9322C5.01326 29.6396 5.1088 30.3467 5.20493 31.0542C12.518 29.1902 20.1333 28.942 27.6331 28.4918C31.4742 28.2611 35.3108 27.9737 39.143 27.6231C41.9084 27.3698 44.8393 27.7083 47.3869 26.4054C48.0711 26.0556 48.1141 24.8761 47.3869 24.5395C45.1337 23.4968 42.5714 23.8129 40.1604 23.894C36.1946 24.0269 32.1461 23.5318 28.1839 23.3462C23.903 23.1458 19.6245 23.1074 15.3396 23.1395C13.3353 23.1546 11.3312 23.1769 9.32689 23.185C7.38968 23.1926 5.3458 23.6702 3.43114 23.2956C3.43114 23.9901 3.43114 24.6846 3.43114 25.3792C6.79355 24.3466 10.5367 24.4369 14.0231 24.1936C17.9219 23.9218 21.8203 23.6483 25.7242 23.467C29.508 23.291 33.2905 23.1027 37.0747 22.9395C40.0914 22.809 43.5869 23.3192 46.491 22.3999C47.5532 22.0635 47.4849 20.6792 46.491 20.3163C43.4085 19.1913 39.8646 19.1897 36.6251 18.9368C32.8064 18.6387 28.9962 18.5584 25.1663 18.5815C21.3968 18.6049 17.6291 18.7659 13.8709 19.0568C10.34 19.3298 6.75134 20.2251 3.21514 20.136C3.31089 20.8432 3.40664 21.5505 3.50193 22.258C10.4576 20.6639 17.5372 19.8973 24.6338 19.2545C31.3421 18.6474 38.1137 18.7332 44.7882 17.7889C46.0341 17.6125 45.6707 15.6972 44.5008 15.667C37.3479 15.4799 30.234 14.6592 23.0874 14.418C19.4372 14.2948 15.7788 14.5297 12.1418 14.8172C9.09789 15.0576 6.00155 15.045 2.99909 15.6344C1.81089 15.8678 2.07247 17.8765 3.28584 17.7564C9.60422 17.1302 15.8524 15.9993 22.1435 15.1655C28.7218 14.294 35.3499 14.0816 41.9471 13.4293C43.3097 13.2948 43.365 11.2993 41.9471 11.2689C29.9669 11.0136 17.9797 9.23396 6.04884 11.1655C6.24034 11.86 6.43197 12.5545 6.62347 13.249C11.7568 11.9606 17.0473 11.8567 22.2976 11.4427C25.0836 11.223 27.8584 10.8673 30.6466 10.6596C33.0356 10.4819 35.4796 10.5842 37.8361 10.1276C38.7735 9.94571 38.867 8.59084 38.0942 8.15284C34.8861 6.33513 30.1681 6.37088 26.5854 6.17009C21.6283 5.892 16.6811 6.27092 11.7278 6.44525C11.8236 7.15242 11.9191 7.8595 12.0152 8.56725C15.5191 7.92496 18.9423 6.87046 22.4604 6.31192C24.2161 6.03325 25.9917 5.87392 27.7596 5.69667C29.1515 5.557 30.4694 5.64138 31.8072 5.16209C32.7796 4.81309 32.8914 3.38055 31.8072 3.0785C29.5592 2.45313 27.2257 2.49984 24.9133 2.57163C22.6415 2.64213 20.1882 2.44296 18.038 3.29113C16.7573 3.79617 17.3148 5.886 18.6118 5.37463Z" fill="#E52226"/>
<path d="M14.0115 33.1405C14.0115 33.1405 13.688 26.2071 14.2382 24.8788C14.2382 24.8788 14.6597 22.9682 16.3437 22.5459C16.3437 22.5459 23.439 21.7044 33.1252 22.5459C33.1252 22.5459 35.0045 22.9353 35.2631 24.9758C35.2631 24.9758 36.0407 30.711 35.2314 34.6629C35.2314 34.6629 35.0045 36.7033 32.672 36.9624C32.672 36.9624 23.439 37.6439 16.7002 36.9624C16.7002 36.9624 14.109 36.9299 14.0115 33.1405Z" fill="white"/>
<path d="M20.0046 14.9797L18.9729 11.14H17.3877L19.2404 16.9476V20.9216H20.6924V16.9476L22.4697 11.1211H21.0367L20.0046 14.9797Z" fill="white"/>
<path d="M29.9587 13.6055V19.2031C28.8379 20.3226 28.7932 19.4706 28.7932 19.4706V13.6439H27.5135L27.4932 19.776C27.4932 20.4407 27.7444 20.6901 27.7444 20.6901C28.7302 21.6761 29.9586 20.1395 29.9586 20.1395V20.8842H31.2578V13.6055H29.9587Z" fill="white"/>
<path d="M24.437 13.4704C22.4812 13.4704 22.5416 15.4377 22.5416 15.4377C22.5416 15.4377 22.5264 17.3875 22.5264 19.2013C22.5264 21.0022 24.437 20.9778 24.437 20.9778C26.4394 20.9778 26.366 19.1056 26.366 19.1056V15.303C26.366 13.3436 24.437 13.4704 24.437 13.4704ZM24.9728 19.0237C24.9728 19.0237 25.0303 19.7107 24.4876 19.7107C24.4876 19.7107 23.8664 19.8625 23.8664 19.0237V15.3359C23.8664 15.3359 23.8412 14.7774 24.4366 14.7495C24.4366 14.7495 24.9567 14.728 24.9728 15.3524V19.0237Z" fill="white"/>
<path d="M19.9416 27.2372L21.2719 27.2188V33.1952C21.2719 33.1952 21.2343 34.1318 22.4331 32.9326V27.2188H23.8016V34.6373H22.4513V33.8513C22.4513 33.8513 19.9229 36.1176 19.9229 33.42C19.9229 30.7227 19.9416 27.2372 19.9416 27.2372Z" fill="#E51E2A"/>
<path d="M16.692 34.6002V26.1132H15.1172V24.7461H19.745V26.1321H18.1721V34.6002H16.692Z" fill="#E51E2A"/>
<path d="M26.2609 27.9202V24.7578H24.9141V34.619L26.2609 34.6375V33.8889C28.7125 35.9093 28.8068 33.3092 28.8068 33.3092V28.7438C28.6376 25.7308 26.2609 27.9202 26.2609 27.9202ZM27.4771 32.9531C27.4771 32.9531 27.3462 33.7574 26.2423 33.1214V28.6684C26.2423 28.6684 27.4771 27.77 27.4771 28.9869C27.4771 30.2029 27.4771 32.9531 27.4771 32.9531Z" fill="#E51E2A"/>
<path d="M33.835 31.1566V29.0503C33.835 29.0503 33.7273 27.1056 31.8911 27.1056C31.8911 27.1056 29.8789 27.0519 29.8789 29.1174C29.8789 31.1833 29.8789 32.8038 29.8789 32.8038C29.8789 32.8038 29.9334 34.6664 32.0257 34.6664C32.0257 34.6664 33.8208 34.5989 33.8208 33.0469V32.0068H32.485V32.7634C32.485 32.7634 32.4435 33.452 31.8911 33.452C31.8911 33.452 31.1887 33.5465 31.1887 32.6554C31.1887 31.7642 31.1887 31.1566 31.1887 31.1566H33.835ZM31.2021 29.1174C31.2021 29.1174 31.1887 28.3481 31.8229 28.3481C32.4574 28.3481 32.5119 29.1304 32.5119 29.1304V30.0225H31.1887L31.2021 29.1174Z" fill="#E51E2A"/>
</svg>
