<svg width="28" height="28" viewBox="0 0 28 28" fill="none" xmlns="http://www.w3.org/2000/svg">
<path d="M9.98691 2.63027C11.0424 2.20565 12.2019 2.29432 13.3172 2.2573C14.6883 2.21224 16.0863 2.12346 17.4216 2.50254C17.4216 2.08523 17.4216 1.66795 17.4216 1.25064C16.6108 1.54751 15.7525 1.4872 14.9058 1.5739C13.9063 1.67599 12.9097 1.79565 11.9158 1.94173C9.84131 2.24666 7.82389 2.91113 5.7623 3.29657C5.05048 3.42993 5.22289 4.59681 5.93159 4.57153C8.53677 4.47824 11.1378 4.29163 13.746 4.35805C15.0963 4.3925 16.4601 4.49717 17.798 4.68423C18.7691 4.82017 19.9564 4.92056 20.8213 5.42051C20.8721 5.02493 20.9229 4.62953 20.9736 4.23395C19.3944 4.54611 17.6965 4.45233 16.0928 4.58592C14.4864 4.72001 12.8866 4.92639 11.279 5.04631C8.36208 5.26382 5.43601 5.38018 2.58619 6.10952C1.77486 6.31748 2.13276 7.49192 2.9247 7.36139C9.82489 6.22188 16.8047 7.31913 23.7335 7.46972C23.7335 7.03694 23.7335 6.60451 23.7335 6.17168C20.0081 6.54743 16.2678 6.6896 12.5493 7.15232C8.67749 7.6342 4.84211 8.37906 0.958531 8.77153C1.01506 9.1964 1.07146 9.62127 1.1276 10.0465C2.93488 9.6844 4.83568 9.70956 6.66989 9.56181C8.81767 9.38864 10.9687 9.30472 13.1225 9.37898C17.1656 9.51822 21.1906 10.0041 25.2379 10.1122C25.1818 9.68721 25.1253 9.26237 25.0688 8.83725C20.9351 9.43395 16.7151 9.37287 12.5576 9.76281C8.592 10.1345 4.63357 10.6144 0.747833 11.5225C0.0295346 11.6905 0.214877 12.7795 0.916877 12.7975C2.85467 12.8472 4.79391 12.366 6.72031 12.1893C8.93254 11.9862 11.1549 11.9021 13.3754 11.8686C15.4644 11.8373 17.5464 11.8722 19.6319 12.0067C21.7237 12.1417 24.087 12.1206 26.0722 12.8596C26.0722 12.4424 26.0722 12.025 26.0722 11.6078C25.1486 11.9061 24.1871 11.8107 23.2321 11.7978C22.1298 11.7831 21.0153 11.8783 19.9147 11.9285C17.6757 12.0306 15.4362 12.1365 13.1976 12.2509C10.8948 12.3688 8.59477 12.547 6.2943 12.7095C4.43647 12.8406 2.49942 12.8363 0.706057 13.3978C0.140284 13.575 0.0570993 14.5201 0.706057 14.6497C1.56058 14.8201 2.38089 14.7541 3.24347 14.6728C4.3351 14.5698 5.44814 14.6257 6.5436 14.616C8.90323 14.5953 11.2619 14.5734 13.621 14.6457C15.9547 14.7169 18.2857 14.8667 20.6171 14.9864C21.531 15.0333 22.4323 15.068 23.3461 15.03C24.2916 14.9907 25.412 14.849 26.2959 15.2663C26.2959 14.8926 26.2959 14.5189 26.2959 14.1452C24.8387 14.9056 22.7184 14.6436 21.1157 14.7885C18.8587 14.9927 16.5969 15.1453 14.3347 15.2802C10.1237 15.5312 5.85432 15.7408 1.75051 16.8077C1.06204 16.9866 1.19557 18.1232 1.91983 18.0826C6.33801 17.8349 10.7361 17.8488 15.1565 17.7748C16.8962 17.7456 18.6348 17.6839 20.375 17.6778C21.1641 17.6752 21.9524 17.6924 22.7405 17.7369C23.4323 17.7756 25.2877 17.5898 25.6436 18.3316C25.7705 18.0139 25.8972 17.6961 26.0238 17.3781C21.7974 19.0189 17.2073 17.8796 12.8414 18.3773C11.0489 18.5813 9.25693 18.6984 7.46006 18.8634C5.88316 19.0085 4.18054 19.1994 2.79448 20.0396C2.4197 20.267 2.34115 20.9557 2.79448 21.1607C5.1711 22.2338 8.58161 21.488 11.0334 21.3335C13.2013 21.1966 15.3785 21.2207 17.5488 21.2479C19.4794 21.2717 21.8059 20.9411 23.6481 21.5971C23.5976 21.2017 23.5468 20.8061 23.496 20.4107C22.3956 20.9482 20.495 20.5321 19.3013 20.5425C17.5579 20.5577 15.817 20.6335 14.0803 20.7912C10.9313 21.0775 7.82647 21.5883 4.72832 22.2241C4.02092 22.3694 4.18518 23.5292 4.89736 23.499C7.87124 23.373 10.8574 23.4783 13.8347 23.4068C16.1601 23.3508 18.6231 23.086 20.9418 23.3668C20.8853 22.9418 20.829 22.5169 20.7728 22.0918C18.7826 22.4858 16.7296 22.4081 14.7184 22.6265C12.4047 22.8777 10.0396 23.193 7.76827 23.7125C7.06831 23.8727 7.22049 25.023 7.93732 24.9875C11.8683 24.7931 15.8718 24.1906 19.7955 24.7766C19.7447 24.381 19.694 23.9856 19.6432 23.5904C16.8021 25.0791 13.1569 24.8883 10.083 25.5805C9.34026 25.7478 9.57435 26.7982 10.2519 26.8555C12.846 27.0753 15.2442 28.0847 17.8124 27.0816C18.5706 26.7852 18.2418 25.5298 17.4741 25.8296C15.0484 26.7773 12.7067 25.7653 10.2519 25.5575C10.3087 25.9823 10.3648 26.4072 10.4212 26.8324C13.6354 26.1084 17.3103 26.2703 20.2857 24.7109C20.7445 24.4706 20.6837 23.6068 20.1334 23.5247C16.0808 22.9199 11.9988 23.4887 7.9373 23.6895C7.9937 24.1144 8.05011 24.5393 8.10636 24.9645C10.4813 24.4211 12.9608 24.0789 15.3859 23.8581C17.2944 23.6843 19.2231 23.7172 21.1109 23.3438C21.876 23.1921 21.5958 22.1478 20.9418 22.0688C18.623 21.7882 16.1601 22.0528 13.8347 22.1089C10.8574 22.1803 7.87122 22.0751 4.89734 22.201C4.95375 22.6261 5.01027 23.0509 5.06641 23.476C8.52221 22.7667 11.9852 22.2229 15.5042 21.9744C17.241 21.8518 18.9849 21.836 20.7251 21.8334C21.8997 21.8317 23.0386 22.0688 24.1383 21.5318C24.6756 21.2694 24.4596 20.5139 23.9864 20.3453C22.5575 19.8365 21.0412 20.0061 19.5548 19.9815C17.3819 19.9456 15.2092 19.9136 13.0356 19.9539C10.8731 19.9939 8.71772 20.2135 6.55831 20.3222C5.64652 20.3681 4.27818 20.4196 3.43681 20.0396C3.43681 20.4133 3.43681 20.787 3.43681 21.1607C4.90978 20.2672 6.82615 20.2036 8.49033 20.0745C10.2631 19.9374 12.0249 19.7298 13.7942 19.5807C17.9803 19.2281 22.3094 20.2031 26.3622 18.63C26.7635 18.4741 26.9352 18.0778 26.7425 17.6765C26.0815 16.2996 23.9898 16.5268 22.7405 16.4388C20.6997 16.2949 18.6371 16.3953 16.595 16.445C11.6973 16.564 6.81621 16.51 1.9198 16.7846C1.97619 17.2096 2.03247 17.6344 2.08909 18.0596C6.39717 16.9395 10.8833 16.7904 15.3013 16.52C17.5641 16.3813 19.8242 16.2087 22.0817 15.998C23.7108 15.8458 25.4373 16.0492 26.9381 15.2664C27.3411 15.0562 27.3665 14.3475 26.9381 14.1453C25.6108 13.5188 24.1014 13.7087 22.6811 13.7574C20.3448 13.8373 17.9599 13.5398 15.6258 13.4283C13.104 13.3079 10.5835 13.2848 8.05931 13.3041C6.8786 13.3131 5.69801 13.3266 4.5173 13.3315C3.37611 13.336 2.17208 13.623 1.04417 13.3979C1.04417 13.8152 1.04417 14.2325 1.04417 14.6498C3.02494 14.0294 5.22998 14.0836 7.2838 13.9374C9.58054 13.7742 11.8771 13.6098 14.1768 13.5009C16.4058 13.3951 18.6341 13.282 20.8633 13.1839C22.6404 13.1055 24.6996 13.4121 26.4103 12.8597C27.0361 12.6576 26.9959 11.8258 26.4103 11.6078C24.5945 10.9319 22.5068 10.9309 20.5984 10.779C18.3489 10.5998 16.1043 10.5516 13.8482 10.5655C11.6276 10.5795 9.40803 10.6763 7.19416 10.851C5.1141 11.015 3.00007 11.553 0.916926 11.4995C0.973332 11.9244 1.02974 12.3493 1.08587 12.7745C5.18342 11.8167 9.35391 11.356 13.5344 10.9699C17.4863 10.6051 21.4754 10.6566 25.4072 10.0892C26.1412 9.98325 25.9271 8.83249 25.2379 8.81427C21.0242 8.70191 16.8335 8.20877 12.6235 8.06382C10.4732 7.98982 8.31809 8.13101 6.17554 8.30368C4.3824 8.44818 2.55838 8.44059 0.789658 8.79474C0.0896956 8.93493 0.243792 10.1419 0.95858 10.0697C4.68068 9.69347 8.36144 9.01397 12.0675 8.513C15.9427 7.98934 19.8472 7.86171 23.7336 7.46982C24.5363 7.38898 24.5688 6.18998 23.7336 6.17178C16.6762 6.01839 9.61458 4.94908 2.58624 6.10962C2.69905 6.5269 2.81193 6.94421 2.92474 7.36149C5.94877 6.58736 9.06533 6.52495 12.1582 6.2762C13.7994 6.14417 15.434 5.93044 17.0765 5.80565C18.4839 5.69892 19.9236 5.76036 21.3118 5.48605C21.864 5.37675 21.9191 4.56269 21.4639 4.29952C19.574 3.20737 16.7947 3.22885 14.6842 3.10821C11.7639 2.94113 8.8496 3.16879 5.93166 3.27357C5.98807 3.69843 6.04435 4.1233 6.10095 4.54854C8.16505 4.16263 10.1817 3.52905 12.2541 3.19345C13.2884 3.02602 14.3344 2.93026 15.3759 2.82379C16.1958 2.73987 16.9722 2.79057 17.7603 2.50259C18.3331 2.2929 18.3989 1.43217 17.7603 1.25069C16.436 0.874945 15.0613 0.90301 13.6991 0.94612C12.3608 0.988504 10.9156 0.868837 9.64895 1.37845C8.89444 1.68187 9.22289 2.93752 9.98691 2.63027Z" fill="#191918"/>
<path d="M9.98691 2.63027C11.0424 2.20565 12.2019 2.29432 13.3172 2.2573C14.6883 2.21224 16.0863 2.12346 17.4216 2.50254C17.4216 2.08523 17.4216 1.66795 17.4216 1.25064C16.6108 1.54751 15.7525 1.4872 14.9058 1.5739C13.9063 1.67599 12.9097 1.79565 11.9158 1.94173C9.84131 2.24666 7.82389 2.91113 5.7623 3.29657C5.05048 3.42993 5.22289 4.59681 5.93159 4.57153C8.53677 4.47824 11.1378 4.29163 13.746 4.35805C15.0963 4.3925 16.4601 4.49717 17.798 4.68423C18.7691 4.82017 19.9564 4.92056 20.8213 5.42051C20.8721 5.02493 20.9229 4.62953 20.9736 4.23395C19.3944 4.54611 17.6965 4.45233 16.0928 4.58592C14.4864 4.72001 12.8866 4.92639 11.279 5.04631C8.36208 5.26382 5.43601 5.38018 2.58619 6.10952C1.77486 6.31748 2.13276 7.49192 2.9247 7.36139C9.82489 6.22188 16.8047 7.31913 23.7335 7.46972C23.7335 7.03694 23.7335 6.60451 23.7335 6.17168C20.0081 6.54743 16.2678 6.6896 12.5493 7.15232C8.67749 7.6342 4.84211 8.37906 0.958531 8.77153C1.01506 9.1964 1.07146 9.62127 1.1276 10.0465C2.93488 9.6844 4.83568 9.70956 6.66989 9.56181C8.81767 9.38864 10.9687 9.30472 13.1225 9.37898C17.1656 9.51822 21.1906 10.0041 25.2379 10.1122C25.1818 9.68721 25.1253 9.26237 25.0688 8.83725C20.9351 9.43395 16.7151 9.37287 12.5576 9.76281C8.592 10.1345 4.63357 10.6144 0.747833 11.5225C0.0295346 11.6905 0.214877 12.7795 0.916877 12.7975C2.85467 12.8472 4.79391 12.366 6.72031 12.1893C8.93254 11.9862 11.1549 11.9021 13.3754 11.8686C15.4644 11.8373 17.5464 11.8722 19.6319 12.0067C21.7237 12.1417 24.087 12.1206 26.0722 12.8596C26.0722 12.4424 26.0722 12.025 26.0722 11.6078C25.1486 11.9061 24.1871 11.8107 23.2321 11.7978C22.1298 11.7831 21.0153 11.8783 19.9147 11.9285C17.6757 12.0306 15.4362 12.1365 13.1976 12.2509C10.8948 12.3688 8.59477 12.547 6.2943 12.7095C4.43647 12.8406 2.49942 12.8363 0.706057 13.3978C0.140284 13.575 0.0570993 14.5201 0.706057 14.6497C1.56058 14.8201 2.38089 14.7541 3.24347 14.6728C4.3351 14.5698 5.44814 14.6257 6.5436 14.616C8.90323 14.5953 11.2619 14.5734 13.621 14.6457C15.9547 14.7169 18.2857 14.8667 20.6171 14.9864C21.531 15.0333 22.4323 15.068 23.3461 15.03C24.2916 14.9907 25.412 14.849 26.2959 15.2663C26.2959 14.8926 26.2959 14.5189 26.2959 14.1452C24.8387 14.9056 22.7184 14.6436 21.1157 14.7885C18.8587 14.9927 16.5969 15.1453 14.3347 15.2802C10.1237 15.5312 5.85432 15.7408 1.75051 16.8077C1.06204 16.9866 1.19557 18.1232 1.91983 18.0826C6.33801 17.8349 10.7361 17.8488 15.1565 17.7748C16.8962 17.7456 18.6348 17.6839 20.375 17.6778C21.1641 17.6752 21.9524 17.6924 22.7405 17.7369C23.4323 17.7756 25.2877 17.5898 25.6436 18.3316C25.7705 18.0139 25.8972 17.6961 26.0238 17.3781C21.7974 19.0189 17.2073 17.8796 12.8414 18.3773C11.0489 18.5813 9.25693 18.6984 7.46006 18.8634C5.88316 19.0085 4.18054 19.1994 2.79448 20.0396C2.4197 20.267 2.34115 20.9557 2.79448 21.1607C5.1711 22.2338 8.58161 21.488 11.0334 21.3335C13.2013 21.1966 15.3785 21.2207 17.5488 21.2479C19.4794 21.2717 21.8059 20.9411 23.6481 21.5971C23.5976 21.2017 23.5468 20.8061 23.496 20.4107C22.3956 20.9482 20.495 20.5321 19.3013 20.5425C17.5579 20.5577 15.817 20.6335 14.0803 20.7912C10.9313 21.0775 7.82647 21.5883 4.72832 22.2241C4.02092 22.3694 4.18518 23.5292 4.89736 23.499C7.87124 23.373 10.8574 23.4783 13.8347 23.4068C16.1601 23.3508 18.6231 23.086 20.9418 23.3668C20.8853 22.9418 20.829 22.5169 20.7728 22.0918C18.7826 22.4858 16.7296 22.4081 14.7184 22.6265C12.4047 22.8777 10.0396 23.193 7.76827 23.7125C7.06831 23.8727 7.22049 25.023 7.93732 24.9875C11.8683 24.7931 15.8718 24.1906 19.7955 24.7766C19.7447 24.381 19.694 23.9856 19.6432 23.5904C16.8021 25.0791 13.1569 24.8883 10.083 25.5805C9.34026 25.7478 9.57435 26.7982 10.2519 26.8555C12.846 27.0753 15.2442 28.0847 17.8124 27.0816C18.5706 26.7852 18.2418 25.5298 17.4741 25.8296C15.0484 26.7773 12.7067 25.7653 10.2519 25.5575C10.3087 25.9823 10.3648 26.4072 10.4212 26.8324C13.6354 26.1084 17.3103 26.2703 20.2857 24.7109C20.7445 24.4706 20.6837 23.6068 20.1334 23.5247C16.0808 22.9199 11.9988 23.4887 7.9373 23.6895C7.9937 24.1144 8.05011 24.5393 8.10636 24.9645C10.4813 24.4211 12.9608 24.0789 15.3859 23.8581C17.2944 23.6843 19.2231 23.7172 21.1109 23.3438C21.876 23.1921 21.5958 22.1478 20.9418 22.0688C18.623 21.7882 16.1601 22.0528 13.8347 22.1089C10.8574 22.1803 7.87122 22.0751 4.89734 22.201C4.95375 22.6261 5.01027 23.0509 5.06641 23.476C8.52221 22.7667 11.9852 22.2229 15.5042 21.9744C17.241 21.8518 18.9849 21.836 20.7251 21.8334C21.8997 21.8317 23.0386 22.0688 24.1383 21.5318C24.6756 21.2694 24.4596 20.5139 23.9864 20.3453C22.5575 19.8365 21.0412 20.0061 19.5548 19.9815C17.3819 19.9456 15.2092 19.9136 13.0356 19.9539C10.8731 19.9939 8.71772 20.2135 6.55831 20.3222C5.64652 20.3681 4.27818 20.4196 3.43681 20.0396C3.43681 20.4133 3.43681 20.787 3.43681 21.1607C4.90978 20.2672 6.82615 20.2036 8.49033 20.0745C10.2631 19.9374 12.0249 19.7298 13.7942 19.5807C17.9803 19.2281 22.3094 20.2031 26.3622 18.63C26.7635 18.4741 26.9352 18.0778 26.7425 17.6765C26.0815 16.2996 23.9898 16.5268 22.7405 16.4388C20.6997 16.2949 18.6371 16.3953 16.595 16.445C11.6973 16.564 6.81621 16.51 1.9198 16.7846C1.97619 17.2096 2.03247 17.6344 2.08909 18.0596C6.39717 16.9395 10.8833 16.7904 15.3013 16.52C17.5641 16.3813 19.8242 16.2087 22.0817 15.998C23.7108 15.8458 25.4373 16.0492 26.9381 15.2664C27.3411 15.0562 27.3665 14.3475 26.9381 14.1453C25.6108 13.5188 24.1014 13.7087 22.6811 13.7574C20.3448 13.8373 17.9599 13.5398 15.6258 13.4283C13.104 13.3079 10.5835 13.2848 8.05931 13.3041C6.8786 13.3131 5.69801 13.3266 4.5173 13.3315C3.37611 13.336 2.17208 13.623 1.04417 13.3979C1.04417 13.8152 1.04417 14.2325 1.04417 14.6498C3.02494 14.0294 5.22998 14.0836 7.2838 13.9374C9.58054 13.7742 11.8771 13.6098 14.1768 13.5009C16.4058 13.3951 18.6341 13.282 20.8633 13.1839C22.6404 13.1055 24.6996 13.4121 26.4103 12.8597C27.0361 12.6576 26.9959 11.8258 26.4103 11.6078C24.5945 10.9319 22.5068 10.9309 20.5984 10.779C18.3489 10.5998 16.1043 10.5516 13.8482 10.5655C11.6276 10.5795 9.40803 10.6763 7.19416 10.851C5.1141 11.015 3.00007 11.553 0.916926 11.4995C0.973332 11.9244 1.02974 12.3493 1.08587 12.7745C5.18342 11.8167 9.35391 11.356 13.5344 10.9699C17.4863 10.6051 21.4754 10.6566 25.4072 10.0892C26.1412 9.98325 25.9271 8.83249 25.2379 8.81427C21.0242 8.70191 16.8335 8.20877 12.6235 8.06382C10.4732 7.98982 8.31809 8.13101 6.17554 8.30368C4.3824 8.44818 2.55838 8.44059 0.789658 8.79474C0.0896956 8.93493 0.243792 10.1419 0.95858 10.0697C4.68068 9.69347 8.36144 9.01397 12.0675 8.513C15.9427 7.98934 19.8472 7.86171 23.7336 7.46982C24.5363 7.38898 24.5688 6.18998 23.7336 6.17178C16.6762 6.01839 9.61458 4.94908 2.58624 6.10962C2.69905 6.5269 2.81193 6.94421 2.92474 7.36149C5.94877 6.58736 9.06533 6.52495 12.1582 6.2762C13.7994 6.14417 15.434 5.93044 17.0765 5.80565C18.4839 5.69892 19.9236 5.76036 21.3118 5.48605C21.864 5.37675 21.9191 4.56269 21.4639 4.29952C19.574 3.20737 16.7947 3.22885 14.6842 3.10821C11.7639 2.94113 8.8496 3.16879 5.93166 3.27357C5.98807 3.69843 6.04435 4.1233 6.10095 4.54854C8.16505 4.16263 10.1817 3.52905 12.2541 3.19345C13.2884 3.02602 14.3344 2.93026 15.3759 2.82379C16.1958 2.73987 16.9722 2.79057 17.7603 2.50259C18.3331 2.2929 18.3989 1.43217 17.7603 1.25069C16.436 0.874945 15.0613 0.90301 13.6991 0.94612C12.3608 0.988504 10.9156 0.868837 9.64895 1.37845C8.89444 1.68187 9.22289 2.93752 9.98691 2.63027Z" fill="black" fill-opacity="0.2"/>
<path d="M9.98694 2.22794C11.0424 1.8033 12.2019 1.89197 13.3172 1.85497C14.6883 1.80991 16.0864 1.72111 17.4216 2.10019C17.4216 1.68291 17.4216 1.2656 17.4216 0.848292C16.6108 1.14521 15.7525 1.08485 14.9059 1.17154C13.9063 1.27364 12.9098 1.3933 11.9158 1.53938C9.84134 1.84433 7.82392 2.50878 5.76232 2.89422C5.0505 3.02758 5.22291 4.19448 5.93161 4.16917C8.53679 4.07587 11.1378 3.88926 13.746 3.9557C15.0963 3.99015 16.4601 4.09479 17.798 4.28188C18.7691 4.41779 19.9564 4.51818 20.8214 5.01816C20.8721 4.62261 20.9229 4.22718 20.9737 3.83163C19.3944 4.14376 17.6965 4.04998 16.0928 4.18357C14.4864 4.31765 12.8867 4.52404 11.279 4.64396C8.3621 4.86144 5.43604 4.97785 2.58621 5.70717C1.77489 5.91513 2.13279 7.08957 2.92472 6.95906C9.82491 5.81952 16.8047 6.9168 23.7335 7.06739C23.7335 6.63459 23.7335 6.20216 23.7335 5.76933C20.0081 6.1451 16.2679 6.28725 12.5494 6.74997C8.67751 7.23187 4.84214 7.97668 0.958556 8.36918C1.01508 8.79407 1.07149 9.21891 1.12762 9.64416C2.93491 9.28208 4.83571 9.30721 6.66992 9.15946C8.81769 8.98629 10.9687 8.9024 13.1225 8.97665C17.1656 9.11587 21.1906 9.6018 25.2379 9.70987C25.1818 9.28488 25.1253 8.86004 25.0688 8.4349C20.9351 9.0316 16.7152 8.97052 12.5576 9.36046C8.592 9.73211 4.63357 10.212 0.747833 11.1201C0.0295346 11.2882 0.214877 12.3771 0.916877 12.3951C2.85467 12.4448 4.79391 11.9636 6.72031 11.7869C8.93254 11.5838 11.1549 11.4997 13.3754 11.4662C15.4644 11.435 17.5464 11.4698 19.6319 11.6044C21.7237 11.7393 24.087 11.7182 26.0722 12.4573C26.0722 12.04 26.0722 11.6227 26.0722 11.2054C25.1486 11.5037 24.1871 11.4083 23.2321 11.3954C22.1298 11.3808 21.0153 11.4759 19.9147 11.5261C17.6757 11.6282 15.4362 11.7342 13.1976 11.8485C10.8948 11.9665 8.59477 12.1447 6.2943 12.3072C4.43647 12.4382 2.49942 12.4339 0.706057 12.9955C0.140284 13.1727 0.0570993 14.1178 0.706057 14.2474C1.56058 14.4177 2.38089 14.3518 3.24347 14.2704C4.3351 14.1675 5.44814 14.2233 6.5436 14.2136C8.90323 14.1929 11.2619 14.171 13.621 14.2433C15.9547 14.3145 18.2857 14.4644 20.6171 14.584C21.531 14.6309 22.4323 14.6656 23.3461 14.6276C24.2916 14.5883 25.412 14.4467 26.2959 14.8639C26.2959 14.4902 26.2959 14.1165 26.2959 13.7428C24.8387 14.5032 22.7184 14.2412 21.1157 14.3862C18.8587 14.5904 16.5969 14.7429 14.3346 14.8779C10.1237 15.1288 5.85432 15.3385 1.75051 16.4054C1.06204 16.5843 1.19557 17.7209 1.91983 17.6802C6.33801 17.4325 10.7361 17.4465 15.1565 17.3725C16.8962 17.3433 18.6348 17.2815 20.375 17.2754C21.1641 17.2728 21.9524 17.29 22.7405 17.3345C23.4323 17.3732 25.2877 17.1875 25.6436 17.9292C25.7705 17.6116 25.8972 17.2937 26.0238 16.9757C21.7975 18.6165 17.2073 17.4773 12.8414 17.9749C11.0489 18.179 9.25693 18.2961 7.46006 18.4611C5.88316 18.6061 4.18054 18.797 2.79448 19.6372C2.4197 19.8646 2.34115 20.5534 2.79448 20.7583C5.1711 21.8314 8.58161 21.0856 11.0334 20.9311C13.2013 20.7942 15.3785 20.8184 17.5488 20.8455C19.4794 20.8693 21.8059 20.5388 23.6481 21.1948C23.5976 20.7993 23.5468 20.4038 23.496 20.0084C22.3956 20.5458 20.495 20.1297 19.3013 20.1401C17.5579 20.1554 15.817 20.2312 14.0803 20.3889C10.9313 20.6751 7.82647 21.186 4.72832 21.8217C4.02092 21.967 4.18518 23.1268 4.89736 23.0967C7.87124 22.9707 10.8574 23.0759 13.8347 23.0045C16.1601 22.9484 18.6231 22.6837 20.9418 22.9645C20.8853 22.5395 20.829 22.1146 20.7728 21.6895C18.7826 22.0835 16.7296 22.0058 14.7184 22.2241C12.4047 22.4753 10.0396 22.7907 7.76827 23.3102C7.06831 23.4704 7.22049 24.6207 7.93732 24.5851C11.8683 24.3907 15.8718 23.7883 19.7955 24.3742C19.7447 23.9787 19.694 23.5832 19.6432 23.188C16.8021 24.6767 13.1569 24.486 10.083 25.1782C9.34026 25.3455 9.57435 26.3958 10.2519 26.4531C12.846 26.673 15.2442 27.6824 17.8124 26.6793C18.5706 26.3829 18.2418 25.1275 17.4741 25.4273C15.0484 26.3749 12.7067 25.3629 10.2519 25.1551C10.3087 25.58 10.3648 26.0048 10.4212 26.4301C13.6354 25.706 17.3103 25.8679 20.2857 24.3085C20.7445 24.0682 20.6837 23.2044 20.1334 23.1224C16.0808 22.5175 11.9988 23.0863 7.9373 23.2871C7.9937 23.712 8.05011 24.137 8.10636 24.5621C10.4813 24.0188 12.9608 23.6766 15.3859 23.4558C17.2944 23.2819 19.2231 23.3148 21.1109 22.9414C21.876 22.7897 21.5958 21.7455 20.9418 21.6664C18.623 21.3858 16.1601 21.6505 13.8347 21.7065C10.8574 21.778 7.87122 21.6728 4.89734 21.7987C4.95375 22.2237 5.01027 22.6485 5.06641 23.0737C8.52221 22.3644 11.9852 21.8206 15.5042 21.572C17.241 21.4494 18.9849 21.4337 20.7251 21.4311C21.8997 21.4294 23.0386 21.6664 24.1383 21.1295C24.6756 20.867 24.4596 20.1116 23.9864 19.9429C22.5575 19.4342 21.0412 19.6038 19.5548 19.5791C17.3819 19.5432 15.2092 19.5112 13.0356 19.5515C10.8731 19.5916 8.71772 19.8112 6.55831 19.9199C5.64652 19.9658 4.27818 20.0173 3.43681 19.6373C3.43681 20.011 3.43681 20.3847 3.43681 20.7584C4.90978 19.8649 6.82615 19.8013 8.49033 19.6722C10.2631 19.5351 12.0249 19.3274 13.7942 19.1783C17.9803 18.8258 22.3094 19.8008 26.3622 18.2276C26.7635 18.0718 26.9352 17.6755 26.7425 17.2742C26.0815 15.8973 23.9898 16.1244 22.7405 16.0365C20.6997 15.8925 18.6371 15.9929 16.595 16.0426C11.6973 16.1617 6.81621 16.1077 1.9198 16.3822C1.97619 16.8072 2.03247 17.2321 2.08909 17.6572C6.39717 16.5372 10.8833 16.3881 15.3013 16.1176C17.5641 15.979 19.8242 15.8063 22.0817 15.5957C23.7108 15.4435 25.4373 15.6468 26.9381 14.864C27.3411 14.6538 27.3665 13.9452 26.9381 13.7429C25.6108 13.1164 24.1014 13.3063 22.6811 13.3551C20.3448 13.4349 17.9599 13.1374 15.6258 13.0259C13.104 12.9056 10.5835 12.8825 8.05931 12.9017C6.8786 12.9108 5.69801 12.9242 4.5173 12.9291C3.37611 12.9336 2.17208 13.2206 1.04417 12.9955C1.04417 13.4128 1.04417 13.8301 1.04417 14.2474C3.02494 13.627 5.22998 13.6813 7.2838 13.5351C9.58054 13.3718 11.8771 13.2075 14.1768 13.0985C16.4058 12.9928 18.6341 12.8796 20.8633 12.7816C22.6404 12.7032 24.6996 13.0097 26.4104 12.4574C27.0361 12.2553 26.9959 11.4235 26.4104 11.2055C24.5945 10.5295 22.5068 10.5285 20.5984 10.3766C18.3489 10.1975 16.1043 10.1492 13.8482 10.1632C11.6276 10.1772 9.40803 10.2739 7.19416 10.4487C5.1141 10.6127 3.00007 11.1507 0.916926 11.0972C0.973332 11.522 1.02974 11.947 1.08587 12.3721C5.18342 11.4143 9.35391 10.9537 13.5344 10.5675C17.4863 10.2027 21.4754 10.2543 25.4072 9.68689C26.1412 9.58089 25.9271 8.43014 25.2379 8.41196C21.0242 8.29958 16.8335 7.80647 12.6235 7.66152C10.4732 7.58752 8.31809 7.72866 6.17555 7.90138C4.3824 8.04583 2.55838 8.03827 0.789658 8.39241C0.0896956 8.53263 0.243792 9.73957 0.95858 9.66739C4.68068 9.29114 8.36144 8.61164 12.0675 8.11069C15.9427 7.58701 19.8472 7.45941 23.7336 7.06751C24.5363 6.98665 24.5688 5.78768 23.7336 5.76945C16.6762 5.61607 9.61458 4.54677 2.58624 5.70729C2.69905 6.1246 2.81193 6.54188 2.92474 6.95919C5.94877 6.18506 9.06533 6.12262 12.1582 5.87388C13.7994 5.74187 15.434 5.52814 17.0765 5.40334C18.4839 5.29659 19.9236 5.35803 21.3118 5.08372C21.864 4.97442 21.9191 4.16036 21.4639 3.89719C19.574 2.80505 16.7947 2.82653 14.6842 2.70588C11.7639 2.5388 8.8496 2.76647 5.93166 2.87121C5.98807 3.29611 6.04435 3.72095 6.10095 4.14619C8.16505 3.76028 10.1817 3.12669 12.2541 2.7911C13.2884 2.62367 14.3344 2.52793 15.3759 2.42144C16.1958 2.33752 16.9722 2.38821 17.7603 2.10024C18.3331 1.89055 18.3989 1.02982 17.7603 0.848342C16.436 0.472593 15.0613 0.500657 13.6991 0.543792C12.3608 0.586151 10.9156 0.466484 9.64895 0.976095C8.89447 1.27954 9.22291 2.53519 9.98694 2.22794Z" fill="#191918"/>
<path d="M9.98694 2.22794C11.0424 1.8033 12.2019 1.89197 13.3172 1.85497C14.6883 1.80991 16.0864 1.72111 17.4216 2.10019C17.4216 1.68291 17.4216 1.2656 17.4216 0.848292C16.6108 1.14521 15.7525 1.08485 14.9059 1.17154C13.9063 1.27364 12.9098 1.3933 11.9158 1.53938C9.84134 1.84433 7.82392 2.50878 5.76232 2.89422C5.0505 3.02758 5.22291 4.19448 5.93161 4.16917C8.53679 4.07587 11.1378 3.88926 13.746 3.9557C15.0963 3.99015 16.4601 4.09479 17.798 4.28188C18.7691 4.41779 19.9564 4.51818 20.8214 5.01816C20.8721 4.62261 20.9229 4.22718 20.9737 3.83163C19.3944 4.14376 17.6965 4.04998 16.0928 4.18357C14.4864 4.31765 12.8867 4.52404 11.279 4.64396C8.3621 4.86144 5.43604 4.97785 2.58621 5.70717C1.77489 5.91513 2.13279 7.08957 2.92472 6.95906C9.82491 5.81952 16.8047 6.9168 23.7335 7.06739C23.7335 6.63459 23.7335 6.20216 23.7335 5.76933C20.0081 6.1451 16.2679 6.28725 12.5494 6.74997C8.67751 7.23187 4.84214 7.97668 0.958556 8.36918C1.01508 8.79407 1.07149 9.21891 1.12762 9.64416C2.93491 9.28208 4.83571 9.30721 6.66992 9.15946C8.81769 8.98629 10.9687 8.9024 13.1225 8.97665C17.1656 9.11587 21.1906 9.6018 25.2379 9.70987C25.1818 9.28488 25.1253 8.86004 25.0688 8.4349C20.9351 9.0316 16.7152 8.97052 12.5576 9.36046C8.592 9.73211 4.63357 10.212 0.747833 11.1201C0.0295346 11.2882 0.214877 12.3771 0.916877 12.3951C2.85467 12.4448 4.79391 11.9636 6.72031 11.7869C8.93254 11.5838 11.1549 11.4997 13.3754 11.4662C15.4644 11.435 17.5464 11.4698 19.6319 11.6044C21.7237 11.7393 24.087 11.7182 26.0722 12.4573C26.0722 12.04 26.0722 11.6227 26.0722 11.2054C25.1486 11.5037 24.1871 11.4083 23.2321 11.3954C22.1298 11.3808 21.0153 11.4759 19.9147 11.5261C17.6757 11.6282 15.4362 11.7342 13.1976 11.8485C10.8948 11.9665 8.59477 12.1447 6.2943 12.3072C4.43647 12.4382 2.49942 12.4339 0.706057 12.9955C0.140284 13.1727 0.0570993 14.1178 0.706057 14.2474C1.56058 14.4177 2.38089 14.3518 3.24347 14.2704C4.3351 14.1675 5.44814 14.2233 6.5436 14.2136C8.90323 14.1929 11.2619 14.171 13.621 14.2433C15.9547 14.3145 18.2857 14.4644 20.6171 14.584C21.531 14.6309 22.4323 14.6656 23.3461 14.6276C24.2916 14.5883 25.412 14.4467 26.2959 14.8639C26.2959 14.4902 26.2959 14.1165 26.2959 13.7428C24.8387 14.5032 22.7184 14.2412 21.1157 14.3862C18.8587 14.5904 16.5969 14.7429 14.3346 14.8779C10.1237 15.1288 5.85432 15.3385 1.75051 16.4054C1.06204 16.5843 1.19557 17.7209 1.91983 17.6802C6.33801 17.4325 10.7361 17.4465 15.1565 17.3725C16.8962 17.3433 18.6348 17.2815 20.375 17.2754C21.1641 17.2728 21.9524 17.29 22.7405 17.3345C23.4323 17.3732 25.2877 17.1875 25.6436 17.9292C25.7705 17.6116 25.8972 17.2937 26.0238 16.9757C21.7975 18.6165 17.2073 17.4773 12.8414 17.9749C11.0489 18.179 9.25693 18.2961 7.46006 18.4611C5.88316 18.6061 4.18054 18.797 2.79448 19.6372C2.4197 19.8646 2.34115 20.5534 2.79448 20.7583C5.1711 21.8314 8.58161 21.0856 11.0334 20.9311C13.2013 20.7942 15.3785 20.8184 17.5488 20.8455C19.4794 20.8693 21.8059 20.5388 23.6481 21.1948C23.5976 20.7993 23.5468 20.4038 23.496 20.0084C22.3956 20.5458 20.495 20.1297 19.3013 20.1401C17.5579 20.1554 15.817 20.2312 14.0803 20.3889C10.9313 20.6751 7.82647 21.186 4.72832 21.8217C4.02092 21.967 4.18518 23.1268 4.89736 23.0967C7.87124 22.9707 10.8574 23.0759 13.8347 23.0045C16.1601 22.9484 18.6231 22.6837 20.9418 22.9645C20.8853 22.5395 20.829 22.1146 20.7728 21.6895C18.7826 22.0835 16.7296 22.0058 14.7184 22.2241C12.4047 22.4753 10.0396 22.7907 7.76827 23.3102C7.06831 23.4704 7.22049 24.6207 7.93732 24.5851C11.8683 24.3907 15.8718 23.7883 19.7955 24.3742C19.7447 23.9787 19.694 23.5832 19.6432 23.188C16.8021 24.6767 13.1569 24.486 10.083 25.1782C9.34026 25.3455 9.57435 26.3958 10.2519 26.4531C12.846 26.673 15.2442 27.6824 17.8124 26.6793C18.5706 26.3829 18.2418 25.1275 17.4741 25.4273C15.0484 26.3749 12.7067 25.3629 10.2519 25.1551C10.3087 25.58 10.3648 26.0048 10.4212 26.4301C13.6354 25.706 17.3103 25.8679 20.2857 24.3085C20.7445 24.0682 20.6837 23.2044 20.1334 23.1224C16.0808 22.5175 11.9988 23.0863 7.9373 23.2871C7.9937 23.712 8.05011 24.137 8.10636 24.5621C10.4813 24.0188 12.9608 23.6766 15.3859 23.4558C17.2944 23.2819 19.2231 23.3148 21.1109 22.9414C21.876 22.7897 21.5958 21.7455 20.9418 21.6664C18.623 21.3858 16.1601 21.6505 13.8347 21.7065C10.8574 21.778 7.87122 21.6728 4.89734 21.7987C4.95375 22.2237 5.01027 22.6485 5.06641 23.0737C8.52221 22.3644 11.9852 21.8206 15.5042 21.572C17.241 21.4494 18.9849 21.4337 20.7251 21.4311C21.8997 21.4294 23.0386 21.6664 24.1383 21.1295C24.6756 20.867 24.4596 20.1116 23.9864 19.9429C22.5575 19.4342 21.0412 19.6038 19.5548 19.5791C17.3819 19.5432 15.2092 19.5112 13.0356 19.5515C10.8731 19.5916 8.71772 19.8112 6.55831 19.9199C5.64652 19.9658 4.27818 20.0173 3.43681 19.6373C3.43681 20.011 3.43681 20.3847 3.43681 20.7584C4.90978 19.8649 6.82615 19.8013 8.49033 19.6722C10.2631 19.5351 12.0249 19.3274 13.7942 19.1783C17.9803 18.8258 22.3094 19.8008 26.3622 18.2276C26.7635 18.0718 26.9352 17.6755 26.7425 17.2742C26.0815 15.8973 23.9898 16.1244 22.7405 16.0365C20.6997 15.8925 18.6371 15.9929 16.595 16.0426C11.6973 16.1617 6.81621 16.1077 1.9198 16.3822C1.97619 16.8072 2.03247 17.2321 2.08909 17.6572C6.39717 16.5372 10.8833 16.3881 15.3013 16.1176C17.5641 15.979 19.8242 15.8063 22.0817 15.5957C23.7108 15.4435 25.4373 15.6468 26.9381 14.864C27.3411 14.6538 27.3665 13.9452 26.9381 13.7429C25.6108 13.1164 24.1014 13.3063 22.6811 13.3551C20.3448 13.4349 17.9599 13.1374 15.6258 13.0259C13.104 12.9056 10.5835 12.8825 8.05931 12.9017C6.8786 12.9108 5.69801 12.9242 4.5173 12.9291C3.37611 12.9336 2.17208 13.2206 1.04417 12.9955C1.04417 13.4128 1.04417 13.8301 1.04417 14.2474C3.02494 13.627 5.22998 13.6813 7.2838 13.5351C9.58054 13.3718 11.8771 13.2075 14.1768 13.0985C16.4058 12.9928 18.6341 12.8796 20.8633 12.7816C22.6404 12.7032 24.6996 13.0097 26.4104 12.4574C27.0361 12.2553 26.9959 11.4235 26.4104 11.2055C24.5945 10.5295 22.5068 10.5285 20.5984 10.3766C18.3489 10.1975 16.1043 10.1492 13.8482 10.1632C11.6276 10.1772 9.40803 10.2739 7.19416 10.4487C5.1141 10.6127 3.00007 11.1507 0.916926 11.0972C0.973332 11.522 1.02974 11.947 1.08587 12.3721C5.18342 11.4143 9.35391 10.9537 13.5344 10.5675C17.4863 10.2027 21.4754 10.2543 25.4072 9.68689C26.1412 9.58089 25.9271 8.43014 25.2379 8.41196C21.0242 8.29958 16.8335 7.80647 12.6235 7.66152C10.4732 7.58752 8.31809 7.72866 6.17555 7.90138C4.3824 8.04583 2.55838 8.03827 0.789658 8.39241C0.0896956 8.53263 0.243792 9.73957 0.95858 9.66739C4.68068 9.29114 8.36144 8.61164 12.0675 8.11069C15.9427 7.58701 19.8472 7.45941 23.7336 7.06751C24.5363 6.98665 24.5688 5.78768 23.7336 5.76945C16.6762 5.61607 9.61458 4.54677 2.58624 5.70729C2.69905 6.1246 2.81193 6.54188 2.92474 6.95919C5.94877 6.18506 9.06533 6.12262 12.1582 5.87388C13.7994 5.74187 15.434 5.52814 17.0765 5.40334C18.4839 5.29659 19.9236 5.35803 21.3118 5.08372C21.864 4.97442 21.9191 4.16036 21.4639 3.89719C19.574 2.80505 16.7947 2.82653 14.6842 2.70588C11.7639 2.5388 8.8496 2.76647 5.93166 2.87121C5.98807 3.29611 6.04435 3.72095 6.10095 4.14619C8.16505 3.76028 10.1817 3.12669 12.2541 2.7911C13.2884 2.62367 14.3344 2.52793 15.3759 2.42144C16.1958 2.33752 16.9722 2.38821 17.7603 2.10024C18.3331 1.89055 18.3989 1.02982 17.7603 0.848342C16.436 0.472593 15.0613 0.500657 13.6991 0.543792C12.3608 0.586151 10.9156 0.466484 9.64895 0.976095C8.89447 1.27954 9.22291 2.53519 9.98694 2.22794Z" fill="black" fill-opacity="0.2"/>
<path d="M7.27735 18.9107C7.27735 18.9107 7.08676 14.7448 7.41088 13.9467C7.41088 13.9467 7.6592 12.7988 8.65121 12.545C8.65121 12.545 12.831 12.0394 18.5371 12.545C18.5371 12.545 19.6442 12.779 19.7965 14.005C19.7965 14.005 20.2546 17.4509 19.7778 19.8254C19.7778 19.8254 19.6442 21.0514 18.2701 21.207C18.2701 21.207 12.831 21.6165 8.86122 21.207C8.86122 21.207 7.33481 21.1875 7.27735 18.9107Z" fill="white"/>
<path d="M10.8072 7.99807L10.1994 5.69105H9.26562L10.357 9.18047V11.5682H11.2124V9.18047L12.2594 5.67969H11.4152L10.8072 7.99807Z" fill="white"/>
<path d="M16.6712 7.17188V10.5351C16.0109 11.2078 15.9846 10.6958 15.9846 10.6958V7.19496H15.2308L15.2188 10.8794C15.2188 11.2787 15.3668 11.4286 15.3668 11.4286C15.9475 12.021 16.6711 11.0977 16.6711 11.0977V11.5452H17.4365V7.17188H16.6712Z" fill="white"/>
<path d="M13.4185 7.09084C12.2664 7.09084 12.302 8.27287 12.302 8.27287C12.302 8.27287 12.293 9.4444 12.293 10.5342C12.293 11.6162 13.4185 11.6016 13.4185 11.6016C14.5981 11.6016 14.5549 10.4767 14.5549 10.4767V8.1919C14.5549 7.01466 13.4185 7.09084 13.4185 7.09084ZM13.7341 10.4275C13.7341 10.4275 13.768 10.8403 13.4483 10.8403C13.4483 10.8403 13.0824 10.9315 13.0824 10.4275V8.21171C13.0824 8.21171 13.0676 7.87611 13.4183 7.85939C13.4183 7.85939 13.7247 7.84642 13.7341 8.2216V10.4275Z" fill="white"/>
<path d="M10.7698 15.3627L11.5535 15.3516V18.9424C11.5535 18.9424 11.5313 19.5052 12.2375 18.7847V15.3516H13.0437V19.8089H12.2483V19.3367C12.2483 19.3367 10.7588 20.6983 10.7588 19.0775C10.7588 17.4568 10.7698 15.3627 10.7698 15.3627Z" fill="black"/>
<path d="M8.85543 19.7879V14.6886H7.92773V13.8672H10.6539V14.6999H9.72733V19.7879H8.85543Z" fill="black"/>
<path d="M14.4926 15.7751V13.875H13.6992V19.8L14.4926 19.8111V19.3613C15.9368 20.5752 15.9924 19.013 15.9924 19.013V16.2699C15.8927 14.4596 14.4926 15.7751 14.4926 15.7751ZM15.2091 18.7991C15.2091 18.7991 15.132 19.2823 14.4817 18.9002V16.2246C14.4817 16.2246 15.2091 15.6848 15.2091 16.416C15.2091 17.1466 15.2091 18.7991 15.2091 18.7991Z" fill="black"/>
<path d="M18.9545 17.7193V16.4537C18.9545 16.4537 18.8911 15.2852 17.8094 15.2852C17.8094 15.2852 16.624 15.253 16.624 16.494C16.624 17.7353 16.624 18.7089 16.624 18.7089C16.624 18.7089 16.6561 19.828 17.8887 19.828C17.8887 19.828 18.9461 19.7875 18.9461 18.855V18.2301H18.1592V18.6846C18.1592 18.6846 18.1348 19.0984 17.8094 19.0984C17.8094 19.0984 17.3956 19.1552 17.3956 18.6198C17.3956 18.0843 17.3956 17.7193 17.3956 17.7193H18.9545ZM17.4035 16.494C17.4035 16.494 17.3956 16.0318 17.7692 16.0318C18.143 16.0318 18.1751 16.5018 18.1751 16.5018V17.0378H17.3956L17.4035 16.494Z" fill="black"/>
</svg>
